M48
; DRILL file {KiCad 9.0.2} date 2025-06-26T01:43:18+0100
; FORMAT={-:-/ absolute / metric / decimal}
; #@! TF.CreationDate,2025-06-26T01:43:18+01:00
; #@! TF.GenerationSoftware,Kicad,Pcbnew,9.0.2
; #@! TF.FileFunction,Plated,1,4,PTH
FMAT,2
METRIC
; #@! TA.AperFunction,Plated,PTH,ViaDrill
T1C0.300
; #@! TA.AperFunction,Plated,PTH,ViaDrill
T2C0.400
; #@! TA.AperFunction,Plated,PTH,ComponentDrill
T3C0.500
; #@! TA.AperFunction,Plated,PTH,ComponentDrill
T4C1.000
; #@! TA.AperFunction,Plated,PTH,ComponentDrill
T5C1.700
; #@! TA.AperFunction,Plated,PTH,ComponentDrill
T6C3.200
%
G90
G05
T1
X52.75Y-60.25
X52.75Y-67.75
X52.75Y-72.75
X52.75Y-75.25
X52.75Y-77.75
X52.75Y-82.75
X52.75Y-90.25
X55.25Y-60.25
X55.25Y-67.75
X55.25Y-70.25
X55.25Y-72.75
X55.25Y-75.25
X55.25Y-77.75
X55.25Y-80.25
X55.25Y-82.75
X55.25Y-90.25
X57.75Y-60.25
X57.75Y-67.75
X57.75Y-70.25
X57.75Y-72.75
X57.75Y-75.25
X57.75Y-77.75
X57.75Y-80.25
X57.75Y-82.75
X57.75Y-90.25
X59.65Y-56.75
X60.25Y-52.75
X60.25Y-55.25
X60.25Y-60.25
X60.25Y-67.75
X60.25Y-70.25
X60.25Y-72.75
X60.25Y-75.25
X60.25Y-77.75
X60.25Y-80.25
X60.25Y-82.75
X60.25Y-90.25
X60.25Y-92.75
X60.25Y-95.25
X60.25Y-97.75
X61.93Y-62.01
X61.93Y-62.99
X62.75Y-67.75
X62.75Y-70.25
X62.75Y-75.25
X62.75Y-80.25
X62.75Y-90.55
X62.75Y-92.75
X63.0Y-51.25
X63.0Y-52.0
X63.0Y-52.75
X63.0Y-53.5
X63.0Y-54.25
X63.0Y-55.0
X63.0Y-55.75
X63.0Y-94.25
X63.0Y-95.0
X63.0Y-95.75
X63.0Y-96.5
X63.0Y-97.25
X63.0Y-98.0
X63.0Y-98.75
X63.52Y-85.95
X63.75Y-51.25
X63.75Y-52.0
X63.75Y-52.75
X63.75Y-53.5
X63.75Y-54.25
X63.75Y-55.0
X63.75Y-55.75
X63.75Y-94.25
X63.75Y-95.0
X63.75Y-95.75
X63.75Y-96.5
X63.75Y-97.25
X63.75Y-98.0
X63.75Y-98.75
X64.5Y-51.25
X64.5Y-52.0
X64.5Y-52.75
X64.5Y-53.5
X64.5Y-54.25
X64.5Y-55.0
X64.5Y-55.75
X64.5Y-94.25
X64.5Y-95.0
X64.5Y-95.75
X64.5Y-96.5
X64.5Y-97.25
X64.5Y-98.0
X64.5Y-98.75
X64.58Y-60.99
X65.25Y-51.25
X65.25Y-52.0
X65.25Y-52.75
X65.25Y-53.5
X65.25Y-54.25
X65.25Y-55.0
X65.25Y-55.75
X65.25Y-72.75
X65.25Y-75.25
X65.25Y-77.75
X65.25Y-80.25
X65.25Y-94.25
X65.25Y-95.0
X65.25Y-95.75
X65.25Y-96.5
X65.25Y-97.25
X65.25Y-98.0
X65.25Y-98.75
X65.75Y-66.75
X66.0Y-51.25
X66.0Y-52.0
X66.0Y-52.75
X66.0Y-53.5
X66.0Y-54.25
X66.0Y-55.0
X66.0Y-55.75
X66.0Y-94.25
X66.0Y-95.0
X66.0Y-95.75
X66.0Y-96.5
X66.0Y-97.25
X66.0Y-98.0
X66.0Y-98.75
X66.75Y-65.75
X66.75Y-69.35
X66.76Y-66.73
X67.75Y-69.35
X67.75Y-72.05
X67.75Y-77.75
X67.75Y-90.0
X67.75Y-91.0
X67.75Y-92.0
X67.75Y-93.0
X68.0Y-51.25
X68.0Y-52.0
X68.0Y-52.75
X68.0Y-53.5
X68.0Y-54.25
X68.0Y-55.0
X68.0Y-55.75
X68.0Y-94.25
X68.0Y-95.0
X68.0Y-95.75
X68.0Y-96.5
X68.0Y-97.25
X68.0Y-98.0
X68.0Y-98.75
X68.75Y-51.25
X68.75Y-52.0
X68.75Y-52.75
X68.75Y-53.5
X68.75Y-54.25
X68.75Y-55.0
X68.75Y-55.75
X68.75Y-72.05
X68.75Y-94.25
X68.75Y-95.0
X68.75Y-95.75
X68.75Y-96.5
X68.75Y-97.25
X68.75Y-98.0
X68.75Y-98.75
X68.751Y-72.899
X69.0Y-85.5
X69.0Y-86.75
X69.0Y-87.75
X69.0Y-88.75
X69.0Y-90.0
X69.35Y-69.518
X69.5Y-51.25
X69.5Y-52.0
X69.5Y-52.75
X69.5Y-53.5
X69.5Y-54.25
X69.5Y-55.0
X69.5Y-55.75
X69.5Y-94.25
X69.5Y-95.0
X69.5Y-95.75
X69.5Y-96.5
X69.5Y-97.25
X69.5Y-98.0
X69.5Y-98.75
X69.989Y-67.35
X70.25Y-51.25
X70.25Y-52.0
X70.25Y-52.75
X70.25Y-53.5
X70.25Y-54.25
X70.25Y-55.0
X70.25Y-55.75
X70.25Y-88.75
X70.25Y-90.0
X70.25Y-94.25
X70.25Y-95.0
X70.25Y-95.75
X70.25Y-96.5
X70.25Y-97.25
X70.25Y-98.0
X70.25Y-98.75
X70.492Y-69.968
X71.0Y-51.25
X71.0Y-52.0
X71.0Y-52.75
X71.0Y-53.5
X71.0Y-54.25
X71.0Y-55.0
X71.0Y-55.75
X71.0Y-94.25
X71.0Y-95.0
X71.0Y-95.75
X71.0Y-96.5
X71.0Y-97.25
X71.0Y-98.0
X71.0Y-98.75
X71.5Y-90.0
X71.5Y-91.0
X71.5Y-92.0
X71.5Y-93.0
X71.527Y-71.056
X72.35Y-72.95
X72.75Y-55.25
X73.25Y-75.6
X73.625Y-62.15
X73.64Y-58.79
X73.75Y-81.25
X73.75Y-82.25
X73.75Y-83.25
X74.07Y-74.733
X74.75Y-81.25
X74.75Y-82.25
X74.75Y-83.25
X75.25Y-52.75
X75.25Y-55.25
X75.43Y-91.52
X75.75Y-81.25
X75.75Y-82.25
X75.75Y-83.25
X75.75Y-84.25
X76.36Y-62.13
X76.375Y-58.5
X76.653Y-72.351
X76.7Y-73.15
X76.72Y-91.5
X76.75Y-81.25
X76.75Y-82.25
X76.75Y-83.25
X76.75Y-84.25
X77.572Y-68.818
X77.64Y-58.5
X77.64Y-66.34
X77.75Y-55.25
X77.75Y-83.25
X77.75Y-84.25
X77.75Y-85.25
X77.75Y-86.25
X77.75Y-87.25
X77.75Y-95.25
X78.17Y-72.303
X78.5Y-71.25
X78.75Y-83.25
X78.75Y-84.25
X78.75Y-85.25
X78.75Y-86.25
X78.75Y-87.25
X79.0Y-51.25
X79.0Y-52.0
X79.0Y-52.75
X79.0Y-53.5
X79.0Y-54.25
X79.0Y-55.0
X79.0Y-55.75
X79.0Y-67.754
X79.0Y-94.25
X79.0Y-95.0
X79.0Y-95.75
X79.0Y-96.5
X79.0Y-97.25
X79.0Y-98.0
X79.0Y-98.75
X79.75Y-51.25
X79.75Y-52.0
X79.75Y-52.75
X79.75Y-53.5
X79.75Y-54.25
X79.75Y-55.0
X79.75Y-55.75
X79.75Y-84.25
X79.75Y-85.25
X79.75Y-86.25
X79.75Y-87.25
X79.75Y-94.25
X79.75Y-95.0
X79.75Y-95.75
X79.75Y-96.5
X79.75Y-97.25
X79.75Y-98.0
X79.75Y-98.75
X80.25Y-77.75
X80.5Y-51.25
X80.5Y-52.0
X80.5Y-52.75
X80.5Y-53.5
X80.5Y-54.25
X80.5Y-55.0
X80.5Y-55.75
X80.5Y-94.25
X80.5Y-95.0
X80.5Y-95.75
X80.5Y-96.5
X80.5Y-97.25
X80.5Y-98.0
X80.5Y-98.75
X81.25Y-51.25
X81.25Y-52.0
X81.25Y-52.75
X81.25Y-53.5
X81.25Y-54.25
X81.25Y-55.0
X81.25Y-55.75
X81.25Y-94.25
X81.25Y-95.0
X81.25Y-95.75
X81.25Y-96.5
X81.25Y-97.25
X81.25Y-98.0
X81.25Y-98.75
X81.75Y-83.75
X82.0Y-51.25
X82.0Y-52.0
X82.0Y-52.75
X82.0Y-53.5
X82.0Y-54.25
X82.0Y-55.0
X82.0Y-55.75
X82.0Y-94.25
X82.0Y-95.0
X82.0Y-95.75
X82.0Y-96.5
X82.0Y-97.25
X82.0Y-98.0
X82.0Y-98.75
X82.75Y-80.25
X82.75Y-90.25
X84.0Y-51.25
X84.0Y-52.0
X84.0Y-52.75
X84.0Y-53.5
X84.0Y-54.25
X84.0Y-55.0
X84.0Y-55.75
X84.0Y-94.25
X84.0Y-95.0
X84.0Y-95.75
X84.0Y-96.5
X84.0Y-97.25
X84.0Y-98.0
X84.0Y-98.75
X84.75Y-51.25
X84.75Y-52.0
X84.75Y-52.75
X84.75Y-53.5
X84.75Y-54.25
X84.75Y-55.0
X84.75Y-55.75
X84.75Y-94.25
X84.75Y-95.0
X84.75Y-95.75
X84.75Y-96.5
X84.75Y-97.25
X84.75Y-98.0
X84.75Y-98.75
X85.25Y-80.25
X85.41Y-62.01
X85.5Y-51.25
X85.5Y-52.0
X85.5Y-52.75
X85.5Y-53.5
X85.5Y-54.25
X85.5Y-55.0
X85.5Y-55.75
X85.5Y-94.25
X85.5Y-95.0
X85.5Y-95.75
X85.5Y-96.5
X85.5Y-97.25
X85.5Y-98.0
X85.5Y-98.75
X86.16Y-62.91
X86.25Y-51.25
X86.25Y-52.0
X86.25Y-52.75
X86.25Y-53.5
X86.25Y-54.25
X86.25Y-55.0
X86.25Y-55.75
X86.25Y-94.25
X86.25Y-95.0
X86.25Y-95.75
X86.25Y-96.5
X86.25Y-97.25
X86.25Y-98.0
X86.25Y-98.75
X87.0Y-51.25
X87.0Y-52.0
X87.0Y-52.75
X87.0Y-53.5
X87.0Y-54.25
X87.0Y-55.0
X87.0Y-55.75
X87.0Y-94.25
X87.0Y-95.0
X87.0Y-95.75
X87.0Y-96.5
X87.0Y-97.25
X87.0Y-98.0
X87.0Y-98.75
X87.85Y-81.75
X87.85Y-83.722
X88.07Y-62.01
X88.07Y-63.0
X88.65Y-81.75
X88.65Y-83.75
X88.75Y-90.75
X88.75Y-91.75
X88.75Y-92.75
X89.45Y-81.75
X89.45Y-83.75
X89.5Y-60.25
X89.5Y-64.75
X90.25Y-81.75
X90.25Y-52.75
X90.25Y-55.25
X90.25Y-87.75
X90.25Y-90.75
X90.25Y-91.75
X90.25Y-92.75
X90.25Y-95.25
X90.25Y-97.75
X90.25Y-83.75
X90.35Y-56.75
X90.5Y-60.25
X90.5Y-64.75
X91.05Y-81.75
X91.05Y-83.75
X91.5Y-60.25
X91.5Y-64.75
X92.14Y-71.86
X92.75Y-85.25
X92.75Y-87.75
X92.75Y-90.25
X93.0Y-60.25
X93.0Y-64.75
X93.25Y-78.75
X93.25Y-79.75
X93.25Y-80.75
X93.25Y-82.25
X93.25Y-83.25
X93.25Y-84.25
X93.42Y-70.42
X93.43Y-68.42
X94.0Y-60.25
X94.0Y-64.75
X94.37Y-67.225
X95.0Y-60.25
X95.0Y-64.75
X96.25Y-61.24
X97.51Y-61.24
X97.75Y-57.75
X97.75Y-60.25
X97.75Y-78.75
X97.75Y-79.75
X97.75Y-80.75
X97.75Y-82.25
X97.75Y-87.75
X97.75Y-90.25
X98.34Y-69.22
T2
X53.5Y-61.75
X53.5Y-63.0
X53.5Y-64.25
X53.5Y-65.5
X53.5Y-84.25
X53.5Y-85.5
X53.5Y-86.75
X53.5Y-88.0
X54.75Y-61.75
X54.75Y-63.0
X54.75Y-64.25
X54.75Y-65.5
X54.75Y-84.25
X54.75Y-85.5
X54.75Y-86.75
X54.75Y-88.0
X56.0Y-61.75
X56.0Y-63.0
X56.0Y-64.25
X56.0Y-65.5
X56.0Y-84.25
X56.0Y-85.5
X56.0Y-86.75
X56.0Y-88.0
X57.25Y-61.75
X57.25Y-63.0
X57.25Y-64.25
X57.25Y-65.5
X57.25Y-84.25
X57.25Y-85.5
X57.25Y-86.75
X57.25Y-88.0
X58.5Y-61.75
X58.5Y-63.0
X58.5Y-64.25
X58.5Y-65.5
X58.5Y-84.25
X58.5Y-85.5
X58.5Y-86.75
X58.5Y-88.0
X64.0Y-64.0
X69.25Y-80.5
X69.25Y-82.0
X69.36Y-63.68
X70.5Y-79.0
X70.5Y-80.5
X70.5Y-82.0
X71.4Y-66.24
X71.75Y-79.0
X71.75Y-80.5
X71.75Y-82.0
X73.25Y-65.25
X73.28Y-89.68
X74.0Y-69.75
X74.0Y-71.25
X74.75Y-65.25
X74.78Y-95.85
X74.95Y-77.75
X75.0Y-79.25
X75.48Y-95.13
X76.5Y-79.25
X76.55Y-77.75
X76.67Y-66.29
X77.98Y-89.68
X80.25Y-70.0
X80.25Y-71.25
X80.25Y-72.5
X81.29Y-66.75
X82.0Y-70.0
X82.0Y-71.25
X82.0Y-72.5
X82.56Y-66.75
X83.5Y-70.0
X83.5Y-71.25
X83.5Y-72.5
X83.83Y-66.75
X85.355Y-63.681
X87.5Y-68.25
X87.5Y-69.5
X87.5Y-70.75
X88.35Y-61.05
X88.35Y-66.7
X89.0Y-68.25
X89.0Y-69.5
X89.0Y-70.75
X89.65Y-66.7
X90.5Y-68.25
X90.5Y-69.5
X90.5Y-70.75
X90.9Y-66.7
T3
X52.6Y-55.0
X52.6Y-95.0
X53.303Y-53.303
X53.303Y-56.697
X53.303Y-93.303
X53.303Y-96.697
X55.0Y-52.6
X55.0Y-57.4
X55.0Y-92.6
X55.0Y-97.4
X56.697Y-53.303
X56.697Y-56.697
X56.697Y-93.303
X56.697Y-96.697
X57.4Y-55.0
X57.4Y-95.0
X92.6Y-55.0
X92.6Y-95.0
X93.303Y-53.303
X93.303Y-56.697
X93.303Y-93.303
X93.303Y-96.697
X95.0Y-52.6
X95.0Y-57.4
X95.0Y-92.6
X95.0Y-97.4
X96.697Y-53.303
X96.697Y-56.697
X96.697Y-93.303
X96.697Y-96.697
X97.4Y-55.0
X97.4Y-95.0
T4
X53.162Y-69.5
X53.162Y-80.5
X61.5Y-53.25
X61.5Y-96.75
X72.5Y-53.25
X72.5Y-96.75
X77.5Y-53.25
X77.5Y-96.75
X88.5Y-53.25
X88.5Y-96.75
T5
X63.162Y-72.5
X63.162Y-77.5
X64.5Y-58.25
X64.5Y-91.75
X69.5Y-58.25
X69.5Y-91.75
X80.5Y-58.25
X80.5Y-91.75
X85.5Y-58.25
X85.5Y-91.75
T6
X55.0Y-55.0
X55.0Y-95.0
X95.0Y-55.0
X95.0Y-95.0
M30
