M48
; DRILL file {KiCad 9.0.2} date 2025-07-12T22:56:39+0100
; FORMAT={-:-/ absolute / metric / decimal}
; #@! TF.CreationDate,2025-07-12T22:56:39+01:00
; #@! TF.GenerationSoftware,Kicad,Pcbnew,9.0.2
; #@! TF.FileFunction,Plated,1,4,PTH
FMAT,2
METRIC
; #@! TA.AperFunction,Plated,PTH,ComponentDrill
T1C0.200
; #@! TA.AperFunction,Plated,PTH,ViaDrill
T2C0.300
; #@! TA.AperFunction,Plated,PTH,ViaDrill
T3C0.400
; #@! TA.AperFunction,Plated,PTH,ComponentDrill
T4C0.500
; #@! TA.AperFunction,Plated,PTH,ComponentDrill
T5C0.600
; #@! TA.AperFunction,Plated,PTH,ComponentDrill
T6C3.200
%
G90
G05
T1
X122.1Y-64.76
X122.1Y-66.16
X122.8Y-64.06
X122.8Y-65.46
X122.8Y-66.86
X123.5Y-64.76
X123.5Y-66.16
X124.2Y-64.06
X124.2Y-65.46
X124.2Y-66.86
X124.9Y-64.76
X124.9Y-66.16
T2
X101.15Y-66.15
X101.15Y-75.14
X102.0Y-83.0
X102.0Y-85.0
X102.5Y-60.0
X102.5Y-75.0
X102.5Y-90.0
X103.8Y-85.88
X104.041Y-71.555
X104.6Y-77.7
X104.75Y-62.75
X104.75Y-63.8
X104.75Y-69.29
X104.75Y-71.8
X104.9Y-66.1
X105.0Y-90.0
X105.07Y-81.26
X105.7Y-77.2
X105.736Y-73.564
X105.79Y-74.55
X105.83Y-80.2
X105.94Y-61.47
X106.34Y-76.03
X106.54Y-79.43
X106.9Y-75.48
X107.45Y-85.5
X107.46Y-82.5
X107.55Y-81.7
X107.76Y-71.48
X107.785Y-69.52
X107.87Y-72.28
X107.9Y-75.48
X108.36Y-70.17
X108.747Y-71.555
X108.935Y-70.83
X109.429Y-56.654
X109.5Y-75.4
X109.5Y-83.25
X109.5Y-84.75
X109.51Y-71.47
X110.021Y-72.025
X110.09Y-70.83
X110.261Y-56.661
X110.49Y-75.97
X110.67Y-70.19
X111.0Y-73.87
X111.25Y-69.52
X111.28Y-80.24
X111.4Y-73.23
X111.47Y-83.029
X111.5Y-88.0
X111.755Y-84.497
X111.8Y-60.731
X111.8Y-61.865
X112.31Y-82.76
X112.419Y-61.359
X112.43Y-72.433
X112.438Y-62.402
X112.5Y-85.75
X112.549Y-60.62
X112.98Y-84.36
X113.025Y-61.8
X113.07Y-91.2
X113.18Y-72.41
X113.19Y-61.01
X113.25Y-77.65
X113.5Y-88.21
X113.626Y-69.3
X113.8Y-91.21
X114.05Y-56.3
X114.1Y-86.0
X114.136Y-79.789
X114.229Y-64.414
X114.233Y-63.664
X114.7Y-88.2
X114.725Y-86.415
X114.735Y-80.24
X114.74Y-62.24
X114.75Y-78.25
X114.811Y-56.836
X115.35Y-86.0
X115.351Y-79.812
X115.9Y-78.21
X116.06Y-88.92
X116.375Y-56.84
X116.636Y-78.355
X117.3Y-76.96
X117.43Y-61.39
X117.69Y-62.12
X117.71Y-64.72
X117.95Y-73.15
X117.95Y-88.9
X117.98Y-69.85
X118.0Y-66.0
X118.18Y-60.8
X118.27Y-76.97
X118.5Y-78.0
X119.0Y-66.0
X119.0Y-67.0
X119.01Y-73.15
X119.31Y-88.19
X119.41Y-67.9
X119.8Y-77.0
X119.96Y-62.82
X120.009Y-74.009
X120.2Y-91.21
X120.5Y-82.0
X120.5Y-88.2
X120.55Y-80.26
X120.6Y-78.75
X120.695Y-63.51
X120.88Y-91.21
X121.24Y-64.072
X121.8Y-73.5
X122.0Y-72.0
X123.0Y-72.0
X123.0Y-73.0
X123.09Y-82.14
X123.651Y-86.434
X123.7Y-76.675
X123.73Y-78.118
X123.83Y-79.08
X124.0Y-72.0
X124.0Y-73.0
X124.0Y-83.8
X124.1Y-84.9
X124.365Y-86.665
X124.5Y-78.75
X124.7Y-85.45
X124.75Y-84.35
X125.0Y-59.0
X125.0Y-72.0
X125.0Y-73.0
X125.416Y-82.688
X125.5Y-78.76
X125.63Y-68.75
X125.635Y-86.585
X126.0Y-58.0
X126.0Y-59.0
X126.0Y-65.0
X126.0Y-66.0
X126.26Y-71.15
X126.26Y-82.38
X126.779Y-71.7
X126.89Y-89.15
X126.9Y-86.58
X126.91Y-76.69
X126.91Y-81.92
X126.99Y-74.25
X127.0Y-57.0
X127.0Y-58.0
X127.0Y-59.0
X127.0Y-69.0
X127.0Y-73.0
X127.453Y-79.434
X127.67Y-71.71
X127.7Y-72.459
X127.972Y-64.755
X128.0Y-57.0
X128.0Y-58.0
X128.0Y-61.0
X128.0Y-62.0
X128.0Y-66.0
X128.09Y-94.09
X128.201Y-79.498
X128.25Y-73.0
X128.25Y-78.75
X128.25Y-90.5
X128.32Y-67.11
X129.0Y-57.0
X129.0Y-58.0
X129.0Y-60.0
X129.0Y-61.0
X129.0Y-62.0
X129.29Y-72.98
X129.29Y-81.92
X129.3Y-92.975
X129.691Y-93.652
X129.769Y-92.389
X129.8Y-72.43
X129.804Y-96.123
X129.848Y-70.99
X129.848Y-81.378
X129.848Y-85.48
X130.0Y-57.0
X130.0Y-58.0
X130.0Y-60.0
X130.0Y-61.0
X130.0Y-62.0
X130.398Y-80.75
X130.398Y-86.03
X130.4Y-70.44
X130.948Y-71.16
X130.948Y-80.24
X130.948Y-82.45
X131.0Y-57.0
X131.0Y-58.0
X131.0Y-60.0
X131.0Y-61.0
X131.0Y-62.0
X131.499Y-83.0
X131.5Y-71.71
X131.503Y-79.736
X132.0Y-57.0
X132.0Y-58.0
X132.0Y-60.0
X132.0Y-68.0
X132.01Y-68.85
X132.01Y-69.6
X132.04Y-67.15
X132.049Y-80.25
X132.3Y-61.52
X132.3Y-62.27
X132.6Y-79.66
X133.0Y-96.17
X133.0Y-96.92
X133.0Y-97.75
X133.15Y-80.17
X133.703Y-77.538
X134.125Y-56.835
X134.29Y-75.91
X134.7Y-90.1
X134.77Y-78.75
X134.78Y-76.75
X134.78Y-77.72
X134.78Y-79.75
X134.78Y-80.8
X135.38Y-56.83
X135.7Y-90.125
X135.75Y-85.5
X136.1Y-93.5
X136.26Y-68.47
X136.4Y-92.2
X136.48Y-70.26
X136.6Y-56.82
X136.75Y-92.95
X137.25Y-60.75
X137.25Y-73.75
X137.6Y-92.37
X137.83Y-56.81
X138.06Y-62.82
X138.349Y-92.338
X138.4Y-70.16
X138.99Y-63.51
X139.0Y-59.87
X139.04Y-75.5
X139.25Y-71.46
X139.25Y-79.0
X139.25Y-82.0
X139.8Y-72.49
X139.99Y-89.75
X139.991Y-64.4
X140.45Y-84.725
X140.73Y-64.27
X140.75Y-60.75
X140.75Y-73.75
X141.35Y-65.0
X141.49Y-69.27
X141.51Y-70.23
X141.54Y-66.04
X141.9Y-76.29
X142.09Y-68.64
X142.09Y-71.37
X142.1Y-85.29
X142.101Y-80.601
X142.101Y-83.621
X142.17Y-75.2
X142.35Y-86.618
X142.6Y-65.64
X142.76Y-71.8
X142.76Y-73.1
X142.76Y-74.4
X142.95Y-60.4
X142.95Y-62.82
X142.958Y-63.57
X143.5Y-86.475
X143.63Y-82.34
X143.69Y-85.23
X143.7Y-60.4
X143.74Y-80.01
X145.0Y-87.99
X145.9Y-71.875
X146.25Y-79.25
X146.25Y-80.5
X146.43Y-68.87
X146.49Y-73.1
X146.5Y-74.4
X147.36Y-85.925
X147.447Y-64.075
X148.11Y-85.925
X148.225Y-64.075
X149.17Y-75.2
X149.17Y-81.75
T3
X124.0Y-92.0
X124.0Y-93.0
X125.0Y-92.0
X125.0Y-93.0
X126.0Y-92.0
X126.0Y-93.0
X135.0Y-82.25
X135.0Y-83.25
X135.0Y-84.25
X136.0Y-82.25
X136.0Y-83.25
X136.0Y-84.25
X137.75Y-77.0
X137.75Y-78.0
X137.75Y-83.0
X137.75Y-84.0
X138.75Y-77.0
X138.75Y-78.0
X138.75Y-83.0
X138.75Y-84.0
X139.75Y-77.0
X139.75Y-78.0
X139.75Y-83.0
X139.75Y-84.0
X144.5Y-89.0
X144.5Y-90.0
X144.5Y-91.0
X145.5Y-89.0
X145.5Y-90.0
X145.5Y-91.0
T4
X102.6Y-55.0
X102.6Y-95.0
X103.303Y-53.303
X103.303Y-56.697
X103.303Y-93.303
X103.303Y-96.697
X105.0Y-52.6
X105.0Y-57.4
X105.0Y-92.6
X105.0Y-97.4
X106.697Y-53.303
X106.697Y-56.697
X106.697Y-93.303
X106.697Y-96.697
X107.4Y-55.0
X107.4Y-95.0
X142.6Y-55.0
X142.6Y-95.0
X143.303Y-53.303
X143.303Y-56.697
X143.303Y-93.303
X143.303Y-96.697
X145.0Y-52.6
X145.0Y-57.4
X145.0Y-92.6
X145.0Y-97.4
X146.697Y-53.303
X146.697Y-56.697
X146.697Y-93.303
X146.697Y-96.697
X147.4Y-55.0
X147.4Y-95.0
T6
X105.0Y-55.0
X105.0Y-95.0
X145.0Y-55.0
X145.0Y-95.0
T5
G00X112.68Y-92.245
M15
G01X112.68Y-93.345
M16
G05
G00X112.68Y-96.575
M15
G01X112.68Y-97.375
M16
G05
G00X121.32Y-92.245
M15
G01X121.32Y-93.345
M16
G05
G00X121.32Y-96.575
M15
G01X121.32Y-97.375
M16
G05
M30
