%TF.GenerationSoftware,KiCad,Pcbnew,9.0.2*%
%TF.CreationDate,2025-07-11T17:32:00+01:00*%
%TF.ProjectId,MCU_AURA,4d43555f-4155-4524-912e-6b696361645f,rev?*%
%TF.SameCoordinates,Original*%
%TF.FileFunction,Soldermask,Top*%
%TF.FilePolarity,Negative*%
%FSLAX46Y46*%
G04 Gerber Fmt 4.6, Leading zero omitted, Abs format (unit mm)*
G04 Created by KiCad (PCBNEW 9.0.2) date 2025-07-11 17:32:00*
%MOMM*%
%LPD*%
G01*
G04 APERTURE LIST*
G04 Aperture macros list*
%AMRoundRect*
0 Rectangle with rounded corners*
0 $1 Rounding radius*
0 $2 $3 $4 $5 $6 $7 $8 $9 X,Y pos of 4 corners*
0 Add a 4 corners polygon primitive as box body*
4,1,4,$2,$3,$4,$5,$6,$7,$8,$9,$2,$3,0*
0 Add four circle primitives for the rounded corners*
1,1,$1+$1,$2,$3*
1,1,$1+$1,$4,$5*
1,1,$1+$1,$6,$7*
1,1,$1+$1,$8,$9*
0 Add four rect primitives between the rounded corners*
20,1,$1+$1,$2,$3,$4,$5,0*
20,1,$1+$1,$4,$5,$6,$7,0*
20,1,$1+$1,$6,$7,$8,$9,0*
20,1,$1+$1,$8,$9,$2,$3,0*%
G04 Aperture macros list end*
%ADD10R,0.650000X1.650000*%
%ADD11RoundRect,0.140000X-0.140000X-0.170000X0.140000X-0.170000X0.140000X0.170000X-0.140000X0.170000X0*%
%ADD12R,0.599999X0.299999*%
%ADD13R,1.599999X2.400000*%
%ADD14RoundRect,0.150000X-0.150000X0.587500X-0.150000X-0.587500X0.150000X-0.587500X0.150000X0.587500X0*%
%ADD15RoundRect,0.125000X0.175000X0.125000X-0.175000X0.125000X-0.175000X-0.125000X0.175000X-0.125000X0*%
%ADD16RoundRect,0.140000X-0.170000X0.140000X-0.170000X-0.140000X0.170000X-0.140000X0.170000X0.140000X0*%
%ADD17C,0.750000*%
%ADD18R,1.000000X1.550000*%
%ADD19R,0.600000X1.200000*%
%ADD20RoundRect,0.135000X0.135000X0.185000X-0.135000X0.185000X-0.135000X-0.185000X0.135000X-0.185000X0*%
%ADD21R,1.600000X0.800000*%
%ADD22R,3.000000X2.100000*%
%ADD23RoundRect,0.150000X0.150000X-0.587500X0.150000X0.587500X-0.150000X0.587500X-0.150000X-0.587500X0*%
%ADD24RoundRect,0.140000X0.140000X0.170000X-0.140000X0.170000X-0.140000X-0.170000X0.140000X-0.170000X0*%
%ADD25RoundRect,0.135000X0.185000X-0.135000X0.185000X0.135000X-0.185000X0.135000X-0.185000X-0.135000X0*%
%ADD26RoundRect,0.135000X-0.185000X0.135000X-0.185000X-0.135000X0.185000X-0.135000X0.185000X0.135000X0*%
%ADD27R,0.500000X0.350000*%
%ADD28RoundRect,0.125000X-0.125000X0.175000X-0.125000X-0.175000X0.125000X-0.175000X0.125000X0.175000X0*%
%ADD29RoundRect,0.218750X-0.218750X-0.256250X0.218750X-0.256250X0.218750X0.256250X-0.218750X0.256250X0*%
%ADD30RoundRect,0.140000X0.170000X-0.140000X0.170000X0.140000X-0.170000X0.140000X-0.170000X-0.140000X0*%
%ADD31C,0.800000*%
%ADD32C,6.400000*%
%ADD33C,1.000000*%
%ADD34RoundRect,0.135000X-0.135000X-0.185000X0.135000X-0.185000X0.135000X0.185000X-0.135000X0.185000X0*%
%ADD35R,1.475000X0.450000*%
%ADD36RoundRect,0.050000X-0.225000X-0.050000X0.225000X-0.050000X0.225000X0.050000X-0.225000X0.050000X0*%
%ADD37RoundRect,0.050000X0.050000X-0.225000X0.050000X0.225000X-0.050000X0.225000X-0.050000X-0.225000X0*%
%ADD38RoundRect,0.125000X0.125000X-0.175000X0.125000X0.175000X-0.125000X0.175000X-0.125000X-0.175000X0*%
%ADD39RoundRect,0.150000X0.150000X-0.512500X0.150000X0.512500X-0.150000X0.512500X-0.150000X-0.512500X0*%
%ADD40RoundRect,0.125000X-0.175000X-0.125000X0.175000X-0.125000X0.175000X0.125000X-0.175000X0.125000X0*%
%ADD41R,0.850000X0.350000*%
%ADD42R,1.700000X2.450000*%
%ADD43RoundRect,0.250000X0.850000X-0.375000X0.850000X0.375000X-0.850000X0.375000X-0.850000X-0.375000X0*%
%ADD44R,1.500000X0.900000*%
%ADD45R,0.900000X1.500000*%
%ADD46C,0.600000*%
%ADD47R,3.900000X3.900000*%
%ADD48R,0.800000X1.600000*%
%ADD49R,2.100000X3.000000*%
%ADD50C,0.650000*%
%ADD51RoundRect,0.150000X-0.150000X-0.425000X0.150000X-0.425000X0.150000X0.425000X-0.150000X0.425000X0*%
%ADD52RoundRect,0.075000X-0.075000X-0.500000X0.075000X-0.500000X0.075000X0.500000X-0.075000X0.500000X0*%
%ADD53O,1.000000X2.100000*%
%ADD54O,1.000000X1.800000*%
G04 APERTURE END LIST*
D10*
%TO.C,IC2*%
X123095000Y-87850000D03*
X124365000Y-87850000D03*
X125635000Y-87850000D03*
X126905000Y-87850000D03*
X126905000Y-80650000D03*
X125635000Y-80650000D03*
X124365000Y-80650000D03*
X123095000Y-80650000D03*
%TD*%
D11*
%TO.C,C106*%
X139770000Y-86250000D03*
X140730000Y-86250000D03*
%TD*%
D12*
%TO.C,U202*%
X110900000Y-84975002D03*
X110900000Y-84325001D03*
X110900000Y-83675002D03*
X110900000Y-83025001D03*
X108100000Y-83025001D03*
X108100000Y-83675002D03*
X108100000Y-84325001D03*
X108100000Y-84975002D03*
D13*
X109499997Y-84000000D03*
%TD*%
D14*
%TO.C,Q300*%
X138200000Y-60812500D03*
X136300000Y-60812500D03*
X137250000Y-62687500D03*
%TD*%
D15*
%TO.C,D403*%
X144900000Y-74400000D03*
X143900000Y-74400000D03*
%TD*%
D16*
%TO.C,C300*%
X137250000Y-69295000D03*
X137250000Y-70255000D03*
%TD*%
D17*
%TO.C,S201*%
X103375000Y-73750000D03*
X100625000Y-73750000D03*
D18*
X102850000Y-76375000D03*
X101150000Y-76375000D03*
X102850000Y-71125000D03*
X101150000Y-71125000D03*
%TD*%
D19*
%TO.C,U101*%
X137000000Y-90900000D03*
X137950000Y-90900000D03*
X138900000Y-90900000D03*
X138900000Y-88400000D03*
X137000000Y-88400000D03*
%TD*%
D20*
%TO.C,R102*%
X143010000Y-79000000D03*
X141990000Y-79000000D03*
%TD*%
D21*
%TO.C,J400*%
X105066000Y-82125000D03*
X105066000Y-83375000D03*
X105066000Y-84625000D03*
X105066000Y-85875000D03*
D22*
X102166000Y-88425000D03*
X102166000Y-79575000D03*
%TD*%
D23*
%TO.C,U102*%
X139800000Y-73687500D03*
X141700000Y-73687500D03*
X140750000Y-71812500D03*
%TD*%
D24*
%TO.C,C101*%
X110480000Y-95350000D03*
X109520000Y-95350000D03*
%TD*%
%TO.C,C104*%
X136480000Y-79750000D03*
X135520000Y-79750000D03*
%TD*%
D25*
%TO.C,R401*%
X132600000Y-78010000D03*
X132600000Y-76990000D03*
%TD*%
D24*
%TO.C,C202*%
X114730000Y-61020000D03*
X113770000Y-61020000D03*
%TD*%
D26*
%TO.C,R100*%
X120500000Y-88850000D03*
X120500000Y-89870000D03*
%TD*%
D27*
%TO.C,U301*%
X110300000Y-73225000D03*
X110300000Y-73875000D03*
X110300000Y-74525000D03*
X110300000Y-75175000D03*
X108700000Y-75175000D03*
X108700000Y-74525000D03*
X108700000Y-73875000D03*
X108700000Y-73225000D03*
%TD*%
D26*
%TO.C,R306*%
X125500000Y-76990000D03*
X125500000Y-78010000D03*
%TD*%
D16*
%TO.C,C103*%
X141000000Y-83770000D03*
X141000000Y-84730000D03*
%TD*%
D28*
%TO.C,D409*%
X106750000Y-85500000D03*
X106750000Y-86500000D03*
%TD*%
D15*
%TO.C,D407*%
X143600000Y-67700000D03*
X142600000Y-67700000D03*
%TD*%
D20*
%TO.C,R200*%
X114760000Y-60020000D03*
X113740000Y-60020000D03*
%TD*%
D29*
%TO.C,D300*%
X108932500Y-80240000D03*
X110507500Y-80240000D03*
%TD*%
D30*
%TO.C,C203*%
X104750000Y-61980000D03*
X104750000Y-61020000D03*
%TD*%
%TO.C,C301*%
X141550000Y-67730000D03*
X141550000Y-66770000D03*
%TD*%
D29*
%TO.C,D103*%
X108912500Y-78600000D03*
X110487500Y-78600000D03*
%TD*%
D31*
%TO.C,H3*%
X102600000Y-55000000D03*
X103302944Y-53302944D03*
X103302944Y-56697056D03*
X105000000Y-52600000D03*
D32*
X105000000Y-55000000D03*
D31*
X105000000Y-57400000D03*
X106697056Y-53302944D03*
X106697056Y-56697056D03*
X107400000Y-55000000D03*
%TD*%
D24*
%TO.C,C109*%
X141230000Y-75500000D03*
X140270000Y-75500000D03*
%TD*%
D26*
%TO.C,R1*%
X128250000Y-76990000D03*
X128250000Y-78010000D03*
%TD*%
D33*
%TO.C,TP104*%
X111500000Y-88000000D03*
%TD*%
D26*
%TO.C,R400*%
X124500000Y-76990000D03*
X124500000Y-78010000D03*
%TD*%
D15*
%TO.C,D402*%
X144900000Y-73100000D03*
X143900000Y-73100000D03*
%TD*%
D25*
%TO.C,R107*%
X134700000Y-89360000D03*
X134700000Y-88340000D03*
%TD*%
D34*
%TO.C,R301*%
X140240000Y-59000000D03*
X141260000Y-59000000D03*
%TD*%
D33*
%TO.C,TP101*%
X137000000Y-86250000D03*
%TD*%
D11*
%TO.C,C206*%
X108270000Y-81700000D03*
X109230000Y-81700000D03*
%TD*%
%TO.C,C205*%
X112020000Y-83750000D03*
X112980000Y-83750000D03*
%TD*%
D35*
%TO.C,IC1*%
X106562000Y-63025000D03*
X106562000Y-63675000D03*
X106562000Y-64325000D03*
X106562000Y-64975000D03*
X106562000Y-65625000D03*
X106562000Y-66275000D03*
X106562000Y-66925000D03*
X106562000Y-67575000D03*
X106562000Y-68225000D03*
X106562000Y-68875000D03*
X106562000Y-69525000D03*
X106562000Y-70175000D03*
X106562000Y-70825000D03*
X106562000Y-71475000D03*
X112438000Y-71475000D03*
X112438000Y-70825000D03*
X112438000Y-70175000D03*
X112438000Y-69525000D03*
X112438000Y-68875000D03*
X112438000Y-68225000D03*
X112438000Y-67575000D03*
X112438000Y-66925000D03*
X112438000Y-66275000D03*
X112438000Y-65625000D03*
X112438000Y-64975000D03*
X112438000Y-64325000D03*
X112438000Y-63675000D03*
X112438000Y-63025000D03*
%TD*%
D36*
%TO.C,U300*%
X137500000Y-65750000D03*
X137500000Y-66150000D03*
X137500000Y-66550000D03*
X137500000Y-66950000D03*
X137500000Y-67350000D03*
X137500000Y-67750000D03*
D37*
X138000000Y-68250000D03*
X138400000Y-68250000D03*
X138800000Y-68250000D03*
X139200000Y-68250000D03*
X139600000Y-68250000D03*
X140000000Y-68250000D03*
D36*
X140500000Y-67750000D03*
X140500000Y-67350000D03*
X140500000Y-66950000D03*
X140500000Y-66550000D03*
X140500000Y-66150000D03*
X140500000Y-65750000D03*
D37*
X140000000Y-65250000D03*
X139600000Y-65250000D03*
X139200000Y-65250000D03*
X138800000Y-65250000D03*
X138400000Y-65250000D03*
X138000000Y-65250000D03*
%TD*%
D23*
%TO.C,Q302*%
X136300000Y-73687500D03*
X138200000Y-73687500D03*
X137250000Y-71812500D03*
%TD*%
D38*
%TO.C,D410*%
X106750000Y-82500000D03*
X106750000Y-81500000D03*
%TD*%
D34*
%TO.C,R108*%
X106540000Y-76900000D03*
X107560000Y-76900000D03*
%TD*%
D26*
%TO.C,R106*%
X135700000Y-88340000D03*
X135700000Y-89360000D03*
%TD*%
D14*
%TO.C,Q301*%
X141700000Y-60812500D03*
X139800000Y-60812500D03*
X140750000Y-62687500D03*
%TD*%
D30*
%TO.C,C107*%
X143500000Y-87980000D03*
X143500000Y-87020000D03*
%TD*%
D34*
%TO.C,R305*%
X106540000Y-80200000D03*
X107560000Y-80200000D03*
%TD*%
D39*
%TO.C,U201*%
X116050000Y-90047500D03*
X117000000Y-90047500D03*
X117950000Y-90047500D03*
X117950000Y-87772500D03*
X117000000Y-87772500D03*
X116050000Y-87772500D03*
%TD*%
D15*
%TO.C,D405*%
X143100000Y-83000000D03*
X142100000Y-83000000D03*
%TD*%
D30*
%TO.C,C108*%
X140750000Y-70230000D03*
X140750000Y-69270000D03*
%TD*%
D38*
%TO.C,D101*%
X114700000Y-89960000D03*
X114700000Y-88960000D03*
%TD*%
D31*
%TO.C,H4*%
X142600000Y-55000000D03*
X143302944Y-53302944D03*
X143302944Y-56697056D03*
X145000000Y-52600000D03*
D32*
X145000000Y-55000000D03*
D31*
X145000000Y-57400000D03*
X146697056Y-53302944D03*
X146697056Y-56697056D03*
X147400000Y-55000000D03*
%TD*%
D34*
%TO.C,R202*%
X113740000Y-74000000D03*
X114760000Y-74000000D03*
%TD*%
%TO.C,R201*%
X113740000Y-73010000D03*
X114760000Y-73010000D03*
%TD*%
D40*
%TO.C,D400*%
X140900000Y-77000000D03*
X141900000Y-77000000D03*
%TD*%
D20*
%TO.C,R205*%
X114760000Y-71750000D03*
X113740000Y-71750000D03*
%TD*%
D11*
%TO.C,C303*%
X113770000Y-63000000D03*
X114730000Y-63000000D03*
%TD*%
D17*
%TO.C,S200*%
X103375000Y-64750000D03*
X100625000Y-64750000D03*
D18*
X102850000Y-67375000D03*
X101150000Y-67375000D03*
X102850000Y-62125000D03*
X101150000Y-62125000D03*
%TD*%
D24*
%TO.C,C105*%
X136480000Y-80800000D03*
X135520000Y-80800000D03*
%TD*%
%TO.C,C304*%
X107480000Y-74550000D03*
X106520000Y-74550000D03*
%TD*%
%TO.C,C102*%
X110480000Y-96350000D03*
X109520000Y-96350000D03*
%TD*%
%TO.C,C100*%
X110480000Y-94350000D03*
X109520000Y-94350000D03*
%TD*%
D41*
%TO.C,U100*%
X140700000Y-81475000D03*
X140700000Y-80825000D03*
X140700000Y-80175000D03*
X140700000Y-79525000D03*
X137800000Y-79525000D03*
X137800000Y-80175000D03*
X137800000Y-80825000D03*
X137800000Y-81475000D03*
D42*
X139250000Y-80500000D03*
%TD*%
D43*
%TO.C,L101*%
X141500000Y-90575000D03*
X141500000Y-88425000D03*
%TD*%
D31*
%TO.C,H1*%
X102600000Y-95000000D03*
X103302944Y-93302944D03*
X103302944Y-96697056D03*
X105000000Y-92600000D03*
D32*
X105000000Y-95000000D03*
D31*
X105000000Y-97400000D03*
X106697056Y-93302944D03*
X106697056Y-96697056D03*
X107400000Y-95000000D03*
%TD*%
D16*
%TO.C,C302*%
X139250000Y-69770000D03*
X139250000Y-70730000D03*
%TD*%
D44*
%TO.C,U200*%
X116250000Y-57740000D03*
X116250000Y-59010000D03*
X116250000Y-60280000D03*
X116250000Y-61550000D03*
X116250000Y-62820000D03*
X116250000Y-64090000D03*
X116250000Y-65360000D03*
X116250000Y-66630000D03*
X116250000Y-67900000D03*
X116250000Y-69170000D03*
X116250000Y-70440000D03*
X116250000Y-71710000D03*
X116250000Y-72980000D03*
X116250000Y-74250000D03*
D45*
X118015000Y-75500000D03*
X119285000Y-75500000D03*
X120555000Y-75500000D03*
X121825000Y-75500000D03*
X123095000Y-75500000D03*
X124365000Y-75500000D03*
X125635000Y-75500000D03*
X126905000Y-75500000D03*
X128175000Y-75500000D03*
X129445000Y-75500000D03*
X130715000Y-75500000D03*
X131985000Y-75500000D03*
D44*
X133750000Y-74250000D03*
X133750000Y-72980000D03*
X133750000Y-71710000D03*
X133750000Y-70440000D03*
X133750000Y-69170000D03*
X133750000Y-67900000D03*
X133750000Y-66630000D03*
X133750000Y-65360000D03*
X133750000Y-64090000D03*
X133750000Y-62820000D03*
X133750000Y-61550000D03*
X133750000Y-60280000D03*
X133750000Y-59010000D03*
X133750000Y-57740000D03*
D46*
X122100000Y-64760000D03*
X122100000Y-66160000D03*
X122800000Y-64060000D03*
X122800000Y-65460000D03*
X122800000Y-66860000D03*
X123500000Y-64760000D03*
D47*
X123500000Y-65460000D03*
D46*
X123500000Y-66160000D03*
X124200000Y-64060000D03*
X124200000Y-65460000D03*
X124200000Y-66860000D03*
X124900000Y-64760000D03*
X124900000Y-66160000D03*
%TD*%
D33*
%TO.C,TP100*%
X128250000Y-90500000D03*
%TD*%
D24*
%TO.C,C401*%
X136480000Y-77720000D03*
X135520000Y-77720000D03*
%TD*%
D26*
%TO.C,R101*%
X113500000Y-88950000D03*
X113500000Y-89970000D03*
%TD*%
D34*
%TO.C,R104*%
X106540000Y-78650000D03*
X107560000Y-78650000D03*
%TD*%
D20*
%TO.C,R303*%
X137760000Y-75500000D03*
X136740000Y-75500000D03*
%TD*%
D30*
%TO.C,C1*%
X123100000Y-79080000D03*
X123100000Y-78120000D03*
%TD*%
D34*
%TO.C,R300*%
X136740000Y-59000000D03*
X137760000Y-59000000D03*
%TD*%
D48*
%TO.C,J405*%
X129250000Y-94900000D03*
X130500000Y-94900000D03*
X131750000Y-94900000D03*
X133000000Y-94900000D03*
X134250000Y-94900000D03*
X135500000Y-94900000D03*
X136750000Y-94900000D03*
D49*
X126700000Y-97800000D03*
X139300000Y-97800000D03*
%TD*%
D50*
%TO.C,J100*%
X114110000Y-93145000D03*
X119890000Y-93145000D03*
D51*
X113800000Y-92070000D03*
X114600000Y-92070000D03*
D52*
X115750000Y-92070000D03*
X116750000Y-92070000D03*
X117250000Y-92070000D03*
X118250000Y-92070000D03*
D51*
X119400000Y-92070000D03*
X120200000Y-92070000D03*
X120200000Y-92070000D03*
X119400000Y-92070000D03*
D52*
X118750000Y-92070000D03*
X117750000Y-92070000D03*
X116250000Y-92070000D03*
X115250000Y-92070000D03*
D51*
X114600000Y-92070000D03*
X113800000Y-92070000D03*
D53*
X112680000Y-92645000D03*
X121320000Y-92645000D03*
D54*
X112680000Y-96825000D03*
X121320000Y-96825000D03*
%TD*%
D21*
%TO.C,J402*%
X144950000Y-68875000D03*
X144950000Y-67625000D03*
X144950000Y-66375000D03*
X144950000Y-65125000D03*
D22*
X147850000Y-62575000D03*
X147850000Y-71425000D03*
%TD*%
D15*
%TO.C,D102*%
X110500000Y-93250000D03*
X109500000Y-93250000D03*
%TD*%
D30*
%TO.C,C204*%
X104750000Y-70980000D03*
X104750000Y-70020000D03*
%TD*%
D26*
%TO.C,R206*%
X120600000Y-76990000D03*
X120600000Y-78010000D03*
%TD*%
D20*
%TO.C,R304*%
X114760000Y-66250000D03*
X113740000Y-66250000D03*
%TD*%
D34*
%TO.C,R302*%
X135240000Y-69250000D03*
X136260000Y-69250000D03*
%TD*%
D15*
%TO.C,D406*%
X143100000Y-81700000D03*
X142100000Y-81700000D03*
%TD*%
D24*
%TO.C,C402*%
X136480000Y-76750000D03*
X135520000Y-76750000D03*
%TD*%
D38*
%TO.C,D100*%
X119300000Y-89960000D03*
X119300000Y-88960000D03*
%TD*%
D20*
%TO.C,R103*%
X143010000Y-80000000D03*
X141990000Y-80000000D03*
%TD*%
D31*
%TO.C,H2*%
X142600000Y-95000000D03*
X143302944Y-93302944D03*
X143302944Y-96697056D03*
X145000000Y-92600000D03*
D32*
X145000000Y-95000000D03*
D31*
X145000000Y-97400000D03*
X146697056Y-93302944D03*
X146697056Y-96697056D03*
X147400000Y-95000000D03*
%TD*%
D15*
%TO.C,D401*%
X144900000Y-71800000D03*
X143900000Y-71800000D03*
%TD*%
%TO.C,D404*%
X143100000Y-84300000D03*
X142100000Y-84300000D03*
%TD*%
%TO.C,D408*%
X143600000Y-66500000D03*
X142600000Y-66500000D03*
%TD*%
D29*
%TO.C,D104*%
X108912500Y-76900000D03*
X110487500Y-76900000D03*
%TD*%
D24*
%TO.C,C305*%
X107480000Y-73200000D03*
X106520000Y-73200000D03*
%TD*%
D21*
%TO.C,J407*%
X145000000Y-86750000D03*
X145000000Y-85500000D03*
X145000000Y-84250000D03*
X145000000Y-83000000D03*
X145000000Y-81750000D03*
X145000000Y-80500000D03*
X145000000Y-79250000D03*
D22*
X147900000Y-89300000D03*
X147900000Y-76700000D03*
%TD*%
D24*
%TO.C,C201*%
X114730000Y-59000000D03*
X113770000Y-59000000D03*
%TD*%
%TO.C,C400*%
X136480000Y-78750000D03*
X135520000Y-78750000D03*
%TD*%
%TO.C,C200*%
X114730000Y-58000000D03*
X113770000Y-58000000D03*
%TD*%
D33*
%TO.C,J1*%
X104250000Y-73180000D03*
X104250000Y-65200000D03*
%TD*%
M02*
