%TF.GenerationSoftware,KiCad,Pcbnew,9.0.2*%
%TF.CreationDate,2025-07-12T02:52:05+01:00*%
%TF.ProjectId,PDB_AURA,5044425f-4155-4524-912e-6b696361645f,rev?*%
%TF.SameCoordinates,Original*%
%TF.FileFunction,Soldermask,Bot*%
%TF.FilePolarity,Negative*%
%FSLAX46Y46*%
G04 Gerber Fmt 4.6, Leading zero omitted, Abs format (unit mm)*
G04 Created by KiCad (PCBNEW 9.0.2) date 2025-07-12 02:52:05*
%MOMM*%
%LPD*%
G01*
G04 APERTURE LIST*
G04 Aperture macros list*
%AMRoundRect*
0 Rectangle with rounded corners*
0 $1 Rounding radius*
0 $2 $3 $4 $5 $6 $7 $8 $9 X,Y pos of 4 corners*
0 Add a 4 corners polygon primitive as box body*
4,1,4,$2,$3,$4,$5,$6,$7,$8,$9,$2,$3,0*
0 Add four circle primitives for the rounded corners*
1,1,$1+$1,$2,$3*
1,1,$1+$1,$4,$5*
1,1,$1+$1,$6,$7*
1,1,$1+$1,$8,$9*
0 Add four rect primitives between the rounded corners*
20,1,$1+$1,$2,$3,$4,$5,0*
20,1,$1+$1,$4,$5,$6,$7,0*
20,1,$1+$1,$6,$7,$8,$9,0*
20,1,$1+$1,$8,$9,$2,$3,0*%
%AMFreePoly0*
4,1,23,0.500000,-0.750000,0.000000,-0.750000,0.000000,-0.745722,-0.065263,-0.745722,-0.191342,-0.711940,-0.304381,-0.646677,-0.396677,-0.554381,-0.461940,-0.441342,-0.495722,-0.315263,-0.495722,-0.250000,-0.500000,-0.250000,-0.500000,0.250000,-0.495722,0.250000,-0.495722,0.315263,-0.461940,0.441342,-0.396677,0.554381,-0.304381,0.646677,-0.191342,0.711940,-0.065263,0.745722,0.000000,0.745722,
0.000000,0.750000,0.500000,0.750000,0.500000,-0.750000,0.500000,-0.750000,$1*%
%AMFreePoly1*
4,1,23,0.000000,0.745722,0.065263,0.745722,0.191342,0.711940,0.304381,0.646677,0.396677,0.554381,0.461940,0.441342,0.495722,0.315263,0.495722,0.250000,0.500000,0.250000,0.500000,-0.250000,0.495722,-0.250000,0.495722,-0.315263,0.461940,-0.441342,0.396677,-0.554381,0.304381,-0.646677,0.191342,-0.711940,0.065263,-0.745722,0.000000,-0.745722,0.000000,-0.750000,-0.500000,-0.750000,
-0.500000,0.750000,0.000000,0.750000,0.000000,0.745722,0.000000,0.745722,$1*%
G04 Aperture macros list end*
%ADD10C,2.550000*%
%ADD11C,1.500000*%
%ADD12RoundRect,0.250000X-0.850000X0.825000X-0.850000X-0.825000X0.850000X-0.825000X0.850000X0.825000X0*%
%ADD13RoundRect,0.250000X0.825000X0.850000X-0.825000X0.850000X-0.825000X-0.850000X0.825000X-0.850000X0*%
%ADD14RoundRect,0.500000X-3.500000X-2.000000X3.500000X-2.000000X3.500000X2.000000X-3.500000X2.000000X0*%
%ADD15C,0.800000*%
%ADD16C,6.400000*%
%ADD17C,2.650000*%
%ADD18RoundRect,0.400000X1.600000X-2.600000X1.600000X2.600000X-1.600000X2.600000X-1.600000X-2.600000X0*%
%ADD19RoundRect,0.400000X-1.600000X2.600000X-1.600000X-2.600000X1.600000X-2.600000X1.600000X2.600000X0*%
%ADD20FreePoly0,0.000000*%
%ADD21FreePoly1,0.000000*%
%ADD22R,1.600000X0.800000*%
%ADD23R,3.000000X2.100000*%
%ADD24C,1.000000*%
G04 APERTURE END LIST*
%TO.C,JP100*%
G36*
X68100000Y-79750000D02*
G01*
X68400000Y-79750000D01*
X68400000Y-78250000D01*
X68100000Y-78250000D01*
X68100000Y-79750000D01*
G37*
%TD*%
D10*
%TO.C,J304*%
X85500000Y-91750000D03*
X80500000Y-91750000D03*
D11*
X88500000Y-96750000D03*
X77500000Y-96750000D03*
%TD*%
D10*
%TO.C,J303*%
X69500000Y-91750000D03*
X64500000Y-91750000D03*
D11*
X72500000Y-96750000D03*
X61500000Y-96750000D03*
%TD*%
D10*
%TO.C,J301*%
X80500000Y-58250000D03*
X85500000Y-58250000D03*
D11*
X77500000Y-53250000D03*
X88500000Y-53250000D03*
%TD*%
D10*
%TO.C,J300*%
X64500000Y-58250000D03*
X69500000Y-58250000D03*
D11*
X61500000Y-53250000D03*
X72500000Y-53250000D03*
%TD*%
D12*
%TO.C,D305*%
X80850000Y-85750000D03*
X85250000Y-85750000D03*
%TD*%
%TO.C,D304*%
X64800000Y-85750000D03*
X69200000Y-85750000D03*
%TD*%
D13*
%TO.C,D101*%
X59000000Y-72800000D03*
X59000000Y-77200000D03*
%TD*%
D14*
%TO.C,J102*%
X56000000Y-63750000D03*
%TD*%
D15*
%TO.C,H102*%
X92600000Y-55000000D03*
X93302944Y-53302944D03*
X93302944Y-56697056D03*
X95000000Y-52600000D03*
D16*
X95000000Y-55000000D03*
D15*
X95000000Y-57400000D03*
X96697056Y-53302944D03*
X96697056Y-56697056D03*
X97400000Y-55000000D03*
%TD*%
D17*
%TO.C,J100*%
X63250000Y-77500000D03*
X63250000Y-72500000D03*
D11*
X53250000Y-69500000D03*
X53250000Y-80500000D03*
%TD*%
D15*
%TO.C,H101*%
X52600000Y-55000000D03*
X53302944Y-53302944D03*
X53302944Y-56697056D03*
X55000000Y-52600000D03*
D16*
X55000000Y-55000000D03*
D15*
X55000000Y-57400000D03*
X56697056Y-53302944D03*
X56697056Y-56697056D03*
X57400000Y-55000000D03*
%TD*%
%TO.C,H100*%
X92600000Y-95000000D03*
X93302944Y-93302944D03*
X93302944Y-96697056D03*
X95000000Y-92600000D03*
D16*
X95000000Y-95000000D03*
D15*
X95000000Y-97400000D03*
X96697056Y-93302944D03*
X96697056Y-96697056D03*
X97400000Y-95000000D03*
%TD*%
%TO.C,H103*%
X52600000Y-95000000D03*
X53302944Y-93302944D03*
X53302944Y-96697056D03*
X55000000Y-92600000D03*
D16*
X55000000Y-95000000D03*
D15*
X55000000Y-97400000D03*
X56697056Y-93302944D03*
X56697056Y-96697056D03*
X57400000Y-95000000D03*
%TD*%
D14*
%TO.C,J101*%
X56000000Y-86250000D03*
%TD*%
D18*
%TO.C,J312*%
X69500000Y-96500000D03*
%TD*%
D19*
%TO.C,J307*%
X80500000Y-53500000D03*
%TD*%
D18*
%TO.C,J306*%
X69500000Y-53500000D03*
%TD*%
D20*
%TO.C,JP100*%
X67600000Y-79000000D03*
D21*
X68900000Y-79000000D03*
%TD*%
D19*
%TO.C,J308*%
X85500000Y-53500000D03*
%TD*%
D18*
%TO.C,J309*%
X80500000Y-96500000D03*
%TD*%
%TO.C,J310*%
X85500000Y-96500000D03*
%TD*%
D22*
%TO.C,J302*%
X95008000Y-68125000D03*
X95008000Y-69375000D03*
X95008000Y-70625000D03*
X95008000Y-71875000D03*
X95008000Y-73125000D03*
X95008000Y-74375000D03*
X95008000Y-75625000D03*
X95008000Y-76875000D03*
X95008000Y-78125000D03*
X95008000Y-79375000D03*
X95008000Y-80625000D03*
X95008000Y-81875000D03*
D23*
X97908000Y-65575000D03*
X97908000Y-84425000D03*
%TD*%
D24*
%TO.C,TP201*%
X69250000Y-68350000D03*
%TD*%
D18*
%TO.C,J305*%
X64500000Y-53500000D03*
%TD*%
%TO.C,J311*%
X64500000Y-96500000D03*
%TD*%
M02*
