%TF.GenerationSoftware,KiCad,Pcbnew,9.0.2*%
%TF.CreationDate,2025-07-12T23:13:17+01:00*%
%TF.ProjectId,PDB_AURA,5044425f-4155-4524-912e-6b696361645f,rev?*%
%TF.SameCoordinates,Original*%
%TF.FileFunction,Legend,Bot*%
%TF.FilePolarity,Positive*%
%FSLAX46Y46*%
G04 Gerber Fmt 4.6, Leading zero omitted, Abs format (unit mm)*
G04 Created by KiCad (PCBNEW 9.0.2) date 2025-07-12 23:13:17*
%MOMM*%
%LPD*%
G01*
G04 APERTURE LIST*
%ADD10C,0.000000*%
%ADD11C,0.500000*%
%ADD12C,0.250000*%
%ADD13C,0.100000*%
%ADD14C,0.400000*%
%ADD15C,0.200000*%
%ADD16C,0.120000*%
G04 APERTURE END LIST*
D10*
G36*
X89995658Y-79126967D02*
G01*
X86592957Y-77162436D01*
X86592954Y-77162307D01*
X86755424Y-76893861D01*
X86755824Y-76893432D01*
X86756215Y-76892955D01*
X86756598Y-76892432D01*
X86756974Y-76891871D01*
X86757707Y-76890646D01*
X86758421Y-76889318D01*
X86761224Y-76883709D01*
X86761945Y-76882417D01*
X86762687Y-76881245D01*
X86763068Y-76880714D01*
X86763458Y-76880228D01*
X86763856Y-76879789D01*
X86764263Y-76879403D01*
X86764681Y-76879075D01*
X86765110Y-76878808D01*
X86765552Y-76878608D01*
X86766006Y-76878480D01*
X86766474Y-76878427D01*
X86766957Y-76878455D01*
X86767455Y-76878568D01*
X86767970Y-76878771D01*
X86808107Y-76910711D01*
X86849213Y-76941333D01*
X86891184Y-76970747D01*
X86933918Y-76999060D01*
X86977311Y-77026381D01*
X87021258Y-77052819D01*
X87065657Y-77078483D01*
X87110404Y-77103482D01*
X87199230Y-77151285D01*
X87244097Y-77174554D01*
X87289457Y-77196768D01*
X87335456Y-77217453D01*
X87358740Y-77227073D01*
X87382237Y-77236133D01*
X87405967Y-77244573D01*
X87429946Y-77252334D01*
X87454192Y-77259357D01*
X87478725Y-77265581D01*
X87498279Y-77269941D01*
X87517914Y-77273530D01*
X87537622Y-77276396D01*
X87557392Y-77278590D01*
X87577216Y-77280162D01*
X87597083Y-77281160D01*
X87616983Y-77281635D01*
X87636908Y-77281637D01*
X87676791Y-77280418D01*
X87716655Y-77277902D01*
X87756424Y-77274485D01*
X87796019Y-77270567D01*
X87935200Y-77257313D01*
X87952506Y-77255023D01*
X87969725Y-77252337D01*
X87986837Y-77249180D01*
X88003823Y-77245473D01*
X88020664Y-77241142D01*
X88037339Y-77236110D01*
X88053828Y-77230299D01*
X88070112Y-77223634D01*
X88076821Y-77220693D01*
X88083377Y-77217542D01*
X88089788Y-77214192D01*
X88096061Y-77210656D01*
X88108230Y-77203065D01*
X88119947Y-77194857D01*
X88131280Y-77186120D01*
X88142292Y-77176943D01*
X88153048Y-77167415D01*
X88163614Y-77157622D01*
X88205277Y-77117583D01*
X88215868Y-77107797D01*
X88226659Y-77098277D01*
X88237716Y-77089111D01*
X88249103Y-77080389D01*
X88257351Y-77074356D01*
X88265857Y-77068839D01*
X88274600Y-77063810D01*
X88283559Y-77059241D01*
X88292714Y-77055103D01*
X88302045Y-77051370D01*
X88311531Y-77048013D01*
X88321153Y-77045005D01*
X88330889Y-77042318D01*
X88340719Y-77039924D01*
X88350623Y-77037795D01*
X88360581Y-77035903D01*
X88380576Y-77032722D01*
X88400540Y-77030156D01*
X88416700Y-77028326D01*
X88432800Y-77026150D01*
X88464824Y-77020824D01*
X88496616Y-77014302D01*
X88528177Y-77006706D01*
X88559510Y-76998163D01*
X88590619Y-76988794D01*
X88621506Y-76978725D01*
X88652175Y-76968079D01*
X88881802Y-76884813D01*
X88996137Y-76841899D01*
X89053007Y-76819671D01*
X89109612Y-76796756D01*
X89297223Y-76718827D01*
X89344372Y-76699963D01*
X89391735Y-76681657D01*
X89439371Y-76664063D01*
X89487338Y-76647335D01*
X89500415Y-76642564D01*
X89513510Y-76637543D01*
X89526571Y-76632240D01*
X89539547Y-76626624D01*
X89552388Y-76620665D01*
X89565043Y-76614332D01*
X89577462Y-76607592D01*
X89589593Y-76600416D01*
X89601386Y-76592772D01*
X89612790Y-76584629D01*
X89623754Y-76575956D01*
X89634228Y-76566722D01*
X89644161Y-76556895D01*
X89653503Y-76546446D01*
X89657935Y-76540978D01*
X89662201Y-76535342D01*
X89666294Y-76529535D01*
X89670207Y-76523553D01*
X89676046Y-76513778D01*
X89681225Y-76503703D01*
X89685753Y-76493360D01*
X89689639Y-76482782D01*
X89692891Y-76472002D01*
X89695519Y-76461053D01*
X89697531Y-76449966D01*
X89698936Y-76438777D01*
X89699743Y-76427516D01*
X89699961Y-76416217D01*
X89699598Y-76404912D01*
X89698663Y-76393635D01*
X89697166Y-76382418D01*
X89695115Y-76371294D01*
X89692518Y-76360296D01*
X89689385Y-76349457D01*
X89681613Y-76327180D01*
X89672497Y-76305443D01*
X89662093Y-76284300D01*
X89650458Y-76263806D01*
X89637649Y-76244015D01*
X89623722Y-76224981D01*
X89608733Y-76206759D01*
X89592739Y-76189403D01*
X89575796Y-76172968D01*
X89557961Y-76157508D01*
X89539290Y-76143077D01*
X89519839Y-76129729D01*
X89499666Y-76117520D01*
X89478827Y-76106504D01*
X89457377Y-76096734D01*
X89435375Y-76088265D01*
X89415704Y-76082003D01*
X89395858Y-76076728D01*
X89375856Y-76072380D01*
X89355717Y-76068903D01*
X89335461Y-76066239D01*
X89315108Y-76064330D01*
X89294677Y-76063119D01*
X89274188Y-76062547D01*
X89253661Y-76062556D01*
X89233115Y-76063090D01*
X89192045Y-76065499D01*
X89151136Y-76069311D01*
X89110545Y-76074064D01*
X88924955Y-76097401D01*
X88878711Y-76104218D01*
X88832703Y-76112283D01*
X88787020Y-76122022D01*
X88764327Y-76127654D01*
X88741747Y-76133864D01*
X88717056Y-76141416D01*
X88692658Y-76149985D01*
X88668608Y-76159559D01*
X88644961Y-76170125D01*
X88621770Y-76181671D01*
X88599091Y-76194183D01*
X88576977Y-76207650D01*
X88555485Y-76222058D01*
X88534667Y-76237395D01*
X88514579Y-76253649D01*
X88495275Y-76270806D01*
X88476809Y-76288854D01*
X88459237Y-76307781D01*
X88442613Y-76327573D01*
X88426991Y-76348218D01*
X88412425Y-76369704D01*
X88410550Y-76370336D01*
X88408620Y-76370829D01*
X88406640Y-76371189D01*
X88404611Y-76371425D01*
X88402537Y-76371542D01*
X88400422Y-76371547D01*
X88396076Y-76371254D01*
X88391596Y-76370600D01*
X88387008Y-76369644D01*
X88382334Y-76368440D01*
X88377597Y-76367046D01*
X88358505Y-76360697D01*
X88353813Y-76359199D01*
X88349201Y-76357850D01*
X88344692Y-76356706D01*
X88340311Y-76355824D01*
X88324864Y-76351148D01*
X88309579Y-76345982D01*
X88294428Y-76340413D01*
X88279383Y-76334528D01*
X88219708Y-76309530D01*
X88189781Y-76297362D01*
X88174697Y-76291661D01*
X88159496Y-76286331D01*
X88144149Y-76281456D01*
X88128629Y-76277123D01*
X88112908Y-76273418D01*
X88096958Y-76270427D01*
X88078854Y-76268052D01*
X88060758Y-76266543D01*
X88042672Y-76265835D01*
X88024600Y-76265860D01*
X88006544Y-76266553D01*
X87988508Y-76267846D01*
X87970495Y-76269674D01*
X87952507Y-76271969D01*
X87916621Y-76277694D01*
X87880874Y-76284491D01*
X87809895Y-76299166D01*
X87788313Y-76303797D01*
X87777484Y-76306365D01*
X87766675Y-76309148D01*
X87755921Y-76312180D01*
X87745255Y-76315495D01*
X87734714Y-76319129D01*
X87724330Y-76323116D01*
X87714139Y-76327491D01*
X87704176Y-76332288D01*
X87694473Y-76337542D01*
X87685067Y-76343287D01*
X87675991Y-76349559D01*
X87667281Y-76356392D01*
X87658969Y-76363820D01*
X87651092Y-76371879D01*
X87649831Y-76372725D01*
X87648622Y-76373678D01*
X87647461Y-76374727D01*
X87646344Y-76375865D01*
X87645268Y-76377081D01*
X87644228Y-76378367D01*
X87642242Y-76381109D01*
X87640357Y-76384017D01*
X87638540Y-76387018D01*
X87634993Y-76393001D01*
X87633200Y-76395834D01*
X87631354Y-76398464D01*
X87630401Y-76399680D01*
X87629424Y-76400817D01*
X87628417Y-76401866D01*
X87627378Y-76402817D01*
X87626303Y-76403663D01*
X87625187Y-76404392D01*
X87624028Y-76404997D01*
X87622820Y-76405467D01*
X87621561Y-76405794D01*
X87620246Y-76405968D01*
X87618871Y-76405980D01*
X87617433Y-76405821D01*
X87613296Y-76404425D01*
X87609272Y-76402863D01*
X87605359Y-76401140D01*
X87601554Y-76399264D01*
X87597856Y-76397239D01*
X87594261Y-76395072D01*
X87587371Y-76390337D01*
X87580866Y-76385105D01*
X87574725Y-76379426D01*
X87568929Y-76373347D01*
X87563459Y-76366917D01*
X87558293Y-76360184D01*
X87553412Y-76353195D01*
X87548798Y-76346000D01*
X87544429Y-76338646D01*
X87540286Y-76331182D01*
X87536349Y-76323656D01*
X87529015Y-76308608D01*
X87525650Y-76301224D01*
X87522152Y-76293889D01*
X87518516Y-76286616D01*
X87514732Y-76279416D01*
X87510794Y-76272302D01*
X87506694Y-76265284D01*
X87502424Y-76258374D01*
X87497977Y-76251586D01*
X87493345Y-76244929D01*
X87488521Y-76238416D01*
X87483497Y-76232058D01*
X87478266Y-76225868D01*
X87472820Y-76219856D01*
X87467152Y-76214036D01*
X87461253Y-76208417D01*
X87455117Y-76203013D01*
X87443629Y-76193083D01*
X87431767Y-76183722D01*
X87419574Y-76174864D01*
X87407092Y-76166444D01*
X87394365Y-76158396D01*
X87381436Y-76150654D01*
X87355144Y-76135823D01*
X87302027Y-76106932D01*
X87275892Y-76091817D01*
X87263081Y-76083862D01*
X87250499Y-76075553D01*
X87750000Y-75250000D01*
X87751849Y-75248970D01*
X87753636Y-75248061D01*
X87755371Y-75247277D01*
X87757063Y-75246624D01*
X87758722Y-75246104D01*
X87760356Y-75245724D01*
X87761168Y-75245587D01*
X87761977Y-75245486D01*
X87762784Y-75245422D01*
X87763592Y-75245396D01*
X87764401Y-75245407D01*
X87765212Y-75245457D01*
X87766026Y-75245546D01*
X87766846Y-75245674D01*
X87767671Y-75245843D01*
X87768503Y-75246052D01*
X87769343Y-75246302D01*
X87770193Y-75246594D01*
X87771053Y-75246929D01*
X87771925Y-75247306D01*
X87773710Y-75248191D01*
X87775555Y-75249253D01*
X87777471Y-75250498D01*
X87784285Y-75254876D01*
X87790860Y-75259545D01*
X87797200Y-75264490D01*
X87803305Y-75269697D01*
X87809180Y-75275152D01*
X87814826Y-75280840D01*
X87820245Y-75286747D01*
X87825441Y-75292859D01*
X87830415Y-75299161D01*
X87835170Y-75305640D01*
X87839709Y-75312280D01*
X87844033Y-75319069D01*
X87848146Y-75325991D01*
X87852050Y-75333032D01*
X87855746Y-75340178D01*
X87859239Y-75347414D01*
X87866791Y-75362544D01*
X87874925Y-75377295D01*
X87883603Y-75391684D01*
X87892787Y-75405730D01*
X87902439Y-75419451D01*
X87912521Y-75432868D01*
X87922996Y-75445996D01*
X87933826Y-75458857D01*
X87944973Y-75471467D01*
X87956399Y-75483846D01*
X87968067Y-75496012D01*
X87979937Y-75507983D01*
X88004138Y-75531418D01*
X88028699Y-75554297D01*
X88050780Y-75574360D01*
X88072560Y-75594772D01*
X88115900Y-75635854D01*
X88137799Y-75656127D01*
X88160079Y-75675958D01*
X88171415Y-75685646D01*
X88182910Y-75695149D01*
X88194585Y-75704443D01*
X88206462Y-75713502D01*
X88219576Y-75723040D01*
X88233053Y-75731939D01*
X88246868Y-75740222D01*
X88260995Y-75747912D01*
X88275409Y-75755030D01*
X88290084Y-75761599D01*
X88304997Y-75767641D01*
X88320120Y-75773179D01*
X88335430Y-75778234D01*
X88350900Y-75782828D01*
X88366505Y-75786985D01*
X88382220Y-75790726D01*
X88398020Y-75794074D01*
X88413880Y-75797050D01*
X88445677Y-75801979D01*
X88488997Y-75807158D01*
X88532418Y-75811111D01*
X88575915Y-75814120D01*
X88619465Y-75816465D01*
X88706634Y-75820295D01*
X88750207Y-75822344D01*
X88793742Y-75824856D01*
X88986750Y-75834745D01*
X89035030Y-75836481D01*
X89083321Y-75837527D01*
X89131622Y-75837688D01*
X89179933Y-75836767D01*
X89203549Y-75835814D01*
X89227152Y-75834290D01*
X89250721Y-75832186D01*
X89274236Y-75829495D01*
X89297677Y-75826208D01*
X89321022Y-75822314D01*
X89344251Y-75817806D01*
X89367345Y-75812675D01*
X89390281Y-75806912D01*
X89413041Y-75800507D01*
X89435603Y-75793453D01*
X89457948Y-75785739D01*
X89480053Y-75777359D01*
X89501900Y-75768301D01*
X89523468Y-75758558D01*
X89544735Y-75748122D01*
X89562111Y-75738799D01*
X89579509Y-75729244D01*
X89596716Y-75719263D01*
X89605181Y-75714052D01*
X89613517Y-75708663D01*
X89621697Y-75703070D01*
X89629695Y-75697250D01*
X89637484Y-75691179D01*
X89645037Y-75684832D01*
X89652327Y-75678186D01*
X89659327Y-75671215D01*
X89666010Y-75663896D01*
X89672350Y-75656205D01*
X89676994Y-75650050D01*
X89681173Y-75643651D01*
X89684899Y-75637029D01*
X89688187Y-75630207D01*
X89691050Y-75623205D01*
X89693501Y-75616048D01*
X89695554Y-75608755D01*
X89697222Y-75601349D01*
X89698518Y-75593852D01*
X89699457Y-75586286D01*
X89700052Y-75578672D01*
X89700316Y-75571033D01*
X89700262Y-75563391D01*
X89699905Y-75555767D01*
X89699257Y-75548183D01*
X89698332Y-75540661D01*
X89691264Y-75493451D01*
X89687285Y-75469816D01*
X89682613Y-75446334D01*
X89679925Y-75434690D01*
X89676952Y-75423133D01*
X89673657Y-75411680D01*
X89670004Y-75400345D01*
X89665954Y-75389146D01*
X89661472Y-75378098D01*
X89656520Y-75367218D01*
X89651060Y-75356522D01*
X89643841Y-75344425D01*
X89635918Y-75332953D01*
X89627343Y-75322073D01*
X89618170Y-75311749D01*
X89608453Y-75301947D01*
X89598243Y-75292632D01*
X89587595Y-75283770D01*
X89576561Y-75275325D01*
X89565194Y-75267264D01*
X89553548Y-75259551D01*
X89541675Y-75252152D01*
X89529629Y-75245032D01*
X89505229Y-75231490D01*
X89480773Y-75218648D01*
X89467879Y-75212209D01*
X89455126Y-75205528D01*
X89429984Y-75191542D01*
X89405230Y-75176889D01*
X89380748Y-75161769D01*
X89332136Y-75130922D01*
X89307774Y-75115594D01*
X89283219Y-75100596D01*
X89261579Y-75088114D01*
X89239533Y-75076594D01*
X89217126Y-75065934D01*
X89194401Y-75056034D01*
X89171398Y-75046791D01*
X89148162Y-75038105D01*
X89101160Y-75021997D01*
X89006230Y-74991998D01*
X88958985Y-74976486D01*
X88912342Y-74959552D01*
X88894098Y-74952439D01*
X88876139Y-74944764D01*
X88858447Y-74936565D01*
X88841008Y-74927882D01*
X88823802Y-74918754D01*
X88806815Y-74909218D01*
X88790029Y-74899313D01*
X88773427Y-74889079D01*
X88740711Y-74867777D01*
X88708532Y-74845620D01*
X88676757Y-74822919D01*
X88645252Y-74799982D01*
X88615358Y-74778185D01*
X88584992Y-74757055D01*
X88523584Y-74715756D01*
X88492908Y-74695071D01*
X88462497Y-74674018D01*
X88432535Y-74652339D01*
X88403205Y-74629775D01*
X88390991Y-74619972D01*
X88379086Y-74609840D01*
X88367477Y-74599397D01*
X88356153Y-74588661D01*
X88345100Y-74577650D01*
X88334306Y-74566384D01*
X88323760Y-74554879D01*
X88313448Y-74543154D01*
X88303359Y-74531228D01*
X88293480Y-74519118D01*
X88274302Y-74494421D01*
X88255817Y-74469210D01*
X88237926Y-74443630D01*
X89995658Y-71538718D01*
X89995658Y-79126967D01*
G37*
G36*
X84962348Y-73455872D02*
G01*
X84986628Y-73475269D01*
X85010656Y-73494980D01*
X85034383Y-73515049D01*
X85057760Y-73535516D01*
X85080737Y-73556425D01*
X85103268Y-73577818D01*
X85125301Y-73599736D01*
X85140737Y-73615580D01*
X85155793Y-73631779D01*
X85170462Y-73648323D01*
X85184740Y-73665202D01*
X85198619Y-73682407D01*
X85212096Y-73699927D01*
X85225164Y-73717754D01*
X85237819Y-73735876D01*
X85250053Y-73754285D01*
X85261862Y-73772970D01*
X85273240Y-73791922D01*
X85284182Y-73811132D01*
X85294682Y-73830588D01*
X85304734Y-73850282D01*
X85314333Y-73870204D01*
X85323474Y-73890344D01*
X85337332Y-73922676D01*
X85350129Y-73955370D01*
X85361906Y-73988399D01*
X85372707Y-74021737D01*
X85382572Y-74055355D01*
X85391545Y-74089228D01*
X85399667Y-74123329D01*
X85406981Y-74157630D01*
X85419354Y-74226725D01*
X85429001Y-74296299D01*
X85436262Y-74366136D01*
X85441472Y-74436021D01*
X85445049Y-74506229D01*
X85447605Y-74576470D01*
X85450656Y-74717018D01*
X85452622Y-74857601D01*
X85455498Y-74998154D01*
X85458093Y-75084761D01*
X85461966Y-75171356D01*
X85467339Y-75257876D01*
X85474434Y-75344256D01*
X85483477Y-75430431D01*
X85494689Y-75516336D01*
X85508295Y-75601906D01*
X85524516Y-75687076D01*
X85539719Y-75756415D01*
X85547785Y-75791029D01*
X85556485Y-75825475D01*
X85566066Y-75859655D01*
X85576772Y-75893469D01*
X85582623Y-75910208D01*
X85588847Y-75926819D01*
X85595475Y-75943290D01*
X85602537Y-75959608D01*
X85607561Y-75970545D01*
X85612921Y-75981306D01*
X85618608Y-75991887D01*
X85624614Y-76002283D01*
X85630929Y-76012487D01*
X85637546Y-76022496D01*
X85644456Y-76032303D01*
X85651651Y-76041905D01*
X85659122Y-76051295D01*
X85666860Y-76060470D01*
X85674858Y-76069423D01*
X85683106Y-76078149D01*
X85691596Y-76086644D01*
X85700320Y-76094903D01*
X85709269Y-76102920D01*
X85718435Y-76110690D01*
X85741287Y-76129275D01*
X85764380Y-76147560D01*
X85787677Y-76165585D01*
X85811144Y-76183396D01*
X85858438Y-76218542D01*
X85905972Y-76253343D01*
X85676219Y-76633163D01*
X82538842Y-74821826D01*
X82538839Y-74821807D01*
X82538835Y-74821788D01*
X84937865Y-73436748D01*
X84962348Y-73455872D01*
G37*
G36*
X87574086Y-73496619D02*
G01*
X87541768Y-73453889D01*
X87509002Y-73411473D01*
X87475695Y-73369472D01*
X87441756Y-73327985D01*
X87407094Y-73287115D01*
X87371619Y-73246961D01*
X87335238Y-73207625D01*
X87297861Y-73169207D01*
X87258146Y-73130885D01*
X87237749Y-73112206D01*
X87216984Y-73093909D01*
X87195842Y-73076037D01*
X87174315Y-73058635D01*
X87152397Y-73041749D01*
X87130081Y-73025422D01*
X87107358Y-73009699D01*
X87084222Y-72994625D01*
X87060664Y-72980245D01*
X87036678Y-72966603D01*
X87012256Y-72953743D01*
X86987391Y-72941711D01*
X86962076Y-72930552D01*
X86936302Y-72920309D01*
X86773287Y-72861826D01*
X86732976Y-72846124D01*
X86713047Y-72837765D01*
X86693309Y-72828985D01*
X86673791Y-72819721D01*
X86654523Y-72809909D01*
X86635532Y-72799487D01*
X86616849Y-72788393D01*
X86601461Y-72778911D01*
X86586421Y-72768883D01*
X86571750Y-72758323D01*
X86557467Y-72747244D01*
X86543592Y-72735661D01*
X86530146Y-72723587D01*
X86517148Y-72711037D01*
X86504619Y-72698024D01*
X86492578Y-72684563D01*
X86481047Y-72670667D01*
X86470044Y-72656351D01*
X86459591Y-72641629D01*
X86449706Y-72626513D01*
X86440410Y-72611020D01*
X86431723Y-72595162D01*
X86423683Y-72578987D01*
X89045117Y-71065468D01*
X87574086Y-73496619D01*
G37*
G36*
X86423683Y-72578987D02*
G01*
X86423677Y-72578991D01*
X86423666Y-72578953D01*
X86423683Y-72578987D01*
G37*
D11*
X65261904Y-89137333D02*
X63738095Y-89137333D01*
X64499999Y-89899238D02*
X64499999Y-88375428D01*
X86261904Y-89137333D02*
X84738095Y-89137333D01*
X81261904Y-89137333D02*
X79738095Y-89137333D01*
X80499999Y-89899238D02*
X80499999Y-88375428D01*
X70261904Y-89137333D02*
X68738095Y-89137333D01*
X61637333Y-62988095D02*
X61637333Y-64511905D01*
D12*
G36*
X93172303Y-76261098D02*
G01*
X93157952Y-76232396D01*
X93157952Y-76100936D01*
X93173740Y-76069359D01*
X93205318Y-76053571D01*
X93213809Y-76053571D01*
X93172303Y-76261098D01*
G37*
G36*
X93530336Y-74126541D02*
G01*
X93549268Y-74145473D01*
X93574619Y-74196174D01*
X93574619Y-74280014D01*
X93549268Y-74330715D01*
X93530336Y-74349648D01*
X93479634Y-74374999D01*
X93252937Y-74374999D01*
X93202235Y-74349648D01*
X93183302Y-74330716D01*
X93157952Y-74280015D01*
X93157952Y-74196174D01*
X93183302Y-74145472D01*
X93202235Y-74126540D01*
X93252937Y-74101190D01*
X93479634Y-74101190D01*
X93530336Y-74126541D01*
G37*
G36*
X93098428Y-73375252D02*
G01*
X93073077Y-73425953D01*
X93054145Y-73444886D01*
X93003444Y-73470237D01*
X92919604Y-73470237D01*
X92868902Y-73444886D01*
X92849969Y-73425954D01*
X92824619Y-73375253D01*
X92824619Y-73148809D01*
X93098428Y-73148809D01*
X93098428Y-73375252D01*
G37*
G36*
X93949619Y-77366645D02*
G01*
X92449619Y-77366645D01*
X92449619Y-77023809D01*
X92907952Y-77023809D01*
X92907952Y-77119047D01*
X92910354Y-77143433D01*
X92929018Y-77188493D01*
X92963506Y-77222981D01*
X93008566Y-77241645D01*
X93057338Y-77241645D01*
X93102398Y-77222981D01*
X93136886Y-77188493D01*
X93155550Y-77143433D01*
X93157952Y-77119047D01*
X93157952Y-77053317D01*
X93183302Y-77002615D01*
X93202235Y-76983683D01*
X93252937Y-76958333D01*
X93699619Y-76958333D01*
X93724005Y-76955931D01*
X93769065Y-76937267D01*
X93803553Y-76902779D01*
X93822217Y-76857719D01*
X93822217Y-76808947D01*
X93803553Y-76763887D01*
X93769065Y-76729399D01*
X93724005Y-76710735D01*
X93699619Y-76708333D01*
X93032952Y-76708333D01*
X93008566Y-76710735D01*
X92963506Y-76729399D01*
X92929018Y-76763887D01*
X92910354Y-76808947D01*
X92910354Y-76857719D01*
X92929018Y-76902779D01*
X92945481Y-76919242D01*
X92921149Y-76967907D01*
X92912391Y-76990793D01*
X92912072Y-76995274D01*
X92910354Y-76999423D01*
X92907952Y-77023809D01*
X92449619Y-77023809D01*
X92449619Y-76071428D01*
X92907952Y-76071428D01*
X92907952Y-76261904D01*
X92910354Y-76286290D01*
X92912072Y-76290438D01*
X92912391Y-76294920D01*
X92921149Y-76317806D01*
X92968767Y-76413043D01*
X92971334Y-76417121D01*
X92971976Y-76419046D01*
X92974055Y-76421443D01*
X92981822Y-76433781D01*
X92993662Y-76444050D01*
X93003932Y-76455891D01*
X93016268Y-76463657D01*
X93018667Y-76465737D01*
X93020592Y-76466378D01*
X93024669Y-76468945D01*
X93119907Y-76516564D01*
X93142793Y-76525322D01*
X93147273Y-76525640D01*
X93151423Y-76527359D01*
X93175809Y-76529761D01*
X93270916Y-76529761D01*
X93271047Y-76529761D01*
X93295433Y-76527359D01*
X93306747Y-76522672D01*
X93318761Y-76520296D01*
X93329058Y-76513431D01*
X93340493Y-76508695D01*
X93349152Y-76500035D01*
X93359343Y-76493242D01*
X93366230Y-76482957D01*
X93374981Y-76474207D01*
X93379667Y-76462892D01*
X93386482Y-76452717D01*
X93393620Y-76429276D01*
X93468761Y-76053571D01*
X93527252Y-76053571D01*
X93558830Y-76069360D01*
X93574619Y-76100936D01*
X93574619Y-76232395D01*
X93540197Y-76301240D01*
X93531439Y-76324126D01*
X93527981Y-76372776D01*
X93543405Y-76419046D01*
X93575361Y-76455891D01*
X93618984Y-76477703D01*
X93667634Y-76481161D01*
X93713904Y-76465737D01*
X93750749Y-76433781D01*
X93763803Y-76413044D01*
X93811422Y-76317806D01*
X93820180Y-76294920D01*
X93820498Y-76290439D01*
X93822217Y-76286290D01*
X93824619Y-76261904D01*
X93824619Y-76071428D01*
X93822217Y-76047042D01*
X93820498Y-76042892D01*
X93820180Y-76038412D01*
X93811422Y-76015526D01*
X93763803Y-75920288D01*
X93761237Y-75916212D01*
X93760595Y-75914285D01*
X93758513Y-75911884D01*
X93750749Y-75899551D01*
X93738909Y-75889282D01*
X93728638Y-75877440D01*
X93716300Y-75869673D01*
X93713904Y-75867595D01*
X93711979Y-75866953D01*
X93707901Y-75864386D01*
X93612662Y-75816767D01*
X93589776Y-75808010D01*
X93585296Y-75807691D01*
X93581147Y-75805973D01*
X93556761Y-75803571D01*
X93175809Y-75803571D01*
X93151423Y-75805973D01*
X93147273Y-75807691D01*
X93142793Y-75808010D01*
X93119907Y-75816768D01*
X93024669Y-75864387D01*
X93020592Y-75866953D01*
X93018667Y-75867595D01*
X93016268Y-75869674D01*
X93003932Y-75877441D01*
X92993662Y-75889281D01*
X92981822Y-75899551D01*
X92974055Y-75911888D01*
X92971976Y-75914286D01*
X92971334Y-75916210D01*
X92968767Y-75920289D01*
X92921149Y-76015526D01*
X92912391Y-76038412D01*
X92912072Y-76042893D01*
X92910354Y-76047042D01*
X92907952Y-76071428D01*
X92449619Y-76071428D01*
X92449619Y-74823101D01*
X92908372Y-74823101D01*
X92913939Y-74871554D01*
X92937625Y-74914190D01*
X92975824Y-74944515D01*
X92998612Y-74953524D01*
X93313697Y-75043547D01*
X93177004Y-75098225D01*
X93155254Y-75109512D01*
X93154143Y-75110595D01*
X93152719Y-75111206D01*
X93136731Y-75127588D01*
X93120349Y-75143576D01*
X93119738Y-75145000D01*
X93118655Y-75146111D01*
X93110154Y-75167363D01*
X93101136Y-75188406D01*
X93101117Y-75189957D01*
X93100542Y-75191395D01*
X93100820Y-75214285D01*
X93100542Y-75237175D01*
X93101117Y-75238612D01*
X93101136Y-75240164D01*
X93110154Y-75261206D01*
X93118655Y-75282459D01*
X93119738Y-75283569D01*
X93120349Y-75284994D01*
X93136731Y-75300981D01*
X93152719Y-75317364D01*
X93154143Y-75317974D01*
X93155254Y-75319058D01*
X93177004Y-75330345D01*
X93313697Y-75385022D01*
X92998612Y-75475046D01*
X92975824Y-75484055D01*
X92937625Y-75514380D01*
X92913939Y-75557016D01*
X92908372Y-75605469D01*
X92921770Y-75652365D01*
X92952095Y-75690564D01*
X92994731Y-75714250D01*
X93043184Y-75719817D01*
X93067292Y-75715428D01*
X93733959Y-75524952D01*
X93756747Y-75515943D01*
X93762995Y-75510982D01*
X93770328Y-75507840D01*
X93781929Y-75495951D01*
X93794946Y-75485618D01*
X93798822Y-75478640D01*
X93804391Y-75472934D01*
X93810560Y-75457511D01*
X93818632Y-75442982D01*
X93819542Y-75435056D01*
X93822505Y-75427651D01*
X93822302Y-75411034D01*
X93824199Y-75394529D01*
X93822008Y-75386860D01*
X93821911Y-75378882D01*
X93815365Y-75363608D01*
X93810801Y-75347633D01*
X93805840Y-75341384D01*
X93802698Y-75334052D01*
X93790808Y-75322449D01*
X93780476Y-75309434D01*
X93773500Y-75305558D01*
X93767792Y-75299988D01*
X93746043Y-75288701D01*
X93560002Y-75214285D01*
X93746043Y-75139869D01*
X93767792Y-75128582D01*
X93773500Y-75123011D01*
X93780476Y-75119136D01*
X93790808Y-75106120D01*
X93802698Y-75094518D01*
X93805840Y-75087185D01*
X93810801Y-75080937D01*
X93815365Y-75064961D01*
X93821911Y-75049688D01*
X93822008Y-75041709D01*
X93824199Y-75034041D01*
X93822302Y-75017535D01*
X93822505Y-75000919D01*
X93819542Y-74993513D01*
X93818632Y-74985588D01*
X93810560Y-74971058D01*
X93804391Y-74955636D01*
X93798822Y-74949929D01*
X93794946Y-74942952D01*
X93781929Y-74932618D01*
X93770328Y-74920730D01*
X93762995Y-74917587D01*
X93756747Y-74912627D01*
X93733959Y-74903618D01*
X93067292Y-74713142D01*
X93043184Y-74708753D01*
X92994731Y-74714320D01*
X92952095Y-74738006D01*
X92921770Y-74776205D01*
X92908372Y-74823101D01*
X92449619Y-74823101D01*
X92449619Y-74166666D01*
X92907952Y-74166666D01*
X92907952Y-74309523D01*
X92910354Y-74333909D01*
X92912072Y-74338057D01*
X92912391Y-74342539D01*
X92921149Y-74365425D01*
X92968767Y-74460662D01*
X92975376Y-74471160D01*
X92976638Y-74474207D01*
X92979453Y-74477638D01*
X92981822Y-74481400D01*
X92984316Y-74483563D01*
X92992183Y-74493149D01*
X93039801Y-74540768D01*
X93049389Y-74548637D01*
X93051551Y-74551129D01*
X93055308Y-74553494D01*
X93058743Y-74556313D01*
X93061793Y-74557576D01*
X93072288Y-74564183D01*
X93167526Y-74611802D01*
X93190412Y-74620560D01*
X93194892Y-74620878D01*
X93199042Y-74622597D01*
X93223428Y-74624999D01*
X93509142Y-74624999D01*
X93533528Y-74622597D01*
X93537676Y-74620878D01*
X93542158Y-74620560D01*
X93565044Y-74611802D01*
X93660281Y-74564184D01*
X93670777Y-74557576D01*
X93673825Y-74556314D01*
X93677258Y-74553496D01*
X93681019Y-74551129D01*
X93683182Y-74548634D01*
X93692767Y-74540769D01*
X93740387Y-74493150D01*
X93748256Y-74483561D01*
X93750749Y-74481400D01*
X93753112Y-74477645D01*
X93755933Y-74474209D01*
X93757197Y-74471155D01*
X93763803Y-74460663D01*
X93811422Y-74365425D01*
X93820180Y-74342539D01*
X93820498Y-74338058D01*
X93822217Y-74333909D01*
X93824619Y-74309523D01*
X93824619Y-74166666D01*
X93822217Y-74142280D01*
X93820498Y-74138130D01*
X93820180Y-74133650D01*
X93811422Y-74110764D01*
X93763803Y-74015526D01*
X93757197Y-74005033D01*
X93755933Y-74001980D01*
X93753112Y-73998543D01*
X93750749Y-73994789D01*
X93748256Y-73992627D01*
X93740387Y-73983039D01*
X93692767Y-73935420D01*
X93683182Y-73927554D01*
X93681019Y-73925060D01*
X93677258Y-73922692D01*
X93673825Y-73919875D01*
X93670777Y-73918612D01*
X93660281Y-73912005D01*
X93565044Y-73864387D01*
X93542158Y-73855629D01*
X93537676Y-73855310D01*
X93533528Y-73853592D01*
X93509142Y-73851190D01*
X93223428Y-73851190D01*
X93199042Y-73853592D01*
X93194892Y-73855310D01*
X93190412Y-73855629D01*
X93167526Y-73864387D01*
X93072288Y-73912006D01*
X93061793Y-73918612D01*
X93058743Y-73919876D01*
X93055308Y-73922694D01*
X93051551Y-73925060D01*
X93049389Y-73927551D01*
X93039801Y-73935421D01*
X92992183Y-73983040D01*
X92984316Y-73992625D01*
X92981822Y-73994789D01*
X92979453Y-73998550D01*
X92976638Y-74001982D01*
X92975376Y-74005028D01*
X92968767Y-74015527D01*
X92921149Y-74110764D01*
X92912391Y-74133650D01*
X92912072Y-74138131D01*
X92910354Y-74142280D01*
X92907952Y-74166666D01*
X92449619Y-74166666D01*
X92449619Y-73023809D01*
X92574619Y-73023809D01*
X92574619Y-73404761D01*
X92577021Y-73429147D01*
X92578739Y-73433295D01*
X92579058Y-73437777D01*
X92587816Y-73460663D01*
X92635434Y-73555900D01*
X92642043Y-73566398D01*
X92643305Y-73569445D01*
X92646120Y-73572876D01*
X92648489Y-73576638D01*
X92650983Y-73578801D01*
X92658850Y-73588387D01*
X92706468Y-73636006D01*
X92716056Y-73643875D01*
X92718218Y-73646367D01*
X92721975Y-73648732D01*
X92725410Y-73651551D01*
X92728460Y-73652814D01*
X92738955Y-73659421D01*
X92834193Y-73707040D01*
X92857079Y-73715798D01*
X92861559Y-73716116D01*
X92865709Y-73717835D01*
X92890095Y-73720237D01*
X93032952Y-73720237D01*
X93057338Y-73717835D01*
X93061486Y-73716116D01*
X93065968Y-73715798D01*
X93088854Y-73707040D01*
X93184091Y-73659422D01*
X93194589Y-73652812D01*
X93197636Y-73651551D01*
X93201067Y-73648735D01*
X93204829Y-73646367D01*
X93206992Y-73643872D01*
X93216578Y-73636006D01*
X93264197Y-73588388D01*
X93272066Y-73578799D01*
X93274558Y-73576638D01*
X93276923Y-73572880D01*
X93279742Y-73569446D01*
X93281005Y-73566395D01*
X93287612Y-73555901D01*
X93335231Y-73460663D01*
X93343989Y-73437777D01*
X93344307Y-73433296D01*
X93346026Y-73429147D01*
X93348428Y-73404761D01*
X93348428Y-73148809D01*
X93699619Y-73148809D01*
X93724005Y-73146407D01*
X93769065Y-73127743D01*
X93803553Y-73093255D01*
X93822217Y-73048195D01*
X93822217Y-72999423D01*
X93803553Y-72954363D01*
X93769065Y-72919875D01*
X93724005Y-72901211D01*
X93699619Y-72898809D01*
X92699619Y-72898809D01*
X92675233Y-72901211D01*
X92630173Y-72919875D01*
X92595685Y-72954363D01*
X92577021Y-72999423D01*
X92574619Y-73023809D01*
X92449619Y-73023809D01*
X92449619Y-72773809D01*
X93949619Y-72773809D01*
X93949619Y-77366645D01*
G37*
D13*
X78421704Y-68178570D02*
X78421704Y-68654760D01*
X78707419Y-68083332D02*
X77707419Y-68416665D01*
X77707419Y-68416665D02*
X78707419Y-68749998D01*
X78707419Y-69226189D02*
X78659800Y-69130951D01*
X78659800Y-69130951D02*
X78564561Y-69083332D01*
X78564561Y-69083332D02*
X77707419Y-69083332D01*
X78659800Y-69988094D02*
X78707419Y-69892856D01*
X78707419Y-69892856D02*
X78707419Y-69702380D01*
X78707419Y-69702380D02*
X78659800Y-69607142D01*
X78659800Y-69607142D02*
X78564561Y-69559523D01*
X78564561Y-69559523D02*
X78183609Y-69559523D01*
X78183609Y-69559523D02*
X78088371Y-69607142D01*
X78088371Y-69607142D02*
X78040752Y-69702380D01*
X78040752Y-69702380D02*
X78040752Y-69892856D01*
X78040752Y-69892856D02*
X78088371Y-69988094D01*
X78088371Y-69988094D02*
X78183609Y-70035713D01*
X78183609Y-70035713D02*
X78278847Y-70035713D01*
X78278847Y-70035713D02*
X78374085Y-69559523D01*
X78707419Y-70369047D02*
X78040752Y-70892856D01*
X78040752Y-70369047D02*
X78707419Y-70892856D01*
X78707419Y-71702380D02*
X78183609Y-71702380D01*
X78183609Y-71702380D02*
X78088371Y-71654761D01*
X78088371Y-71654761D02*
X78040752Y-71559523D01*
X78040752Y-71559523D02*
X78040752Y-71369047D01*
X78040752Y-71369047D02*
X78088371Y-71273809D01*
X78659800Y-71702380D02*
X78707419Y-71607142D01*
X78707419Y-71607142D02*
X78707419Y-71369047D01*
X78707419Y-71369047D02*
X78659800Y-71273809D01*
X78659800Y-71273809D02*
X78564561Y-71226190D01*
X78564561Y-71226190D02*
X78469323Y-71226190D01*
X78469323Y-71226190D02*
X78374085Y-71273809D01*
X78374085Y-71273809D02*
X78326466Y-71369047D01*
X78326466Y-71369047D02*
X78326466Y-71607142D01*
X78326466Y-71607142D02*
X78278847Y-71702380D01*
X78040752Y-72178571D02*
X78707419Y-72178571D01*
X78135990Y-72178571D02*
X78088371Y-72226190D01*
X78088371Y-72226190D02*
X78040752Y-72321428D01*
X78040752Y-72321428D02*
X78040752Y-72464285D01*
X78040752Y-72464285D02*
X78088371Y-72559523D01*
X78088371Y-72559523D02*
X78183609Y-72607142D01*
X78183609Y-72607142D02*
X78707419Y-72607142D01*
X78707419Y-73511904D02*
X77707419Y-73511904D01*
X78659800Y-73511904D02*
X78707419Y-73416666D01*
X78707419Y-73416666D02*
X78707419Y-73226190D01*
X78707419Y-73226190D02*
X78659800Y-73130952D01*
X78659800Y-73130952D02*
X78612180Y-73083333D01*
X78612180Y-73083333D02*
X78516942Y-73035714D01*
X78516942Y-73035714D02*
X78231228Y-73035714D01*
X78231228Y-73035714D02*
X78135990Y-73083333D01*
X78135990Y-73083333D02*
X78088371Y-73130952D01*
X78088371Y-73130952D02*
X78040752Y-73226190D01*
X78040752Y-73226190D02*
X78040752Y-73416666D01*
X78040752Y-73416666D02*
X78088371Y-73511904D01*
X78659800Y-74369047D02*
X78707419Y-74273809D01*
X78707419Y-74273809D02*
X78707419Y-74083333D01*
X78707419Y-74083333D02*
X78659800Y-73988095D01*
X78659800Y-73988095D02*
X78564561Y-73940476D01*
X78564561Y-73940476D02*
X78183609Y-73940476D01*
X78183609Y-73940476D02*
X78088371Y-73988095D01*
X78088371Y-73988095D02*
X78040752Y-74083333D01*
X78040752Y-74083333D02*
X78040752Y-74273809D01*
X78040752Y-74273809D02*
X78088371Y-74369047D01*
X78088371Y-74369047D02*
X78183609Y-74416666D01*
X78183609Y-74416666D02*
X78278847Y-74416666D01*
X78278847Y-74416666D02*
X78374085Y-73940476D01*
X78707419Y-74845238D02*
X78040752Y-74845238D01*
X78231228Y-74845238D02*
X78135990Y-74892857D01*
X78135990Y-74892857D02*
X78088371Y-74940476D01*
X78088371Y-74940476D02*
X78040752Y-75035714D01*
X78040752Y-75035714D02*
X78040752Y-75130952D01*
X78421704Y-76178572D02*
X78421704Y-76654762D01*
X78707419Y-76083334D02*
X77707419Y-76416667D01*
X77707419Y-76416667D02*
X78707419Y-76750000D01*
X78707419Y-77083334D02*
X78040752Y-77083334D01*
X78231228Y-77083334D02*
X78135990Y-77130953D01*
X78135990Y-77130953D02*
X78088371Y-77178572D01*
X78088371Y-77178572D02*
X78040752Y-77273810D01*
X78040752Y-77273810D02*
X78040752Y-77369048D01*
X78707419Y-77702382D02*
X78040752Y-77702382D01*
X78135990Y-77702382D02*
X78088371Y-77750001D01*
X78088371Y-77750001D02*
X78040752Y-77845239D01*
X78040752Y-77845239D02*
X78040752Y-77988096D01*
X78040752Y-77988096D02*
X78088371Y-78083334D01*
X78088371Y-78083334D02*
X78183609Y-78130953D01*
X78183609Y-78130953D02*
X78707419Y-78130953D01*
X78183609Y-78130953D02*
X78088371Y-78178572D01*
X78088371Y-78178572D02*
X78040752Y-78273810D01*
X78040752Y-78273810D02*
X78040752Y-78416667D01*
X78040752Y-78416667D02*
X78088371Y-78511906D01*
X78088371Y-78511906D02*
X78183609Y-78559525D01*
X78183609Y-78559525D02*
X78707419Y-78559525D01*
X78707419Y-79035715D02*
X78040752Y-79035715D01*
X77707419Y-79035715D02*
X77755038Y-78988096D01*
X77755038Y-78988096D02*
X77802657Y-79035715D01*
X77802657Y-79035715D02*
X77755038Y-79083334D01*
X77755038Y-79083334D02*
X77707419Y-79035715D01*
X77707419Y-79035715D02*
X77802657Y-79035715D01*
X78040752Y-79369048D02*
X78040752Y-79750000D01*
X77707419Y-79511905D02*
X78564561Y-79511905D01*
X78564561Y-79511905D02*
X78659800Y-79559524D01*
X78659800Y-79559524D02*
X78707419Y-79654762D01*
X78707419Y-79654762D02*
X78707419Y-79750000D01*
X78707419Y-80511905D02*
X78183609Y-80511905D01*
X78183609Y-80511905D02*
X78088371Y-80464286D01*
X78088371Y-80464286D02*
X78040752Y-80369048D01*
X78040752Y-80369048D02*
X78040752Y-80178572D01*
X78040752Y-80178572D02*
X78088371Y-80083334D01*
X78659800Y-80511905D02*
X78707419Y-80416667D01*
X78707419Y-80416667D02*
X78707419Y-80178572D01*
X78707419Y-80178572D02*
X78659800Y-80083334D01*
X78659800Y-80083334D02*
X78564561Y-80035715D01*
X78564561Y-80035715D02*
X78469323Y-80035715D01*
X78469323Y-80035715D02*
X78374085Y-80083334D01*
X78374085Y-80083334D02*
X78326466Y-80178572D01*
X78326466Y-80178572D02*
X78326466Y-80416667D01*
X78326466Y-80416667D02*
X78278847Y-80511905D01*
X78040752Y-81416667D02*
X78850276Y-81416667D01*
X78850276Y-81416667D02*
X78945514Y-81369048D01*
X78945514Y-81369048D02*
X78993133Y-81321429D01*
X78993133Y-81321429D02*
X79040752Y-81226191D01*
X79040752Y-81226191D02*
X79040752Y-81083334D01*
X79040752Y-81083334D02*
X78993133Y-80988096D01*
X78659800Y-81416667D02*
X78707419Y-81321429D01*
X78707419Y-81321429D02*
X78707419Y-81130953D01*
X78707419Y-81130953D02*
X78659800Y-81035715D01*
X78659800Y-81035715D02*
X78612180Y-80988096D01*
X78612180Y-80988096D02*
X78516942Y-80940477D01*
X78516942Y-80940477D02*
X78231228Y-80940477D01*
X78231228Y-80940477D02*
X78135990Y-80988096D01*
X78135990Y-80988096D02*
X78088371Y-81035715D01*
X78088371Y-81035715D02*
X78040752Y-81130953D01*
X78040752Y-81130953D02*
X78040752Y-81321429D01*
X78040752Y-81321429D02*
X78088371Y-81416667D01*
X78659800Y-82273810D02*
X78707419Y-82178572D01*
X78707419Y-82178572D02*
X78707419Y-81988096D01*
X78707419Y-81988096D02*
X78659800Y-81892858D01*
X78659800Y-81892858D02*
X78564561Y-81845239D01*
X78564561Y-81845239D02*
X78183609Y-81845239D01*
X78183609Y-81845239D02*
X78088371Y-81892858D01*
X78088371Y-81892858D02*
X78040752Y-81988096D01*
X78040752Y-81988096D02*
X78040752Y-82178572D01*
X78040752Y-82178572D02*
X78088371Y-82273810D01*
X78088371Y-82273810D02*
X78183609Y-82321429D01*
X78183609Y-82321429D02*
X78278847Y-82321429D01*
X78278847Y-82321429D02*
X78374085Y-81845239D01*
X79707419Y-73726191D02*
X80707419Y-74059524D01*
X80707419Y-74059524D02*
X79707419Y-74392857D01*
X80707419Y-75250000D02*
X80707419Y-74678572D01*
X80707419Y-74964286D02*
X79707419Y-74964286D01*
X79707419Y-74964286D02*
X79850276Y-74869048D01*
X79850276Y-74869048D02*
X79945514Y-74773810D01*
X79945514Y-74773810D02*
X79993133Y-74678572D01*
X80612180Y-75678572D02*
X80659800Y-75726191D01*
X80659800Y-75726191D02*
X80707419Y-75678572D01*
X80707419Y-75678572D02*
X80659800Y-75630953D01*
X80659800Y-75630953D02*
X80612180Y-75678572D01*
X80612180Y-75678572D02*
X80707419Y-75678572D01*
X79707419Y-76345238D02*
X79707419Y-76440476D01*
X79707419Y-76440476D02*
X79755038Y-76535714D01*
X79755038Y-76535714D02*
X79802657Y-76583333D01*
X79802657Y-76583333D02*
X79897895Y-76630952D01*
X79897895Y-76630952D02*
X80088371Y-76678571D01*
X80088371Y-76678571D02*
X80326466Y-76678571D01*
X80326466Y-76678571D02*
X80516942Y-76630952D01*
X80516942Y-76630952D02*
X80612180Y-76583333D01*
X80612180Y-76583333D02*
X80659800Y-76535714D01*
X80659800Y-76535714D02*
X80707419Y-76440476D01*
X80707419Y-76440476D02*
X80707419Y-76345238D01*
X80707419Y-76345238D02*
X80659800Y-76250000D01*
X80659800Y-76250000D02*
X80612180Y-76202381D01*
X80612180Y-76202381D02*
X80516942Y-76154762D01*
X80516942Y-76154762D02*
X80326466Y-76107143D01*
X80326466Y-76107143D02*
X80088371Y-76107143D01*
X80088371Y-76107143D02*
X79897895Y-76154762D01*
X79897895Y-76154762D02*
X79802657Y-76202381D01*
X79802657Y-76202381D02*
X79755038Y-76250000D01*
X79755038Y-76250000D02*
X79707419Y-76345238D01*
D11*
X81261904Y-60887333D02*
X79738095Y-60887333D01*
X70261904Y-60887333D02*
X68738095Y-60887333D01*
X69499999Y-61649238D02*
X69499999Y-60125428D01*
X65261904Y-60887333D02*
X63738095Y-60887333D01*
X86261904Y-60887333D02*
X84738095Y-60887333D01*
X85499999Y-61649238D02*
X85499999Y-60125428D01*
D12*
X65414619Y-77309711D02*
X66414619Y-77643044D01*
X66414619Y-77643044D02*
X65414619Y-77976377D01*
X65890809Y-78643044D02*
X65938428Y-78785901D01*
X65938428Y-78785901D02*
X65986047Y-78833520D01*
X65986047Y-78833520D02*
X66081285Y-78881139D01*
X66081285Y-78881139D02*
X66224142Y-78881139D01*
X66224142Y-78881139D02*
X66319380Y-78833520D01*
X66319380Y-78833520D02*
X66367000Y-78785901D01*
X66367000Y-78785901D02*
X66414619Y-78690663D01*
X66414619Y-78690663D02*
X66414619Y-78309711D01*
X66414619Y-78309711D02*
X65414619Y-78309711D01*
X65414619Y-78309711D02*
X65414619Y-78643044D01*
X65414619Y-78643044D02*
X65462238Y-78738282D01*
X65462238Y-78738282D02*
X65509857Y-78785901D01*
X65509857Y-78785901D02*
X65605095Y-78833520D01*
X65605095Y-78833520D02*
X65700333Y-78833520D01*
X65700333Y-78833520D02*
X65795571Y-78785901D01*
X65795571Y-78785901D02*
X65843190Y-78738282D01*
X65843190Y-78738282D02*
X65890809Y-78643044D01*
X65890809Y-78643044D02*
X65890809Y-78309711D01*
X66128904Y-79262092D02*
X66128904Y-79738282D01*
X66414619Y-79166854D02*
X65414619Y-79500187D01*
X65414619Y-79500187D02*
X66414619Y-79833520D01*
X65414619Y-80023997D02*
X65414619Y-80595425D01*
X66414619Y-80309711D02*
X65414619Y-80309711D01*
X68814619Y-70428758D02*
X68814619Y-69952568D01*
X68814619Y-69952568D02*
X69290809Y-69904949D01*
X69290809Y-69904949D02*
X69243190Y-69952568D01*
X69243190Y-69952568D02*
X69195571Y-70047806D01*
X69195571Y-70047806D02*
X69195571Y-70285901D01*
X69195571Y-70285901D02*
X69243190Y-70381139D01*
X69243190Y-70381139D02*
X69290809Y-70428758D01*
X69290809Y-70428758D02*
X69386047Y-70476377D01*
X69386047Y-70476377D02*
X69624142Y-70476377D01*
X69624142Y-70476377D02*
X69719380Y-70428758D01*
X69719380Y-70428758D02*
X69767000Y-70381139D01*
X69767000Y-70381139D02*
X69814619Y-70285901D01*
X69814619Y-70285901D02*
X69814619Y-70047806D01*
X69814619Y-70047806D02*
X69767000Y-69952568D01*
X69767000Y-69952568D02*
X69719380Y-69904949D01*
X68814619Y-70762092D02*
X69814619Y-71095425D01*
X69814619Y-71095425D02*
X68814619Y-71428758D01*
X69909857Y-71523997D02*
X69909857Y-72285901D01*
X69290809Y-72857330D02*
X69290809Y-72523997D01*
X69814619Y-72523997D02*
X68814619Y-72523997D01*
X68814619Y-72523997D02*
X68814619Y-73000187D01*
X69290809Y-73714473D02*
X69338428Y-73857330D01*
X69338428Y-73857330D02*
X69386047Y-73904949D01*
X69386047Y-73904949D02*
X69481285Y-73952568D01*
X69481285Y-73952568D02*
X69624142Y-73952568D01*
X69624142Y-73952568D02*
X69719380Y-73904949D01*
X69719380Y-73904949D02*
X69767000Y-73857330D01*
X69767000Y-73857330D02*
X69814619Y-73762092D01*
X69814619Y-73762092D02*
X69814619Y-73381140D01*
X69814619Y-73381140D02*
X68814619Y-73381140D01*
X68814619Y-73381140D02*
X68814619Y-73714473D01*
X68814619Y-73714473D02*
X68862238Y-73809711D01*
X68862238Y-73809711D02*
X68909857Y-73857330D01*
X68909857Y-73857330D02*
X69005095Y-73904949D01*
X69005095Y-73904949D02*
X69100333Y-73904949D01*
X69100333Y-73904949D02*
X69195571Y-73857330D01*
X69195571Y-73857330D02*
X69243190Y-73809711D01*
X69243190Y-73809711D02*
X69290809Y-73714473D01*
X69290809Y-73714473D02*
X69290809Y-73381140D01*
D14*
X75583009Y-68107142D02*
X75583009Y-69059523D01*
X76154438Y-67916666D02*
X74154438Y-68583332D01*
X74154438Y-68583332D02*
X76154438Y-69249999D01*
X74154438Y-69916666D02*
X75773485Y-69916666D01*
X75773485Y-69916666D02*
X75963961Y-70011904D01*
X75963961Y-70011904D02*
X76059200Y-70107142D01*
X76059200Y-70107142D02*
X76154438Y-70297618D01*
X76154438Y-70297618D02*
X76154438Y-70678571D01*
X76154438Y-70678571D02*
X76059200Y-70869047D01*
X76059200Y-70869047D02*
X75963961Y-70964285D01*
X75963961Y-70964285D02*
X75773485Y-71059523D01*
X75773485Y-71059523D02*
X74154438Y-71059523D01*
X76154438Y-73154761D02*
X75202057Y-72488094D01*
X76154438Y-72011904D02*
X74154438Y-72011904D01*
X74154438Y-72011904D02*
X74154438Y-72773809D01*
X74154438Y-72773809D02*
X74249676Y-72964285D01*
X74249676Y-72964285D02*
X74344914Y-73059523D01*
X74344914Y-73059523D02*
X74535390Y-73154761D01*
X74535390Y-73154761D02*
X74821104Y-73154761D01*
X74821104Y-73154761D02*
X75011580Y-73059523D01*
X75011580Y-73059523D02*
X75106819Y-72964285D01*
X75106819Y-72964285D02*
X75202057Y-72773809D01*
X75202057Y-72773809D02*
X75202057Y-72011904D01*
X75583009Y-73916666D02*
X75583009Y-74869047D01*
X76154438Y-73726190D02*
X74154438Y-74392856D01*
X74154438Y-74392856D02*
X76154438Y-75059523D01*
X76154438Y-77250000D02*
X74154438Y-77250000D01*
X74154438Y-77250000D02*
X74154438Y-78011905D01*
X74154438Y-78011905D02*
X74249676Y-78202381D01*
X74249676Y-78202381D02*
X74344914Y-78297619D01*
X74344914Y-78297619D02*
X74535390Y-78392857D01*
X74535390Y-78392857D02*
X74821104Y-78392857D01*
X74821104Y-78392857D02*
X75011580Y-78297619D01*
X75011580Y-78297619D02*
X75106819Y-78202381D01*
X75106819Y-78202381D02*
X75202057Y-78011905D01*
X75202057Y-78011905D02*
X75202057Y-77250000D01*
X76154438Y-79250000D02*
X74154438Y-79250000D01*
X74154438Y-79250000D02*
X74154438Y-79726190D01*
X74154438Y-79726190D02*
X74249676Y-80011905D01*
X74249676Y-80011905D02*
X74440152Y-80202381D01*
X74440152Y-80202381D02*
X74630628Y-80297619D01*
X74630628Y-80297619D02*
X75011580Y-80392857D01*
X75011580Y-80392857D02*
X75297295Y-80392857D01*
X75297295Y-80392857D02*
X75678247Y-80297619D01*
X75678247Y-80297619D02*
X75868723Y-80202381D01*
X75868723Y-80202381D02*
X76059200Y-80011905D01*
X76059200Y-80011905D02*
X76154438Y-79726190D01*
X76154438Y-79726190D02*
X76154438Y-79250000D01*
X75106819Y-81916667D02*
X75202057Y-82202381D01*
X75202057Y-82202381D02*
X75297295Y-82297619D01*
X75297295Y-82297619D02*
X75487771Y-82392857D01*
X75487771Y-82392857D02*
X75773485Y-82392857D01*
X75773485Y-82392857D02*
X75963961Y-82297619D01*
X75963961Y-82297619D02*
X76059200Y-82202381D01*
X76059200Y-82202381D02*
X76154438Y-82011905D01*
X76154438Y-82011905D02*
X76154438Y-81250000D01*
X76154438Y-81250000D02*
X74154438Y-81250000D01*
X74154438Y-81250000D02*
X74154438Y-81916667D01*
X74154438Y-81916667D02*
X74249676Y-82107143D01*
X74249676Y-82107143D02*
X74344914Y-82202381D01*
X74344914Y-82202381D02*
X74535390Y-82297619D01*
X74535390Y-82297619D02*
X74725866Y-82297619D01*
X74725866Y-82297619D02*
X74916342Y-82202381D01*
X74916342Y-82202381D02*
X75011580Y-82107143D01*
X75011580Y-82107143D02*
X75106819Y-81916667D01*
X75106819Y-81916667D02*
X75106819Y-81250000D01*
D11*
X61787333Y-85638095D02*
X61787333Y-87161905D01*
X62549238Y-86400000D02*
X61025428Y-86400000D01*
D15*
%TO.C,D304*%
X64300000Y-83940000D02*
X69700000Y-83940000D01*
X69700000Y-87560000D02*
X64300000Y-87560000D01*
D16*
%TO.C,JP100*%
X66850000Y-78700000D02*
X66850000Y-79300000D01*
X67550000Y-80000000D02*
X68950000Y-80000000D01*
X68950000Y-78000000D02*
X67550000Y-78000000D01*
X69650000Y-79300000D02*
X69650000Y-78700000D01*
X66850000Y-78700000D02*
G75*
G02*
X67550000Y-78000000I699999J1D01*
G01*
X67550000Y-80000000D02*
G75*
G02*
X66850000Y-79300000I-1J699999D01*
G01*
X68950000Y-78000000D02*
G75*
G02*
X69650000Y-78700000I0J-700000D01*
G01*
X69650000Y-79300000D02*
G75*
G02*
X68950000Y-80000000I-700000J0D01*
G01*
D15*
%TO.C,D305*%
X80350000Y-83940000D02*
X85750000Y-83940000D01*
X85750000Y-87560000D02*
X80350000Y-87560000D01*
%TO.C,D101*%
X57190000Y-77700000D02*
X57190000Y-72300000D01*
X60810000Y-72300000D02*
X60810000Y-77700000D01*
%TO.C,J302*%
X93648000Y-68099000D02*
G75*
G02*
X93492000Y-68099000I-78000J0D01*
G01*
X93492000Y-68099000D02*
G75*
G02*
X93648000Y-68099000I78000J0D01*
G01*
D16*
%TO.C,TP201*%
X69950000Y-68350000D02*
G75*
G02*
X68550000Y-68350000I-700000J0D01*
G01*
X68550000Y-68350000D02*
G75*
G02*
X69950000Y-68350000I700000J0D01*
G01*
%TD*%
M02*
