%TF.GenerationSoftware,KiCad,Pcbnew,9.0.2*%
%TF.CreationDate,2025-07-12T02:52:05+01:00*%
%TF.ProjectId,PDB_AURA,5044425f-4155-4524-912e-6b696361645f,rev?*%
%TF.SameCoordinates,Original*%
%TF.FileFunction,Copper,L4,Bot*%
%TF.FilePolarity,Positive*%
%FSLAX46Y46*%
G04 Gerber Fmt 4.6, Leading zero omitted, Abs format (unit mm)*
G04 Created by KiCad (PCBNEW 9.0.2) date 2025-07-12 02:52:05*
%MOMM*%
%LPD*%
G01*
G04 APERTURE LIST*
G04 Aperture macros list*
%AMRoundRect*
0 Rectangle with rounded corners*
0 $1 Rounding radius*
0 $2 $3 $4 $5 $6 $7 $8 $9 X,Y pos of 4 corners*
0 Add a 4 corners polygon primitive as box body*
4,1,4,$2,$3,$4,$5,$6,$7,$8,$9,$2,$3,0*
0 Add four circle primitives for the rounded corners*
1,1,$1+$1,$2,$3*
1,1,$1+$1,$4,$5*
1,1,$1+$1,$6,$7*
1,1,$1+$1,$8,$9*
0 Add four rect primitives between the rounded corners*
20,1,$1+$1,$2,$3,$4,$5,0*
20,1,$1+$1,$4,$5,$6,$7,0*
20,1,$1+$1,$6,$7,$8,$9,0*
20,1,$1+$1,$8,$9,$2,$3,0*%
%AMFreePoly0*
4,1,23,0.500000,-0.750000,0.000000,-0.750000,0.000000,-0.745722,-0.065263,-0.745722,-0.191342,-0.711940,-0.304381,-0.646677,-0.396677,-0.554381,-0.461940,-0.441342,-0.495722,-0.315263,-0.495722,-0.250000,-0.500000,-0.250000,-0.500000,0.250000,-0.495722,0.250000,-0.495722,0.315263,-0.461940,0.441342,-0.396677,0.554381,-0.304381,0.646677,-0.191342,0.711940,-0.065263,0.745722,0.000000,0.745722,
0.000000,0.750000,0.500000,0.750000,0.500000,-0.750000,0.500000,-0.750000,$1*%
%AMFreePoly1*
4,1,23,0.000000,0.745722,0.065263,0.745722,0.191342,0.711940,0.304381,0.646677,0.396677,0.554381,0.461940,0.441342,0.495722,0.315263,0.495722,0.250000,0.500000,0.250000,0.500000,-0.250000,0.495722,-0.250000,0.495722,-0.315263,0.461940,-0.441342,0.396677,-0.554381,0.304381,-0.646677,0.191342,-0.711940,0.065263,-0.745722,0.000000,-0.745722,0.000000,-0.750000,-0.500000,-0.750000,
-0.500000,0.750000,0.000000,0.750000,0.000000,0.745722,0.000000,0.745722,$1*%
G04 Aperture macros list end*
%TA.AperFunction,ComponentPad*%
%ADD10C,2.550000*%
%TD*%
%TA.AperFunction,ComponentPad*%
%ADD11C,1.500000*%
%TD*%
%TA.AperFunction,SMDPad,CuDef*%
%ADD12RoundRect,0.250000X-0.850000X0.825000X-0.850000X-0.825000X0.850000X-0.825000X0.850000X0.825000X0*%
%TD*%
%TA.AperFunction,SMDPad,CuDef*%
%ADD13RoundRect,0.250000X0.825000X0.850000X-0.825000X0.850000X-0.825000X-0.850000X0.825000X-0.850000X0*%
%TD*%
%TA.AperFunction,SMDPad,CuDef*%
%ADD14RoundRect,0.500000X-3.500000X-2.000000X3.500000X-2.000000X3.500000X2.000000X-3.500000X2.000000X0*%
%TD*%
%TA.AperFunction,ComponentPad*%
%ADD15C,0.800000*%
%TD*%
%TA.AperFunction,ComponentPad*%
%ADD16C,6.400000*%
%TD*%
%TA.AperFunction,ComponentPad*%
%ADD17C,2.650000*%
%TD*%
%TA.AperFunction,SMDPad,CuDef*%
%ADD18RoundRect,0.400000X1.600000X-2.600000X1.600000X2.600000X-1.600000X2.600000X-1.600000X-2.600000X0*%
%TD*%
%TA.AperFunction,SMDPad,CuDef*%
%ADD19RoundRect,0.400000X-1.600000X2.600000X-1.600000X-2.600000X1.600000X-2.600000X1.600000X2.600000X0*%
%TD*%
%TA.AperFunction,SMDPad,CuDef*%
%ADD20FreePoly0,0.000000*%
%TD*%
%TA.AperFunction,SMDPad,CuDef*%
%ADD21FreePoly1,0.000000*%
%TD*%
%TA.AperFunction,SMDPad,CuDef*%
%ADD22R,1.600000X0.800000*%
%TD*%
%TA.AperFunction,SMDPad,CuDef*%
%ADD23R,3.000000X2.100000*%
%TD*%
%TA.AperFunction,SMDPad,CuDef*%
%ADD24C,1.000000*%
%TD*%
%TA.AperFunction,ViaPad*%
%ADD25C,0.600000*%
%TD*%
%TA.AperFunction,ViaPad*%
%ADD26C,0.800000*%
%TD*%
%TA.AperFunction,ViaPad*%
%ADD27C,1.000000*%
%TD*%
%TA.AperFunction,Conductor*%
%ADD28C,0.200000*%
%TD*%
%TA.AperFunction,Conductor*%
%ADD29C,0.650000*%
%TD*%
%TA.AperFunction,Conductor*%
%ADD30C,0.300000*%
%TD*%
G04 APERTURE END LIST*
D10*
%TO.P,J304,1,1*%
%TO.N,GND*%
X85500000Y-91750000D03*
%TO.P,J304,2,2*%
%TO.N,+5V*%
X80500000Y-91750000D03*
D11*
%TO.P,J304,3,3*%
%TO.N,GND*%
X88500000Y-96750000D03*
%TO.P,J304,4,4*%
X77500000Y-96750000D03*
%TD*%
D10*
%TO.P,J303,1,1*%
%TO.N,GND*%
X69500000Y-91750000D03*
%TO.P,J303,2,2*%
%TO.N,+BATT_FILT*%
X64500000Y-91750000D03*
D11*
%TO.P,J303,3,3*%
%TO.N,GND*%
X72500000Y-96750000D03*
%TO.P,J303,4,4*%
%TO.N,+BATT_FILT*%
X61500000Y-96750000D03*
%TD*%
D10*
%TO.P,J301,1,1*%
%TO.N,/300_Connectors/VBAT_CH2*%
X80500000Y-58250000D03*
%TO.P,J301,2,2*%
%TO.N,+BATT_FILT*%
X85500000Y-58250000D03*
D11*
%TO.P,J301,3,3*%
%TO.N,GND*%
X77500000Y-53250000D03*
%TO.P,J301,4,4*%
X88500000Y-53250000D03*
%TD*%
D10*
%TO.P,J300,1,1*%
%TO.N,/300_Connectors/VBAT_CH1*%
X64500000Y-58250000D03*
%TO.P,J300,2,2*%
%TO.N,+BATT_FILT*%
X69500000Y-58250000D03*
D11*
%TO.P,J300,3,3*%
%TO.N,GND*%
X61500000Y-53250000D03*
%TO.P,J300,4,4*%
X72500000Y-53250000D03*
%TD*%
D12*
%TO.P,D305,1,1*%
%TO.N,GND*%
X80850000Y-85750000D03*
%TO.P,D305,2,2*%
%TO.N,+5V*%
X85250000Y-85750000D03*
%TD*%
%TO.P,D304,1,1*%
%TO.N,GND*%
X64800000Y-85750000D03*
%TO.P,D304,2,2*%
%TO.N,+BATT_FILT*%
X69200000Y-85750000D03*
%TD*%
D13*
%TO.P,D101,1,1*%
%TO.N,GND*%
X59000000Y-72800000D03*
%TO.P,D101,2,2*%
%TO.N,+BATT*%
X59000000Y-77200000D03*
%TD*%
D14*
%TO.P,J102,1,1*%
%TO.N,GND*%
X56000000Y-63750000D03*
%TD*%
D15*
%TO.P,H102,1,1*%
%TO.N,GND*%
X92600000Y-55000000D03*
X93302944Y-53302944D03*
X93302944Y-56697056D03*
X95000000Y-52600000D03*
D16*
X95000000Y-55000000D03*
D15*
X95000000Y-57400000D03*
X96697056Y-53302944D03*
X96697056Y-56697056D03*
X97400000Y-55000000D03*
%TD*%
D17*
%TO.P,J100,1,1*%
%TO.N,+BATT*%
X63250000Y-77500000D03*
%TO.P,J100,2,2*%
%TO.N,GND*%
X63250000Y-72500000D03*
D11*
%TO.P,J100,3,3*%
X53250000Y-69500000D03*
%TO.P,J100,4,4*%
%TO.N,+BATT*%
X53250000Y-80500000D03*
%TD*%
D15*
%TO.P,H101,1,1*%
%TO.N,GND*%
X52600000Y-55000000D03*
X53302944Y-53302944D03*
X53302944Y-56697056D03*
X55000000Y-52600000D03*
D16*
X55000000Y-55000000D03*
D15*
X55000000Y-57400000D03*
X56697056Y-53302944D03*
X56697056Y-56697056D03*
X57400000Y-55000000D03*
%TD*%
%TO.P,H100,1,1*%
%TO.N,GND*%
X92600000Y-95000000D03*
X93302944Y-93302944D03*
X93302944Y-96697056D03*
X95000000Y-92600000D03*
D16*
X95000000Y-95000000D03*
D15*
X95000000Y-97400000D03*
X96697056Y-93302944D03*
X96697056Y-96697056D03*
X97400000Y-95000000D03*
%TD*%
%TO.P,H103,1,1*%
%TO.N,GND*%
X52600000Y-95000000D03*
X53302944Y-93302944D03*
X53302944Y-96697056D03*
X55000000Y-92600000D03*
D16*
X55000000Y-95000000D03*
D15*
X55000000Y-97400000D03*
X56697056Y-93302944D03*
X56697056Y-96697056D03*
X57400000Y-95000000D03*
%TD*%
D14*
%TO.P,J101,1,1*%
%TO.N,+BATT*%
X56000000Y-86250000D03*
%TD*%
D18*
%TO.P,J312,1,1*%
%TO.N,GND*%
X69500000Y-96500000D03*
%TD*%
D19*
%TO.P,J307,1,1*%
%TO.N,+BATT_FILT*%
X80500000Y-53500000D03*
%TD*%
D18*
%TO.P,J306,1,1*%
%TO.N,GND*%
X69500000Y-53500000D03*
%TD*%
D20*
%TO.P,JP100,1,A*%
%TO.N,+BATT*%
X67600000Y-79000000D03*
D21*
%TO.P,JP100,2,B*%
%TO.N,INA_IN+*%
X68900000Y-79000000D03*
%TD*%
D19*
%TO.P,J308,1,1*%
%TO.N,GND*%
X85500000Y-53500000D03*
%TD*%
D18*
%TO.P,J309,1,1*%
%TO.N,+BATT_FILT*%
X80500000Y-96500000D03*
%TD*%
%TO.P,J310,1,1*%
%TO.N,GND*%
X85500000Y-96500000D03*
%TD*%
D22*
%TO.P,J302,1,1*%
%TO.N,GND*%
X95008000Y-68125000D03*
%TO.P,J302,2,2*%
X95008000Y-69375000D03*
%TO.P,J302,3,3*%
X95008000Y-70625000D03*
%TO.P,J302,4,4*%
%TO.N,+3V3*%
X95008000Y-71875000D03*
%TO.P,J302,5,5*%
%TO.N,SDA*%
X95008000Y-73125000D03*
%TO.P,J302,6,6*%
%TO.N,SCL*%
X95008000Y-74375000D03*
%TO.P,J302,7,7*%
%TO.N,GND*%
X95008000Y-75625000D03*
%TO.P,J302,8,8*%
%TO.N,MSFT_1*%
X95008000Y-76875000D03*
%TO.P,J302,9,9*%
%TO.N,MSFT_2*%
X95008000Y-78125000D03*
%TO.P,J302,10,10*%
%TO.N,+5V*%
X95008000Y-79375000D03*
%TO.P,J302,11,11*%
X95008000Y-80625000D03*
%TO.P,J302,12,12*%
X95008000Y-81875000D03*
D23*
%TO.P,J302,13*%
%TO.N,N/C*%
X97908000Y-65575000D03*
%TO.P,J302,14*%
X97908000Y-84425000D03*
%TD*%
D24*
%TO.P,TP201,1,1*%
%TO.N,/200_Buck_Regulator/5V_FB*%
X69250000Y-68350000D03*
%TD*%
D18*
%TO.P,J305,1,1*%
%TO.N,+BATT_FILT*%
X64500000Y-53500000D03*
%TD*%
%TO.P,J311,1,1*%
%TO.N,+BATT_FILT*%
X64500000Y-96500000D03*
%TD*%
D25*
%TO.N,GND*%
X90490000Y-61800000D03*
X84000000Y-53500000D03*
X52750000Y-72750000D03*
X68750000Y-55750000D03*
X94990000Y-61800000D03*
X85850000Y-63250000D03*
X74011169Y-73332331D03*
X70450000Y-63900000D03*
D26*
X55400000Y-63100000D03*
D25*
X90250000Y-95250000D03*
X75470000Y-96040000D03*
X68000000Y-52750000D03*
X69500000Y-95000000D03*
X66750000Y-65750000D03*
X57750000Y-67750000D03*
X84000000Y-97250000D03*
X69656140Y-67436186D03*
X87000000Y-95750000D03*
X84750000Y-51250000D03*
X68000000Y-54250000D03*
X65250000Y-72750000D03*
D26*
X81285000Y-65850000D03*
D25*
X92990000Y-61800000D03*
D26*
X76550000Y-77750000D03*
D25*
X86250000Y-52000000D03*
X85500000Y-55750000D03*
X91500000Y-60250000D03*
X70250000Y-51250000D03*
X95000000Y-60250000D03*
X57750000Y-70250000D03*
X60250000Y-70250000D03*
X85500000Y-94250000D03*
X89500000Y-60250000D03*
X77040000Y-59034330D03*
X68000000Y-53500000D03*
X97650000Y-86750000D03*
X76720000Y-91500000D03*
X69500000Y-94250000D03*
X62750000Y-67750000D03*
X66014772Y-69034653D03*
X86550000Y-63250000D03*
D26*
X59150000Y-65600000D03*
D25*
X68750000Y-52750000D03*
X84750000Y-95750000D03*
X68000000Y-98750000D03*
X60250000Y-60250000D03*
X52750000Y-60250000D03*
X94000000Y-60250000D03*
X63500000Y-86500000D03*
X87000000Y-98000000D03*
X75650000Y-72760000D03*
X84000000Y-52000000D03*
X84000000Y-55750000D03*
X85500000Y-97250000D03*
X85500000Y-54250000D03*
D26*
X57900000Y-61850000D03*
D25*
X87000000Y-53500000D03*
X84750000Y-54250000D03*
X91490000Y-61800000D03*
X68000000Y-97250000D03*
X67750000Y-72050000D03*
X75250000Y-55250000D03*
D26*
X55400000Y-61850000D03*
D25*
X90250000Y-52750000D03*
D26*
X79250000Y-65500000D03*
D25*
X68750000Y-51250000D03*
X84750000Y-55000000D03*
X71000000Y-95750000D03*
D26*
X59150000Y-63100000D03*
X55400000Y-65600000D03*
D25*
X68000000Y-98000000D03*
X70250000Y-94250000D03*
D26*
X59150000Y-61850000D03*
D25*
X57750000Y-72750000D03*
X62750000Y-85000000D03*
X86250000Y-51250000D03*
X84000000Y-95750000D03*
X84750000Y-55750000D03*
X84000000Y-94250000D03*
X86250000Y-97250000D03*
X71000000Y-55000000D03*
X87000000Y-55750000D03*
X76948406Y-61530000D03*
X97750000Y-77750000D03*
D26*
X57900000Y-63100000D03*
D25*
X87000000Y-52000000D03*
X69500000Y-95750000D03*
X68750000Y-98000000D03*
D26*
X56650000Y-63100000D03*
D25*
X80000000Y-85000000D03*
X86250000Y-54250000D03*
X97510000Y-61240000D03*
X60000000Y-97750000D03*
X70250000Y-97250000D03*
X97750000Y-57750000D03*
D26*
X74000000Y-69750000D03*
D25*
X96650000Y-90050000D03*
D26*
X52900000Y-64350000D03*
D25*
X70250000Y-96500000D03*
X85500000Y-98000000D03*
X73631116Y-59647414D03*
X84000000Y-52750000D03*
X71000000Y-55750000D03*
X60250000Y-67750000D03*
D26*
X78250000Y-65500000D03*
D25*
X91250000Y-83250000D03*
X71000000Y-96500000D03*
X68750000Y-94250000D03*
X71000000Y-52750000D03*
X77750000Y-55250000D03*
D26*
X54150000Y-64350000D03*
D25*
X96650000Y-89050000D03*
X55250000Y-67750000D03*
X62750000Y-85750000D03*
X85500000Y-95750000D03*
X86250000Y-55750000D03*
X97750000Y-90250000D03*
X73280000Y-92740000D03*
X84750000Y-95000000D03*
X68750000Y-96500000D03*
D26*
X76670000Y-66290000D03*
D25*
X85500000Y-95000000D03*
X70250000Y-53500000D03*
X68750000Y-95750000D03*
X86250000Y-98750000D03*
X73625000Y-62150000D03*
D26*
X52900000Y-65600000D03*
D25*
X97750000Y-60250000D03*
X80000000Y-86500000D03*
X87000000Y-52750000D03*
X86250000Y-98000000D03*
X68750000Y-52000000D03*
X90250000Y-97750000D03*
X84000000Y-55000000D03*
X87750000Y-80250000D03*
X85150000Y-63950000D03*
X69500000Y-52750000D03*
X74073465Y-74730000D03*
X72750000Y-55250000D03*
X87000000Y-98750000D03*
X55250000Y-70250000D03*
D26*
X57900000Y-64350000D03*
X57900000Y-65600000D03*
D25*
X87000000Y-97250000D03*
X84000000Y-98000000D03*
D26*
X59150000Y-64350000D03*
D25*
X71000000Y-54250000D03*
D26*
X54150000Y-61850000D03*
D25*
X70250000Y-98000000D03*
X88070000Y-62010000D03*
D26*
X77250000Y-65500000D03*
D25*
X69800000Y-63250000D03*
D26*
X55400000Y-64350000D03*
D25*
X68000000Y-51250000D03*
X68750000Y-54250000D03*
X74785717Y-97549875D03*
X85250000Y-80250000D03*
X71000000Y-98000000D03*
X60250000Y-72750000D03*
X80000000Y-85750000D03*
X93430000Y-68420000D03*
X57750000Y-60250000D03*
D26*
X52900000Y-61850000D03*
D25*
X66000000Y-89000000D03*
X71000000Y-98750000D03*
X85850000Y-63950000D03*
X68000000Y-96500000D03*
X77750000Y-95250000D03*
X84750000Y-52750000D03*
X84000000Y-54250000D03*
X68750000Y-97250000D03*
X68750000Y-95000000D03*
D26*
X83825000Y-65850000D03*
D25*
X86250000Y-53500000D03*
X74000000Y-65275000D03*
X69500000Y-52000000D03*
D26*
X54150000Y-65600000D03*
D25*
X69500000Y-53500000D03*
X69500000Y-54250000D03*
X55250000Y-72750000D03*
X88070000Y-63000000D03*
X68000000Y-55750000D03*
X86250000Y-95750000D03*
X71000000Y-97250000D03*
X76375000Y-58500000D03*
X61930000Y-62990000D03*
X69500000Y-55750000D03*
X85500000Y-53500000D03*
X87000000Y-96500000D03*
X91250000Y-84250000D03*
X85150000Y-63250000D03*
D26*
X56650000Y-61850000D03*
D25*
X70250000Y-52750000D03*
X85500000Y-52750000D03*
X84000000Y-98750000D03*
X69150000Y-63900000D03*
X87000000Y-51250000D03*
D26*
X82560000Y-66750000D03*
D25*
X89490000Y-61800000D03*
X68750000Y-98750000D03*
X78925000Y-71250000D03*
X69500000Y-98750000D03*
D26*
X74000000Y-71250000D03*
D25*
X90250000Y-84250000D03*
X85500000Y-51250000D03*
X70250000Y-54250000D03*
X86250000Y-55000000D03*
X97750000Y-79750000D03*
X96650000Y-88050000D03*
X75250000Y-52750000D03*
X69500000Y-55000000D03*
X70250000Y-98750000D03*
X97750000Y-78750000D03*
X85500000Y-98750000D03*
D26*
X56650000Y-65600000D03*
D25*
X72350000Y-72950000D03*
X71000000Y-51250000D03*
X84750000Y-96500000D03*
X69500000Y-51250000D03*
X97650000Y-81250000D03*
X93000000Y-60250000D03*
X68000000Y-55000000D03*
X84750000Y-52000000D03*
X97750000Y-87750000D03*
X68000000Y-95750000D03*
X93420000Y-70420000D03*
X71000000Y-94250000D03*
X75425000Y-91140000D03*
D26*
X83830000Y-66750000D03*
D25*
X55250000Y-60250000D03*
D26*
X52900000Y-63100000D03*
X54150000Y-63100000D03*
D25*
X93990000Y-61800000D03*
X70250000Y-52000000D03*
X96250000Y-61240000D03*
X65750000Y-66750000D03*
X70250000Y-95000000D03*
X69500000Y-96500000D03*
X71000000Y-52000000D03*
X63520000Y-85750000D03*
X68000000Y-95000000D03*
X69350000Y-69518329D03*
X84000000Y-96500000D03*
X90500000Y-60250000D03*
X87000000Y-54250000D03*
X82750000Y-80250000D03*
D26*
X74950000Y-77750000D03*
D25*
X71000000Y-53500000D03*
X71560918Y-71021075D03*
X69150000Y-63250000D03*
X86250000Y-96500000D03*
X86250000Y-95000000D03*
X87000000Y-55000000D03*
X87000000Y-94250000D03*
X87000000Y-95000000D03*
X70250000Y-55750000D03*
X86250000Y-94250000D03*
X85500000Y-55000000D03*
X68000000Y-94250000D03*
X85500000Y-96500000D03*
X70250000Y-95750000D03*
X84750000Y-94250000D03*
X84750000Y-98000000D03*
X85380000Y-61110000D03*
X68000000Y-52000000D03*
X84750000Y-98750000D03*
X61930000Y-62010000D03*
X70450000Y-63250000D03*
X84750000Y-53500000D03*
X84000000Y-95000000D03*
X68750000Y-55000000D03*
X69500000Y-97250000D03*
X84000000Y-51250000D03*
X62750000Y-70250000D03*
X92781866Y-71382494D03*
X52750000Y-67750000D03*
X73999999Y-67689133D03*
X69800000Y-63900000D03*
X86250000Y-52750000D03*
D26*
X71400000Y-66240000D03*
D25*
X84750000Y-97250000D03*
X68750000Y-53500000D03*
D26*
X82555000Y-65850000D03*
D25*
X97650000Y-82250000D03*
X69500000Y-98000000D03*
X71000000Y-95000000D03*
D26*
X81290000Y-66750000D03*
X56650000Y-64350000D03*
D25*
X70250000Y-55000000D03*
X60250000Y-52750000D03*
X62750000Y-86500000D03*
X80250000Y-77750000D03*
X85500000Y-52000000D03*
X60000000Y-92750000D03*
%TO.N,+5V*%
X93250000Y-79750000D03*
X93250000Y-88000000D03*
X91250000Y-88000000D03*
X92250000Y-84750000D03*
X93250000Y-84750000D03*
X93250000Y-83250000D03*
X94250000Y-89000000D03*
X80475000Y-65100000D03*
X90250000Y-90000000D03*
X93250000Y-82250000D03*
X93250000Y-77750000D03*
X91250000Y-85750000D03*
X92250000Y-90000000D03*
X93250000Y-85750000D03*
X91250000Y-86750000D03*
X94370000Y-67224998D03*
X94250000Y-88000000D03*
X93250000Y-78750000D03*
X94250000Y-90000000D03*
X90250000Y-85750000D03*
X90250000Y-89000000D03*
X91250000Y-89000000D03*
X91250000Y-90000000D03*
X90250000Y-88000000D03*
X93250000Y-89000000D03*
X90250000Y-86750000D03*
X93250000Y-86750000D03*
X93250000Y-81250000D03*
X92250000Y-85750000D03*
X67750000Y-69350000D03*
X92250000Y-89000000D03*
X93250000Y-90000000D03*
X92250000Y-86750000D03*
X68750000Y-72050000D03*
X92250000Y-88000000D03*
D27*
%TO.N,/200_Buck_Regulator/5V_SW*%
X78550000Y-67700000D03*
D26*
X83500000Y-71250000D03*
X80250000Y-71250000D03*
X83500000Y-70000000D03*
D27*
X89650000Y-72185000D03*
D26*
X83500000Y-72500000D03*
X80250000Y-70000000D03*
X82000000Y-71250000D03*
X80250000Y-72500000D03*
X82000000Y-72500000D03*
X82000000Y-70000000D03*
D25*
%TO.N,/200_Buck_Regulator/COMP_FB_C*%
X70492220Y-69967739D03*
X66760000Y-66730000D03*
%TO.N,/200_Buck_Regulator/5V_FB*%
X66750000Y-69350000D03*
D26*
%TO.N,+BATT*%
X59150000Y-84400000D03*
D25*
X60250000Y-77750000D03*
X60250000Y-75250000D03*
X52750000Y-90250000D03*
D26*
X56650000Y-84400000D03*
D25*
X65250000Y-80250000D03*
D26*
X57900000Y-85650000D03*
D25*
X55250000Y-77750000D03*
D26*
X56650000Y-88150000D03*
D25*
X57750000Y-75250000D03*
D26*
X56650000Y-85650000D03*
X59150000Y-85650000D03*
X54150000Y-88150000D03*
D25*
X55250000Y-75250000D03*
D26*
X55400000Y-84400000D03*
D25*
X67750000Y-77750000D03*
D26*
X55400000Y-86900000D03*
X57900000Y-86900000D03*
X52900000Y-88150000D03*
D25*
X55250000Y-82750000D03*
D26*
X57900000Y-84400000D03*
X52900000Y-84400000D03*
D25*
X52750000Y-75250000D03*
D26*
X52900000Y-86900000D03*
X54150000Y-84400000D03*
X55400000Y-85650000D03*
D25*
X57750000Y-90250000D03*
D26*
X54150000Y-86900000D03*
D25*
X57750000Y-82750000D03*
X55250000Y-80250000D03*
X52750000Y-77750000D03*
D26*
X59150000Y-86900000D03*
D25*
X65250000Y-77750000D03*
X60250000Y-82750000D03*
D26*
X59150000Y-88150000D03*
D25*
X57750000Y-80250000D03*
D26*
X57900000Y-88150000D03*
D25*
X62750000Y-80250000D03*
X60250000Y-80250000D03*
X55250000Y-90250000D03*
X62750000Y-75250000D03*
D26*
X54150000Y-85650000D03*
X56650000Y-86900000D03*
D25*
X57750000Y-77750000D03*
D26*
X52900000Y-85650000D03*
X55400000Y-88150000D03*
D25*
X52750000Y-82750000D03*
%TO.N,MSFT_1*%
X64000000Y-64000000D03*
%TO.N,MSFT_2*%
X88350000Y-61050000D03*
%TO.N,+3V3*%
X92250000Y-73500000D03*
X74000000Y-90000000D03*
X77500000Y-90000000D03*
%TO.N,INA_IN+*%
X69750000Y-83250000D03*
X78750000Y-86250000D03*
X75750000Y-82250000D03*
X77750000Y-87250000D03*
X75750000Y-84250000D03*
X75750000Y-83250000D03*
X73750000Y-79250000D03*
X77750000Y-83250000D03*
X77750000Y-81250000D03*
X76750000Y-84250000D03*
X77750000Y-85250000D03*
X74750000Y-82250000D03*
X74750000Y-83250000D03*
X78750000Y-81250000D03*
X78750000Y-80250000D03*
X73750000Y-82250000D03*
D26*
X71750000Y-82000000D03*
X76500000Y-79250000D03*
X71750000Y-80500000D03*
X70500000Y-79000000D03*
X70500000Y-80500000D03*
D25*
X73750000Y-81250000D03*
D26*
X75000000Y-79250000D03*
D25*
X79750000Y-83250000D03*
X74750000Y-81250000D03*
X70750000Y-83250000D03*
D26*
X69250000Y-82000000D03*
D25*
X77750000Y-86250000D03*
X72750000Y-83250000D03*
X79750000Y-81250000D03*
X76750000Y-82250000D03*
X77750000Y-80250000D03*
D26*
X70500000Y-82000000D03*
D25*
X68750000Y-83250000D03*
X78750000Y-87250000D03*
X77750000Y-79250000D03*
D26*
X69250000Y-80500000D03*
D25*
X73750000Y-80250000D03*
X77750000Y-84250000D03*
X78750000Y-85250000D03*
X77750000Y-82250000D03*
X76750000Y-83250000D03*
X73750000Y-83250000D03*
X79750000Y-82250000D03*
X78750000Y-84250000D03*
X78750000Y-83250000D03*
X75750000Y-81250000D03*
X71750000Y-83250000D03*
X76750000Y-81250000D03*
D26*
X71750000Y-79000000D03*
D25*
X78750000Y-82250000D03*
%TO.N,SCL*%
X92250000Y-76000000D03*
%TO.N,SDA*%
X92250000Y-74750000D03*
%TO.N,+5V_VCC*%
X78220000Y-74880000D03*
X78219341Y-70500000D03*
D27*
%TO.N,/200_Buck_Regulator/5V_HO*%
X78860955Y-68859014D03*
X90910000Y-72180000D03*
%TO.N,/200_Buck_Regulator/5V_LO*%
X77200000Y-72775000D03*
X79172775Y-66674253D03*
D25*
%TO.N,/300_Connectors/VGS_CH1*%
X64580000Y-60990000D03*
X73640000Y-58790000D03*
%TO.N,/300_Connectors/MSFT_2_R*%
X77640000Y-58500000D03*
X85410000Y-62010000D03*
%TO.N,/300_Connectors/VGS_CH2*%
X76360000Y-62130000D03*
X88159943Y-64010000D03*
%TO.N,+BATT_FILT*%
X66000000Y-98750000D03*
X81250000Y-52000000D03*
X68250000Y-89750000D03*
X79000000Y-97250000D03*
X79750000Y-53500000D03*
X79000000Y-94250000D03*
X64500000Y-52000000D03*
X82000000Y-94250000D03*
X90500000Y-64750000D03*
X80500000Y-55000000D03*
X63750000Y-98750000D03*
X79750000Y-55750000D03*
X61500000Y-98750000D03*
X82000000Y-97250000D03*
X65250000Y-53500000D03*
X63750000Y-94250000D03*
X72250000Y-94000000D03*
X82000000Y-98750000D03*
X80500000Y-53500000D03*
X59650000Y-56750000D03*
X81250000Y-97250000D03*
X81250000Y-95750000D03*
X63750000Y-96500000D03*
X80500000Y-95750000D03*
X81250000Y-53500000D03*
X81250000Y-98750000D03*
X63000000Y-97250000D03*
X65250000Y-97250000D03*
X82000000Y-95750000D03*
X63000000Y-95750000D03*
X82000000Y-55000000D03*
D26*
X88350000Y-66700000D03*
D25*
X89550000Y-63250000D03*
X81250000Y-94250000D03*
D26*
X89650000Y-66700000D03*
D25*
X63000000Y-52000000D03*
D26*
X89000000Y-70750000D03*
X87500000Y-68250000D03*
D25*
X79000000Y-52000000D03*
X61500000Y-92250000D03*
X66000000Y-97250000D03*
X91550000Y-63250000D03*
X80500000Y-97250000D03*
X79000000Y-95000000D03*
X80500000Y-94250000D03*
X93000000Y-64750000D03*
X80500000Y-52750000D03*
X94000000Y-63250000D03*
X63000000Y-53500000D03*
X64500000Y-53500000D03*
X79750000Y-94250000D03*
X62500000Y-92250000D03*
X79750000Y-97250000D03*
X79750000Y-52750000D03*
X65250000Y-96500000D03*
X64500000Y-52750000D03*
X66000000Y-53500000D03*
X82000000Y-52750000D03*
X79000000Y-98750000D03*
X64500000Y-94250000D03*
X63000000Y-55750000D03*
X79000000Y-55000000D03*
X63750000Y-52750000D03*
X91500000Y-64750000D03*
X80500000Y-98750000D03*
X66000000Y-55000000D03*
X65250000Y-95750000D03*
D26*
X89000000Y-68250000D03*
D25*
X79750000Y-95750000D03*
X93000000Y-63250000D03*
X90550000Y-63250000D03*
X79750000Y-96500000D03*
X81250000Y-95000000D03*
X71250000Y-88750000D03*
X79000000Y-95750000D03*
X63750000Y-52000000D03*
X67250000Y-92750000D03*
X66000000Y-94250000D03*
X80500000Y-52000000D03*
X94000000Y-64750000D03*
X64500000Y-95750000D03*
X66000000Y-95750000D03*
X63750000Y-54250000D03*
X63750000Y-53500000D03*
X65250000Y-95000000D03*
D26*
X90500000Y-70750000D03*
D25*
X81250000Y-98000000D03*
X72250000Y-95000000D03*
X82000000Y-53500000D03*
X63750000Y-98000000D03*
X63000000Y-96500000D03*
X63250000Y-90250000D03*
X64500000Y-98750000D03*
X72250000Y-91750000D03*
X66000000Y-55750000D03*
X80500000Y-95000000D03*
X66000000Y-95000000D03*
X95000000Y-63250000D03*
X62500000Y-91250000D03*
X65250000Y-98750000D03*
X70250000Y-89750000D03*
X63000000Y-98750000D03*
X62500000Y-93250000D03*
X82000000Y-51250000D03*
D26*
X90500000Y-68250000D03*
D25*
X80500000Y-55750000D03*
X81250000Y-51250000D03*
X63750000Y-55750000D03*
X79000000Y-54250000D03*
X80500000Y-54250000D03*
X72250000Y-88750000D03*
X81250000Y-55750000D03*
X65250000Y-55000000D03*
X66250000Y-91750000D03*
X79000000Y-51250000D03*
X79750000Y-98750000D03*
X79750000Y-54250000D03*
X65250000Y-52000000D03*
X66250000Y-90750000D03*
X80500000Y-98000000D03*
X63000000Y-52750000D03*
X98340000Y-69220000D03*
X66000000Y-52750000D03*
X63000000Y-98000000D03*
D26*
X75250000Y-65250000D03*
D25*
X79000000Y-52750000D03*
X66000000Y-52000000D03*
X63000000Y-55000000D03*
X63750000Y-95000000D03*
X81250000Y-52750000D03*
X65250000Y-98000000D03*
X63750000Y-97250000D03*
X71250000Y-90750000D03*
X81250000Y-96500000D03*
X72250000Y-89750000D03*
X67250000Y-90750000D03*
D26*
X90900000Y-66700000D03*
D25*
X71250000Y-89750000D03*
X61500000Y-93250000D03*
X90350000Y-56750000D03*
X63750000Y-55000000D03*
X80500000Y-51250000D03*
X79750000Y-98000000D03*
X82000000Y-98000000D03*
X80500000Y-96500000D03*
X63000000Y-95000000D03*
X82000000Y-95000000D03*
X66000000Y-51250000D03*
X72250000Y-93000000D03*
X69250000Y-87750000D03*
X64500000Y-54250000D03*
X68250000Y-88750000D03*
X66250000Y-92750000D03*
X79000000Y-98000000D03*
X63750000Y-51250000D03*
X64500000Y-51250000D03*
X95000000Y-64750000D03*
X82000000Y-55750000D03*
X79750000Y-52000000D03*
X67250000Y-89750000D03*
X63000000Y-54250000D03*
X66000000Y-54250000D03*
X82000000Y-54250000D03*
X81250000Y-54250000D03*
X64500000Y-97250000D03*
X81250000Y-55000000D03*
X69250000Y-89750000D03*
D26*
X87500000Y-69500000D03*
X87500000Y-70750000D03*
D25*
X64500000Y-55000000D03*
X82000000Y-52000000D03*
X82000000Y-96500000D03*
X64500000Y-55750000D03*
X69250000Y-88750000D03*
X64500000Y-95000000D03*
X65250000Y-51250000D03*
X63750000Y-95750000D03*
X79000000Y-53500000D03*
X67250000Y-91750000D03*
X65250000Y-55750000D03*
X64500000Y-98000000D03*
X89500000Y-64750000D03*
X63000000Y-51250000D03*
X79000000Y-55750000D03*
X65250000Y-52750000D03*
X66000000Y-96500000D03*
X79750000Y-51250000D03*
X64500000Y-96500000D03*
D26*
X90500000Y-69500000D03*
D25*
X79750000Y-55000000D03*
X65250000Y-54250000D03*
D26*
X89000000Y-69500000D03*
D25*
X65250000Y-94250000D03*
X71250000Y-93000000D03*
X70250000Y-88750000D03*
X79000000Y-96500000D03*
D26*
X72714826Y-65275124D03*
D25*
X72250000Y-90750000D03*
X66000000Y-98000000D03*
X79750000Y-95000000D03*
X63000000Y-94250000D03*
%TD*%
D28*
%TO.N,+5V*%
X93144002Y-65999000D02*
X94370000Y-67224998D01*
X67750000Y-69350000D02*
X67750000Y-71050000D01*
X84500000Y-65100000D02*
X85399000Y-65999000D01*
X68750000Y-72050000D02*
X72750000Y-76050000D01*
X72750000Y-76050000D02*
X77300000Y-76050000D01*
X67750000Y-71050000D02*
X68750000Y-72050000D01*
X80475000Y-65100000D02*
X84500000Y-65100000D01*
X85399000Y-65999000D02*
X93144002Y-65999000D01*
X77300000Y-76050000D02*
X83500000Y-82250000D01*
X83500000Y-82250000D02*
X83500000Y-84500000D01*
D29*
%TO.N,/200_Buck_Regulator/5V_SW*%
X78550000Y-67700000D02*
X84340000Y-67700000D01*
X86625000Y-72185000D02*
X89650000Y-72185000D01*
X84340000Y-67700000D02*
X85999785Y-69359785D01*
X85999785Y-71559785D02*
X86625000Y-72185000D01*
X85999785Y-69359785D02*
X85999785Y-71559785D01*
D28*
%TO.N,/200_Buck_Regulator/COMP_FB_C*%
X69830000Y-66730000D02*
X66760000Y-66730000D01*
X70492220Y-67392220D02*
X69830000Y-66730000D01*
X70492220Y-69967739D02*
X70492220Y-67392220D01*
%TO.N,/200_Buck_Regulator/5V_FB*%
X67750000Y-68350000D02*
X66750000Y-69350000D01*
X69250000Y-68350000D02*
X67750000Y-68350000D01*
%TO.N,MSFT_1*%
X85850000Y-65450000D02*
X84900000Y-64500000D01*
X97000000Y-76000000D02*
X97000000Y-68490000D01*
X96125000Y-76875000D02*
X97000000Y-76000000D01*
X97000000Y-68490000D02*
X93960000Y-65450000D01*
X84900000Y-64500000D02*
X64500000Y-64500000D01*
X93960000Y-65450000D02*
X85850000Y-65450000D01*
X95008000Y-76875000D02*
X96125000Y-76875000D01*
X64500000Y-64500000D02*
X64000000Y-64000000D01*
%TO.N,MSFT_2*%
X97630000Y-76870000D02*
X97630000Y-68280000D01*
X95670000Y-66320000D02*
X95670000Y-61630000D01*
X95670000Y-61630000D02*
X95090000Y-61050000D01*
X95008000Y-78125000D02*
X96375000Y-78125000D01*
X95090000Y-61050000D02*
X88350000Y-61050000D01*
X97630000Y-68280000D02*
X95670000Y-66320000D01*
X96375000Y-78125000D02*
X97630000Y-76870000D01*
%TO.N,+3V3*%
X77500000Y-90000000D02*
X74000000Y-90000000D01*
X93875000Y-71875000D02*
X95008000Y-71875000D01*
X92250000Y-73500000D02*
X93875000Y-71875000D01*
%TO.N,SCL*%
X93875000Y-74375000D02*
X92250000Y-76000000D01*
X95008000Y-74375000D02*
X93875000Y-74375000D01*
%TO.N,SDA*%
X95008000Y-73125000D02*
X93875000Y-73125000D01*
X93875000Y-73125000D02*
X92250000Y-74750000D01*
D30*
%TO.N,+5V_VCC*%
X78219341Y-74880659D02*
X78220000Y-74880000D01*
X78219341Y-70500000D02*
X78219341Y-74880659D01*
D29*
%TO.N,/200_Buck_Regulator/5V_HO*%
X78860955Y-68859014D02*
X83879014Y-68859014D01*
X89225016Y-73211000D02*
X90559000Y-73211000D01*
X90910000Y-72860000D02*
X90910000Y-72180000D01*
X84930000Y-72000000D02*
X86140000Y-73210000D01*
X90559000Y-73211000D02*
X90910000Y-72860000D01*
X84930000Y-69910000D02*
X84930000Y-72000000D01*
X89224016Y-73210000D02*
X89225016Y-73211000D01*
X83879014Y-68859014D02*
X84930000Y-69910000D01*
X86140000Y-73210000D02*
X89224016Y-73210000D01*
%TO.N,/200_Buck_Regulator/5V_LO*%
X77200000Y-72775000D02*
X77200000Y-67500000D01*
X77200000Y-67500000D02*
X78026000Y-66674000D01*
X79172522Y-66674000D02*
X79172775Y-66674253D01*
X78026000Y-66674000D02*
X79172522Y-66674000D01*
D28*
%TO.N,/300_Connectors/VGS_CH1*%
X71440000Y-60990000D02*
X73640000Y-58790000D01*
X64580000Y-60990000D02*
X71440000Y-60990000D01*
%TO.N,/300_Connectors/MSFT_2_R*%
X78410000Y-62010000D02*
X77640000Y-61240000D01*
X85410000Y-62010000D02*
X78410000Y-62010000D01*
X77640000Y-61240000D02*
X77640000Y-58500000D01*
%TO.N,/300_Connectors/VGS_CH2*%
X86710000Y-62650000D02*
X76880000Y-62650000D01*
X76880000Y-62650000D02*
X76360000Y-62130000D01*
X88159943Y-64010000D02*
X86798943Y-62649000D01*
X86798943Y-62649000D02*
X86710000Y-62649000D01*
%TD*%
%TA.AperFunction,Conductor*%
%TO.N,GND*%
G36*
X60437539Y-91225185D02*
G01*
X60483294Y-91277989D01*
X60494500Y-91329500D01*
X60494500Y-99625500D01*
X60474815Y-99692539D01*
X60422011Y-99738294D01*
X60370500Y-99749500D01*
X55002706Y-99749500D01*
X54997297Y-99749382D01*
X54591460Y-99731663D01*
X54580685Y-99730720D01*
X54194012Y-99679813D01*
X54180629Y-99678051D01*
X54169977Y-99676173D01*
X53861802Y-99607853D01*
X53776022Y-99588836D01*
X53765579Y-99586038D01*
X53380733Y-99464696D01*
X53370570Y-99460997D01*
X53260431Y-99415376D01*
X53127691Y-99360393D01*
X52997773Y-99306579D01*
X52987969Y-99302007D01*
X52630057Y-99115690D01*
X52620689Y-99110282D01*
X52280361Y-98893469D01*
X52271500Y-98887264D01*
X51951372Y-98641621D01*
X51943085Y-98634667D01*
X51645587Y-98362061D01*
X51637938Y-98354412D01*
X51365332Y-98056914D01*
X51358378Y-98048627D01*
X51112735Y-97728499D01*
X51106530Y-97719638D01*
X50889717Y-97379310D01*
X50884309Y-97369942D01*
X50697992Y-97012030D01*
X50693420Y-97002226D01*
X50655314Y-96910230D01*
X50538996Y-96629414D01*
X50535307Y-96619279D01*
X50413956Y-96234405D01*
X50411167Y-96223993D01*
X50323823Y-95830010D01*
X50321950Y-95819386D01*
X50269277Y-95419293D01*
X50268337Y-95408558D01*
X50250618Y-95002701D01*
X50250500Y-94997293D01*
X50250500Y-91329500D01*
X50270185Y-91262461D01*
X50322989Y-91216706D01*
X50374500Y-91205500D01*
X60370500Y-91205500D01*
X60437539Y-91225185D01*
G37*
%TD.AperFunction*%
%TA.AperFunction,Conductor*%
G36*
X78525998Y-88514417D02*
G01*
X78577138Y-88562025D01*
X78594500Y-88625304D01*
X78594500Y-92398639D01*
X78595963Y-92425934D01*
X78595967Y-92425988D01*
X78598797Y-92452310D01*
X78598798Y-92452312D01*
X78628586Y-92547441D01*
X78628590Y-92547451D01*
X78662068Y-92608761D01*
X78662073Y-92608769D01*
X78705649Y-92666980D01*
X78705665Y-92666998D01*
X79076487Y-93037819D01*
X79109972Y-93099142D01*
X79104988Y-93168833D01*
X79063117Y-93224767D01*
X78997652Y-93249184D01*
X78988806Y-93249500D01*
X78834298Y-93249500D01*
X78797432Y-93252401D01*
X78797426Y-93252402D01*
X78639606Y-93298254D01*
X78639603Y-93298255D01*
X78498137Y-93381917D01*
X78498129Y-93381923D01*
X78381923Y-93498129D01*
X78381917Y-93498137D01*
X78298255Y-93639603D01*
X78298254Y-93639606D01*
X78252402Y-93797426D01*
X78252401Y-93797432D01*
X78249500Y-93834298D01*
X78249500Y-99165701D01*
X78252401Y-99202567D01*
X78252402Y-99202573D01*
X78298254Y-99360393D01*
X78298255Y-99360396D01*
X78381917Y-99501862D01*
X78381923Y-99501870D01*
X78417872Y-99537819D01*
X78451357Y-99599142D01*
X78446373Y-99668834D01*
X78404501Y-99724767D01*
X78339037Y-99749184D01*
X78330191Y-99749500D01*
X67829942Y-99749500D01*
X67762903Y-99729815D01*
X67717148Y-99677011D01*
X67706883Y-99620156D01*
X67706132Y-99620136D01*
X67706206Y-99617355D01*
X67705393Y-99571833D01*
X67705392Y-99571824D01*
X67683487Y-99501870D01*
X67675604Y-99476694D01*
X67642119Y-99415371D01*
X67598538Y-99357153D01*
X67598533Y-99357148D01*
X67598525Y-99357139D01*
X67596484Y-99355098D01*
X67577435Y-99330542D01*
X67542575Y-99271597D01*
X67530234Y-99243076D01*
X67509924Y-99173168D01*
X67505000Y-99138573D01*
X67505000Y-93861424D01*
X67509924Y-93826829D01*
X67518465Y-93797431D01*
X67530235Y-93756919D01*
X67542574Y-93728405D01*
X67577439Y-93669449D01*
X67596481Y-93644901D01*
X67644901Y-93596481D01*
X67669452Y-93577437D01*
X67728400Y-93542575D01*
X67756913Y-93530236D01*
X67826833Y-93509922D01*
X67861425Y-93505000D01*
X68586903Y-93505000D01*
X68586917Y-93505000D01*
X68616038Y-93503335D01*
X68644123Y-93500113D01*
X68645940Y-93499898D01*
X68740642Y-93468753D01*
X68801481Y-93434395D01*
X68838983Y-93408554D01*
X68901813Y-93331154D01*
X68934419Y-93269359D01*
X68951999Y-93227342D01*
X68963010Y-93128261D01*
X68957031Y-93058648D01*
X68949105Y-93013799D01*
X68904800Y-92924493D01*
X68862135Y-92869163D01*
X68809982Y-92818478D01*
X68680547Y-92724438D01*
X68665751Y-92711801D01*
X68538197Y-92584247D01*
X68525560Y-92569451D01*
X68419533Y-92423516D01*
X68409367Y-92406926D01*
X68327478Y-92246212D01*
X68320031Y-92228236D01*
X68320028Y-92228227D01*
X68264281Y-92056656D01*
X68259746Y-92037767D01*
X68231525Y-91859581D01*
X68230000Y-91840196D01*
X68230000Y-91659801D01*
X68231524Y-91640417D01*
X68259746Y-91462227D01*
X68264280Y-91443344D01*
X68320034Y-91271753D01*
X68327478Y-91253785D01*
X68409367Y-91093071D01*
X68419528Y-91076487D01*
X68525568Y-90930536D01*
X68538193Y-90915754D01*
X68665754Y-90788193D01*
X68680536Y-90775568D01*
X68826487Y-90669528D01*
X68843071Y-90659367D01*
X69003785Y-90577478D01*
X69021753Y-90570034D01*
X69193344Y-90514280D01*
X69212227Y-90509746D01*
X69390417Y-90481525D01*
X69409803Y-90480000D01*
X69590197Y-90480000D01*
X69609582Y-90481525D01*
X69787767Y-90509746D01*
X69806656Y-90514281D01*
X69978240Y-90570032D01*
X69996212Y-90577478D01*
X70156926Y-90659367D01*
X70173516Y-90669533D01*
X70319451Y-90775560D01*
X70334247Y-90788197D01*
X70461801Y-90915751D01*
X70474435Y-90930544D01*
X70474438Y-90930547D01*
X70580463Y-91076479D01*
X70590629Y-91093068D01*
X70626469Y-91163406D01*
X70628574Y-91167537D01*
X70628575Y-91167540D01*
X70647917Y-91205500D01*
X70672523Y-91253791D01*
X70679969Y-91271768D01*
X70735713Y-91443330D01*
X70740255Y-91462249D01*
X70744641Y-91489937D01*
X70766660Y-91628960D01*
X70768473Y-91640403D01*
X70770000Y-91659802D01*
X70770000Y-91840196D01*
X70768473Y-91859595D01*
X70740255Y-92037749D01*
X70735713Y-92056668D01*
X70679970Y-92228227D01*
X70672523Y-92246205D01*
X70590627Y-92406932D01*
X70580465Y-92423516D01*
X70580462Y-92423521D01*
X70474439Y-92569451D01*
X70461801Y-92584247D01*
X70334250Y-92711798D01*
X70319455Y-92724434D01*
X70190047Y-92818456D01*
X70190000Y-92818492D01*
X70167441Y-92836938D01*
X70146558Y-92856104D01*
X70145269Y-92857296D01*
X70145266Y-92857300D01*
X70086960Y-92938157D01*
X70086958Y-92938159D01*
X70057932Y-93001720D01*
X70042781Y-93044667D01*
X70042780Y-93044674D01*
X70037446Y-93144213D01*
X70037446Y-93144219D01*
X70047391Y-93213382D01*
X70047391Y-93213384D01*
X70057862Y-93257692D01*
X70057865Y-93257700D01*
X70107191Y-93344322D01*
X70107193Y-93344325D01*
X70107195Y-93344328D01*
X70133663Y-93374874D01*
X70152946Y-93397128D01*
X70152949Y-93397131D01*
X70152950Y-93397132D01*
X70185724Y-93428757D01*
X70274059Y-93474965D01*
X70274060Y-93474965D01*
X70274060Y-93474966D01*
X70324188Y-93489684D01*
X70341098Y-93494650D01*
X70341102Y-93494650D01*
X70341104Y-93494651D01*
X70352735Y-93496323D01*
X70413083Y-93505000D01*
X70993575Y-93505000D01*
X71029334Y-93512112D01*
X71029665Y-93510880D01*
X71037513Y-93512982D01*
X71037515Y-93512984D01*
X71177525Y-93550500D01*
X71251072Y-93550500D01*
X71266973Y-93554850D01*
X71281566Y-93554308D01*
X71314193Y-93567768D01*
X71330539Y-93577435D01*
X71355099Y-93596486D01*
X71403512Y-93644899D01*
X71422563Y-93669459D01*
X71457419Y-93728397D01*
X71469763Y-93756921D01*
X71479575Y-93790693D01*
X71490076Y-93826837D01*
X71495000Y-93861431D01*
X71495000Y-95815522D01*
X71501333Y-95872057D01*
X71501334Y-95872060D01*
X71513477Y-95925577D01*
X71513481Y-95925589D01*
X71521696Y-95954036D01*
X71572561Y-96039765D01*
X71572564Y-96039769D01*
X71572566Y-96039772D01*
X71572569Y-96039775D01*
X71619246Y-96091741D01*
X71619252Y-96091747D01*
X71619256Y-96091751D01*
X71652591Y-96122787D01*
X71741737Y-96167411D01*
X71809117Y-96185896D01*
X71853940Y-96193983D01*
X71853944Y-96193982D01*
X71853947Y-96193983D01*
X71903500Y-96188654D01*
X71953060Y-96183326D01*
X72019737Y-96162448D01*
X72085339Y-96131062D01*
X72136961Y-96096567D01*
X72158374Y-96085121D01*
X72271412Y-96038299D01*
X72294662Y-96031247D01*
X72414647Y-96007381D01*
X72438837Y-96005000D01*
X72637798Y-96005000D01*
X72642854Y-96004289D01*
X72644706Y-96004168D01*
X72644717Y-96004169D01*
X72713875Y-95994225D01*
X72713883Y-95994223D01*
X72713884Y-95994223D01*
X72724198Y-95991785D01*
X72758198Y-95983751D01*
X72844828Y-95934420D01*
X72897632Y-95888665D01*
X72929257Y-95855891D01*
X72975465Y-95767556D01*
X72995150Y-95700517D01*
X73005500Y-95628532D01*
X73005500Y-92905306D01*
X73003314Y-92871958D01*
X72999089Y-92839865D01*
X72992569Y-92807085D01*
X72989225Y-92794604D01*
X72985000Y-92762512D01*
X72985000Y-92717484D01*
X72989224Y-92685393D01*
X72992569Y-92672912D01*
X72999089Y-92640133D01*
X73003314Y-92608040D01*
X73005500Y-92574692D01*
X73005500Y-89927525D01*
X73449500Y-89927525D01*
X73449500Y-90072475D01*
X73487016Y-90212485D01*
X73487017Y-90212488D01*
X73559488Y-90338011D01*
X73559490Y-90338013D01*
X73559491Y-90338015D01*
X73661985Y-90440509D01*
X73661986Y-90440510D01*
X73661988Y-90440511D01*
X73787511Y-90512982D01*
X73787512Y-90512982D01*
X73787515Y-90512984D01*
X73927525Y-90550500D01*
X73927528Y-90550500D01*
X74072472Y-90550500D01*
X74072475Y-90550500D01*
X74212485Y-90512984D01*
X74338015Y-90440509D01*
X74391705Y-90386819D01*
X74453028Y-90353334D01*
X74479386Y-90350500D01*
X77020614Y-90350500D01*
X77087653Y-90370185D01*
X77108295Y-90386819D01*
X77161985Y-90440509D01*
X77161986Y-90440510D01*
X77161988Y-90440511D01*
X77287511Y-90512982D01*
X77287512Y-90512982D01*
X77287515Y-90512984D01*
X77427525Y-90550500D01*
X77427528Y-90550500D01*
X77572472Y-90550500D01*
X77572475Y-90550500D01*
X77712485Y-90512984D01*
X77838015Y-90440509D01*
X77940509Y-90338015D01*
X78012984Y-90212485D01*
X78050500Y-90072475D01*
X78050500Y-89927525D01*
X78012984Y-89787515D01*
X77940509Y-89661985D01*
X77838015Y-89559491D01*
X77838013Y-89559490D01*
X77838011Y-89559488D01*
X77712488Y-89487017D01*
X77712489Y-89487017D01*
X77701006Y-89483940D01*
X77572475Y-89449500D01*
X77427525Y-89449500D01*
X77298993Y-89483940D01*
X77287511Y-89487017D01*
X77161988Y-89559488D01*
X77161982Y-89559493D01*
X77108295Y-89613181D01*
X77046972Y-89646666D01*
X77020614Y-89649500D01*
X74479386Y-89649500D01*
X74412347Y-89629815D01*
X74391705Y-89613181D01*
X74338017Y-89559493D01*
X74338011Y-89559488D01*
X74212488Y-89487017D01*
X74212489Y-89487017D01*
X74201006Y-89483940D01*
X74072475Y-89449500D01*
X73927525Y-89449500D01*
X73798993Y-89483940D01*
X73787511Y-89487017D01*
X73661988Y-89559488D01*
X73661982Y-89559493D01*
X73559493Y-89661982D01*
X73559488Y-89661988D01*
X73487017Y-89787511D01*
X73487016Y-89787515D01*
X73449500Y-89927525D01*
X73005500Y-89927525D01*
X73005500Y-88629500D01*
X73025185Y-88562461D01*
X73077989Y-88516706D01*
X73129500Y-88505500D01*
X78411139Y-88505500D01*
X78412575Y-88505422D01*
X78438452Y-88504036D01*
X78457241Y-88502015D01*
X78525998Y-88514417D01*
G37*
%TD.AperFunction*%
%TA.AperFunction,Conductor*%
G36*
X96208253Y-85654245D02*
G01*
X96216553Y-85654394D01*
X96248384Y-85669623D01*
X96310260Y-85710966D01*
X96310262Y-85710966D01*
X96310264Y-85710967D01*
X96383321Y-85725499D01*
X96383324Y-85725500D01*
X96383326Y-85725500D01*
X99432676Y-85725500D01*
X99432677Y-85725499D01*
X99505740Y-85710966D01*
X99556611Y-85676975D01*
X99623286Y-85656098D01*
X99690666Y-85674582D01*
X99737357Y-85726561D01*
X99749500Y-85780078D01*
X99749500Y-94997293D01*
X99749382Y-95002702D01*
X99731663Y-95408539D01*
X99730720Y-95419316D01*
X99678051Y-95819370D01*
X99676173Y-95830022D01*
X99588837Y-96223974D01*
X99586037Y-96234424D01*
X99464697Y-96619264D01*
X99460997Y-96629429D01*
X99306579Y-97002226D01*
X99302007Y-97012030D01*
X99115690Y-97369942D01*
X99110282Y-97379310D01*
X98893469Y-97719638D01*
X98887264Y-97728499D01*
X98641621Y-98048627D01*
X98634667Y-98056914D01*
X98362061Y-98354412D01*
X98354412Y-98362061D01*
X98056914Y-98634667D01*
X98048627Y-98641621D01*
X97728499Y-98887264D01*
X97719638Y-98893469D01*
X97379310Y-99110282D01*
X97369942Y-99115690D01*
X97012030Y-99302007D01*
X97002226Y-99306579D01*
X96629429Y-99460997D01*
X96619264Y-99464697D01*
X96234424Y-99586037D01*
X96223974Y-99588837D01*
X95830022Y-99676173D01*
X95819370Y-99678051D01*
X95419316Y-99730720D01*
X95408539Y-99731663D01*
X95002703Y-99749382D01*
X94997294Y-99749500D01*
X82669809Y-99749500D01*
X82602770Y-99729815D01*
X82557015Y-99677011D01*
X82547071Y-99607853D01*
X82576096Y-99544297D01*
X82582128Y-99537819D01*
X82618076Y-99501870D01*
X82618081Y-99501865D01*
X82701744Y-99360398D01*
X82747598Y-99202569D01*
X82750500Y-99165694D01*
X82750500Y-93834306D01*
X82747598Y-93797431D01*
X82747597Y-93797426D01*
X82708861Y-93664095D01*
X82709060Y-93594225D01*
X82747002Y-93535555D01*
X82810641Y-93506712D01*
X82827937Y-93505500D01*
X83823078Y-93505500D01*
X83833102Y-93505303D01*
X83837718Y-93505121D01*
X83838404Y-93505095D01*
X83843260Y-93505000D01*
X84586903Y-93505000D01*
X84586917Y-93505000D01*
X84616038Y-93503335D01*
X84644123Y-93500113D01*
X84645940Y-93499898D01*
X84740642Y-93468753D01*
X84801481Y-93434395D01*
X84838983Y-93408554D01*
X84901813Y-93331154D01*
X84934419Y-93269359D01*
X84951999Y-93227342D01*
X84963010Y-93128261D01*
X84957031Y-93058648D01*
X84949105Y-93013799D01*
X84904800Y-92924493D01*
X84862135Y-92869163D01*
X84809982Y-92818478D01*
X84680547Y-92724438D01*
X84665751Y-92711801D01*
X84538197Y-92584247D01*
X84525560Y-92569451D01*
X84419533Y-92423516D01*
X84409367Y-92406926D01*
X84327478Y-92246212D01*
X84320031Y-92228236D01*
X84320028Y-92228227D01*
X84264281Y-92056656D01*
X84259746Y-92037767D01*
X84231525Y-91859583D01*
X84230000Y-91840197D01*
X84230000Y-91659801D01*
X84231524Y-91640417D01*
X84259746Y-91462227D01*
X84264280Y-91443344D01*
X84320034Y-91271753D01*
X84327478Y-91253785D01*
X84409367Y-91093071D01*
X84419528Y-91076487D01*
X84525568Y-90930536D01*
X84538193Y-90915754D01*
X84665754Y-90788193D01*
X84680536Y-90775568D01*
X84826487Y-90669528D01*
X84843071Y-90659367D01*
X85003785Y-90577478D01*
X85021753Y-90570034D01*
X85193344Y-90514280D01*
X85212227Y-90509746D01*
X85390417Y-90481525D01*
X85409803Y-90480000D01*
X85590197Y-90480000D01*
X85609582Y-90481525D01*
X85787767Y-90509746D01*
X85806656Y-90514281D01*
X85978240Y-90570032D01*
X85996212Y-90577478D01*
X86156926Y-90659367D01*
X86173516Y-90669533D01*
X86319451Y-90775560D01*
X86334247Y-90788197D01*
X86461801Y-90915751D01*
X86474435Y-90930544D01*
X86474438Y-90930547D01*
X86580464Y-91076480D01*
X86590630Y-91093069D01*
X86672521Y-91253786D01*
X86679968Y-91271764D01*
X86735713Y-91443330D01*
X86740255Y-91462249D01*
X86744641Y-91489937D01*
X86766660Y-91628960D01*
X86768473Y-91640403D01*
X86770000Y-91659802D01*
X86770000Y-91840196D01*
X86768473Y-91859593D01*
X86768473Y-91859595D01*
X86740255Y-92037749D01*
X86735713Y-92056668D01*
X86679970Y-92228227D01*
X86672523Y-92246205D01*
X86590627Y-92406932D01*
X86580462Y-92423521D01*
X86474439Y-92569451D01*
X86461801Y-92584247D01*
X86334250Y-92711798D01*
X86319455Y-92724434D01*
X86190047Y-92818456D01*
X86190000Y-92818492D01*
X86167441Y-92836938D01*
X86146558Y-92856104D01*
X86145269Y-92857296D01*
X86145266Y-92857300D01*
X86086960Y-92938157D01*
X86086958Y-92938159D01*
X86057932Y-93001720D01*
X86042781Y-93044667D01*
X86042780Y-93044674D01*
X86037446Y-93144213D01*
X86037446Y-93144219D01*
X86047391Y-93213382D01*
X86047391Y-93213384D01*
X86057862Y-93257692D01*
X86057865Y-93257700D01*
X86107191Y-93344322D01*
X86107193Y-93344325D01*
X86107195Y-93344328D01*
X86133663Y-93374874D01*
X86152946Y-93397128D01*
X86152949Y-93397131D01*
X86152950Y-93397132D01*
X86185724Y-93428757D01*
X86274059Y-93474965D01*
X86274060Y-93474965D01*
X86274060Y-93474966D01*
X86324188Y-93489684D01*
X86341098Y-93494650D01*
X86341102Y-93494650D01*
X86341104Y-93494651D01*
X86352735Y-93496323D01*
X86413083Y-93505000D01*
X87156740Y-93505000D01*
X87161596Y-93505095D01*
X87162301Y-93505122D01*
X87166898Y-93505303D01*
X87176922Y-93505500D01*
X91953159Y-93505500D01*
X91992381Y-93501459D01*
X92005231Y-93500136D01*
X92054721Y-93489832D01*
X92078989Y-93483523D01*
X92166486Y-93435746D01*
X92220098Y-93390941D01*
X92268694Y-93336839D01*
X92427279Y-93099499D01*
X92434518Y-93089738D01*
X92625952Y-92856474D01*
X92634104Y-92847480D01*
X92847480Y-92634104D01*
X92856475Y-92625951D01*
X93089730Y-92434524D01*
X93099499Y-92427279D01*
X93350414Y-92259622D01*
X93360822Y-92253384D01*
X93626940Y-92111140D01*
X93637924Y-92105945D01*
X93916716Y-91990466D01*
X93928159Y-91986371D01*
X94216929Y-91898775D01*
X94228701Y-91895827D01*
X94524658Y-91836956D01*
X94536690Y-91835171D01*
X94747443Y-91814415D01*
X94836981Y-91805597D01*
X94849134Y-91805000D01*
X95150866Y-91805000D01*
X95163019Y-91805597D01*
X95313162Y-91820384D01*
X95463306Y-91835171D01*
X95475341Y-91836956D01*
X95601963Y-91862144D01*
X95608670Y-91863385D01*
X95615214Y-91864506D01*
X95694717Y-91865573D01*
X95763875Y-91855629D01*
X95763880Y-91855627D01*
X95763884Y-91855627D01*
X95787898Y-91849952D01*
X95808198Y-91845155D01*
X95894828Y-91795824D01*
X95947632Y-91750069D01*
X95979257Y-91717295D01*
X96025465Y-91628960D01*
X96045150Y-91561921D01*
X96055500Y-91489936D01*
X96055500Y-85772728D01*
X96058363Y-85762976D01*
X96057097Y-85752893D01*
X96068040Y-85730018D01*
X96075185Y-85705689D01*
X96082865Y-85699034D01*
X96087252Y-85689865D01*
X96108828Y-85676537D01*
X96127989Y-85659934D01*
X96138047Y-85658487D01*
X96146695Y-85653146D01*
X96172047Y-85653598D01*
X96197147Y-85649990D01*
X96208253Y-85654245D01*
G37*
%TD.AperFunction*%
%TA.AperFunction,Conductor*%
G36*
X66054604Y-88709224D02*
G01*
X66098103Y-88720880D01*
X66128008Y-88733268D01*
X66166991Y-88755775D01*
X66192667Y-88775476D01*
X66224518Y-88807326D01*
X66244222Y-88833006D01*
X66244223Y-88833007D01*
X66266732Y-88871995D01*
X66279118Y-88901896D01*
X66290774Y-88945392D01*
X66295000Y-88977489D01*
X66295000Y-89022509D01*
X66290774Y-89054605D01*
X66279119Y-89098099D01*
X66266732Y-89128004D01*
X66244219Y-89166997D01*
X66224513Y-89192677D01*
X66192677Y-89224513D01*
X66166996Y-89244219D01*
X66128001Y-89266733D01*
X66098098Y-89279120D01*
X66077951Y-89284518D01*
X66054606Y-89290774D01*
X66022513Y-89295000D01*
X65977489Y-89295000D01*
X65945393Y-89290774D01*
X65901900Y-89279119D01*
X65871997Y-89266733D01*
X65852500Y-89255477D01*
X65833002Y-89244219D01*
X65807325Y-89224516D01*
X65775477Y-89192668D01*
X65755776Y-89166993D01*
X65733267Y-89128007D01*
X65720879Y-89098098D01*
X65709225Y-89054603D01*
X65705000Y-89022511D01*
X65705000Y-88977487D01*
X65709225Y-88945395D01*
X65720880Y-88901896D01*
X65733265Y-88871995D01*
X65755781Y-88832996D01*
X65775476Y-88807330D01*
X65807328Y-88775478D01*
X65833000Y-88755778D01*
X65871994Y-88733265D01*
X65901900Y-88720879D01*
X65945397Y-88709225D01*
X65977488Y-88705000D01*
X66022511Y-88705000D01*
X66054604Y-88709224D01*
G37*
%TD.AperFunction*%
%TA.AperFunction,Conductor*%
G36*
X62397230Y-50270185D02*
G01*
X62442985Y-50322989D01*
X62452929Y-50392147D01*
X62423904Y-50455703D01*
X62417872Y-50462181D01*
X62381923Y-50498129D01*
X62381917Y-50498137D01*
X62298255Y-50639603D01*
X62298254Y-50639606D01*
X62252402Y-50797426D01*
X62252401Y-50797432D01*
X62249500Y-50834298D01*
X62249500Y-56165701D01*
X62252401Y-56202567D01*
X62252402Y-56202573D01*
X62298254Y-56360393D01*
X62298255Y-56360396D01*
X62381917Y-56501862D01*
X62381923Y-56501870D01*
X62498129Y-56618076D01*
X62498133Y-56618079D01*
X62498135Y-56618081D01*
X62639602Y-56701744D01*
X62681224Y-56713836D01*
X62797426Y-56747597D01*
X62797429Y-56747597D01*
X62797431Y-56747598D01*
X62834306Y-56750500D01*
X63586917Y-56750500D01*
X63653956Y-56770185D01*
X63699711Y-56822989D01*
X63709655Y-56892147D01*
X63680630Y-56955703D01*
X63659803Y-56974818D01*
X63506201Y-57086416D01*
X63336416Y-57256201D01*
X63195276Y-57450463D01*
X63086265Y-57664406D01*
X63012063Y-57892777D01*
X62974500Y-58129941D01*
X62974500Y-58370058D01*
X63012063Y-58607222D01*
X63086265Y-58835593D01*
X63195276Y-59049536D01*
X63336414Y-59243796D01*
X63506204Y-59413586D01*
X63700464Y-59554724D01*
X63801543Y-59606226D01*
X63914406Y-59663734D01*
X63914408Y-59663734D01*
X63914411Y-59663736D01*
X64142778Y-59737937D01*
X64379941Y-59775500D01*
X64379942Y-59775500D01*
X64620058Y-59775500D01*
X64620059Y-59775500D01*
X64857222Y-59737937D01*
X65085589Y-59663736D01*
X65299536Y-59554724D01*
X65493796Y-59413586D01*
X65663586Y-59243796D01*
X65804724Y-59049536D01*
X65913736Y-58835589D01*
X65987937Y-58607222D01*
X66025500Y-58370059D01*
X66025500Y-58129941D01*
X67974500Y-58129941D01*
X67974500Y-58370058D01*
X68012063Y-58607222D01*
X68086265Y-58835593D01*
X68195276Y-59049536D01*
X68336414Y-59243796D01*
X68506204Y-59413586D01*
X68700464Y-59554724D01*
X68801543Y-59606226D01*
X68914406Y-59663734D01*
X68914408Y-59663734D01*
X68914411Y-59663736D01*
X69142778Y-59737937D01*
X69379941Y-59775500D01*
X69379942Y-59775500D01*
X69620058Y-59775500D01*
X69620059Y-59775500D01*
X69857222Y-59737937D01*
X70085589Y-59663736D01*
X70299536Y-59554724D01*
X70493796Y-59413586D01*
X70663586Y-59243796D01*
X70804724Y-59049536D01*
X70913736Y-58835589D01*
X70987937Y-58607222D01*
X71025500Y-58370059D01*
X71025500Y-58129941D01*
X70987937Y-57892778D01*
X70913736Y-57664411D01*
X70913734Y-57664408D01*
X70913734Y-57664406D01*
X70804723Y-57450463D01*
X70663586Y-57256204D01*
X70493796Y-57086414D01*
X70299536Y-56945276D01*
X70085593Y-56836265D01*
X69857222Y-56762063D01*
X69784210Y-56750499D01*
X69620059Y-56724500D01*
X69379941Y-56724500D01*
X69261359Y-56743281D01*
X69142777Y-56762063D01*
X68914406Y-56836265D01*
X68700463Y-56945276D01*
X68506201Y-57086416D01*
X68336416Y-57256201D01*
X68195276Y-57450463D01*
X68086265Y-57664406D01*
X68012063Y-57892777D01*
X67974500Y-58129941D01*
X66025500Y-58129941D01*
X65987937Y-57892778D01*
X65913736Y-57664411D01*
X65913734Y-57664408D01*
X65913734Y-57664406D01*
X65804723Y-57450463D01*
X65663586Y-57256204D01*
X65493796Y-57086414D01*
X65340196Y-56974817D01*
X65297532Y-56919488D01*
X65291553Y-56849875D01*
X65324159Y-56788080D01*
X65384998Y-56753722D01*
X65413083Y-56750500D01*
X66165686Y-56750500D01*
X66165694Y-56750500D01*
X66202569Y-56747598D01*
X66202571Y-56747597D01*
X66202573Y-56747597D01*
X66282072Y-56724500D01*
X66360398Y-56701744D01*
X66501865Y-56618081D01*
X66618081Y-56501865D01*
X66701744Y-56360398D01*
X66747598Y-56202569D01*
X66750500Y-56165694D01*
X66750500Y-50834306D01*
X66747598Y-50797431D01*
X66701744Y-50639602D01*
X66618081Y-50498135D01*
X66618079Y-50498133D01*
X66618076Y-50498129D01*
X66582128Y-50462181D01*
X66548643Y-50400858D01*
X66553627Y-50331166D01*
X66595499Y-50275233D01*
X66660963Y-50250816D01*
X66669809Y-50250500D01*
X78330191Y-50250500D01*
X78397230Y-50270185D01*
X78442985Y-50322989D01*
X78452929Y-50392147D01*
X78423904Y-50455703D01*
X78417872Y-50462181D01*
X78381923Y-50498129D01*
X78381917Y-50498137D01*
X78298255Y-50639603D01*
X78298254Y-50639606D01*
X78252402Y-50797426D01*
X78252401Y-50797432D01*
X78249500Y-50834298D01*
X78249500Y-56165701D01*
X78252401Y-56202567D01*
X78252402Y-56202573D01*
X78298254Y-56360393D01*
X78298255Y-56360396D01*
X78381917Y-56501862D01*
X78381923Y-56501870D01*
X78498129Y-56618076D01*
X78498133Y-56618079D01*
X78498135Y-56618081D01*
X78639602Y-56701744D01*
X78681224Y-56713836D01*
X78797426Y-56747597D01*
X78797429Y-56747597D01*
X78797431Y-56747598D01*
X78834306Y-56750500D01*
X79586917Y-56750500D01*
X79653956Y-56770185D01*
X79699711Y-56822989D01*
X79709655Y-56892147D01*
X79680630Y-56955703D01*
X79659803Y-56974818D01*
X79506201Y-57086416D01*
X79336416Y-57256201D01*
X79195276Y-57450463D01*
X79086265Y-57664406D01*
X79012063Y-57892777D01*
X78974500Y-58129941D01*
X78974500Y-58370058D01*
X79012063Y-58607222D01*
X79086265Y-58835593D01*
X79195276Y-59049536D01*
X79336414Y-59243796D01*
X79506204Y-59413586D01*
X79700464Y-59554724D01*
X79801543Y-59606226D01*
X79914406Y-59663734D01*
X79914408Y-59663734D01*
X79914411Y-59663736D01*
X80142778Y-59737937D01*
X80379941Y-59775500D01*
X80379942Y-59775500D01*
X80620058Y-59775500D01*
X80620059Y-59775500D01*
X80857222Y-59737937D01*
X81085589Y-59663736D01*
X81299536Y-59554724D01*
X81493796Y-59413586D01*
X81663586Y-59243796D01*
X81804724Y-59049536D01*
X81913736Y-58835589D01*
X81987937Y-58607222D01*
X82025500Y-58370059D01*
X82025500Y-58129941D01*
X83974500Y-58129941D01*
X83974500Y-58370058D01*
X84012063Y-58607222D01*
X84086265Y-58835593D01*
X84195276Y-59049536D01*
X84336414Y-59243796D01*
X84506204Y-59413586D01*
X84700464Y-59554724D01*
X84801543Y-59606226D01*
X84914406Y-59663734D01*
X84914408Y-59663734D01*
X84914411Y-59663736D01*
X85142778Y-59737937D01*
X85379941Y-59775500D01*
X85379942Y-59775500D01*
X85620058Y-59775500D01*
X85620059Y-59775500D01*
X85857222Y-59737937D01*
X86085589Y-59663736D01*
X86299536Y-59554724D01*
X86493796Y-59413586D01*
X86663586Y-59243796D01*
X86804724Y-59049536D01*
X86913736Y-58835589D01*
X86987937Y-58607222D01*
X87025500Y-58370059D01*
X87025500Y-58129941D01*
X86987937Y-57892778D01*
X86913736Y-57664411D01*
X86913734Y-57664408D01*
X86913734Y-57664406D01*
X86804723Y-57450463D01*
X86663586Y-57256204D01*
X86493796Y-57086414D01*
X86299536Y-56945276D01*
X86085593Y-56836265D01*
X85934983Y-56787329D01*
X85934982Y-56787328D01*
X85857224Y-56762063D01*
X85699113Y-56737021D01*
X85620059Y-56724500D01*
X85379941Y-56724500D01*
X85261359Y-56743281D01*
X85142777Y-56762063D01*
X84914406Y-56836265D01*
X84700463Y-56945276D01*
X84506201Y-57086416D01*
X84336416Y-57256201D01*
X84195276Y-57450463D01*
X84086265Y-57664406D01*
X84012063Y-57892777D01*
X83974500Y-58129941D01*
X82025500Y-58129941D01*
X81987937Y-57892778D01*
X81913736Y-57664411D01*
X81913734Y-57664408D01*
X81913734Y-57664406D01*
X81804723Y-57450463D01*
X81663586Y-57256204D01*
X81493796Y-57086414D01*
X81340196Y-56974817D01*
X81297532Y-56919488D01*
X81291553Y-56849875D01*
X81324159Y-56788080D01*
X81384998Y-56753722D01*
X81413083Y-56750500D01*
X82165686Y-56750500D01*
X82165694Y-56750500D01*
X82202569Y-56747598D01*
X82202571Y-56747597D01*
X82202573Y-56747597D01*
X82282072Y-56724500D01*
X82360398Y-56701744D01*
X82401350Y-56677525D01*
X89799500Y-56677525D01*
X89799500Y-56822475D01*
X89818169Y-56892147D01*
X89837017Y-56962488D01*
X89909488Y-57088011D01*
X89909490Y-57088013D01*
X89909491Y-57088015D01*
X90011985Y-57190509D01*
X90011986Y-57190510D01*
X90011988Y-57190511D01*
X90137511Y-57262982D01*
X90137512Y-57262982D01*
X90137515Y-57262984D01*
X90277525Y-57300500D01*
X90277528Y-57300500D01*
X90422472Y-57300500D01*
X90422475Y-57300500D01*
X90562485Y-57262984D01*
X90688015Y-57190509D01*
X90790509Y-57088015D01*
X90862984Y-56962485D01*
X90900500Y-56822475D01*
X90900500Y-56677525D01*
X90862984Y-56537515D01*
X90842404Y-56501870D01*
X90790511Y-56411988D01*
X90790506Y-56411982D01*
X90688017Y-56309493D01*
X90688011Y-56309488D01*
X90562488Y-56237017D01*
X90562489Y-56237017D01*
X90551006Y-56233940D01*
X90422475Y-56199500D01*
X90277525Y-56199500D01*
X90148993Y-56233940D01*
X90137511Y-56237017D01*
X90011988Y-56309488D01*
X90011982Y-56309493D01*
X89909493Y-56411982D01*
X89909488Y-56411988D01*
X89837017Y-56537511D01*
X89837016Y-56537515D01*
X89799500Y-56677525D01*
X82401350Y-56677525D01*
X82501865Y-56618081D01*
X82618081Y-56501865D01*
X82701744Y-56360398D01*
X82747598Y-56202569D01*
X82750500Y-56165694D01*
X82750500Y-50834306D01*
X82747598Y-50797431D01*
X82701744Y-50639602D01*
X82618081Y-50498135D01*
X82618079Y-50498133D01*
X82618076Y-50498129D01*
X82582128Y-50462181D01*
X82548643Y-50400858D01*
X82553627Y-50331166D01*
X82595499Y-50275233D01*
X82660963Y-50250816D01*
X82669809Y-50250500D01*
X94955830Y-50250500D01*
X94997294Y-50250500D01*
X95002702Y-50250618D01*
X95015967Y-50251197D01*
X95408558Y-50268337D01*
X95419293Y-50269277D01*
X95819386Y-50321950D01*
X95830010Y-50323823D01*
X96223993Y-50411167D01*
X96234405Y-50413956D01*
X96619279Y-50535307D01*
X96629414Y-50538996D01*
X97002232Y-50693423D01*
X97012024Y-50697989D01*
X97273887Y-50834306D01*
X97369942Y-50884309D01*
X97379310Y-50889717D01*
X97719638Y-51106530D01*
X97728499Y-51112735D01*
X98048627Y-51358378D01*
X98056914Y-51365332D01*
X98354412Y-51637938D01*
X98362061Y-51645587D01*
X98634667Y-51943085D01*
X98641621Y-51951372D01*
X98887264Y-52271500D01*
X98893469Y-52280361D01*
X99110282Y-52620689D01*
X99115690Y-52630057D01*
X99302007Y-52987969D01*
X99306579Y-52997773D01*
X99460997Y-53370570D01*
X99464697Y-53380735D01*
X99586037Y-53765575D01*
X99588837Y-53776025D01*
X99676173Y-54169977D01*
X99678051Y-54180629D01*
X99730720Y-54580683D01*
X99731663Y-54591460D01*
X99747324Y-54950172D01*
X99749382Y-54997297D01*
X99749500Y-55002706D01*
X99749500Y-64219921D01*
X99729815Y-64286960D01*
X99677011Y-64332715D01*
X99607853Y-64342659D01*
X99556611Y-64323024D01*
X99505740Y-64289034D01*
X99505739Y-64289033D01*
X99505735Y-64289032D01*
X99432677Y-64274500D01*
X99432674Y-64274500D01*
X96383326Y-64274500D01*
X96383323Y-64274500D01*
X96310264Y-64289032D01*
X96310260Y-64289033D01*
X96279643Y-64309491D01*
X96227399Y-64344399D01*
X96227398Y-64344400D01*
X96217244Y-64351185D01*
X96215573Y-64348685D01*
X96170858Y-64373102D01*
X96101166Y-64368118D01*
X96045233Y-64326246D01*
X96020816Y-64260782D01*
X96020500Y-64251936D01*
X96020500Y-61583858D01*
X96020500Y-61583856D01*
X95996614Y-61494712D01*
X95976284Y-61459500D01*
X95976284Y-61459499D01*
X95950472Y-61414791D01*
X95950468Y-61414786D01*
X95305213Y-60769531D01*
X95305208Y-60769527D01*
X95225290Y-60723387D01*
X95225289Y-60723386D01*
X95225288Y-60723386D01*
X95136144Y-60699500D01*
X95136143Y-60699500D01*
X88829386Y-60699500D01*
X88762347Y-60679815D01*
X88741705Y-60663181D01*
X88688017Y-60609493D01*
X88688011Y-60609488D01*
X88562488Y-60537017D01*
X88562489Y-60537017D01*
X88551006Y-60533940D01*
X88422475Y-60499500D01*
X88277525Y-60499500D01*
X88148993Y-60533940D01*
X88137511Y-60537017D01*
X88011988Y-60609488D01*
X88011982Y-60609493D01*
X87909493Y-60711982D01*
X87909488Y-60711988D01*
X87837017Y-60837511D01*
X87837016Y-60837515D01*
X87799500Y-60977525D01*
X87799500Y-61122475D01*
X87820939Y-61202485D01*
X87837017Y-61262488D01*
X87909488Y-61388011D01*
X87909490Y-61388013D01*
X87909491Y-61388015D01*
X88011985Y-61490509D01*
X88011986Y-61490510D01*
X88011988Y-61490511D01*
X88137511Y-61562982D01*
X88137512Y-61562982D01*
X88137515Y-61562984D01*
X88277525Y-61600500D01*
X88277528Y-61600500D01*
X88422472Y-61600500D01*
X88422475Y-61600500D01*
X88562485Y-61562984D01*
X88688015Y-61490509D01*
X88741705Y-61436819D01*
X88803028Y-61403334D01*
X88829386Y-61400500D01*
X94893456Y-61400500D01*
X94960495Y-61420185D01*
X94981137Y-61436819D01*
X95283181Y-61738863D01*
X95316666Y-61800186D01*
X95319500Y-61826544D01*
X95319500Y-62604090D01*
X95299815Y-62671129D01*
X95247011Y-62716884D01*
X95177853Y-62726828D01*
X95163407Y-62723865D01*
X95107010Y-62708753D01*
X95072475Y-62699500D01*
X94927525Y-62699500D01*
X94825537Y-62726828D01*
X94787511Y-62737017D01*
X94661988Y-62809488D01*
X94661982Y-62809493D01*
X94587681Y-62883795D01*
X94526358Y-62917280D01*
X94456666Y-62912296D01*
X94412319Y-62883795D01*
X94338017Y-62809493D01*
X94338011Y-62809488D01*
X94212488Y-62737017D01*
X94212489Y-62737017D01*
X94174463Y-62726828D01*
X94072475Y-62699500D01*
X93927525Y-62699500D01*
X93825537Y-62726828D01*
X93787511Y-62737017D01*
X93661988Y-62809488D01*
X93661982Y-62809493D01*
X93587681Y-62883795D01*
X93526358Y-62917280D01*
X93456666Y-62912296D01*
X93412319Y-62883795D01*
X93338017Y-62809493D01*
X93338011Y-62809488D01*
X93212488Y-62737017D01*
X93212489Y-62737017D01*
X93174463Y-62726828D01*
X93072475Y-62699500D01*
X92927525Y-62699500D01*
X92825537Y-62726828D01*
X92787511Y-62737017D01*
X92661988Y-62809488D01*
X92661982Y-62809493D01*
X92559493Y-62911982D01*
X92559488Y-62911988D01*
X92487017Y-63037511D01*
X92487016Y-63037515D01*
X92449500Y-63177525D01*
X92449500Y-63322475D01*
X92480942Y-63439815D01*
X92487017Y-63462488D01*
X92559488Y-63588011D01*
X92559490Y-63588013D01*
X92559491Y-63588015D01*
X92661985Y-63690509D01*
X92661986Y-63690510D01*
X92661988Y-63690511D01*
X92787511Y-63762982D01*
X92787512Y-63762982D01*
X92787515Y-63762984D01*
X92927525Y-63800500D01*
X92927528Y-63800500D01*
X93072472Y-63800500D01*
X93072475Y-63800500D01*
X93212485Y-63762984D01*
X93338015Y-63690509D01*
X93412319Y-63616205D01*
X93473642Y-63582720D01*
X93543334Y-63587704D01*
X93587681Y-63616205D01*
X93661985Y-63690509D01*
X93661986Y-63690510D01*
X93661988Y-63690511D01*
X93787511Y-63762982D01*
X93787512Y-63762982D01*
X93787515Y-63762984D01*
X93927525Y-63800500D01*
X93927528Y-63800500D01*
X94072472Y-63800500D01*
X94072475Y-63800500D01*
X94212485Y-63762984D01*
X94338015Y-63690509D01*
X94412319Y-63616205D01*
X94473642Y-63582720D01*
X94543334Y-63587704D01*
X94587681Y-63616205D01*
X94661985Y-63690509D01*
X94661986Y-63690510D01*
X94661988Y-63690511D01*
X94787511Y-63762982D01*
X94787512Y-63762982D01*
X94787515Y-63762984D01*
X94927525Y-63800500D01*
X94927528Y-63800500D01*
X95072472Y-63800500D01*
X95072475Y-63800500D01*
X95163408Y-63776134D01*
X95188401Y-63776729D01*
X95213147Y-63773171D01*
X95222727Y-63777546D01*
X95233256Y-63777797D01*
X95253960Y-63791809D01*
X95276703Y-63802196D01*
X95282396Y-63811055D01*
X95291119Y-63816959D01*
X95300961Y-63839942D01*
X95314477Y-63860974D01*
X95316756Y-63876828D01*
X95318623Y-63881187D01*
X95319500Y-63895909D01*
X95319500Y-64104090D01*
X95299815Y-64171129D01*
X95247011Y-64216884D01*
X95177853Y-64226828D01*
X95163407Y-64223865D01*
X95107010Y-64208753D01*
X95072475Y-64199500D01*
X94927525Y-64199500D01*
X94825537Y-64226828D01*
X94787511Y-64237017D01*
X94661988Y-64309488D01*
X94661982Y-64309493D01*
X94587681Y-64383795D01*
X94526358Y-64417280D01*
X94456666Y-64412296D01*
X94412319Y-64383795D01*
X94338017Y-64309493D01*
X94338011Y-64309488D01*
X94212488Y-64237017D01*
X94212489Y-64237017D01*
X94174463Y-64226828D01*
X94072475Y-64199500D01*
X93927525Y-64199500D01*
X93825537Y-64226828D01*
X93787511Y-64237017D01*
X93661988Y-64309488D01*
X93661982Y-64309493D01*
X93587681Y-64383795D01*
X93526358Y-64417280D01*
X93456666Y-64412296D01*
X93412319Y-64383795D01*
X93338017Y-64309493D01*
X93338011Y-64309488D01*
X93212488Y-64237017D01*
X93212489Y-64237017D01*
X93174463Y-64226828D01*
X93072475Y-64199500D01*
X92927525Y-64199500D01*
X92825537Y-64226828D01*
X92787511Y-64237017D01*
X92661988Y-64309488D01*
X92661982Y-64309493D01*
X92559493Y-64411982D01*
X92559488Y-64411988D01*
X92487017Y-64537511D01*
X92487016Y-64537515D01*
X92449500Y-64677525D01*
X92449500Y-64822475D01*
X92466928Y-64887515D01*
X92481904Y-64943406D01*
X92481308Y-64968401D01*
X92484867Y-64993147D01*
X92480491Y-65002727D01*
X92480241Y-65013256D01*
X92466228Y-65033960D01*
X92455842Y-65056703D01*
X92446982Y-65062396D01*
X92441079Y-65071119D01*
X92418095Y-65080960D01*
X92397064Y-65094477D01*
X92381208Y-65096756D01*
X92376850Y-65098623D01*
X92362129Y-65099500D01*
X92137871Y-65099500D01*
X92070832Y-65079815D01*
X92025077Y-65027011D01*
X92015133Y-64957853D01*
X92018096Y-64943406D01*
X92033072Y-64887515D01*
X92050500Y-64822475D01*
X92050500Y-64677525D01*
X92012984Y-64537515D01*
X92004594Y-64522984D01*
X91940511Y-64411988D01*
X91940506Y-64411982D01*
X91838017Y-64309493D01*
X91838011Y-64309488D01*
X91712488Y-64237017D01*
X91712489Y-64237017D01*
X91674463Y-64226828D01*
X91572475Y-64199500D01*
X91427525Y-64199500D01*
X91325537Y-64226828D01*
X91287511Y-64237017D01*
X91161988Y-64309488D01*
X91161982Y-64309493D01*
X91087681Y-64383795D01*
X91026358Y-64417280D01*
X90956666Y-64412296D01*
X90912319Y-64383795D01*
X90838017Y-64309493D01*
X90838011Y-64309488D01*
X90712488Y-64237017D01*
X90712489Y-64237017D01*
X90674463Y-64226828D01*
X90572475Y-64199500D01*
X90427525Y-64199500D01*
X90325537Y-64226828D01*
X90287511Y-64237017D01*
X90161988Y-64309488D01*
X90161982Y-64309493D01*
X90087681Y-64383795D01*
X90026358Y-64417280D01*
X89956666Y-64412296D01*
X89912319Y-64383795D01*
X89838017Y-64309493D01*
X89838011Y-64309488D01*
X89712488Y-64237017D01*
X89712489Y-64237017D01*
X89674463Y-64226828D01*
X89572475Y-64199500D01*
X89427525Y-64199500D01*
X89325537Y-64226828D01*
X89287511Y-64237017D01*
X89161988Y-64309488D01*
X89161982Y-64309493D01*
X89059493Y-64411982D01*
X89059488Y-64411988D01*
X88987017Y-64537511D01*
X88987016Y-64537515D01*
X88949500Y-64677525D01*
X88949500Y-64822475D01*
X88966928Y-64887515D01*
X88981904Y-64943406D01*
X88980241Y-65013256D01*
X88941079Y-65071119D01*
X88876850Y-65098623D01*
X88862129Y-65099500D01*
X86046544Y-65099500D01*
X85979505Y-65079815D01*
X85958863Y-65063181D01*
X85115213Y-64219531D01*
X85115208Y-64219527D01*
X85035290Y-64173387D01*
X85035289Y-64173386D01*
X85035288Y-64173386D01*
X84946144Y-64149500D01*
X84946143Y-64149500D01*
X64696544Y-64149500D01*
X64667103Y-64140855D01*
X64637117Y-64134332D01*
X64632101Y-64130577D01*
X64629505Y-64129815D01*
X64608863Y-64113181D01*
X64586819Y-64091137D01*
X64553334Y-64029814D01*
X64550500Y-64003456D01*
X64550500Y-63927527D01*
X64550500Y-63927525D01*
X64512984Y-63787515D01*
X64507373Y-63777797D01*
X64440511Y-63661988D01*
X64440506Y-63661982D01*
X64338017Y-63559493D01*
X64338011Y-63559488D01*
X64212488Y-63487017D01*
X64212489Y-63487017D01*
X64201006Y-63483940D01*
X64072475Y-63449500D01*
X63927525Y-63449500D01*
X63798993Y-63483940D01*
X63787511Y-63487017D01*
X63661988Y-63559488D01*
X63661982Y-63559493D01*
X63559493Y-63661982D01*
X63559488Y-63661988D01*
X63487017Y-63787511D01*
X63487016Y-63787515D01*
X63449500Y-63927525D01*
X63449500Y-64072475D01*
X63476540Y-64173387D01*
X63487017Y-64212488D01*
X63559488Y-64338011D01*
X63559490Y-64338013D01*
X63559491Y-64338015D01*
X63661985Y-64440509D01*
X63661986Y-64440510D01*
X63661988Y-64440511D01*
X63787511Y-64512982D01*
X63787512Y-64512982D01*
X63787515Y-64512984D01*
X63927525Y-64550500D01*
X64003456Y-64550500D01*
X64070495Y-64570185D01*
X64091137Y-64586819D01*
X64284788Y-64780470D01*
X64364712Y-64826614D01*
X64453856Y-64850500D01*
X64546144Y-64850500D01*
X72001036Y-64850500D01*
X72068075Y-64870185D01*
X72113830Y-64922989D01*
X72123774Y-64992147D01*
X72115597Y-65021952D01*
X72089326Y-65085375D01*
X72089323Y-65085385D01*
X72064326Y-65211052D01*
X72064326Y-65211055D01*
X72064326Y-65339193D01*
X72064326Y-65339195D01*
X72064325Y-65339195D01*
X72089323Y-65464862D01*
X72089325Y-65464868D01*
X72138359Y-65583248D01*
X72138364Y-65583257D01*
X72209549Y-65689792D01*
X72209552Y-65689796D01*
X72300153Y-65780397D01*
X72300157Y-65780400D01*
X72406692Y-65851585D01*
X72406698Y-65851588D01*
X72406699Y-65851589D01*
X72525082Y-65900625D01*
X72525086Y-65900625D01*
X72525087Y-65900626D01*
X72650754Y-65925624D01*
X72650757Y-65925624D01*
X72778897Y-65925624D01*
X72863441Y-65908806D01*
X72904570Y-65900625D01*
X73022953Y-65851589D01*
X73129495Y-65780400D01*
X73220102Y-65689793D01*
X73291291Y-65583251D01*
X73340327Y-65464868D01*
X73365326Y-65339193D01*
X73365326Y-65211055D01*
X73365326Y-65211052D01*
X73340328Y-65085385D01*
X73340327Y-65085384D01*
X73340327Y-65085380D01*
X73330807Y-65062396D01*
X73314055Y-65021952D01*
X73306586Y-64952483D01*
X73337862Y-64890004D01*
X73397951Y-64854352D01*
X73428616Y-64850500D01*
X74525804Y-64850500D01*
X74592843Y-64870185D01*
X74638598Y-64922989D01*
X74648542Y-64992147D01*
X74640365Y-65021953D01*
X74624499Y-65060255D01*
X74624497Y-65060261D01*
X74599500Y-65185928D01*
X74599500Y-65185931D01*
X74599500Y-65314069D01*
X74599500Y-65314071D01*
X74599499Y-65314071D01*
X74624497Y-65439738D01*
X74624499Y-65439744D01*
X74673533Y-65558124D01*
X74673538Y-65558133D01*
X74744723Y-65664668D01*
X74744726Y-65664672D01*
X74835327Y-65755273D01*
X74835331Y-65755276D01*
X74941866Y-65826461D01*
X74941872Y-65826464D01*
X74941873Y-65826465D01*
X75060256Y-65875501D01*
X75060260Y-65875501D01*
X75060261Y-65875502D01*
X75185928Y-65900500D01*
X75185931Y-65900500D01*
X75314071Y-65900500D01*
X75411265Y-65881166D01*
X75439744Y-65875501D01*
X75558127Y-65826465D01*
X75664669Y-65755276D01*
X75755276Y-65664669D01*
X75826465Y-65558127D01*
X75875501Y-65439744D01*
X75887149Y-65381187D01*
X75900500Y-65314071D01*
X75900500Y-65185928D01*
X75875502Y-65060261D01*
X75875501Y-65060260D01*
X75875501Y-65060256D01*
X75859634Y-65021951D01*
X75852166Y-64952484D01*
X75883441Y-64890004D01*
X75943530Y-64854352D01*
X75974196Y-64850500D01*
X79810334Y-64850500D01*
X79877373Y-64870185D01*
X79923128Y-64922989D01*
X79933072Y-64992147D01*
X79930109Y-65006589D01*
X79924500Y-65027525D01*
X79924500Y-65172475D01*
X79955396Y-65287779D01*
X79962017Y-65312488D01*
X80034488Y-65438011D01*
X80034490Y-65438013D01*
X80034491Y-65438015D01*
X80136985Y-65540509D01*
X80136986Y-65540510D01*
X80136988Y-65540511D01*
X80262511Y-65612982D01*
X80262512Y-65612982D01*
X80262515Y-65612984D01*
X80402525Y-65650500D01*
X80402528Y-65650500D01*
X80547472Y-65650500D01*
X80547475Y-65650500D01*
X80687485Y-65612984D01*
X80813015Y-65540509D01*
X80866705Y-65486819D01*
X80928028Y-65453334D01*
X80954386Y-65450500D01*
X84303456Y-65450500D01*
X84370495Y-65470185D01*
X84391137Y-65486819D01*
X85183788Y-66279470D01*
X85183790Y-66279471D01*
X85183794Y-66279474D01*
X85251836Y-66318758D01*
X85251837Y-66318758D01*
X85263712Y-66325614D01*
X85352856Y-66349500D01*
X86242516Y-66349500D01*
X86309555Y-66369185D01*
X86355310Y-66421989D01*
X86365254Y-66491147D01*
X86337927Y-66551679D01*
X86338415Y-66552072D01*
X86320744Y-66574000D01*
X86320740Y-66574005D01*
X86320740Y-66574007D01*
X86290561Y-66631701D01*
X86274534Y-66662340D01*
X86254850Y-66729375D01*
X86254848Y-66729383D01*
X86244500Y-66801360D01*
X86244500Y-68491258D01*
X86224815Y-68558297D01*
X86172011Y-68604052D01*
X86102853Y-68613996D01*
X86039297Y-68584971D01*
X86032819Y-68578939D01*
X84693367Y-67239487D01*
X84693365Y-67239485D01*
X84616634Y-67195184D01*
X84562136Y-67163719D01*
X84450702Y-67133861D01*
X84415766Y-67124500D01*
X84415765Y-67124500D01*
X79984191Y-67124500D01*
X79917152Y-67104815D01*
X79871397Y-67052011D01*
X79861453Y-66982853D01*
X79869629Y-66953048D01*
X79874004Y-66942485D01*
X79894433Y-66893166D01*
X79912474Y-66802472D01*
X79923275Y-66748173D01*
X79923275Y-66600332D01*
X79894434Y-66455345D01*
X79894433Y-66455344D01*
X79894433Y-66455340D01*
X79892027Y-66449531D01*
X79837862Y-66318764D01*
X79837855Y-66318751D01*
X79755726Y-66195837D01*
X79755723Y-66195833D01*
X79651194Y-66091304D01*
X79651190Y-66091301D01*
X79528276Y-66009172D01*
X79528263Y-66009165D01*
X79391692Y-65952596D01*
X79391682Y-65952593D01*
X79246695Y-65923753D01*
X79246693Y-65923753D01*
X79098857Y-65923753D01*
X79098855Y-65923753D01*
X78953867Y-65952593D01*
X78953857Y-65952596D01*
X78817286Y-66009165D01*
X78817273Y-66009172D01*
X78714862Y-66077602D01*
X78648184Y-66098480D01*
X78645971Y-66098500D01*
X77950233Y-66098500D01*
X77816670Y-66134288D01*
X77816669Y-66134287D01*
X77803869Y-66137717D01*
X77803862Y-66137720D01*
X77672638Y-66213483D01*
X77672632Y-66213487D01*
X76739487Y-67146632D01*
X76739485Y-67146635D01*
X76663719Y-67277863D01*
X76624500Y-67424234D01*
X76624500Y-72247817D01*
X76604815Y-72314856D01*
X76603602Y-72316708D01*
X76534919Y-72419498D01*
X76534912Y-72419511D01*
X76478343Y-72556082D01*
X76478340Y-72556092D01*
X76449500Y-72701079D01*
X76449500Y-72701082D01*
X76449500Y-72848918D01*
X76449500Y-72848920D01*
X76449499Y-72848920D01*
X76478340Y-72993907D01*
X76478343Y-72993917D01*
X76534912Y-73130488D01*
X76534919Y-73130501D01*
X76617048Y-73253415D01*
X76617051Y-73253419D01*
X76721580Y-73357948D01*
X76721584Y-73357951D01*
X76844498Y-73440080D01*
X76844511Y-73440087D01*
X76918235Y-73470624D01*
X76981087Y-73496658D01*
X76981091Y-73496658D01*
X76981092Y-73496659D01*
X77126079Y-73525500D01*
X77126082Y-73525500D01*
X77273920Y-73525500D01*
X77371462Y-73506096D01*
X77418913Y-73496658D01*
X77555495Y-73440084D01*
X77576672Y-73425934D01*
X77625950Y-73393008D01*
X77692628Y-73372130D01*
X77760008Y-73390615D01*
X77806698Y-73442593D01*
X77818841Y-73496110D01*
X77818841Y-74451273D01*
X77799156Y-74518312D01*
X77782522Y-74538954D01*
X77779493Y-74541982D01*
X77779488Y-74541988D01*
X77707017Y-74667511D01*
X77707016Y-74667515D01*
X77669500Y-74807525D01*
X77669500Y-74952475D01*
X77690472Y-75030742D01*
X77707017Y-75092488D01*
X77779488Y-75218011D01*
X77779490Y-75218013D01*
X77779491Y-75218015D01*
X77881985Y-75320509D01*
X77881986Y-75320510D01*
X77881988Y-75320511D01*
X78007511Y-75392982D01*
X78007512Y-75392982D01*
X78007515Y-75392984D01*
X78147525Y-75430500D01*
X78147528Y-75430500D01*
X78292472Y-75430500D01*
X78292475Y-75430500D01*
X78432485Y-75392984D01*
X78558015Y-75320509D01*
X78660509Y-75218015D01*
X78732984Y-75092485D01*
X78770500Y-74952475D01*
X78770500Y-74807525D01*
X78732984Y-74667515D01*
X78660509Y-74541985D01*
X78656160Y-74537636D01*
X78622675Y-74476313D01*
X78619841Y-74449955D01*
X78619841Y-70929386D01*
X78639526Y-70862347D01*
X78656160Y-70841705D01*
X78659850Y-70838015D01*
X78732325Y-70712485D01*
X78769841Y-70572475D01*
X78769841Y-70427525D01*
X78732325Y-70287515D01*
X78670380Y-70180224D01*
X78659852Y-70161988D01*
X78659847Y-70161982D01*
X78557358Y-70059493D01*
X78557352Y-70059488D01*
X78431829Y-69987017D01*
X78431830Y-69987017D01*
X78420347Y-69983940D01*
X78291816Y-69949500D01*
X78146866Y-69949500D01*
X78018334Y-69983940D01*
X78006852Y-69987017D01*
X77961500Y-70013202D01*
X77893600Y-70029675D01*
X77827573Y-70006823D01*
X77784383Y-69951902D01*
X77775500Y-69905815D01*
X77775500Y-68286230D01*
X77780181Y-68270285D01*
X77779851Y-68253672D01*
X77789821Y-68237455D01*
X77795185Y-68219191D01*
X77807742Y-68208309D01*
X77816447Y-68194153D01*
X77833603Y-68185900D01*
X77847989Y-68173436D01*
X77864436Y-68171071D01*
X77879412Y-68163868D01*
X77898304Y-68166201D01*
X77917147Y-68163492D01*
X77932826Y-68170464D01*
X77948755Y-68172432D01*
X77970528Y-68187230D01*
X77978820Y-68190918D01*
X77983176Y-68194543D01*
X78071584Y-68282951D01*
X78162007Y-68343370D01*
X78167016Y-68347538D01*
X78183000Y-68371353D01*
X78201392Y-68393360D01*
X78202225Y-68399997D01*
X78205954Y-68405552D01*
X78206525Y-68434228D01*
X78210099Y-68462684D01*
X78207259Y-68471093D01*
X78207345Y-68475408D01*
X78203922Y-68480974D01*
X78197063Y-68501287D01*
X78195874Y-68503512D01*
X78139297Y-68640100D01*
X78139295Y-68640106D01*
X78110455Y-68785093D01*
X78110455Y-68785096D01*
X78110455Y-68932932D01*
X78110455Y-68932934D01*
X78110454Y-68932934D01*
X78139295Y-69077921D01*
X78139298Y-69077931D01*
X78195867Y-69214502D01*
X78195874Y-69214515D01*
X78278003Y-69337429D01*
X78278006Y-69337433D01*
X78382535Y-69441962D01*
X78382539Y-69441965D01*
X78505453Y-69524094D01*
X78505466Y-69524101D01*
X78628336Y-69574995D01*
X78642042Y-69580672D01*
X78642046Y-69580672D01*
X78642047Y-69580673D01*
X78787034Y-69609514D01*
X78787037Y-69609514D01*
X78934875Y-69609514D01*
X79032417Y-69590110D01*
X79079868Y-69580672D01*
X79197795Y-69531824D01*
X79267265Y-69524356D01*
X79329744Y-69555631D01*
X79365396Y-69615720D01*
X79362902Y-69685545D01*
X79355124Y-69703860D01*
X79324534Y-69762338D01*
X79304850Y-69829375D01*
X79304848Y-69829383D01*
X79294500Y-69901360D01*
X79294500Y-73398639D01*
X79295963Y-73425934D01*
X79295967Y-73425988D01*
X79298797Y-73452310D01*
X79298798Y-73452312D01*
X79328586Y-73547441D01*
X79328590Y-73547451D01*
X79362068Y-73608761D01*
X79362073Y-73608769D01*
X79405649Y-73666980D01*
X79405665Y-73666998D01*
X79679174Y-73940506D01*
X79833015Y-74094347D01*
X79853365Y-74112626D01*
X79853371Y-74112631D01*
X79853379Y-74112638D01*
X79874000Y-74129255D01*
X79874002Y-74129256D01*
X79874007Y-74129260D01*
X79962338Y-74175465D01*
X80029377Y-74195150D01*
X80029381Y-74195150D01*
X80029383Y-74195151D01*
X80041014Y-74196823D01*
X80101362Y-74205500D01*
X80101363Y-74205500D01*
X83798639Y-74205500D01*
X83800075Y-74205422D01*
X83825952Y-74204036D01*
X83852310Y-74201202D01*
X83947444Y-74171413D01*
X84008767Y-74137928D01*
X84066985Y-74094347D01*
X84494347Y-73666985D01*
X84512626Y-73646635D01*
X84529260Y-73625993D01*
X84575465Y-73537662D01*
X84595150Y-73470623D01*
X84605500Y-73398638D01*
X84605500Y-72788742D01*
X84625185Y-72721703D01*
X84677989Y-72675948D01*
X84747147Y-72666004D01*
X84810703Y-72695029D01*
X84817181Y-72701061D01*
X85679485Y-73563365D01*
X85786635Y-73670515D01*
X85905313Y-73739034D01*
X85917865Y-73746281D01*
X86064233Y-73785500D01*
X86064234Y-73785500D01*
X89133527Y-73785500D01*
X89148783Y-73786500D01*
X89149249Y-73786500D01*
X90634764Y-73786500D01*
X90634766Y-73786500D01*
X90781135Y-73747281D01*
X90912365Y-73671515D01*
X91156355Y-73427525D01*
X91699500Y-73427525D01*
X91699500Y-73572475D01*
X91737016Y-73712485D01*
X91737017Y-73712488D01*
X91809488Y-73838011D01*
X91809490Y-73838013D01*
X91809491Y-73838015D01*
X91911985Y-73940509D01*
X91911986Y-73940510D01*
X91911988Y-73940511D01*
X92044553Y-74017048D01*
X92042971Y-74019787D01*
X92085774Y-74054281D01*
X92107838Y-74120575D01*
X92090558Y-74188274D01*
X92043859Y-74231751D01*
X92044553Y-74232952D01*
X91911988Y-74309488D01*
X91911982Y-74309493D01*
X91809493Y-74411982D01*
X91809488Y-74411988D01*
X91737017Y-74537511D01*
X91737016Y-74537515D01*
X91699500Y-74677525D01*
X91699500Y-74822475D01*
X91737016Y-74962485D01*
X91737017Y-74962488D01*
X91809488Y-75088011D01*
X91809490Y-75088013D01*
X91809491Y-75088015D01*
X91911985Y-75190509D01*
X91911986Y-75190510D01*
X91911988Y-75190511D01*
X92044553Y-75267048D01*
X92042971Y-75269787D01*
X92085774Y-75304281D01*
X92107838Y-75370575D01*
X92090558Y-75438274D01*
X92043859Y-75481751D01*
X92044553Y-75482952D01*
X91911988Y-75559488D01*
X91911982Y-75559493D01*
X91809493Y-75661982D01*
X91809488Y-75661988D01*
X91737017Y-75787511D01*
X91737016Y-75787515D01*
X91699500Y-75927525D01*
X91699500Y-76072475D01*
X91737016Y-76212485D01*
X91737017Y-76212488D01*
X91809488Y-76338011D01*
X91809490Y-76338013D01*
X91809491Y-76338015D01*
X91911985Y-76440509D01*
X91911986Y-76440510D01*
X91911988Y-76440511D01*
X92037511Y-76512982D01*
X92037512Y-76512982D01*
X92037515Y-76512984D01*
X92177525Y-76550500D01*
X92177528Y-76550500D01*
X92322472Y-76550500D01*
X92322475Y-76550500D01*
X92462485Y-76512984D01*
X92588015Y-76440509D01*
X92690509Y-76338015D01*
X92762984Y-76212485D01*
X92800500Y-76072475D01*
X92800500Y-75996544D01*
X92820185Y-75929505D01*
X92836819Y-75908863D01*
X93315182Y-75430500D01*
X93825505Y-74920176D01*
X93886826Y-74886693D01*
X93956517Y-74891677D01*
X94012451Y-74933549D01*
X94016281Y-74938962D01*
X94027399Y-74955601D01*
X94110260Y-75010966D01*
X94110264Y-75010967D01*
X94183321Y-75025499D01*
X94183324Y-75025500D01*
X94183326Y-75025500D01*
X95832676Y-75025500D01*
X95832677Y-75025499D01*
X95905740Y-75010966D01*
X95988601Y-74955601D01*
X96043966Y-74872740D01*
X96058500Y-74799674D01*
X96058500Y-73950326D01*
X96058500Y-73950323D01*
X96058499Y-73950321D01*
X96043967Y-73877264D01*
X96043966Y-73877262D01*
X96043966Y-73877260D01*
X96004964Y-73818888D01*
X95984087Y-73752213D01*
X96002572Y-73684833D01*
X96004946Y-73681138D01*
X96043966Y-73622740D01*
X96058500Y-73549674D01*
X96058500Y-72700326D01*
X96058500Y-72700323D01*
X96058499Y-72700321D01*
X96043967Y-72627264D01*
X96043966Y-72627262D01*
X96043966Y-72627260D01*
X96004964Y-72568888D01*
X95984087Y-72502213D01*
X96002572Y-72434833D01*
X96004946Y-72431138D01*
X96043966Y-72372740D01*
X96058500Y-72299674D01*
X96058500Y-71450326D01*
X96058500Y-71450323D01*
X96058499Y-71450321D01*
X96043967Y-71377264D01*
X96043966Y-71377260D01*
X95988601Y-71294399D01*
X95905740Y-71239034D01*
X95905739Y-71239033D01*
X95905735Y-71239032D01*
X95832677Y-71224500D01*
X95832674Y-71224500D01*
X94183326Y-71224500D01*
X94183323Y-71224500D01*
X94110264Y-71239032D01*
X94110260Y-71239033D01*
X94027399Y-71294399D01*
X93972033Y-71377260D01*
X93972032Y-71377263D01*
X93962598Y-71424692D01*
X93930212Y-71486603D01*
X93869496Y-71521177D01*
X93840981Y-71524500D01*
X93828856Y-71524500D01*
X93739712Y-71548386D01*
X93739709Y-71548387D01*
X93659791Y-71594527D01*
X93659786Y-71594531D01*
X92341137Y-72913181D01*
X92279814Y-72946666D01*
X92253456Y-72949500D01*
X92177525Y-72949500D01*
X92048993Y-72983940D01*
X92037511Y-72987017D01*
X91911988Y-73059488D01*
X91911982Y-73059493D01*
X91809493Y-73161982D01*
X91809488Y-73161988D01*
X91737017Y-73287511D01*
X91737016Y-73287515D01*
X91699500Y-73427525D01*
X91156355Y-73427525D01*
X91370515Y-73213365D01*
X91446281Y-73082135D01*
X91485500Y-72935766D01*
X91485500Y-72784233D01*
X91485500Y-72707182D01*
X91505185Y-72640143D01*
X91506398Y-72638291D01*
X91575080Y-72535501D01*
X91575080Y-72535500D01*
X91575084Y-72535495D01*
X91631658Y-72398913D01*
X91648010Y-72316708D01*
X91660500Y-72253920D01*
X91660500Y-72106079D01*
X91631659Y-71961092D01*
X91631658Y-71961091D01*
X91631658Y-71961087D01*
X91580473Y-71837515D01*
X91575087Y-71824511D01*
X91575080Y-71824498D01*
X91492951Y-71701584D01*
X91492948Y-71701580D01*
X91414030Y-71622662D01*
X91380545Y-71561339D01*
X91385529Y-71491647D01*
X91414030Y-71447300D01*
X91484070Y-71377260D01*
X91644347Y-71216984D01*
X91662626Y-71196634D01*
X91679260Y-71175992D01*
X91725465Y-71087661D01*
X91745150Y-71020622D01*
X91755500Y-70948637D01*
X91755500Y-66801362D01*
X91754036Y-66774048D01*
X91751202Y-66747690D01*
X91721413Y-66652556D01*
X91719839Y-66649674D01*
X91687931Y-66591238D01*
X91687930Y-66591237D01*
X91687928Y-66591233D01*
X91655420Y-66547808D01*
X91631005Y-66482346D01*
X91645857Y-66414073D01*
X91695262Y-66364668D01*
X91754689Y-66349500D01*
X92947458Y-66349500D01*
X93014497Y-66369185D01*
X93035139Y-66385819D01*
X93783181Y-67133861D01*
X93816666Y-67195184D01*
X93819500Y-67221542D01*
X93819500Y-67297473D01*
X93832524Y-67346078D01*
X93857017Y-67437486D01*
X93929488Y-67563009D01*
X93929490Y-67563011D01*
X93929491Y-67563013D01*
X94031985Y-67665507D01*
X94031986Y-67665508D01*
X94031988Y-67665509D01*
X94157511Y-67737980D01*
X94157512Y-67737980D01*
X94157515Y-67737982D01*
X94297525Y-67775498D01*
X94297528Y-67775498D01*
X94442472Y-67775498D01*
X94442475Y-67775498D01*
X94582485Y-67737982D01*
X94708015Y-67665507D01*
X94810509Y-67563013D01*
X94882984Y-67437483D01*
X94920500Y-67297473D01*
X94920500Y-67205543D01*
X94940185Y-67138504D01*
X94992989Y-67092749D01*
X95062147Y-67082805D01*
X95125703Y-67111830D01*
X95132173Y-67117854D01*
X95235861Y-67221542D01*
X96613181Y-68598862D01*
X96646666Y-68660185D01*
X96649500Y-68686543D01*
X96649500Y-75803455D01*
X96629815Y-75870494D01*
X96613181Y-75891136D01*
X96184087Y-76320229D01*
X96122764Y-76353714D01*
X96053072Y-76348730D01*
X95997139Y-76306858D01*
X95993317Y-76301458D01*
X95988601Y-76294399D01*
X95905740Y-76239034D01*
X95905739Y-76239033D01*
X95905735Y-76239032D01*
X95832677Y-76224500D01*
X95832674Y-76224500D01*
X94183326Y-76224500D01*
X94183323Y-76224500D01*
X94110264Y-76239032D01*
X94110260Y-76239033D01*
X94027399Y-76294399D01*
X93972033Y-76377260D01*
X93972032Y-76377264D01*
X93957500Y-76450321D01*
X93957500Y-76970500D01*
X93937815Y-77037539D01*
X93885011Y-77083294D01*
X93833500Y-77094500D01*
X92351361Y-77094500D01*
X92324065Y-77095963D01*
X92324060Y-77095963D01*
X92324048Y-77095964D01*
X92324040Y-77095964D01*
X92324011Y-77095967D01*
X92297689Y-77098797D01*
X92297687Y-77098798D01*
X92202558Y-77128586D01*
X92202548Y-77128590D01*
X92141238Y-77162068D01*
X92141230Y-77162073D01*
X92083019Y-77205649D01*
X92083001Y-77205665D01*
X91855667Y-77433000D01*
X91855638Y-77433031D01*
X91837361Y-77453379D01*
X91820744Y-77474000D01*
X91820740Y-77474005D01*
X91820740Y-77474007D01*
X91790794Y-77531255D01*
X91774534Y-77562340D01*
X91754850Y-77629375D01*
X91754848Y-77629383D01*
X91744500Y-77701360D01*
X91744500Y-84350415D01*
X91724815Y-84417454D01*
X91711151Y-84435022D01*
X91225738Y-84955107D01*
X91165605Y-84990686D01*
X91135087Y-84994500D01*
X88407194Y-84994500D01*
X88340155Y-84974815D01*
X88319513Y-84958181D01*
X87666998Y-84305666D01*
X87666985Y-84305653D01*
X87646635Y-84287374D01*
X87646629Y-84287369D01*
X87646620Y-84287361D01*
X87625999Y-84270744D01*
X87625996Y-84270742D01*
X87625993Y-84270740D01*
X87537662Y-84224535D01*
X87537659Y-84224534D01*
X87470624Y-84204850D01*
X87470616Y-84204848D01*
X87398639Y-84194500D01*
X87398638Y-84194500D01*
X84357194Y-84194500D01*
X84290155Y-84174815D01*
X84269513Y-84158181D01*
X83886819Y-83775487D01*
X83853334Y-83714164D01*
X83850500Y-83687806D01*
X83850500Y-82203858D01*
X83850500Y-82203856D01*
X83826614Y-82114712D01*
X83797375Y-82064069D01*
X83780470Y-82034788D01*
X77515212Y-75769530D01*
X77515211Y-75769529D01*
X77515208Y-75769527D01*
X77435290Y-75723387D01*
X77435283Y-75723384D01*
X77420898Y-75719529D01*
X77420898Y-75719530D01*
X77383520Y-75709515D01*
X77346144Y-75699500D01*
X77346143Y-75699500D01*
X72946543Y-75699500D01*
X72879504Y-75679815D01*
X72858862Y-75663181D01*
X69336819Y-72141137D01*
X69303334Y-72079814D01*
X69300500Y-72053456D01*
X69300500Y-71977527D01*
X69300500Y-71977525D01*
X69262984Y-71837515D01*
X69226600Y-71774497D01*
X69190511Y-71711988D01*
X69190506Y-71711982D01*
X69088017Y-71609493D01*
X69088011Y-71609488D01*
X68962488Y-71537017D01*
X68962489Y-71537017D01*
X68951006Y-71533940D01*
X68822475Y-71499500D01*
X68822472Y-71499500D01*
X68746544Y-71499500D01*
X68679505Y-71479815D01*
X68658863Y-71463181D01*
X68136819Y-70941137D01*
X68103334Y-70879814D01*
X68100500Y-70853456D01*
X68100500Y-69829386D01*
X68120185Y-69762347D01*
X68136819Y-69741705D01*
X68162319Y-69716205D01*
X68190509Y-69688015D01*
X68262984Y-69562485D01*
X68300500Y-69422475D01*
X68300500Y-69277525D01*
X68262984Y-69137515D01*
X68241613Y-69100500D01*
X68190511Y-69011988D01*
X68190506Y-69011982D01*
X68090705Y-68912181D01*
X68057220Y-68850858D01*
X68062204Y-68781166D01*
X68104076Y-68725233D01*
X68169540Y-68700816D01*
X68178386Y-68700500D01*
X68515298Y-68700500D01*
X68582337Y-68720185D01*
X68618400Y-68755609D01*
X68667048Y-68828415D01*
X68667051Y-68828419D01*
X68771580Y-68932948D01*
X68771584Y-68932951D01*
X68894498Y-69015080D01*
X68894511Y-69015087D01*
X69031082Y-69071656D01*
X69031087Y-69071658D01*
X69031091Y-69071658D01*
X69031092Y-69071659D01*
X69176079Y-69100500D01*
X69176082Y-69100500D01*
X69323920Y-69100500D01*
X69437397Y-69077927D01*
X69468913Y-69071658D01*
X69605495Y-69015084D01*
X69728416Y-68932951D01*
X69832951Y-68828416D01*
X69854166Y-68796666D01*
X69914618Y-68706193D01*
X69968230Y-68661388D01*
X70037555Y-68652681D01*
X70100582Y-68682835D01*
X70137302Y-68742278D01*
X70141720Y-68775084D01*
X70141720Y-69488353D01*
X70122035Y-69555392D01*
X70105401Y-69576034D01*
X70051713Y-69629721D01*
X70051708Y-69629727D01*
X69979237Y-69755250D01*
X69979236Y-69755254D01*
X69941720Y-69895264D01*
X69941720Y-70040214D01*
X69974348Y-70161982D01*
X69979237Y-70180227D01*
X70051708Y-70305750D01*
X70051710Y-70305752D01*
X70051711Y-70305754D01*
X70154205Y-70408248D01*
X70154206Y-70408249D01*
X70154208Y-70408250D01*
X70279731Y-70480721D01*
X70279732Y-70480721D01*
X70279735Y-70480723D01*
X70419745Y-70518239D01*
X70419748Y-70518239D01*
X70564692Y-70518239D01*
X70564695Y-70518239D01*
X70704705Y-70480723D01*
X70830235Y-70408248D01*
X70932729Y-70305754D01*
X71005204Y-70180224D01*
X71042720Y-70040214D01*
X71042720Y-69895264D01*
X71005204Y-69755254D01*
X70997381Y-69741705D01*
X70932731Y-69629727D01*
X70932726Y-69629721D01*
X70879039Y-69576034D01*
X70845554Y-69514711D01*
X70842720Y-69488353D01*
X70842720Y-67346078D01*
X70842720Y-67346076D01*
X70818834Y-67256932D01*
X70805368Y-67233608D01*
X70772690Y-67177008D01*
X70045212Y-66449530D01*
X70045211Y-66449529D01*
X70045208Y-66449527D01*
X69965290Y-66403387D01*
X69965289Y-66403386D01*
X69965288Y-66403386D01*
X69876144Y-66379500D01*
X69876143Y-66379500D01*
X67239386Y-66379500D01*
X67172347Y-66359815D01*
X67151705Y-66343181D01*
X67098017Y-66289493D01*
X67098011Y-66289488D01*
X66972488Y-66217017D01*
X66972489Y-66217017D01*
X66959300Y-66213483D01*
X66832475Y-66179500D01*
X66687525Y-66179500D01*
X66560700Y-66213483D01*
X66547511Y-66217017D01*
X66421988Y-66289488D01*
X66421982Y-66289493D01*
X66319493Y-66391982D01*
X66319488Y-66391988D01*
X66247017Y-66517511D01*
X66247016Y-66517515D01*
X66209500Y-66657525D01*
X66209500Y-66802475D01*
X66243692Y-66930078D01*
X66247017Y-66942488D01*
X66319488Y-67068011D01*
X66319490Y-67068013D01*
X66319491Y-67068015D01*
X66421985Y-67170509D01*
X66421986Y-67170510D01*
X66421988Y-67170511D01*
X66547511Y-67242982D01*
X66547512Y-67242982D01*
X66547515Y-67242984D01*
X66687525Y-67280500D01*
X66687528Y-67280500D01*
X66832472Y-67280500D01*
X66832475Y-67280500D01*
X66972485Y-67242984D01*
X67098015Y-67170509D01*
X67151705Y-67116819D01*
X67213028Y-67083334D01*
X67239386Y-67080500D01*
X69633456Y-67080500D01*
X69700495Y-67100185D01*
X69721137Y-67116819D01*
X70105401Y-67501083D01*
X70138886Y-67562406D01*
X70141720Y-67588764D01*
X70141720Y-67924915D01*
X70122035Y-67991954D01*
X70069231Y-68037709D01*
X70000073Y-68047653D01*
X69936517Y-68018628D01*
X69914618Y-67993806D01*
X69832951Y-67871584D01*
X69832948Y-67871580D01*
X69728419Y-67767051D01*
X69728415Y-67767048D01*
X69605501Y-67684919D01*
X69605488Y-67684912D01*
X69468917Y-67628343D01*
X69468907Y-67628340D01*
X69323920Y-67599500D01*
X69323918Y-67599500D01*
X69176082Y-67599500D01*
X69176080Y-67599500D01*
X69031092Y-67628340D01*
X69031082Y-67628343D01*
X68894511Y-67684912D01*
X68894498Y-67684919D01*
X68771584Y-67767048D01*
X68771580Y-67767051D01*
X68667051Y-67871580D01*
X68667048Y-67871584D01*
X68618400Y-67944391D01*
X68564787Y-67989196D01*
X68515298Y-67999500D01*
X67703854Y-67999500D01*
X67674693Y-68007313D01*
X67674694Y-68007314D01*
X67614710Y-68023386D01*
X67614709Y-68023387D01*
X67534791Y-68069527D01*
X67534786Y-68069531D01*
X66841137Y-68763181D01*
X66779814Y-68796666D01*
X66753456Y-68799500D01*
X66677525Y-68799500D01*
X66548993Y-68833940D01*
X66537511Y-68837017D01*
X66411988Y-68909488D01*
X66411982Y-68909493D01*
X66309493Y-69011982D01*
X66309488Y-69011988D01*
X66237017Y-69137511D01*
X66237016Y-69137515D01*
X66199500Y-69277525D01*
X66199500Y-69422475D01*
X66235817Y-69558011D01*
X66237017Y-69562488D01*
X66309488Y-69688011D01*
X66309490Y-69688013D01*
X66309491Y-69688015D01*
X66411985Y-69790509D01*
X66411986Y-69790510D01*
X66411988Y-69790511D01*
X66537511Y-69862982D01*
X66537512Y-69862982D01*
X66537515Y-69862984D01*
X66677525Y-69900500D01*
X66677528Y-69900500D01*
X66822472Y-69900500D01*
X66822475Y-69900500D01*
X66962485Y-69862984D01*
X67088015Y-69790509D01*
X67162319Y-69716205D01*
X67170264Y-69711866D01*
X67175690Y-69704619D01*
X67200449Y-69695384D01*
X67223642Y-69682720D01*
X67232671Y-69683365D01*
X67241154Y-69680202D01*
X67266974Y-69685818D01*
X67293334Y-69687704D01*
X67302387Y-69693522D01*
X67309427Y-69695054D01*
X67337681Y-69716205D01*
X67363181Y-69741705D01*
X67396666Y-69803028D01*
X67399500Y-69829386D01*
X67399500Y-71096145D01*
X67417860Y-71164668D01*
X67423384Y-71185284D01*
X67423387Y-71185291D01*
X67469527Y-71265208D01*
X67469531Y-71265213D01*
X68163181Y-71958863D01*
X68196666Y-72020186D01*
X68199500Y-72046544D01*
X68199500Y-72122475D01*
X68234721Y-72253920D01*
X68237017Y-72262488D01*
X68309488Y-72388011D01*
X68309490Y-72388013D01*
X68309491Y-72388015D01*
X68411985Y-72490509D01*
X68411986Y-72490510D01*
X68411988Y-72490511D01*
X68537511Y-72562982D01*
X68537512Y-72562982D01*
X68537515Y-72562984D01*
X68677525Y-72600500D01*
X68753456Y-72600500D01*
X68820495Y-72620185D01*
X68841137Y-72636819D01*
X70655592Y-74451273D01*
X72469531Y-76265212D01*
X72534788Y-76330469D01*
X72534791Y-76330470D01*
X72534794Y-76330473D01*
X72614706Y-76376611D01*
X72614707Y-76376611D01*
X72614712Y-76376614D01*
X72703856Y-76400500D01*
X77103456Y-76400500D01*
X77170495Y-76420185D01*
X77191137Y-76436819D01*
X83113181Y-82358863D01*
X83146666Y-82420186D01*
X83149500Y-82446544D01*
X83149500Y-83687806D01*
X83129815Y-83754845D01*
X83113181Y-83775487D01*
X82730487Y-84158181D01*
X82669164Y-84191666D01*
X82642806Y-84194500D01*
X82273997Y-84194500D01*
X82219687Y-84200338D01*
X82168181Y-84211543D01*
X82168172Y-84211546D01*
X82141807Y-84218779D01*
X82141796Y-84218783D01*
X82055181Y-84268105D01*
X82055173Y-84268111D01*
X82002371Y-84313863D01*
X81970743Y-84346640D01*
X81924534Y-84434977D01*
X81924533Y-84434977D01*
X81904851Y-84502009D01*
X81904848Y-84502021D01*
X81894500Y-84573998D01*
X81894500Y-84676929D01*
X81897100Y-84713288D01*
X81897101Y-84713292D01*
X81902124Y-84748227D01*
X81903584Y-84757237D01*
X81903584Y-84757239D01*
X81903586Y-84757246D01*
X81903803Y-84758038D01*
X81905215Y-84761957D01*
X81906327Y-84765350D01*
X81906379Y-84765638D01*
X81918427Y-84809549D01*
X81938058Y-84862185D01*
X81938834Y-84864551D01*
X81939000Y-84869916D01*
X81944999Y-84903164D01*
X81944999Y-86596830D01*
X81937181Y-86640164D01*
X81923472Y-86676919D01*
X81906555Y-86707899D01*
X81885703Y-86735752D01*
X81860750Y-86760704D01*
X81832896Y-86781556D01*
X81801920Y-86798471D01*
X81765167Y-86812180D01*
X81721831Y-86819999D01*
X80075852Y-86819999D01*
X80048530Y-86821464D01*
X80048510Y-86821465D01*
X80022185Y-86824297D01*
X80022180Y-86824298D01*
X79927057Y-86854085D01*
X79888925Y-86874906D01*
X79884615Y-86875843D01*
X79881289Y-86878740D01*
X79850781Y-86883203D01*
X79820652Y-86889757D01*
X79816519Y-86888215D01*
X79812155Y-86888854D01*
X79784079Y-86876115D01*
X79755188Y-86865339D01*
X79752544Y-86861807D01*
X79748528Y-86859985D01*
X79731795Y-86834088D01*
X79713318Y-86809405D01*
X79712328Y-86803961D01*
X79710609Y-86801300D01*
X79705719Y-86767584D01*
X79705500Y-86766378D01*
X79705500Y-86574341D01*
X79705018Y-86570687D01*
X79705000Y-86562958D01*
X79705008Y-86562927D01*
X79705000Y-86562653D01*
X79705000Y-86437342D01*
X79705266Y-86429229D01*
X79705500Y-86425660D01*
X79705500Y-85834406D01*
X79705066Y-85821140D01*
X79705000Y-85817086D01*
X79705000Y-85682913D01*
X79705066Y-85678858D01*
X79705500Y-85665593D01*
X79705500Y-85074347D01*
X79705265Y-85070762D01*
X79705000Y-85062653D01*
X79705000Y-84937342D01*
X79705266Y-84929229D01*
X79705500Y-84925660D01*
X79705500Y-84757193D01*
X79725185Y-84690154D01*
X79741819Y-84669512D01*
X79869512Y-84541819D01*
X79930835Y-84508334D01*
X79957193Y-84505500D01*
X80126000Y-84505500D01*
X80180313Y-84499661D01*
X80231824Y-84488455D01*
X80258198Y-84481219D01*
X80310054Y-84451690D01*
X80344818Y-84431894D01*
X80344819Y-84431892D01*
X80344828Y-84431888D01*
X80397632Y-84386133D01*
X80429257Y-84353359D01*
X80475465Y-84265024D01*
X80495150Y-84197985D01*
X80505500Y-84126000D01*
X80505500Y-81300312D01*
X80504227Y-81274837D01*
X80501762Y-81250238D01*
X80473535Y-81156531D01*
X80440944Y-81094730D01*
X80440942Y-81094726D01*
X80408224Y-81049674D01*
X80398209Y-81035883D01*
X80398206Y-81035880D01*
X80398205Y-81035878D01*
X77425733Y-77975982D01*
X77371478Y-77933472D01*
X77314285Y-77900014D01*
X77314277Y-77900010D01*
X77314272Y-77900007D01*
X77276662Y-77881951D01*
X77178400Y-77865133D01*
X77178398Y-77865133D01*
X77178392Y-77865132D01*
X77108567Y-77867007D01*
X77108539Y-77867009D01*
X77063321Y-77872282D01*
X77063318Y-77872283D01*
X76971561Y-77911258D01*
X76957829Y-77920613D01*
X76914467Y-77950152D01*
X76914442Y-77950169D01*
X76896372Y-77962480D01*
X76894108Y-77963211D01*
X76893731Y-77963714D01*
X76892575Y-77965974D01*
X76890257Y-77968355D01*
X76878884Y-77979727D01*
X76878730Y-77979881D01*
X76843311Y-78015172D01*
X76842756Y-78015856D01*
X76810430Y-78048181D01*
X76791641Y-78063600D01*
X76747255Y-78093258D01*
X76725817Y-78104717D01*
X76676497Y-78125146D01*
X76653239Y-78132202D01*
X76626867Y-78137448D01*
X76600883Y-78142617D01*
X76576692Y-78145000D01*
X76523308Y-78145000D01*
X76499115Y-78142617D01*
X76446759Y-78132202D01*
X76423500Y-78125146D01*
X76374179Y-78104717D01*
X76352744Y-78093260D01*
X76308353Y-78063598D01*
X76289567Y-78048180D01*
X76251822Y-78010435D01*
X76236401Y-77991646D01*
X76225934Y-77975982D01*
X76206739Y-77947254D01*
X76195283Y-77925822D01*
X76174849Y-77876491D01*
X76167795Y-77853233D01*
X76157204Y-77799984D01*
X76157201Y-77799968D01*
X76149748Y-77771304D01*
X76149744Y-77771290D01*
X76149743Y-77771285D01*
X76140920Y-77743966D01*
X76140211Y-77741802D01*
X76126653Y-77717993D01*
X76090884Y-77655177D01*
X76090881Y-77655174D01*
X76090880Y-77655172D01*
X76045125Y-77602368D01*
X76012351Y-77570743D01*
X75924016Y-77524535D01*
X75924015Y-77524534D01*
X75924014Y-77524534D01*
X75924014Y-77524533D01*
X75856982Y-77504851D01*
X75856970Y-77504848D01*
X75784993Y-77494500D01*
X75784992Y-77494500D01*
X75715008Y-77494500D01*
X75709393Y-77494825D01*
X75691608Y-77495858D01*
X75691590Y-77495859D01*
X75685434Y-77496217D01*
X75678557Y-77497018D01*
X75678505Y-77497023D01*
X75658627Y-77499340D01*
X75656918Y-77499540D01*
X75656889Y-77499543D01*
X75656799Y-77499554D01*
X75654730Y-77499804D01*
X75649782Y-77500914D01*
X75642512Y-77502317D01*
X75634721Y-77503580D01*
X75634718Y-77503580D01*
X75634717Y-77503581D01*
X75634715Y-77503581D01*
X75634714Y-77503582D01*
X75590585Y-77520942D01*
X75590584Y-77520941D01*
X75587456Y-77522171D01*
X75560135Y-77531255D01*
X75558309Y-77532294D01*
X75558934Y-77533393D01*
X75542406Y-77539896D01*
X75542405Y-77539896D01*
X75541954Y-77540073D01*
X75541948Y-77540076D01*
X75524002Y-77551608D01*
X75518612Y-77554881D01*
X75513976Y-77557537D01*
X75513921Y-77557549D01*
X75513832Y-77557600D01*
X75513706Y-77557691D01*
X75499340Y-77565873D01*
X75499334Y-77565876D01*
X75461944Y-77591835D01*
X75456553Y-77598524D01*
X75447198Y-77605793D01*
X75417465Y-77647021D01*
X75415363Y-77649630D01*
X75415364Y-77649630D01*
X75399389Y-77669452D01*
X75399383Y-77669461D01*
X75398472Y-77671201D01*
X75398473Y-77671202D01*
X75394363Y-77679056D01*
X75388887Y-77686652D01*
X75378548Y-77709288D01*
X75377010Y-77712228D01*
X75377008Y-77712229D01*
X75374002Y-77717976D01*
X75373996Y-77717993D01*
X75366993Y-77731382D01*
X75342801Y-77799959D01*
X75332202Y-77853239D01*
X75325146Y-77876497D01*
X75304717Y-77925817D01*
X75293258Y-77947255D01*
X75263598Y-77991644D01*
X75248177Y-78010434D01*
X75210434Y-78048177D01*
X75191644Y-78063598D01*
X75147255Y-78093258D01*
X75125817Y-78104717D01*
X75076497Y-78125146D01*
X75053239Y-78132202D01*
X75026867Y-78137448D01*
X75000883Y-78142617D01*
X74976692Y-78145000D01*
X74923308Y-78145000D01*
X74899115Y-78142617D01*
X74846759Y-78132202D01*
X74823500Y-78125146D01*
X74774179Y-78104717D01*
X74752744Y-78093260D01*
X74708353Y-78063598D01*
X74689567Y-78048180D01*
X74651822Y-78010435D01*
X74636401Y-77991646D01*
X74625934Y-77975982D01*
X74606739Y-77947254D01*
X74595283Y-77925822D01*
X74574849Y-77876491D01*
X74567795Y-77853233D01*
X74557204Y-77799984D01*
X74557201Y-77799968D01*
X74549748Y-77771304D01*
X74549744Y-77771290D01*
X74549743Y-77771285D01*
X74540920Y-77743966D01*
X74540211Y-77741802D01*
X74526653Y-77717993D01*
X74490884Y-77655177D01*
X74490881Y-77655174D01*
X74490880Y-77655172D01*
X74445125Y-77602368D01*
X74412351Y-77570743D01*
X74324016Y-77524535D01*
X74324015Y-77524534D01*
X74324014Y-77524534D01*
X74324014Y-77524533D01*
X74256982Y-77504851D01*
X74256970Y-77504848D01*
X74184993Y-77494500D01*
X74184992Y-77494500D01*
X68529500Y-77494500D01*
X68462461Y-77474815D01*
X68416706Y-77422011D01*
X68405500Y-77370500D01*
X68405500Y-75551360D01*
X68405345Y-75548486D01*
X68404036Y-75524048D01*
X68401202Y-75497690D01*
X68371413Y-75402556D01*
X68366186Y-75392984D01*
X68337931Y-75341238D01*
X68337926Y-75341230D01*
X68294350Y-75283019D01*
X68294349Y-75283018D01*
X68294347Y-75283015D01*
X68294342Y-75283010D01*
X68294334Y-75283001D01*
X67266998Y-74255666D01*
X67266985Y-74255653D01*
X67246635Y-74237374D01*
X67246629Y-74237369D01*
X67246620Y-74237361D01*
X67225999Y-74220744D01*
X67225996Y-74220742D01*
X67225993Y-74220740D01*
X67137662Y-74174535D01*
X67127030Y-74171413D01*
X67070624Y-74154850D01*
X67070616Y-74154848D01*
X66998639Y-74144500D01*
X66998638Y-74144500D01*
X50374500Y-74144500D01*
X50307461Y-74124815D01*
X50261706Y-74072011D01*
X50250500Y-74020500D01*
X50250500Y-62057525D01*
X75809500Y-62057525D01*
X75809500Y-62202475D01*
X75841631Y-62322387D01*
X75847017Y-62342488D01*
X75919488Y-62468011D01*
X75919490Y-62468013D01*
X75919491Y-62468015D01*
X76021985Y-62570509D01*
X76021986Y-62570510D01*
X76021988Y-62570511D01*
X76147511Y-62642982D01*
X76147512Y-62642982D01*
X76147515Y-62642984D01*
X76287525Y-62680500D01*
X76363456Y-62680500D01*
X76430495Y-62700185D01*
X76451137Y-62716819D01*
X76664788Y-62930470D01*
X76664790Y-62930471D01*
X76664794Y-62930474D01*
X76742979Y-62975614D01*
X76742978Y-62975614D01*
X76742983Y-62975616D01*
X76744712Y-62976614D01*
X76833856Y-63000500D01*
X86603399Y-63000500D01*
X86670438Y-63020185D01*
X86691080Y-63036819D01*
X87573124Y-63918863D01*
X87606609Y-63980186D01*
X87609443Y-64006544D01*
X87609443Y-64082475D01*
X87646272Y-64219921D01*
X87646960Y-64222488D01*
X87719431Y-64348011D01*
X87719433Y-64348013D01*
X87719434Y-64348015D01*
X87821928Y-64450509D01*
X87821929Y-64450510D01*
X87821931Y-64450511D01*
X87947454Y-64522982D01*
X87947455Y-64522982D01*
X87947458Y-64522984D01*
X88087468Y-64560500D01*
X88087471Y-64560500D01*
X88232415Y-64560500D01*
X88232418Y-64560500D01*
X88372428Y-64522984D01*
X88497958Y-64450509D01*
X88600452Y-64348015D01*
X88672927Y-64222485D01*
X88710443Y-64082475D01*
X88710443Y-63937525D01*
X88672927Y-63797515D01*
X88667153Y-63787515D01*
X88600454Y-63671988D01*
X88600449Y-63671982D01*
X88497960Y-63569493D01*
X88497954Y-63569488D01*
X88372431Y-63497017D01*
X88372432Y-63497017D01*
X88360949Y-63493940D01*
X88232418Y-63459500D01*
X88232415Y-63459500D01*
X88156487Y-63459500D01*
X88127046Y-63450855D01*
X88097060Y-63444332D01*
X88092044Y-63440577D01*
X88089448Y-63439815D01*
X88068806Y-63423181D01*
X87823150Y-63177525D01*
X88999500Y-63177525D01*
X88999500Y-63322475D01*
X89030942Y-63439815D01*
X89037017Y-63462488D01*
X89109488Y-63588011D01*
X89109490Y-63588013D01*
X89109491Y-63588015D01*
X89211985Y-63690509D01*
X89211986Y-63690510D01*
X89211988Y-63690511D01*
X89337511Y-63762982D01*
X89337512Y-63762982D01*
X89337515Y-63762984D01*
X89477525Y-63800500D01*
X89477528Y-63800500D01*
X89622472Y-63800500D01*
X89622475Y-63800500D01*
X89762485Y-63762984D01*
X89888015Y-63690509D01*
X89962319Y-63616205D01*
X90023642Y-63582720D01*
X90093334Y-63587704D01*
X90137681Y-63616205D01*
X90211985Y-63690509D01*
X90211986Y-63690510D01*
X90211988Y-63690511D01*
X90337511Y-63762982D01*
X90337512Y-63762982D01*
X90337515Y-63762984D01*
X90477525Y-63800500D01*
X90477528Y-63800500D01*
X90622472Y-63800500D01*
X90622475Y-63800500D01*
X90762485Y-63762984D01*
X90888015Y-63690509D01*
X90962319Y-63616205D01*
X91023642Y-63582720D01*
X91093334Y-63587704D01*
X91137681Y-63616205D01*
X91211985Y-63690509D01*
X91211986Y-63690510D01*
X91211988Y-63690511D01*
X91337511Y-63762982D01*
X91337512Y-63762982D01*
X91337515Y-63762984D01*
X91477525Y-63800500D01*
X91477528Y-63800500D01*
X91622472Y-63800500D01*
X91622475Y-63800500D01*
X91762485Y-63762984D01*
X91888015Y-63690509D01*
X91990509Y-63588015D01*
X92062984Y-63462485D01*
X92100500Y-63322475D01*
X92100500Y-63177525D01*
X92062984Y-63037515D01*
X92052978Y-63020185D01*
X91990511Y-62911988D01*
X91990506Y-62911982D01*
X91888017Y-62809493D01*
X91888011Y-62809488D01*
X91762488Y-62737017D01*
X91762489Y-62737017D01*
X91724463Y-62726828D01*
X91622475Y-62699500D01*
X91477525Y-62699500D01*
X91375537Y-62726828D01*
X91337511Y-62737017D01*
X91211988Y-62809488D01*
X91211982Y-62809493D01*
X91137681Y-62883795D01*
X91076358Y-62917280D01*
X91006666Y-62912296D01*
X90962319Y-62883795D01*
X90888017Y-62809493D01*
X90888011Y-62809488D01*
X90762488Y-62737017D01*
X90762489Y-62737017D01*
X90724463Y-62726828D01*
X90622475Y-62699500D01*
X90477525Y-62699500D01*
X90375537Y-62726828D01*
X90337511Y-62737017D01*
X90211988Y-62809488D01*
X90211982Y-62809493D01*
X90137681Y-62883795D01*
X90076358Y-62917280D01*
X90006666Y-62912296D01*
X89962319Y-62883795D01*
X89888017Y-62809493D01*
X89888011Y-62809488D01*
X89762488Y-62737017D01*
X89762489Y-62737017D01*
X89724463Y-62726828D01*
X89622475Y-62699500D01*
X89477525Y-62699500D01*
X89375537Y-62726828D01*
X89337511Y-62737017D01*
X89211988Y-62809488D01*
X89211982Y-62809493D01*
X89109493Y-62911982D01*
X89109488Y-62911988D01*
X89037017Y-63037511D01*
X89037016Y-63037515D01*
X88999500Y-63177525D01*
X87823150Y-63177525D01*
X87014156Y-62368531D01*
X87014151Y-62368527D01*
X86934233Y-62322387D01*
X86934232Y-62322386D01*
X86934231Y-62322386D01*
X86845087Y-62298500D01*
X86663856Y-62298500D01*
X86663390Y-62298500D01*
X86648134Y-62299500D01*
X86063948Y-62299500D01*
X85996909Y-62279815D01*
X85951154Y-62227011D01*
X85941210Y-62157853D01*
X85944173Y-62143407D01*
X85960500Y-62082475D01*
X85960500Y-61937525D01*
X85922984Y-61797515D01*
X85919791Y-61791985D01*
X85850511Y-61671988D01*
X85850506Y-61671982D01*
X85748017Y-61569493D01*
X85748011Y-61569488D01*
X85622488Y-61497017D01*
X85622489Y-61497017D01*
X85598201Y-61490509D01*
X85482475Y-61459500D01*
X85337525Y-61459500D01*
X85221799Y-61490509D01*
X85197511Y-61497017D01*
X85071988Y-61569488D01*
X85071982Y-61569493D01*
X85018295Y-61623181D01*
X84956972Y-61656666D01*
X84930614Y-61659500D01*
X78606544Y-61659500D01*
X78539505Y-61639815D01*
X78518863Y-61623181D01*
X78026819Y-61131137D01*
X77993334Y-61069814D01*
X77990500Y-61043456D01*
X77990500Y-58979386D01*
X78010185Y-58912347D01*
X78026819Y-58891705D01*
X78037387Y-58881137D01*
X78080509Y-58838015D01*
X78152984Y-58712485D01*
X78190500Y-58572475D01*
X78190500Y-58427525D01*
X78152984Y-58287515D01*
X78146922Y-58277016D01*
X78080511Y-58161988D01*
X78080506Y-58161982D01*
X77978017Y-58059493D01*
X77978011Y-58059488D01*
X77852488Y-57987017D01*
X77852489Y-57987017D01*
X77841006Y-57983940D01*
X77712475Y-57949500D01*
X77567525Y-57949500D01*
X77438993Y-57983940D01*
X77427511Y-57987017D01*
X77301988Y-58059488D01*
X77301982Y-58059493D01*
X77199493Y-58161982D01*
X77199488Y-58161988D01*
X77127017Y-58287511D01*
X77127016Y-58287515D01*
X77089500Y-58427525D01*
X77089500Y-58572475D01*
X77098811Y-58607222D01*
X77127017Y-58712488D01*
X77199488Y-58838011D01*
X77199493Y-58838017D01*
X77253181Y-58891705D01*
X77286666Y-58953028D01*
X77289500Y-58979386D01*
X77289500Y-61286143D01*
X77310149Y-61363208D01*
X77310149Y-61363209D01*
X77313384Y-61375285D01*
X77313385Y-61375286D01*
X77359527Y-61455208D01*
X77359531Y-61455213D01*
X77992137Y-62087819D01*
X78025622Y-62149142D01*
X78020638Y-62218834D01*
X77978766Y-62274767D01*
X77913302Y-62299184D01*
X77904456Y-62299500D01*
X77076544Y-62299500D01*
X77047103Y-62290855D01*
X77017117Y-62284332D01*
X77012101Y-62280577D01*
X77009505Y-62279815D01*
X76988863Y-62263181D01*
X76946819Y-62221137D01*
X76913334Y-62159814D01*
X76910500Y-62133456D01*
X76910500Y-62057527D01*
X76910500Y-62057525D01*
X76872984Y-61917515D01*
X76803699Y-61797511D01*
X76800511Y-61791988D01*
X76800506Y-61791982D01*
X76698017Y-61689493D01*
X76698011Y-61689488D01*
X76572488Y-61617017D01*
X76572489Y-61617017D01*
X76561006Y-61613940D01*
X76432475Y-61579500D01*
X76287525Y-61579500D01*
X76158993Y-61613940D01*
X76147511Y-61617017D01*
X76021988Y-61689488D01*
X76021982Y-61689493D01*
X75919493Y-61791982D01*
X75919488Y-61791988D01*
X75847017Y-61917511D01*
X75847016Y-61917515D01*
X75809500Y-62057525D01*
X50250500Y-62057525D01*
X50250500Y-60917525D01*
X64029500Y-60917525D01*
X64029500Y-61062475D01*
X64067016Y-61202485D01*
X64067017Y-61202488D01*
X64139488Y-61328011D01*
X64139490Y-61328013D01*
X64139491Y-61328015D01*
X64241985Y-61430509D01*
X64241986Y-61430510D01*
X64241988Y-61430511D01*
X64367511Y-61502982D01*
X64367512Y-61502982D01*
X64367515Y-61502984D01*
X64507525Y-61540500D01*
X64507528Y-61540500D01*
X64652472Y-61540500D01*
X64652475Y-61540500D01*
X64792485Y-61502984D01*
X64918015Y-61430509D01*
X64971705Y-61376819D01*
X65033028Y-61343334D01*
X65059386Y-61340500D01*
X71486142Y-61340500D01*
X71486144Y-61340500D01*
X71575288Y-61316614D01*
X71585912Y-61310480D01*
X71655212Y-61270470D01*
X73548863Y-59376819D01*
X73610186Y-59343334D01*
X73636544Y-59340500D01*
X73712472Y-59340500D01*
X73712475Y-59340500D01*
X73852485Y-59302984D01*
X73978015Y-59230509D01*
X74080509Y-59128015D01*
X74152984Y-59002485D01*
X74190500Y-58862475D01*
X74190500Y-58717525D01*
X74152984Y-58577515D01*
X74150072Y-58572472D01*
X74080511Y-58451988D01*
X74080506Y-58451982D01*
X73978017Y-58349493D01*
X73978011Y-58349488D01*
X73852488Y-58277017D01*
X73852489Y-58277017D01*
X73841006Y-58273940D01*
X73712475Y-58239500D01*
X73567525Y-58239500D01*
X73438993Y-58273940D01*
X73427511Y-58277017D01*
X73301988Y-58349488D01*
X73301982Y-58349493D01*
X73199493Y-58451982D01*
X73199488Y-58451988D01*
X73127017Y-58577511D01*
X73127016Y-58577515D01*
X73089500Y-58717525D01*
X73089500Y-58717527D01*
X73089500Y-58793456D01*
X73069815Y-58860495D01*
X73053181Y-58881137D01*
X71331137Y-60603181D01*
X71269814Y-60636666D01*
X71243456Y-60639500D01*
X65059386Y-60639500D01*
X64992347Y-60619815D01*
X64971705Y-60603181D01*
X64918017Y-60549493D01*
X64918011Y-60549488D01*
X64792488Y-60477017D01*
X64792489Y-60477017D01*
X64781006Y-60473940D01*
X64652475Y-60439500D01*
X64507525Y-60439500D01*
X64378993Y-60473940D01*
X64367511Y-60477017D01*
X64241988Y-60549488D01*
X64241982Y-60549493D01*
X64139493Y-60651982D01*
X64139488Y-60651988D01*
X64067017Y-60777511D01*
X64067016Y-60777515D01*
X64029500Y-60917525D01*
X50250500Y-60917525D01*
X50250500Y-56677525D01*
X59099500Y-56677525D01*
X59099500Y-56822475D01*
X59118169Y-56892147D01*
X59137017Y-56962488D01*
X59209488Y-57088011D01*
X59209490Y-57088013D01*
X59209491Y-57088015D01*
X59311985Y-57190509D01*
X59311986Y-57190510D01*
X59311988Y-57190511D01*
X59437511Y-57262982D01*
X59437512Y-57262982D01*
X59437515Y-57262984D01*
X59577525Y-57300500D01*
X59577528Y-57300500D01*
X59722472Y-57300500D01*
X59722475Y-57300500D01*
X59862485Y-57262984D01*
X59988015Y-57190509D01*
X60090509Y-57088015D01*
X60162984Y-56962485D01*
X60200500Y-56822475D01*
X60200500Y-56677525D01*
X60162984Y-56537515D01*
X60142404Y-56501870D01*
X60090511Y-56411988D01*
X60090506Y-56411982D01*
X59988017Y-56309493D01*
X59988011Y-56309488D01*
X59862488Y-56237017D01*
X59862489Y-56237017D01*
X59851006Y-56233940D01*
X59722475Y-56199500D01*
X59577525Y-56199500D01*
X59448993Y-56233940D01*
X59437511Y-56237017D01*
X59311988Y-56309488D01*
X59311982Y-56309493D01*
X59209493Y-56411982D01*
X59209488Y-56411988D01*
X59137017Y-56537511D01*
X59137016Y-56537515D01*
X59099500Y-56677525D01*
X50250500Y-56677525D01*
X50250500Y-55002706D01*
X50250618Y-54997298D01*
X50251170Y-54984636D01*
X50268337Y-54591439D01*
X50269276Y-54580708D01*
X50321951Y-54180609D01*
X50323823Y-54169993D01*
X50411168Y-53776000D01*
X50413955Y-53765600D01*
X50535309Y-53380713D01*
X50538993Y-53370592D01*
X50693426Y-52997758D01*
X50697984Y-52987984D01*
X50884315Y-52630045D01*
X50889710Y-52620700D01*
X51106537Y-52280350D01*
X51112727Y-52271511D01*
X51358385Y-51951363D01*
X51365323Y-51943094D01*
X51637949Y-51645575D01*
X51645575Y-51637949D01*
X51943094Y-51365323D01*
X51951363Y-51358385D01*
X52271511Y-51112727D01*
X52280350Y-51106537D01*
X52620700Y-50889710D01*
X52630045Y-50884315D01*
X52987984Y-50697984D01*
X52997758Y-50693426D01*
X53370592Y-50538993D01*
X53380713Y-50535309D01*
X53765600Y-50413955D01*
X53776000Y-50411168D01*
X54169993Y-50323823D01*
X54180609Y-50321951D01*
X54580708Y-50269276D01*
X54591439Y-50268337D01*
X54984636Y-50251170D01*
X54997298Y-50250618D01*
X55002706Y-50250500D01*
X55044170Y-50250500D01*
X62330191Y-50250500D01*
X62397230Y-50270185D01*
G37*
%TD.AperFunction*%
%TA.AperFunction,Conductor*%
G36*
X65774106Y-84449105D02*
G01*
X66044483Y-84719481D01*
X66044495Y-84719495D01*
X65774102Y-84449102D01*
X65774106Y-84449105D01*
G37*
%TD.AperFunction*%
%TA.AperFunction,Conductor*%
G36*
X99690666Y-66824582D02*
G01*
X99737357Y-66876561D01*
X99749500Y-66930078D01*
X99749500Y-83069921D01*
X99729815Y-83136960D01*
X99677011Y-83182715D01*
X99607853Y-83192659D01*
X99556611Y-83173024D01*
X99505740Y-83139034D01*
X99505739Y-83139033D01*
X99505735Y-83139032D01*
X99432677Y-83124500D01*
X99432674Y-83124500D01*
X96383326Y-83124500D01*
X96383323Y-83124500D01*
X96310264Y-83139032D01*
X96310260Y-83139033D01*
X96268933Y-83166647D01*
X96248388Y-83180374D01*
X96181713Y-83201251D01*
X96114333Y-83182766D01*
X96067643Y-83130787D01*
X96055500Y-83077271D01*
X96055500Y-82326969D01*
X96057884Y-82302772D01*
X96058500Y-82299675D01*
X96058500Y-81450327D01*
X96057883Y-81447226D01*
X96055500Y-81423031D01*
X96055500Y-81076969D01*
X96057884Y-81052772D01*
X96058500Y-81049675D01*
X96058500Y-80200327D01*
X96057883Y-80197226D01*
X96055500Y-80173031D01*
X96055500Y-79826969D01*
X96057884Y-79802772D01*
X96058500Y-79799675D01*
X96058500Y-78950327D01*
X96057883Y-78947226D01*
X96057652Y-78946032D01*
X96055500Y-78934631D01*
X96055500Y-78899500D01*
X96049661Y-78845187D01*
X96038455Y-78793676D01*
X96031219Y-78767302D01*
X96020291Y-78748112D01*
X96016449Y-78727757D01*
X96017937Y-78712778D01*
X96014474Y-78698126D01*
X96021486Y-78677057D01*
X96023357Y-78658229D01*
X96030935Y-78648667D01*
X96035197Y-78635863D01*
X96043966Y-78622740D01*
X96046624Y-78609372D01*
X96053402Y-78575308D01*
X96085788Y-78513397D01*
X96146504Y-78478823D01*
X96175019Y-78475500D01*
X96421142Y-78475500D01*
X96421144Y-78475500D01*
X96510288Y-78451614D01*
X96590212Y-78405470D01*
X97910470Y-77085212D01*
X97956614Y-77005288D01*
X97980500Y-76916144D01*
X97980500Y-69855191D01*
X98000185Y-69788152D01*
X98052989Y-69742397D01*
X98122147Y-69732453D01*
X98136582Y-69735413D01*
X98267525Y-69770500D01*
X98267528Y-69770500D01*
X98412472Y-69770500D01*
X98412475Y-69770500D01*
X98552485Y-69732984D01*
X98678015Y-69660509D01*
X98780509Y-69558015D01*
X98852984Y-69432485D01*
X98890500Y-69292475D01*
X98890500Y-69147525D01*
X98852984Y-69007515D01*
X98809934Y-68932951D01*
X98780511Y-68881988D01*
X98780506Y-68881982D01*
X98678017Y-68779493D01*
X98678011Y-68779488D01*
X98552488Y-68707017D01*
X98552489Y-68707017D01*
X98537199Y-68702920D01*
X98412475Y-68669500D01*
X98267525Y-68669500D01*
X98136593Y-68704583D01*
X98066743Y-68702920D01*
X98008881Y-68663757D01*
X97981377Y-68599529D01*
X97980500Y-68584808D01*
X97980500Y-68233858D01*
X97980500Y-68233856D01*
X97956614Y-68144712D01*
X97956611Y-68144706D01*
X97956610Y-68144704D01*
X97950885Y-68134788D01*
X97950885Y-68134789D01*
X97950884Y-68134787D01*
X97910470Y-68064788D01*
X96932863Y-67087181D01*
X96899378Y-67025858D01*
X96904362Y-66956166D01*
X96946234Y-66900233D01*
X97011698Y-66875816D01*
X97020544Y-66875500D01*
X99432676Y-66875500D01*
X99432677Y-66875499D01*
X99505740Y-66860966D01*
X99556611Y-66826975D01*
X99623286Y-66806098D01*
X99690666Y-66824582D01*
G37*
%TD.AperFunction*%
%TD*%
%TA.AperFunction,Conductor*%
%TO.N,+BATT*%
G36*
X67065677Y-74419685D02*
G01*
X67086319Y-74436319D01*
X68113681Y-75463681D01*
X68147166Y-75525004D01*
X68150000Y-75551362D01*
X68150000Y-77655821D01*
X68135875Y-77713297D01*
X68124534Y-77734976D01*
X68124533Y-77734977D01*
X68104851Y-77802009D01*
X68104848Y-77802021D01*
X68095775Y-77865133D01*
X68094500Y-77874000D01*
X68094500Y-78210137D01*
X68095731Y-78235183D01*
X68098114Y-78259375D01*
X68098658Y-78263047D01*
X68100000Y-78281233D01*
X68100000Y-79718755D01*
X68098658Y-79736948D01*
X68098112Y-79740625D01*
X68095730Y-79764812D01*
X68094500Y-79789872D01*
X68094500Y-81470500D01*
X68074815Y-81537539D01*
X68022011Y-81583294D01*
X67970500Y-81594500D01*
X62551361Y-81594500D01*
X62524065Y-81595963D01*
X62524060Y-81595963D01*
X62524048Y-81595964D01*
X62524040Y-81595964D01*
X62524011Y-81595967D01*
X62504501Y-81598065D01*
X62504497Y-81598066D01*
X62497690Y-81598798D01*
X62493851Y-81600000D01*
X62450000Y-81600000D01*
X62430007Y-81619991D01*
X62402556Y-81628587D01*
X62388649Y-81636180D01*
X62341233Y-81662071D01*
X62341230Y-81662073D01*
X62283019Y-81705649D01*
X62283001Y-81705665D01*
X62005666Y-81983000D01*
X62005638Y-81983031D01*
X61987361Y-82003379D01*
X61970744Y-82024000D01*
X61924534Y-82112340D01*
X61904850Y-82179375D01*
X61904848Y-82179383D01*
X61894500Y-82251360D01*
X61894500Y-84020502D01*
X61900338Y-84074812D01*
X61911543Y-84126318D01*
X61911545Y-84126324D01*
X61918781Y-84152698D01*
X61918782Y-84152699D01*
X61933754Y-84178992D01*
X61937789Y-84194232D01*
X61944977Y-84205417D01*
X61950000Y-84240352D01*
X61950000Y-84305821D01*
X61935875Y-84363297D01*
X61924534Y-84384976D01*
X61924533Y-84384977D01*
X61904851Y-84452009D01*
X61904848Y-84452021D01*
X61894500Y-84523998D01*
X61894500Y-86976002D01*
X61900338Y-87030312D01*
X61911543Y-87081818D01*
X61911545Y-87081824D01*
X61918781Y-87108198D01*
X61918782Y-87108199D01*
X61933754Y-87134492D01*
X61937789Y-87149732D01*
X61944977Y-87160917D01*
X61950000Y-87195852D01*
X61950000Y-87261321D01*
X61935875Y-87318797D01*
X61924534Y-87340476D01*
X61924533Y-87340477D01*
X61904851Y-87407509D01*
X61904848Y-87407521D01*
X61894500Y-87479498D01*
X61894500Y-89532482D01*
X61874815Y-89599521D01*
X61855993Y-89622298D01*
X60612357Y-90806065D01*
X60612339Y-90806083D01*
X60591562Y-90828370D01*
X60591541Y-90828394D01*
X60572776Y-90851102D01*
X60570743Y-90853594D01*
X60555111Y-90883476D01*
X60506597Y-90933754D01*
X60445237Y-90950000D01*
X50374500Y-90950000D01*
X50307461Y-90930315D01*
X50261706Y-90877511D01*
X50250500Y-90826000D01*
X50250500Y-74524000D01*
X50270185Y-74456961D01*
X50322989Y-74411206D01*
X50374500Y-74400000D01*
X66998638Y-74400000D01*
X67065677Y-74419685D01*
G37*
%TD.AperFunction*%
%TD*%
%TA.AperFunction,Conductor*%
%TO.N,INA_IN+*%
G36*
X74252031Y-77769685D02*
G01*
X74297786Y-77822489D01*
X74306609Y-77849808D01*
X74324497Y-77939738D01*
X74324499Y-77939744D01*
X74373533Y-78058124D01*
X74373538Y-78058133D01*
X74444723Y-78164668D01*
X74444726Y-78164672D01*
X74535327Y-78255273D01*
X74535331Y-78255276D01*
X74641866Y-78326461D01*
X74641872Y-78326464D01*
X74641873Y-78326465D01*
X74760256Y-78375501D01*
X74760260Y-78375501D01*
X74760261Y-78375502D01*
X74885928Y-78400500D01*
X74885931Y-78400500D01*
X75014071Y-78400500D01*
X75098615Y-78383682D01*
X75139744Y-78375501D01*
X75258127Y-78326465D01*
X75364669Y-78255276D01*
X75455276Y-78164669D01*
X75526465Y-78058127D01*
X75575501Y-77939744D01*
X75593391Y-77849808D01*
X75608105Y-77821677D01*
X75621295Y-77792797D01*
X75624184Y-77790940D01*
X75625776Y-77787897D01*
X75653368Y-77772184D01*
X75680073Y-77755023D01*
X75684666Y-77754362D01*
X75686492Y-77753323D01*
X75715008Y-77750000D01*
X75784992Y-77750000D01*
X75852031Y-77769685D01*
X75897786Y-77822489D01*
X75906609Y-77849808D01*
X75924497Y-77939738D01*
X75924499Y-77939744D01*
X75973533Y-78058124D01*
X75973538Y-78058133D01*
X76044723Y-78164668D01*
X76044726Y-78164672D01*
X76135327Y-78255273D01*
X76135331Y-78255276D01*
X76241866Y-78326461D01*
X76241872Y-78326464D01*
X76241873Y-78326465D01*
X76360256Y-78375501D01*
X76360260Y-78375501D01*
X76360261Y-78375502D01*
X76485928Y-78400500D01*
X76485931Y-78400500D01*
X76614071Y-78400500D01*
X76698615Y-78383682D01*
X76739744Y-78375501D01*
X76858127Y-78326465D01*
X76964669Y-78255276D01*
X77055276Y-78164669D01*
X77055279Y-78164663D01*
X77057668Y-78161754D01*
X77059311Y-78160634D01*
X77059584Y-78160362D01*
X77059635Y-78160413D01*
X77115411Y-78122416D01*
X77185256Y-78120541D01*
X77242468Y-78154011D01*
X80214944Y-81213912D01*
X80247535Y-81275713D01*
X80250000Y-81300312D01*
X80250000Y-84126000D01*
X80230315Y-84193039D01*
X80177511Y-84238794D01*
X80126000Y-84250000D01*
X79799999Y-84250000D01*
X79450000Y-84599999D01*
X79450000Y-84925658D01*
X79449500Y-84927525D01*
X79449500Y-85072475D01*
X79450000Y-85074341D01*
X79450000Y-85665602D01*
X79449500Y-85673232D01*
X79449500Y-85826769D01*
X79450000Y-85834399D01*
X79450000Y-86425658D01*
X79449500Y-86427525D01*
X79449500Y-86572475D01*
X79450000Y-86574341D01*
X79450000Y-87211138D01*
X79430315Y-87278177D01*
X79413681Y-87298819D01*
X78498819Y-88213681D01*
X78437496Y-88247166D01*
X78411138Y-88250000D01*
X73129500Y-88250000D01*
X73062461Y-88230315D01*
X73016706Y-88177511D01*
X73005500Y-88126000D01*
X73005500Y-85651360D01*
X73005345Y-85648486D01*
X73004036Y-85624048D01*
X73001202Y-85597690D01*
X72971413Y-85502556D01*
X72937928Y-85441233D01*
X72894347Y-85383015D01*
X72894342Y-85383010D01*
X72894334Y-85383001D01*
X71966998Y-84455666D01*
X71966985Y-84455653D01*
X71946635Y-84437374D01*
X71946629Y-84437369D01*
X71946620Y-84437361D01*
X71925999Y-84420744D01*
X71925996Y-84420742D01*
X71925993Y-84420740D01*
X71837662Y-84374535D01*
X71837659Y-84374534D01*
X71770624Y-84354850D01*
X71770616Y-84354848D01*
X71698639Y-84344500D01*
X71698638Y-84344500D01*
X68995862Y-84344500D01*
X68928823Y-84324815D01*
X68908181Y-84308181D01*
X68391819Y-83791819D01*
X68358334Y-83730496D01*
X68355500Y-83704138D01*
X68355500Y-81974000D01*
X68350709Y-81929444D01*
X68350000Y-81916190D01*
X68350000Y-79789862D01*
X68352383Y-79765668D01*
X68355500Y-79749999D01*
X68355500Y-78249999D01*
X68355499Y-78249998D01*
X68352383Y-78234329D01*
X68350000Y-78210137D01*
X68350000Y-77874000D01*
X68369685Y-77806961D01*
X68422489Y-77761206D01*
X68474000Y-77750000D01*
X74184992Y-77750000D01*
X74252031Y-77769685D01*
G37*
%TD.AperFunction*%
%TD*%
%TA.AperFunction,Conductor*%
%TO.N,GND*%
G36*
X65740677Y-84419685D02*
G01*
X65761319Y-84436319D01*
X66063681Y-84738681D01*
X66097166Y-84800004D01*
X66100000Y-84826362D01*
X66100000Y-86742388D01*
X66080315Y-86809427D01*
X66063681Y-86830069D01*
X65830069Y-87063681D01*
X65768746Y-87097166D01*
X65742388Y-87100000D01*
X62274000Y-87100000D01*
X62206961Y-87080315D01*
X62161206Y-87027511D01*
X62150000Y-86976000D01*
X62150000Y-84524000D01*
X62169685Y-84456961D01*
X62222489Y-84411206D01*
X62274000Y-84400000D01*
X65673638Y-84400000D01*
X65740677Y-84419685D01*
G37*
%TD.AperFunction*%
%TD*%
%TA.AperFunction,Conductor*%
%TO.N,/200_Buck_Regulator/5V_SW*%
G36*
X83656311Y-69454199D02*
G01*
X83676953Y-69470833D01*
X84313681Y-70107561D01*
X84347166Y-70168884D01*
X84350000Y-70195242D01*
X84350000Y-73398638D01*
X84330315Y-73465677D01*
X84313681Y-73486319D01*
X83886319Y-73913681D01*
X83824996Y-73947166D01*
X83798638Y-73950000D01*
X80101362Y-73950000D01*
X80034323Y-73930315D01*
X80013681Y-73913681D01*
X79586319Y-73486319D01*
X79552834Y-73424996D01*
X79550000Y-73398638D01*
X79550000Y-69901362D01*
X79569685Y-69834323D01*
X79586319Y-69813681D01*
X79929167Y-69470833D01*
X79990490Y-69437348D01*
X80016848Y-69434514D01*
X83589272Y-69434514D01*
X83656311Y-69454199D01*
G37*
%TD.AperFunction*%
%TD*%
%TA.AperFunction,Conductor*%
%TO.N,+BATT_FILT*%
G36*
X68043039Y-81869685D02*
G01*
X68088794Y-81922489D01*
X68100000Y-81974000D01*
X68100000Y-83912500D01*
X68787500Y-84600000D01*
X71698638Y-84600000D01*
X71765677Y-84619685D01*
X71786319Y-84636319D01*
X72713681Y-85563681D01*
X72747166Y-85625004D01*
X72750000Y-85651362D01*
X72750000Y-92574692D01*
X72745775Y-92606785D01*
X72729500Y-92667525D01*
X72729500Y-92812474D01*
X72745775Y-92873213D01*
X72750000Y-92905306D01*
X72750000Y-95628532D01*
X72730315Y-95695571D01*
X72677511Y-95741326D01*
X72608353Y-95751270D01*
X72601816Y-95750151D01*
X72598542Y-95749500D01*
X72598541Y-95749500D01*
X72401459Y-95749500D01*
X72401457Y-95749500D01*
X72208170Y-95787947D01*
X72208160Y-95787950D01*
X72026092Y-95863364D01*
X72026074Y-95863374D01*
X71943390Y-95918622D01*
X71876713Y-95939500D01*
X71809333Y-95921015D01*
X71762643Y-95869036D01*
X71750500Y-95815520D01*
X71750500Y-93834313D01*
X71750499Y-93834298D01*
X71747598Y-93797432D01*
X71747597Y-93797426D01*
X71701745Y-93639606D01*
X71701744Y-93639603D01*
X71701744Y-93639602D01*
X71618081Y-93498135D01*
X71618079Y-93498133D01*
X71618076Y-93498129D01*
X71501870Y-93381923D01*
X71501862Y-93381917D01*
X71360396Y-93298255D01*
X71360393Y-93298254D01*
X71202573Y-93252402D01*
X71202567Y-93252401D01*
X71165701Y-93249500D01*
X71165694Y-93249500D01*
X70413083Y-93249500D01*
X70346044Y-93229815D01*
X70300289Y-93177011D01*
X70290345Y-93107853D01*
X70319370Y-93044297D01*
X70340197Y-93025182D01*
X70493796Y-92913586D01*
X70663586Y-92743796D01*
X70804724Y-92549536D01*
X70913736Y-92335589D01*
X70987937Y-92107222D01*
X71025500Y-91870059D01*
X71025500Y-91629941D01*
X70987937Y-91392778D01*
X70913736Y-91164411D01*
X70913734Y-91164408D01*
X70913734Y-91164406D01*
X70856226Y-91051543D01*
X70804724Y-90950464D01*
X70663586Y-90756204D01*
X70493796Y-90586414D01*
X70299536Y-90445276D01*
X70085593Y-90336265D01*
X69857222Y-90262063D01*
X69620059Y-90224500D01*
X69379941Y-90224500D01*
X69261359Y-90243281D01*
X69142777Y-90262063D01*
X68914406Y-90336265D01*
X68700463Y-90445276D01*
X68506201Y-90586416D01*
X68336416Y-90756201D01*
X68195276Y-90950463D01*
X68086265Y-91164406D01*
X68012063Y-91392777D01*
X67974500Y-91629941D01*
X67974500Y-91870058D01*
X68012063Y-92107222D01*
X68086265Y-92335593D01*
X68184056Y-92527515D01*
X68195276Y-92549536D01*
X68336414Y-92743796D01*
X68506204Y-92913586D01*
X68659803Y-93025182D01*
X68702468Y-93080512D01*
X68708447Y-93150125D01*
X68675841Y-93211920D01*
X68615002Y-93246278D01*
X68586917Y-93249500D01*
X67834298Y-93249500D01*
X67797432Y-93252401D01*
X67797426Y-93252402D01*
X67639606Y-93298254D01*
X67639603Y-93298255D01*
X67498137Y-93381917D01*
X67498129Y-93381923D01*
X67381923Y-93498129D01*
X67381917Y-93498137D01*
X67298255Y-93639603D01*
X67298254Y-93639606D01*
X67252402Y-93797426D01*
X67252401Y-93797432D01*
X67249500Y-93834298D01*
X67249500Y-99165701D01*
X67252401Y-99202567D01*
X67252402Y-99202573D01*
X67298254Y-99360393D01*
X67298255Y-99360396D01*
X67381917Y-99501862D01*
X67381923Y-99501870D01*
X67417872Y-99537819D01*
X67451357Y-99599142D01*
X67446373Y-99668834D01*
X67404501Y-99724767D01*
X67339037Y-99749184D01*
X67330191Y-99749500D01*
X60874000Y-99749500D01*
X60806961Y-99729815D01*
X60761206Y-99677011D01*
X60750000Y-99625500D01*
X60750000Y-91080953D01*
X60769685Y-91013914D01*
X60788504Y-90991140D01*
X62150000Y-89695186D01*
X62150000Y-88927525D01*
X65449500Y-88927525D01*
X65449500Y-89072475D01*
X65487016Y-89212485D01*
X65487017Y-89212488D01*
X65559488Y-89338011D01*
X65559490Y-89338013D01*
X65559491Y-89338015D01*
X65661985Y-89440509D01*
X65661986Y-89440510D01*
X65661988Y-89440511D01*
X65787511Y-89512982D01*
X65787512Y-89512982D01*
X65787515Y-89512984D01*
X65927525Y-89550500D01*
X65927528Y-89550500D01*
X66072472Y-89550500D01*
X66072475Y-89550500D01*
X66212485Y-89512984D01*
X66338015Y-89440509D01*
X66440509Y-89338015D01*
X66512984Y-89212485D01*
X66550500Y-89072475D01*
X66550500Y-88927525D01*
X66512984Y-88787515D01*
X66440509Y-88661985D01*
X66338015Y-88559491D01*
X66338013Y-88559490D01*
X66338011Y-88559488D01*
X66212488Y-88487017D01*
X66212489Y-88487017D01*
X66201006Y-88483940D01*
X66072475Y-88449500D01*
X65927525Y-88449500D01*
X65798993Y-88483940D01*
X65787511Y-88487017D01*
X65661988Y-88559488D01*
X65661982Y-88559493D01*
X65559493Y-88661982D01*
X65559488Y-88661988D01*
X65487017Y-88787511D01*
X65487016Y-88787515D01*
X65449500Y-88927525D01*
X62150000Y-88927525D01*
X62150000Y-87479500D01*
X62169685Y-87412461D01*
X62222489Y-87366706D01*
X62274000Y-87355500D01*
X65742389Y-87355500D01*
X65743825Y-87355422D01*
X65769702Y-87354036D01*
X65796060Y-87351202D01*
X65891194Y-87321413D01*
X65952517Y-87287928D01*
X66010735Y-87244347D01*
X66244347Y-87010735D01*
X66262626Y-86990385D01*
X66279260Y-86969743D01*
X66325465Y-86881412D01*
X66345150Y-86814373D01*
X66355500Y-86742388D01*
X66355500Y-84826362D01*
X66354036Y-84799048D01*
X66351202Y-84772690D01*
X66321413Y-84677556D01*
X66287928Y-84616233D01*
X66244347Y-84558015D01*
X66244342Y-84558010D01*
X66244334Y-84558001D01*
X65941998Y-84255666D01*
X65941985Y-84255653D01*
X65921635Y-84237374D01*
X65921629Y-84237369D01*
X65921620Y-84237361D01*
X65900999Y-84220744D01*
X65900996Y-84220742D01*
X65900993Y-84220740D01*
X65812662Y-84174535D01*
X65812659Y-84174534D01*
X65745624Y-84154850D01*
X65745616Y-84154848D01*
X65673639Y-84144500D01*
X65673638Y-84144500D01*
X62274000Y-84144500D01*
X62206961Y-84124815D01*
X62161206Y-84072011D01*
X62150000Y-84020500D01*
X62150000Y-82251362D01*
X62169685Y-82184323D01*
X62186319Y-82163681D01*
X62463681Y-81886319D01*
X62525004Y-81852834D01*
X62551362Y-81850000D01*
X67976000Y-81850000D01*
X68043039Y-81869685D01*
G37*
%TD.AperFunction*%
%TD*%
%TA.AperFunction,Conductor*%
%TO.N,+BATT_FILT*%
G36*
X91115177Y-66369185D02*
G01*
X91135819Y-66385819D01*
X91463681Y-66713681D01*
X91497166Y-66775004D01*
X91500000Y-66801362D01*
X91500000Y-70948637D01*
X91480315Y-71015676D01*
X91463681Y-71036318D01*
X91103001Y-71396997D01*
X91041678Y-71430482D01*
X90991135Y-71430935D01*
X90983919Y-71429500D01*
X90983918Y-71429500D01*
X90836082Y-71429500D01*
X90836080Y-71429500D01*
X90691092Y-71458340D01*
X90691086Y-71458342D01*
X90645528Y-71477213D01*
X90613302Y-71490561D01*
X90565851Y-71500000D01*
X89982078Y-71500000D01*
X89934626Y-71490561D01*
X89868913Y-71463342D01*
X89868907Y-71463340D01*
X89723920Y-71434500D01*
X89723918Y-71434500D01*
X89576082Y-71434500D01*
X89576080Y-71434500D01*
X89431092Y-71463340D01*
X89431086Y-71463342D01*
X89390387Y-71480200D01*
X89365373Y-71490561D01*
X89317922Y-71500000D01*
X87051362Y-71500000D01*
X86984323Y-71480315D01*
X86963681Y-71463681D01*
X86611604Y-71111604D01*
X86578119Y-71050281D01*
X86575285Y-71023923D01*
X86575285Y-69284021D01*
X86575285Y-69284019D01*
X86536066Y-69137650D01*
X86516613Y-69103956D01*
X86500000Y-69041956D01*
X86500000Y-66801362D01*
X86519685Y-66734323D01*
X86536319Y-66713681D01*
X86864181Y-66385819D01*
X86925504Y-66352334D01*
X86951862Y-66349500D01*
X91048138Y-66349500D01*
X91115177Y-66369185D01*
G37*
%TD.AperFunction*%
%TD*%
%TA.AperFunction,Conductor*%
%TO.N,+5V*%
G36*
X93957599Y-77369685D02*
G01*
X93993665Y-77405114D01*
X94011036Y-77431114D01*
X94031911Y-77497792D01*
X94013424Y-77565171D01*
X94011035Y-77568889D01*
X93972033Y-77627261D01*
X93972032Y-77627264D01*
X93957500Y-77700321D01*
X93957500Y-78549678D01*
X93972032Y-78622735D01*
X93972033Y-78622739D01*
X93972034Y-78622740D01*
X94027399Y-78705601D01*
X94110260Y-78760966D01*
X94110264Y-78760967D01*
X94183321Y-78775499D01*
X94183324Y-78775500D01*
X95676000Y-78775500D01*
X95743039Y-78795185D01*
X95788794Y-78847989D01*
X95800000Y-78899500D01*
X95800000Y-91489936D01*
X95780315Y-91556975D01*
X95727511Y-91602730D01*
X95658353Y-91612674D01*
X95651809Y-91611553D01*
X95506903Y-91582729D01*
X95245407Y-91556975D01*
X95169512Y-91549500D01*
X94830488Y-91549500D01*
X94754593Y-91556975D01*
X94493098Y-91582729D01*
X94160589Y-91648870D01*
X93836158Y-91747284D01*
X93522939Y-91877024D01*
X93522934Y-91877026D01*
X93223960Y-92036831D01*
X93223942Y-92036842D01*
X92942069Y-92225184D01*
X92942055Y-92225194D01*
X92679985Y-92440269D01*
X92440269Y-92679985D01*
X92225194Y-92942055D01*
X92225184Y-92942069D01*
X92056254Y-93194891D01*
X92002642Y-93239696D01*
X91953152Y-93250000D01*
X87176922Y-93250000D01*
X87167193Y-93249618D01*
X87165699Y-93249500D01*
X87165694Y-93249500D01*
X86413083Y-93249500D01*
X86346044Y-93229815D01*
X86300289Y-93177011D01*
X86290345Y-93107853D01*
X86319370Y-93044297D01*
X86340197Y-93025182D01*
X86493796Y-92913586D01*
X86663586Y-92743796D01*
X86804724Y-92549536D01*
X86913736Y-92335589D01*
X86987937Y-92107222D01*
X87025500Y-91870059D01*
X87025500Y-91629941D01*
X86987937Y-91392778D01*
X86913736Y-91164411D01*
X86913734Y-91164408D01*
X86913734Y-91164406D01*
X86804723Y-90950463D01*
X86663586Y-90756204D01*
X86493796Y-90586414D01*
X86299536Y-90445276D01*
X86085593Y-90336265D01*
X85857222Y-90262063D01*
X85620059Y-90224500D01*
X85379941Y-90224500D01*
X85261359Y-90243281D01*
X85142777Y-90262063D01*
X84914406Y-90336265D01*
X84700463Y-90445276D01*
X84506201Y-90586416D01*
X84336416Y-90756201D01*
X84195276Y-90950463D01*
X84086265Y-91164406D01*
X84012063Y-91392777D01*
X83978810Y-91602730D01*
X83974500Y-91629941D01*
X83974500Y-91870059D01*
X84000914Y-92036831D01*
X84012063Y-92107222D01*
X84086265Y-92335593D01*
X84118389Y-92398638D01*
X84195276Y-92549536D01*
X84336414Y-92743796D01*
X84506204Y-92913586D01*
X84545397Y-92942061D01*
X84659803Y-93025182D01*
X84702468Y-93080512D01*
X84708447Y-93150125D01*
X84675841Y-93211920D01*
X84615002Y-93246278D01*
X84586917Y-93249500D01*
X83834300Y-93249500D01*
X83832807Y-93249618D01*
X83823078Y-93250000D01*
X82176922Y-93250000D01*
X82167193Y-93249618D01*
X82165699Y-93249500D01*
X82165694Y-93249500D01*
X79700862Y-93249500D01*
X79633823Y-93229815D01*
X79613181Y-93213181D01*
X78886319Y-92486319D01*
X78852834Y-92424996D01*
X78850000Y-92398638D01*
X78850000Y-88301361D01*
X78869685Y-88234322D01*
X78886314Y-88213685D01*
X79988183Y-87111816D01*
X80049504Y-87078333D01*
X80075853Y-87075499D01*
X81747872Y-87075499D01*
X81807483Y-87069091D01*
X81942331Y-87018796D01*
X82057546Y-86932546D01*
X82143796Y-86817331D01*
X82194091Y-86682483D01*
X82200500Y-86622873D01*
X82200499Y-84877128D01*
X82194091Y-84817517D01*
X82191097Y-84809491D01*
X82157818Y-84720263D01*
X82156802Y-84714633D01*
X82155023Y-84711865D01*
X82150000Y-84676930D01*
X82150000Y-84574000D01*
X82169685Y-84506961D01*
X82222489Y-84461206D01*
X82274000Y-84450000D01*
X82800000Y-84450000D01*
X83412319Y-83837681D01*
X83473642Y-83804196D01*
X83543334Y-83809180D01*
X83587681Y-83837681D01*
X84200000Y-84450000D01*
X87398638Y-84450000D01*
X87465677Y-84469685D01*
X87486319Y-84486319D01*
X88250000Y-85250000D01*
X91300000Y-85250000D01*
X91300001Y-85249999D01*
X92000000Y-84500001D01*
X92000000Y-77701362D01*
X92019685Y-77634323D01*
X92036319Y-77613681D01*
X92263681Y-77386319D01*
X92325004Y-77352834D01*
X92351362Y-77350000D01*
X93890560Y-77350000D01*
X93957599Y-77369685D01*
G37*
%TD.AperFunction*%
%TD*%
M02*
