%TF.GenerationSoftware,KiCad,Pcbnew,9.0.1*%
%TF.CreationDate,2025-07-05T19:11:37+01:00*%
%TF.ProjectId,PDB_AURA,5044425f-4155-4524-912e-6b696361645f,rev?*%
%TF.SameCoordinates,Original*%
%TF.FileFunction,Copper,L1,Top*%
%TF.FilePolarity,Positive*%
%FSLAX46Y46*%
G04 Gerber Fmt 4.6, Leading zero omitted, Abs format (unit mm)*
G04 Created by KiCad (PCBNEW 9.0.1) date 2025-07-05 19:11:37*
%MOMM*%
%LPD*%
G01*
G04 APERTURE LIST*
G04 Aperture macros list*
%AMRoundRect*
0 Rectangle with rounded corners*
0 $1 Rounding radius*
0 $2 $3 $4 $5 $6 $7 $8 $9 X,Y pos of 4 corners*
0 Add a 4 corners polygon primitive as box body*
4,1,4,$2,$3,$4,$5,$6,$7,$8,$9,$2,$3,0*
0 Add four circle primitives for the rounded corners*
1,1,$1+$1,$2,$3*
1,1,$1+$1,$4,$5*
1,1,$1+$1,$6,$7*
1,1,$1+$1,$8,$9*
0 Add four rect primitives between the rounded corners*
20,1,$1+$1,$2,$3,$4,$5,0*
20,1,$1+$1,$4,$5,$6,$7,0*
20,1,$1+$1,$6,$7,$8,$9,0*
20,1,$1+$1,$8,$9,$2,$3,0*%
%AMOutline5P*
0 Free polygon, 5 corners , with rotation*
0 The origin of the aperture is its center*
0 number of corners: always 5*
0 $1 to $10 corner X, Y*
0 $11 Rotation angle, in degrees counterclockwise*
0 create outline with 5 corners*
4,1,5,$1,$2,$3,$4,$5,$6,$7,$8,$9,$10,$1,$2,$11*%
%AMOutline6P*
0 Free polygon, 6 corners , with rotation*
0 The origin of the aperture is its center*
0 number of corners: always 6*
0 $1 to $12 corner X, Y*
0 $13 Rotation angle, in degrees counterclockwise*
0 create outline with 6 corners*
4,1,6,$1,$2,$3,$4,$5,$6,$7,$8,$9,$10,$11,$12,$1,$2,$13*%
%AMOutline7P*
0 Free polygon, 7 corners , with rotation*
0 The origin of the aperture is its center*
0 number of corners: always 7*
0 $1 to $14 corner X, Y*
0 $15 Rotation angle, in degrees counterclockwise*
0 create outline with 7 corners*
4,1,7,$1,$2,$3,$4,$5,$6,$7,$8,$9,$10,$11,$12,$13,$14,$1,$2,$15*%
%AMOutline8P*
0 Free polygon, 8 corners , with rotation*
0 The origin of the aperture is its center*
0 number of corners: always 8*
0 $1 to $16 corner X, Y*
0 $17 Rotation angle, in degrees counterclockwise*
0 create outline with 8 corners*
4,1,8,$1,$2,$3,$4,$5,$6,$7,$8,$9,$10,$11,$12,$13,$14,$15,$16,$1,$2,$17*%
G04 Aperture macros list end*
%TA.AperFunction,SMDPad,CuDef*%
%ADD10C,1.000000*%
%TD*%
%TA.AperFunction,ComponentPad*%
%ADD11C,2.550000*%
%TD*%
%TA.AperFunction,ComponentPad*%
%ADD12C,1.500000*%
%TD*%
%TA.AperFunction,SMDPad,CuDef*%
%ADD13RoundRect,0.135000X-0.185000X0.135000X-0.185000X-0.135000X0.185000X-0.135000X0.185000X0.135000X0*%
%TD*%
%TA.AperFunction,SMDPad,CuDef*%
%ADD14RoundRect,0.073750X-0.221250X0.736250X-0.221250X-0.736250X0.221250X-0.736250X0.221250X0.736250X0*%
%TD*%
%TA.AperFunction,SMDPad,CuDef*%
%ADD15RoundRect,0.135000X0.185000X-0.135000X0.185000X0.135000X-0.185000X0.135000X-0.185000X-0.135000X0*%
%TD*%
%TA.AperFunction,SMDPad,CuDef*%
%ADD16RoundRect,0.500000X3.500000X2.000000X-3.500000X2.000000X-3.500000X-2.000000X3.500000X-2.000000X0*%
%TD*%
%TA.AperFunction,SMDPad,CuDef*%
%ADD17RoundRect,0.135000X0.135000X0.185000X-0.135000X0.185000X-0.135000X-0.185000X0.135000X-0.185000X0*%
%TD*%
%TA.AperFunction,SMDPad,CuDef*%
%ADD18RoundRect,0.250000X1.100000X-0.325000X1.100000X0.325000X-1.100000X0.325000X-1.100000X-0.325000X0*%
%TD*%
%TA.AperFunction,SMDPad,CuDef*%
%ADD19RoundRect,0.250000X-0.325000X-1.100000X0.325000X-1.100000X0.325000X1.100000X-0.325000X1.100000X0*%
%TD*%
%TA.AperFunction,SMDPad,CuDef*%
%ADD20R,0.710000X1.372000*%
%TD*%
%TA.AperFunction,SMDPad,CuDef*%
%ADD21R,4.520000X3.850000*%
%TD*%
%TA.AperFunction,SMDPad,CuDef*%
%ADD22R,0.710000X0.590000*%
%TD*%
%TA.AperFunction,SMDPad,CuDef*%
%ADD23RoundRect,0.140000X0.140000X0.170000X-0.140000X0.170000X-0.140000X-0.170000X0.140000X-0.170000X0*%
%TD*%
%TA.AperFunction,SMDPad,CuDef*%
%ADD24RoundRect,0.140000X-0.170000X0.140000X-0.170000X-0.140000X0.170000X-0.140000X0.170000X0.140000X0*%
%TD*%
%TA.AperFunction,SMDPad,CuDef*%
%ADD25RoundRect,0.218750X-0.218750X-0.256250X0.218750X-0.256250X0.218750X0.256250X-0.218750X0.256250X0*%
%TD*%
%TA.AperFunction,SMDPad,CuDef*%
%ADD26RoundRect,0.140000X0.170000X-0.140000X0.170000X0.140000X-0.170000X0.140000X-0.170000X-0.140000X0*%
%TD*%
%TA.AperFunction,ComponentPad*%
%ADD27C,0.800000*%
%TD*%
%TA.AperFunction,ComponentPad*%
%ADD28C,6.400000*%
%TD*%
%TA.AperFunction,SMDPad,CuDef*%
%ADD29RoundRect,0.135000X-0.135000X-0.185000X0.135000X-0.185000X0.135000X0.185000X-0.135000X0.185000X0*%
%TD*%
%TA.AperFunction,SMDPad,CuDef*%
%ADD30R,0.480000X1.400000*%
%TD*%
%TA.AperFunction,SMDPad,CuDef*%
%ADD31Outline6P,-1.000000X1.362500X1.000000X1.362500X1.000000X-0.962500X0.600000X-1.362500X-0.600000X-1.362500X-1.000000X-0.962500X0.000000*%
%TD*%
%TA.AperFunction,SMDPad,CuDef*%
%ADD32R,0.560000X1.525000*%
%TD*%
%TA.AperFunction,SMDPad,CuDef*%
%ADD33R,0.250000X0.600000*%
%TD*%
%TA.AperFunction,SMDPad,CuDef*%
%ADD34R,0.600000X0.250000*%
%TD*%
%TA.AperFunction,SMDPad,CuDef*%
%ADD35R,1.700000X2.700000*%
%TD*%
%TA.AperFunction,SMDPad,CuDef*%
%ADD36RoundRect,0.140000X-0.140000X-0.170000X0.140000X-0.170000X0.140000X0.170000X-0.140000X0.170000X0*%
%TD*%
%TA.AperFunction,SMDPad,CuDef*%
%ADD37RoundRect,0.060000X-0.180000X0.545000X-0.180000X-0.545000X0.180000X-0.545000X0.180000X0.545000X0*%
%TD*%
%TA.AperFunction,SMDPad,CuDef*%
%ADD38R,1.372000X0.710000*%
%TD*%
%TA.AperFunction,SMDPad,CuDef*%
%ADD39R,3.850000X4.520000*%
%TD*%
%TA.AperFunction,SMDPad,CuDef*%
%ADD40R,0.590000X0.710000*%
%TD*%
%TA.AperFunction,SMDPad,CuDef*%
%ADD41R,2.400000X1.500000*%
%TD*%
%TA.AperFunction,SMDPad,CuDef*%
%ADD42R,1.050000X1.500000*%
%TD*%
%TA.AperFunction,SMDPad,CuDef*%
%ADD43RoundRect,0.250000X-0.362500X-1.425000X0.362500X-1.425000X0.362500X1.425000X-0.362500X1.425000X0*%
%TD*%
%TA.AperFunction,SMDPad,CuDef*%
%ADD44RoundRect,0.487500X-2.012500X1.137500X-2.012500X-1.137500X2.012500X-1.137500X2.012500X1.137500X0*%
%TD*%
%TA.AperFunction,SMDPad,CuDef*%
%ADD45RoundRect,0.150000X0.150000X-0.512500X0.150000X0.512500X-0.150000X0.512500X-0.150000X-0.512500X0*%
%TD*%
%TA.AperFunction,SMDPad,CuDef*%
%ADD46RoundRect,0.073750X0.221250X-0.736250X0.221250X0.736250X-0.221250X0.736250X-0.221250X-0.736250X0*%
%TD*%
%TA.AperFunction,SMDPad,CuDef*%
%ADD47RoundRect,0.400000X-1.600000X2.600000X-1.600000X-2.600000X1.600000X-2.600000X1.600000X2.600000X0*%
%TD*%
%TA.AperFunction,SMDPad,CuDef*%
%ADD48RoundRect,0.400000X1.600000X-2.600000X1.600000X2.600000X-1.600000X2.600000X-1.600000X-2.600000X0*%
%TD*%
%TA.AperFunction,ViaPad*%
%ADD49C,0.600000*%
%TD*%
%TA.AperFunction,ViaPad*%
%ADD50C,0.800000*%
%TD*%
%TA.AperFunction,ViaPad*%
%ADD51C,1.000000*%
%TD*%
%TA.AperFunction,Conductor*%
%ADD52C,0.200000*%
%TD*%
%TA.AperFunction,Conductor*%
%ADD53C,0.300000*%
%TD*%
%TA.AperFunction,Conductor*%
%ADD54C,0.650000*%
%TD*%
%TA.AperFunction,Conductor*%
%ADD55C,0.500000*%
%TD*%
G04 APERTURE END LIST*
D10*
%TO.P,TP101,1,1*%
%TO.N,+BATT_FILT*%
X70750000Y-89250000D03*
%TD*%
%TO.P,TP100,1,1*%
%TO.N,+BATT*%
X67250000Y-76000000D03*
%TD*%
D11*
%TO.P,J304,1,1*%
%TO.N,GND*%
X85500000Y-91750000D03*
%TO.P,J304,2,2*%
%TO.N,+5V*%
X80500000Y-91750000D03*
D12*
%TO.P,J304,3,3*%
%TO.N,GND*%
X88500000Y-96750000D03*
%TO.P,J304,4,4*%
X77500000Y-96750000D03*
%TD*%
D11*
%TO.P,J303,1,1*%
%TO.N,GND*%
X69500000Y-91750000D03*
%TO.P,J303,2,2*%
%TO.N,+BATT_FILT*%
X64500000Y-91750000D03*
D12*
%TO.P,J303,3,3*%
%TO.N,GND*%
X72500000Y-96750000D03*
%TO.P,J303,4,4*%
%TO.N,+BATT_FILT*%
X61500000Y-96750000D03*
%TD*%
D11*
%TO.P,J301,1,1*%
%TO.N,/300_Connectors/VBAT_CH2*%
X80500000Y-58250000D03*
%TO.P,J301,2,2*%
%TO.N,+BATT_FILT*%
X85500000Y-58250000D03*
D12*
%TO.P,J301,3,3*%
%TO.N,GND*%
X77500000Y-53250000D03*
%TO.P,J301,4,4*%
X88500000Y-53250000D03*
%TD*%
D11*
%TO.P,J300,1,1*%
%TO.N,/300_Connectors/VBAT_CH1*%
X64500000Y-58250000D03*
%TO.P,J300,2,2*%
%TO.N,+BATT_FILT*%
X69500000Y-58250000D03*
D12*
%TO.P,J300,3,3*%
%TO.N,GND*%
X61500000Y-53250000D03*
%TO.P,J300,4,4*%
X72500000Y-53250000D03*
%TD*%
D13*
%TO.P,R202,1*%
%TO.N,GND*%
X72250000Y-66240000D03*
%TO.P,R202,2*%
%TO.N,/200_Buck_Regulator/5V_EN*%
X72250000Y-67260000D03*
%TD*%
D14*
%TO.P,U301,1*%
%TO.N,/300_Connectors/MSFT_2_R*%
X77635000Y-57172500D03*
%TO.P,U301,2*%
%TO.N,GND*%
X76365000Y-57172500D03*
%TO.P,U301,3*%
%TO.N,/300_Connectors/VGS_CH2*%
X76365000Y-63562500D03*
%TO.P,U301,4*%
%TO.N,+5V*%
X77635000Y-63562500D03*
%TD*%
D15*
%TO.P,R210,1*%
%TO.N,/200_Buck_Regulator/5V_SW*%
X75750000Y-74760000D03*
%TO.P,R210,2*%
%TO.N,/200_Buck_Regulator/5V_ILIM*%
X75750000Y-73740000D03*
%TD*%
%TO.P,R201,1*%
%TO.N,/200_Buck_Regulator/5V_EN*%
X73250000Y-67260000D03*
%TO.P,R201,2*%
%TO.N,+BATT_FILT*%
X73250000Y-66240000D03*
%TD*%
D13*
%TO.P,R206,1*%
%TO.N,/200_Buck_Regulator/5V_FB*%
X68750000Y-70240000D03*
%TO.P,R206,2*%
%TO.N,+5V*%
X68750000Y-71260000D03*
%TD*%
D15*
%TO.P,R200,1*%
%TO.N,/200_Buck_Regulator/5V_VIN*%
X74750000Y-67260000D03*
%TO.P,R200,2*%
%TO.N,+BATT_FILT*%
X74750000Y-66240000D03*
%TD*%
D16*
%TO.P,J102,1,1*%
%TO.N,GND*%
X56000000Y-63750000D03*
%TD*%
D17*
%TO.P,R203,1*%
%TO.N,/200_Buck_Regulator/5V_SYNCIN*%
X71010000Y-71750000D03*
%TO.P,R203,2*%
%TO.N,+5V_VCC*%
X69990000Y-71750000D03*
%TD*%
D10*
%TO.P,TP202,1,1*%
%TO.N,/200_Buck_Regulator/5V_PGOOD*%
X71750000Y-74250000D03*
%TD*%
D18*
%TO.P,C200,1*%
%TO.N,+BATT_FILT*%
X90500000Y-63975000D03*
%TO.P,C200,2*%
%TO.N,GND*%
X90500000Y-61025000D03*
%TD*%
D19*
%TO.P,C205,1*%
%TO.N,+5V*%
X94025000Y-85750000D03*
%TO.P,C205,2*%
%TO.N,GND*%
X96975000Y-85750000D03*
%TD*%
D20*
%TO.P,Q200,1,G*%
%TO.N,/200_Buck_Regulator/5V_HO*%
X90905000Y-73211000D03*
D21*
%TO.P,Q200,2,D*%
%TO.N,+BATT_FILT*%
X89000000Y-69500000D03*
D22*
X87095000Y-67280000D03*
X88365000Y-67280000D03*
X89635000Y-67280000D03*
X90905000Y-67280000D03*
D20*
%TO.P,Q200,3,S*%
%TO.N,/200_Buck_Regulator/5V_SW*%
X87095000Y-73211000D03*
X88365000Y-73211000D03*
X89635000Y-73211000D03*
%TD*%
D13*
%TO.P,R209,1*%
%TO.N,/200_Buck_Regulator/5V_PGOOD*%
X73250000Y-73740000D03*
%TO.P,R209,2*%
%TO.N,+5V_VCC*%
X73250000Y-74760000D03*
%TD*%
D23*
%TO.P,C104,1*%
%TO.N,+BATT*%
X64480000Y-85000000D03*
%TO.P,C104,2*%
%TO.N,GND*%
X63520000Y-85000000D03*
%TD*%
D24*
%TO.P,C210,1*%
%TO.N,/200_Buck_Regulator/5V_ILIM*%
X74750000Y-73770000D03*
%TO.P,C210,2*%
%TO.N,GND*%
X74750000Y-74730000D03*
%TD*%
D25*
%TO.P,D200,1,K*%
%TO.N,/200_Buck_Regulator/5V_LED*%
X95712500Y-71250000D03*
%TO.P,D200,2,A*%
%TO.N,+5V*%
X97287500Y-71250000D03*
%TD*%
D26*
%TO.P,C218,1*%
%TO.N,+BATT_FILT*%
X97500000Y-62980000D03*
%TO.P,C218,2*%
%TO.N,GND*%
X97500000Y-62020000D03*
%TD*%
D27*
%TO.P,H102,1,1*%
%TO.N,unconnected-(H102-Pad1)_8*%
X92600000Y-55000000D03*
%TO.N,unconnected-(H102-Pad1)_3*%
X93302944Y-53302944D03*
%TO.N,unconnected-(H102-Pad1)_2*%
X93302944Y-56697056D03*
%TO.N,unconnected-(H102-Pad1)_5*%
X95000000Y-52600000D03*
D28*
%TO.N,unconnected-(H102-Pad1)_6*%
X95000000Y-55000000D03*
D27*
%TO.N,unconnected-(H102-Pad1)_4*%
X95000000Y-57400000D03*
%TO.N,unconnected-(H102-Pad1)_7*%
X96697056Y-53302944D03*
%TO.N,unconnected-(H102-Pad1)*%
X96697056Y-56697056D03*
%TO.N,unconnected-(H102-Pad1)_1*%
X97400000Y-55000000D03*
%TD*%
D24*
%TO.P,C212,1*%
%TO.N,/200_Buck_Regulator/COMP_FB_C*%
X66750000Y-67520000D03*
%TO.P,C212,2*%
%TO.N,/200_Buck_Regulator/5V_FB*%
X66750000Y-68480000D03*
%TD*%
D23*
%TO.P,C211,1*%
%TO.N,/200_Buck_Regulator/5V_SS*%
X70980000Y-69250000D03*
%TO.P,C211,2*%
%TO.N,GND*%
X70020000Y-69250000D03*
%TD*%
D11*
%TO.P,J100,1,1*%
%TO.N,+BATT*%
X63162000Y-77500000D03*
%TO.P,J100,2,2*%
%TO.N,GND*%
X63162000Y-72500000D03*
D12*
%TO.P,J100,3,3*%
X53162000Y-69500000D03*
%TO.P,J100,4,4*%
%TO.N,+BATT*%
X53162000Y-80500000D03*
%TD*%
D29*
%TO.P,R211,1*%
%TO.N,GND*%
X93410000Y-71250000D03*
%TO.P,R211,2*%
%TO.N,/200_Buck_Regulator/5V_LED*%
X94430000Y-71250000D03*
%TD*%
D30*
%TO.P,Q300,1,G*%
%TO.N,/300_Connectors/VGS_CH1_R*%
X65500000Y-63688000D03*
D31*
%TO.P,Q300,2,D*%
%TO.N,/300_Connectors/VBAT_CH1*%
X67000000Y-61500000D03*
D32*
X67000000Y-63625000D03*
D30*
%TO.P,Q300,3,S*%
%TO.N,GND*%
X68500000Y-63688000D03*
%TD*%
D13*
%TO.P,R207,1*%
%TO.N,/200_Buck_Regulator/5V_FB*%
X66750000Y-70240000D03*
%TO.P,R207,2*%
%TO.N,/200_Buck_Regulator/COMP_FB_R*%
X66750000Y-71260000D03*
%TD*%
D27*
%TO.P,H101,1,1*%
%TO.N,unconnected-(H101-Pad1)_3*%
X52600000Y-55000000D03*
%TO.N,unconnected-(H101-Pad1)_5*%
X53302944Y-53302944D03*
%TO.N,unconnected-(H101-Pad1)_1*%
X53302944Y-56697056D03*
%TO.N,unconnected-(H101-Pad1)*%
X55000000Y-52600000D03*
D28*
%TO.N,unconnected-(H101-Pad1)_7*%
X55000000Y-55000000D03*
D27*
%TO.N,unconnected-(H101-Pad1)_2*%
X55000000Y-57400000D03*
%TO.N,unconnected-(H101-Pad1)_8*%
X56697056Y-53302944D03*
%TO.N,unconnected-(H101-Pad1)_4*%
X56697056Y-56697056D03*
%TO.N,unconnected-(H101-Pad1)_6*%
X57400000Y-55000000D03*
%TD*%
D29*
%TO.P,R208,1*%
%TO.N,GND*%
X69990000Y-68250000D03*
%TO.P,R208,2*%
%TO.N,/200_Buck_Regulator/5V_RT*%
X71010000Y-68250000D03*
%TD*%
%TO.P,C207,1*%
%TO.N,/200_Buck_Regulator/5V_BST*%
X76740000Y-69750000D03*
%TO.P,C207,2*%
%TO.N,/200_Buck_Regulator/5V_SW*%
X77760000Y-69750000D03*
%TD*%
D33*
%TO.P,U200,1,EN/UVLO*%
%TO.N,/200_Buck_Regulator/5V_EN*%
X73250000Y-68350000D03*
D34*
%TO.P,U200,2,RT*%
%TO.N,/200_Buck_Regulator/5V_RT*%
X72350000Y-68750000D03*
%TO.P,U200,3,SS/TRK*%
%TO.N,/200_Buck_Regulator/5V_SS*%
X72350000Y-69250000D03*
%TO.P,U200,4,COMP*%
%TO.N,/200_Buck_Regulator/COMP_FB_C*%
X72350000Y-69750000D03*
%TO.P,U200,5,FB*%
%TO.N,/200_Buck_Regulator/5V_FB*%
X72350000Y-70250000D03*
%TO.P,U200,6,AGND*%
%TO.N,GND*%
X72350000Y-70750000D03*
%TO.P,U200,7,SYNCOUT*%
%TO.N,unconnected-(U200-SYNCOUT-Pad7)*%
X72350000Y-71250000D03*
%TO.P,U200,8,SYNCIN*%
%TO.N,/200_Buck_Regulator/5V_SYNCIN*%
X72350000Y-71750000D03*
%TO.P,U200,9,NC_1*%
%TO.N,GND*%
X72350000Y-72250000D03*
D33*
%TO.P,U200,10,PGOOD*%
%TO.N,/200_Buck_Regulator/5V_PGOOD*%
X73250000Y-72650000D03*
%TO.P,U200,11,ILIM*%
%TO.N,/200_Buck_Regulator/5V_ILIM*%
X74750000Y-72650000D03*
D34*
%TO.P,U200,12,PGND*%
%TO.N,GND*%
X75650000Y-72250000D03*
%TO.P,U200,13,LO*%
%TO.N,/200_Buck_Regulator/5V_LO*%
X75650000Y-71750000D03*
%TO.P,U200,14,VCC*%
%TO.N,+5V_VCC*%
X75650000Y-71250000D03*
%TO.P,U200,15,EP_1*%
%TO.N,GND*%
X75650000Y-70750000D03*
%TO.P,U200,16,NC_2*%
X75650000Y-70250000D03*
%TO.P,U200,17,BST*%
%TO.N,/200_Buck_Regulator/5V_BST*%
X75650000Y-69750000D03*
%TO.P,U200,18,HO*%
%TO.N,/200_Buck_Regulator/5V_HO*%
X75650000Y-69250000D03*
%TO.P,U200,19,SW*%
%TO.N,/200_Buck_Regulator/5V_SW*%
X75650000Y-68750000D03*
D33*
%TO.P,U200,20,VIN*%
%TO.N,/200_Buck_Regulator/5V_VIN*%
X74750000Y-68350000D03*
D35*
%TO.P,U200,21,EP_2*%
%TO.N,GND*%
X74000000Y-70500000D03*
%TD*%
D36*
%TO.P,C202,1*%
%TO.N,+5V*%
X95020000Y-88000000D03*
%TO.P,C202,2*%
%TO.N,GND*%
X95980000Y-88000000D03*
%TD*%
%TO.P,C209,1*%
%TO.N,+5V_VCC*%
X76770000Y-71250000D03*
%TO.P,C209,2*%
%TO.N,GND*%
X77730000Y-71250000D03*
%TD*%
D20*
%TO.P,Q201,1,G*%
%TO.N,/200_Buck_Regulator/5V_LO*%
X80019000Y-67754000D03*
D22*
%TO.P,Q201,2,D*%
%TO.N,/200_Buck_Regulator/5V_SW*%
X80019000Y-73568000D03*
X81289000Y-73568000D03*
X82559000Y-73568000D03*
X83829000Y-73568000D03*
D21*
X81924000Y-71348000D03*
D20*
%TO.P,Q201,3,S*%
%TO.N,GND*%
X81289000Y-67754000D03*
X82559000Y-67754000D03*
X83829000Y-67754000D03*
%TD*%
D15*
%TO.P,R205,1*%
%TO.N,GND*%
X67750000Y-71260000D03*
%TO.P,R205,2*%
%TO.N,/200_Buck_Regulator/5V_FB*%
X67750000Y-70240000D03*
%TD*%
D27*
%TO.P,H100,1,1*%
%TO.N,unconnected-(H100-Pad1)_3*%
X92600000Y-95000000D03*
%TO.N,unconnected-(H100-Pad1)_7*%
X93302944Y-93302944D03*
%TO.N,unconnected-(H100-Pad1)_1*%
X93302944Y-96697056D03*
%TO.N,unconnected-(H100-Pad1)_5*%
X95000000Y-92600000D03*
D28*
%TO.N,unconnected-(H100-Pad1)_2*%
X95000000Y-95000000D03*
D27*
%TO.N,unconnected-(H100-Pad1)_6*%
X95000000Y-97400000D03*
%TO.N,unconnected-(H100-Pad1)_8*%
X96697056Y-93302944D03*
%TO.N,unconnected-(H100-Pad1)_4*%
X96697056Y-96697056D03*
%TO.N,unconnected-(H100-Pad1)*%
X97400000Y-95000000D03*
%TD*%
D36*
%TO.P,C203,1*%
%TO.N,+5V*%
X95020000Y-89000000D03*
%TO.P,C203,2*%
%TO.N,GND*%
X95980000Y-89000000D03*
%TD*%
%TO.P,C101,1*%
%TO.N,+BATT*%
X63540000Y-87500000D03*
%TO.P,C101,2*%
%TO.N,/100_Power/VCAP*%
X64500000Y-87500000D03*
%TD*%
D27*
%TO.P,H103,1,1*%
%TO.N,unconnected-(H103-Pad1)_8*%
X52600000Y-95000000D03*
%TO.N,unconnected-(H103-Pad1)_3*%
X53302944Y-93302944D03*
%TO.N,unconnected-(H103-Pad1)_5*%
X53302944Y-96697056D03*
%TO.N,unconnected-(H103-Pad1)_2*%
X55000000Y-92600000D03*
D28*
%TO.N,unconnected-(H103-Pad1)_4*%
X55000000Y-95000000D03*
D27*
%TO.N,unconnected-(H103-Pad1)_6*%
X55000000Y-97400000D03*
%TO.N,unconnected-(H103-Pad1)_1*%
X56697056Y-93302944D03*
%TO.N,unconnected-(H103-Pad1)*%
X56697056Y-96697056D03*
%TO.N,unconnected-(H103-Pad1)_7*%
X57400000Y-95000000D03*
%TD*%
D29*
%TO.P,R101,1*%
%TO.N,GND*%
X93410000Y-69250000D03*
%TO.P,R101,2*%
%TO.N,/100_Power/VBAT_LED*%
X94430000Y-69250000D03*
%TD*%
D37*
%TO.P,U302,1,IN+*%
%TO.N,INA_IN+*%
X76725000Y-90245000D03*
%TO.P,U302,2,IN-*%
%TO.N,+BATT_FILT*%
X76075000Y-90245000D03*
%TO.P,U302,3,GND*%
%TO.N,GND*%
X75425000Y-90245000D03*
%TO.P,U302,4,VS*%
%TO.N,+3V3*%
X74775000Y-90245000D03*
%TO.P,U302,5,SCL*%
%TO.N,SCL*%
X74775000Y-92755000D03*
%TO.P,U302,6,SDA*%
%TO.N,SDA*%
X75425000Y-92755000D03*
%TO.P,U302,7,A0*%
%TO.N,+3V3*%
X76075000Y-92755000D03*
%TO.P,U302,8,A1*%
%TO.N,GND*%
X76725000Y-92755000D03*
%TD*%
D13*
%TO.P,R204,1*%
%TO.N,/200_Buck_Regulator/5V_FB_RC*%
X67750000Y-67490000D03*
%TO.P,R204,2*%
%TO.N,+5V*%
X67750000Y-68510000D03*
%TD*%
D19*
%TO.P,C204,1*%
%TO.N,+5V*%
X94025000Y-82250000D03*
%TO.P,C204,2*%
%TO.N,GND*%
X96975000Y-82250000D03*
%TD*%
D38*
%TO.P,Q100,1,G*%
%TO.N,/100_Power/PLR_G*%
X66789000Y-82405000D03*
D39*
%TO.P,Q100,2,D*%
%TO.N,INA_IN+*%
X70500000Y-80500000D03*
D40*
X72720000Y-78595000D03*
X72720000Y-79865000D03*
X72720000Y-81135000D03*
X72720000Y-82405000D03*
D38*
%TO.P,Q100,3,S*%
%TO.N,+BATT*%
X66789000Y-78595000D03*
X66789000Y-79865000D03*
X66789000Y-81135000D03*
%TD*%
D24*
%TO.P,C214,1*%
%TO.N,/200_Buck_Regulator/5V_FB_RC*%
X68750000Y-67520000D03*
%TO.P,C214,2*%
%TO.N,/200_Buck_Regulator/5V_FB*%
X68750000Y-68480000D03*
%TD*%
D41*
%TO.P,D300,1,K*%
%TO.N,+BATT_FILT*%
X59650000Y-58000000D03*
D42*
%TO.P,D300,2,A*%
%TO.N,/300_Connectors/VBAT_CH1*%
X62025000Y-58000000D03*
%TD*%
D36*
%TO.P,C215,1*%
%TO.N,+5V*%
X95020000Y-90000000D03*
%TO.P,C215,2*%
%TO.N,GND*%
X95980000Y-90000000D03*
%TD*%
D26*
%TO.P,C213,1*%
%TO.N,/200_Buck_Regulator/COMP_FB_R*%
X65750000Y-71230000D03*
%TO.P,C213,2*%
%TO.N,/200_Buck_Regulator/COMP_FB_C*%
X65750000Y-70270000D03*
%TD*%
D25*
%TO.P,D100,1,K*%
%TO.N,/100_Power/VBAT_LED*%
X95712500Y-69250000D03*
%TO.P,D100,2,A*%
%TO.N,+BATT_FILT*%
X97287500Y-69250000D03*
%TD*%
D10*
%TO.P,TP200,1,1*%
%TO.N,+5V*%
X94750000Y-73000000D03*
%TD*%
D26*
%TO.P,C217,1*%
%TO.N,+BATT_FILT*%
X96250000Y-62980000D03*
%TO.P,C217,2*%
%TO.N,GND*%
X96250000Y-62020000D03*
%TD*%
D29*
%TO.P,R307,1*%
%TO.N,/300_Connectors/VGS_CH2_R*%
X86240000Y-65000000D03*
%TO.P,R307,2*%
%TO.N,/300_Connectors/VGS_CH2*%
X87260000Y-65000000D03*
%TD*%
D30*
%TO.P,Q301,1,G*%
%TO.N,/300_Connectors/VGS_CH2_R*%
X81500000Y-63688000D03*
D31*
%TO.P,Q301,2,D*%
%TO.N,/300_Connectors/VBAT_CH2*%
X83000000Y-61500000D03*
D32*
X83000000Y-63625000D03*
D30*
%TO.P,Q301,3,S*%
%TO.N,GND*%
X84500000Y-63688000D03*
%TD*%
D43*
%TO.P,R100,1*%
%TO.N,+BATT_FILT*%
X70596500Y-86250000D03*
%TO.P,R100,2*%
%TO.N,INA_IN+*%
X76521500Y-86250000D03*
%TD*%
D24*
%TO.P,C300,1*%
%TO.N,+3V3*%
X73280000Y-91020000D03*
%TO.P,C300,2*%
%TO.N,GND*%
X73280000Y-91980000D03*
%TD*%
D13*
%TO.P,R300,1*%
%TO.N,GND*%
X62750000Y-62990000D03*
%TO.P,R300,2*%
%TO.N,MSFT_1*%
X62750000Y-64010000D03*
%TD*%
%TO.P,R306,1*%
%TO.N,GND*%
X87250000Y-62990000D03*
%TO.P,R306,2*%
%TO.N,/300_Connectors/VGS_CH2*%
X87250000Y-64010000D03*
%TD*%
D15*
%TO.P,R305,1*%
%TO.N,/300_Connectors/MSFT_2_R*%
X86250000Y-62010000D03*
%TO.P,R305,2*%
%TO.N,MSFT_2*%
X86250000Y-60990000D03*
%TD*%
D44*
%TO.P,L200,1,1*%
%TO.N,/200_Buck_Regulator/5V_SW*%
X85250000Y-76875000D03*
%TO.P,L200,2,2*%
%TO.N,+5V*%
X85250000Y-88125000D03*
%TD*%
D16*
%TO.P,J101,1,1*%
%TO.N,+BATT*%
X56000000Y-86250000D03*
%TD*%
D17*
%TO.P,R301,1*%
%TO.N,/300_Connectors/MSFT_1_R*%
X63760000Y-65000000D03*
%TO.P,R301,2*%
%TO.N,MSFT_1*%
X62740000Y-65000000D03*
%TD*%
D19*
%TO.P,C216,1*%
%TO.N,+5V*%
X94025000Y-78750000D03*
%TO.P,C216,2*%
%TO.N,GND*%
X96975000Y-78750000D03*
%TD*%
D15*
%TO.P,R302,1*%
%TO.N,GND*%
X62760000Y-62010000D03*
%TO.P,R302,2*%
%TO.N,/300_Connectors/VGS_CH1*%
X62760000Y-60990000D03*
%TD*%
D26*
%TO.P,C208,1*%
%TO.N,/200_Buck_Regulator/5V_VIN*%
X75750000Y-67230000D03*
%TO.P,C208,2*%
%TO.N,GND*%
X75750000Y-66270000D03*
%TD*%
D15*
%TO.P,R303,1*%
%TO.N,/300_Connectors/VGS_CH1_R*%
X63750000Y-62010000D03*
%TO.P,R303,2*%
%TO.N,/300_Connectors/VGS_CH1*%
X63750000Y-60990000D03*
%TD*%
D18*
%TO.P,C102,1*%
%TO.N,INA_IN+*%
X75809000Y-79975000D03*
%TO.P,C102,2*%
%TO.N,GND*%
X75809000Y-77025000D03*
%TD*%
D41*
%TO.P,D301,1,K*%
%TO.N,+BATT_FILT*%
X90350000Y-58000000D03*
D42*
%TO.P,D301,2,A*%
%TO.N,/300_Connectors/VBAT_CH2*%
X87975000Y-58000000D03*
%TD*%
D45*
%TO.P,U100,1,VCAP*%
%TO.N,/100_Power/VCAP*%
X65859000Y-87387500D03*
%TO.P,U100,2,GND*%
%TO.N,GND*%
X66809000Y-87387500D03*
%TO.P,U100,3,EN*%
%TO.N,+BATT*%
X67759000Y-87387500D03*
%TO.P,U100,4,CATHODE*%
%TO.N,INA_IN+*%
X67759000Y-85112500D03*
%TO.P,U100,5,GATE*%
%TO.N,/100_Power/PLR_G*%
X66809000Y-85112500D03*
%TO.P,U100,6,ANODE*%
%TO.N,+BATT*%
X65859000Y-85112500D03*
%TD*%
D15*
%TO.P,R304,1*%
%TO.N,GND*%
X87250000Y-62010000D03*
%TO.P,R304,2*%
%TO.N,MSFT_2*%
X87250000Y-60990000D03*
%TD*%
D18*
%TO.P,C201,1*%
%TO.N,+BATT_FILT*%
X94000000Y-63975000D03*
%TO.P,C201,2*%
%TO.N,GND*%
X94000000Y-61025000D03*
%TD*%
D46*
%TO.P,U300,1*%
%TO.N,/300_Connectors/MSFT_1_R*%
X72365000Y-63562500D03*
%TO.P,U300,2*%
%TO.N,GND*%
X73635000Y-63562500D03*
%TO.P,U300,3*%
%TO.N,/300_Connectors/VGS_CH1*%
X73635000Y-57172500D03*
%TO.P,U300,4*%
%TO.N,+5V*%
X72365000Y-57172500D03*
%TD*%
D47*
%TO.P,J312,1,1*%
%TO.N,GND*%
X69500000Y-96500000D03*
%TD*%
%TO.P,J307,1,1*%
%TO.N,+BATT_FILT*%
X80500000Y-53500000D03*
%TD*%
%TO.P,J306,1,1*%
%TO.N,GND*%
X69500000Y-53500000D03*
%TD*%
D48*
%TO.P,J308,1,1*%
%TO.N,GND*%
X85500000Y-53500000D03*
%TD*%
%TO.P,J309,1,1*%
%TO.N,+BATT_FILT*%
X80500000Y-96500000D03*
%TD*%
D47*
%TO.P,J310,1,1*%
%TO.N,GND*%
X85500000Y-96500000D03*
%TD*%
D48*
%TO.P,J305,1,1*%
%TO.N,+BATT_FILT*%
X64500000Y-53500000D03*
%TD*%
%TO.P,J311,1,1*%
%TO.N,+BATT_FILT*%
X64500000Y-96500000D03*
%TD*%
D49*
%TO.N,GND*%
X90250000Y-84250000D03*
X91250000Y-83250000D03*
X91250000Y-84250000D03*
X73280000Y-92740000D03*
X86550000Y-63250000D03*
X85850000Y-63250000D03*
%TO.N,/300_Connectors/VGS_CH2*%
X88070000Y-64010000D03*
%TO.N,GND*%
X74070000Y-74733465D03*
%TO.N,+5V_VCC*%
X78220000Y-74880000D03*
D50*
%TO.N,GND*%
X81285000Y-65850000D03*
D49*
X85380000Y-61110000D03*
X85850000Y-63950000D03*
X85150000Y-63250000D03*
X85150000Y-63950000D03*
X69150000Y-63250000D03*
X70450000Y-63900000D03*
X70450000Y-63250000D03*
X69800000Y-63250000D03*
X69800000Y-63900000D03*
X69150000Y-63900000D03*
X90490000Y-61800000D03*
X84000000Y-53500000D03*
X52750000Y-72750000D03*
X68750000Y-55750000D03*
X94990000Y-61800000D03*
D50*
X56000000Y-63000000D03*
D49*
X90250000Y-95250000D03*
X75470000Y-96040000D03*
X68000000Y-52750000D03*
X69500000Y-95000000D03*
X66750000Y-65750000D03*
X57750000Y-67750000D03*
X84000000Y-97250000D03*
X69656140Y-67436186D03*
X87000000Y-95750000D03*
X84750000Y-51250000D03*
X68000000Y-54250000D03*
X65250000Y-72750000D03*
X92990000Y-61800000D03*
D50*
X76550000Y-77750000D03*
D49*
X86250000Y-52000000D03*
X85500000Y-55750000D03*
X91500000Y-60250000D03*
X70250000Y-51250000D03*
X95000000Y-60250000D03*
X57750000Y-70250000D03*
X60250000Y-70250000D03*
X85500000Y-94250000D03*
X89500000Y-60250000D03*
X77040000Y-59034330D03*
X68000000Y-53500000D03*
X97650000Y-86750000D03*
X76720000Y-91500000D03*
X69500000Y-94250000D03*
X62750000Y-67750000D03*
X66014772Y-69034653D03*
X68750000Y-52750000D03*
X84750000Y-95750000D03*
X68000000Y-98750000D03*
X60250000Y-60250000D03*
X52750000Y-60250000D03*
X94000000Y-60250000D03*
X87000000Y-98000000D03*
X75650000Y-72760000D03*
X84000000Y-52000000D03*
X84000000Y-55750000D03*
X85500000Y-97250000D03*
X85500000Y-54250000D03*
D50*
X58500000Y-61750000D03*
D49*
X87000000Y-53500000D03*
X84750000Y-54250000D03*
X91490000Y-61800000D03*
X68000000Y-97250000D03*
X67750000Y-72050000D03*
X75250000Y-55250000D03*
D50*
X56000000Y-61750000D03*
D49*
X90250000Y-52750000D03*
X68750000Y-51250000D03*
X84750000Y-55000000D03*
X71000000Y-95750000D03*
D50*
X56000000Y-65500000D03*
D49*
X68000000Y-98000000D03*
X70250000Y-94250000D03*
X57750000Y-72750000D03*
X86250000Y-51250000D03*
X84000000Y-95750000D03*
X84750000Y-55750000D03*
X84000000Y-94250000D03*
X86250000Y-97250000D03*
X71000000Y-55000000D03*
X87000000Y-55750000D03*
X76948406Y-61530000D03*
X97750000Y-77750000D03*
D50*
X58500000Y-63000000D03*
D49*
X87000000Y-52000000D03*
X69500000Y-95750000D03*
X68750000Y-98000000D03*
D50*
X57250000Y-63000000D03*
D49*
X86250000Y-54250000D03*
X97510000Y-61240000D03*
X60250000Y-97750000D03*
X70250000Y-97250000D03*
X97750000Y-57750000D03*
D50*
X74000000Y-69750000D03*
D49*
X96650000Y-90050000D03*
D50*
X53500000Y-64250000D03*
D49*
X70250000Y-96500000D03*
X85500000Y-98000000D03*
X73631116Y-59647414D03*
X84000000Y-52750000D03*
X71000000Y-55750000D03*
X60250000Y-67750000D03*
X71000000Y-96500000D03*
X68750000Y-94250000D03*
X71000000Y-52750000D03*
X77750000Y-55250000D03*
D50*
X54750000Y-64250000D03*
D49*
X96650000Y-89050000D03*
X55250000Y-67750000D03*
X85500000Y-95750000D03*
X86250000Y-55750000D03*
X97750000Y-90250000D03*
X84750000Y-95000000D03*
X68750000Y-96500000D03*
D50*
X76670000Y-66290000D03*
D49*
X85500000Y-95000000D03*
X70250000Y-53500000D03*
X68750000Y-95750000D03*
X86250000Y-98750000D03*
X73625000Y-62150000D03*
D50*
X53500000Y-65500000D03*
D49*
X97750000Y-60250000D03*
X87000000Y-52750000D03*
X86250000Y-98000000D03*
X68750000Y-52000000D03*
X90250000Y-97750000D03*
X84000000Y-55000000D03*
X69500000Y-52750000D03*
X72750000Y-55250000D03*
X87000000Y-98750000D03*
X55250000Y-70250000D03*
D50*
X58500000Y-64250000D03*
X58500000Y-65500000D03*
D49*
X87000000Y-97250000D03*
X84000000Y-98000000D03*
X71000000Y-54250000D03*
D50*
X54750000Y-61750000D03*
D49*
X70250000Y-98000000D03*
X88070000Y-62010000D03*
D50*
X56000000Y-64250000D03*
D49*
X68000000Y-51250000D03*
X68750000Y-54250000D03*
X74785717Y-97549875D03*
X85250000Y-80250000D03*
X71000000Y-98000000D03*
X60250000Y-72750000D03*
X93430000Y-68420000D03*
X57750000Y-60250000D03*
D50*
X53500000Y-61750000D03*
D49*
X66000000Y-89000000D03*
X71000000Y-98750000D03*
X68000000Y-96500000D03*
X77750000Y-95250000D03*
X84750000Y-52750000D03*
X84000000Y-54250000D03*
X68750000Y-97250000D03*
X68750000Y-95000000D03*
D50*
X83825000Y-65850000D03*
D49*
X86250000Y-53500000D03*
X69500000Y-52000000D03*
D50*
X54750000Y-65500000D03*
D49*
X69500000Y-53500000D03*
X69500000Y-54250000D03*
X55250000Y-72750000D03*
X88070000Y-63000000D03*
X68000000Y-55750000D03*
X86250000Y-95750000D03*
X71000000Y-97250000D03*
X76375000Y-58500000D03*
X61930000Y-62990000D03*
X69500000Y-55750000D03*
X85500000Y-53500000D03*
X87000000Y-96500000D03*
D50*
X57250000Y-61750000D03*
D49*
X70250000Y-52750000D03*
X85500000Y-52750000D03*
X84000000Y-98750000D03*
X87000000Y-51250000D03*
D50*
X82560000Y-66750000D03*
D49*
X89490000Y-61800000D03*
X68750000Y-98750000D03*
X78925000Y-71250000D03*
X69500000Y-98750000D03*
D50*
X74000000Y-71250000D03*
D49*
X85500000Y-51250000D03*
X70250000Y-54250000D03*
X86250000Y-55000000D03*
X97750000Y-79750000D03*
X96650000Y-88050000D03*
X75250000Y-52750000D03*
X69500000Y-55000000D03*
X70250000Y-98750000D03*
X97750000Y-78750000D03*
X85500000Y-98750000D03*
D50*
X57250000Y-65500000D03*
D49*
X72350000Y-72950000D03*
X71000000Y-51250000D03*
X84750000Y-96500000D03*
X69500000Y-51250000D03*
X97650000Y-81250000D03*
X93000000Y-60250000D03*
X68000000Y-55000000D03*
X84750000Y-52000000D03*
X97750000Y-87750000D03*
X68000000Y-95750000D03*
X93420000Y-70420000D03*
X71000000Y-94250000D03*
X75425000Y-91140000D03*
D50*
X83830000Y-66750000D03*
D49*
X55250000Y-60250000D03*
D50*
X53500000Y-63000000D03*
X54750000Y-63000000D03*
D49*
X93990000Y-61800000D03*
X70250000Y-52000000D03*
X96250000Y-61240000D03*
X65750000Y-66750000D03*
X70250000Y-95000000D03*
X69500000Y-96500000D03*
X71000000Y-52000000D03*
X63520000Y-85950000D03*
X68000000Y-95000000D03*
X69350000Y-69518329D03*
X84000000Y-96500000D03*
X90500000Y-60250000D03*
X87000000Y-54250000D03*
X82750000Y-80250000D03*
D50*
X74950000Y-77750000D03*
D49*
X71000000Y-53500000D03*
X71560918Y-71021075D03*
X86250000Y-96500000D03*
X86250000Y-95000000D03*
X87000000Y-55000000D03*
X87000000Y-94250000D03*
X87000000Y-95000000D03*
X70250000Y-55750000D03*
X86250000Y-94250000D03*
X85500000Y-55000000D03*
X68000000Y-94250000D03*
X85500000Y-96500000D03*
X70250000Y-95750000D03*
X84750000Y-94250000D03*
X84750000Y-98000000D03*
X68000000Y-52000000D03*
X84750000Y-98750000D03*
X61930000Y-62010000D03*
X84750000Y-53500000D03*
X84000000Y-95000000D03*
X68750000Y-55000000D03*
X69500000Y-97250000D03*
X84000000Y-51250000D03*
X62750000Y-70250000D03*
X92781866Y-71382494D03*
X52750000Y-67750000D03*
X86250000Y-52750000D03*
D50*
X71400000Y-66240000D03*
D49*
X84750000Y-97250000D03*
X68750000Y-53500000D03*
D50*
X82555000Y-65850000D03*
D49*
X97650000Y-82250000D03*
X69500000Y-98000000D03*
X71000000Y-95000000D03*
D50*
X81290000Y-66750000D03*
X57250000Y-64250000D03*
D49*
X70250000Y-55000000D03*
X60250000Y-52750000D03*
X80250000Y-77750000D03*
X85500000Y-52000000D03*
X60250000Y-92750000D03*
%TO.N,+5V*%
X93250000Y-79750000D03*
X93250000Y-88000000D03*
X93250000Y-84750000D03*
X93250000Y-83250000D03*
X94250000Y-89000000D03*
X80475000Y-65100000D03*
X93250000Y-82250000D03*
X93250000Y-77750000D03*
X93250000Y-85750000D03*
X94370000Y-67224998D03*
X94250000Y-88000000D03*
X93250000Y-78750000D03*
X94250000Y-90000000D03*
X93250000Y-89000000D03*
X93250000Y-86750000D03*
X93250000Y-81250000D03*
X67750000Y-69350000D03*
X93250000Y-90000000D03*
X68750000Y-72050000D03*
D51*
%TO.N,/200_Buck_Regulator/5V_SW*%
X78550000Y-67700000D03*
D50*
X83500000Y-71250000D03*
X80250000Y-71250000D03*
X83500000Y-70000000D03*
D51*
X89650000Y-72185000D03*
D50*
X83500000Y-72500000D03*
X80250000Y-70000000D03*
X82000000Y-71250000D03*
X80250000Y-72500000D03*
X82000000Y-72500000D03*
X82000000Y-70000000D03*
D49*
%TO.N,/200_Buck_Regulator/COMP_FB_C*%
X70492220Y-69967739D03*
X66760000Y-66730000D03*
%TO.N,/200_Buck_Regulator/5V_FB*%
X66750000Y-69350000D03*
%TO.N,+BATT*%
X60250000Y-77750000D03*
X60250000Y-75250000D03*
X52750000Y-90250000D03*
D50*
X57250000Y-84250000D03*
D49*
X65250000Y-80250000D03*
D50*
X58500000Y-85500000D03*
D49*
X55250000Y-77750000D03*
D50*
X57250000Y-88000000D03*
D49*
X57750000Y-75250000D03*
D50*
X57250000Y-85500000D03*
X54750000Y-88000000D03*
D49*
X55250000Y-75250000D03*
D50*
X56000000Y-84250000D03*
D49*
X67750000Y-77750000D03*
D50*
X56000000Y-86750000D03*
X58500000Y-86750000D03*
X53500000Y-88000000D03*
D49*
X55250000Y-82750000D03*
D50*
X58500000Y-84250000D03*
X53500000Y-84250000D03*
D49*
X52750000Y-75250000D03*
D50*
X53500000Y-86750000D03*
X54750000Y-84250000D03*
X56000000Y-85500000D03*
D49*
X57750000Y-90250000D03*
D50*
X54750000Y-86750000D03*
D49*
X57750000Y-82750000D03*
X55250000Y-80250000D03*
X52750000Y-77750000D03*
X65250000Y-77750000D03*
X60250000Y-82750000D03*
X57750000Y-80250000D03*
D50*
X58500000Y-88000000D03*
D49*
X62750000Y-80250000D03*
X60250000Y-80250000D03*
X55250000Y-90250000D03*
X62750000Y-75250000D03*
D50*
X54750000Y-85500000D03*
X57250000Y-86750000D03*
D49*
X57750000Y-77750000D03*
D50*
X53500000Y-85500000D03*
X56000000Y-88000000D03*
D49*
X52750000Y-82750000D03*
%TO.N,MSFT_1*%
X64000000Y-64000000D03*
%TO.N,MSFT_2*%
X88350000Y-61050000D03*
%TO.N,+3V3*%
X92250000Y-73500000D03*
X74000000Y-90000000D03*
X77750000Y-90000000D03*
%TO.N,INA_IN+*%
X78750000Y-86250000D03*
X75750000Y-82250000D03*
X77750000Y-87250000D03*
X75750000Y-84250000D03*
X75750000Y-83250000D03*
X77750000Y-83250000D03*
X76750000Y-84250000D03*
X79750000Y-87250000D03*
X77750000Y-85250000D03*
X74750000Y-82250000D03*
X74750000Y-83250000D03*
X73750000Y-82250000D03*
D50*
X71750000Y-82000000D03*
X76500000Y-79250000D03*
X71750000Y-80500000D03*
X70500000Y-79000000D03*
X70500000Y-80500000D03*
D49*
X73750000Y-81250000D03*
D50*
X75000000Y-79250000D03*
D49*
X74750000Y-81250000D03*
X79750000Y-85250000D03*
D50*
X69250000Y-82000000D03*
D49*
X77750000Y-86250000D03*
X76750000Y-82250000D03*
D50*
X70500000Y-82000000D03*
D49*
X79750000Y-86250000D03*
X78750000Y-87250000D03*
D50*
X69250000Y-80500000D03*
D49*
X79750000Y-84250000D03*
X77750000Y-84250000D03*
X78750000Y-85250000D03*
X76750000Y-83250000D03*
X73750000Y-83250000D03*
X78750000Y-84250000D03*
X78750000Y-83250000D03*
X75750000Y-81250000D03*
X76750000Y-81250000D03*
D50*
X71750000Y-79000000D03*
D49*
%TO.N,SCL*%
X92250000Y-76000000D03*
%TO.N,SDA*%
X92250000Y-74750000D03*
%TO.N,+5V_VCC*%
X78219341Y-70500000D03*
D51*
%TO.N,/200_Buck_Regulator/5V_HO*%
X78860955Y-68859014D03*
X90910000Y-72180000D03*
%TO.N,/200_Buck_Regulator/5V_LO*%
X77200000Y-72775000D03*
X79172775Y-66674253D03*
D49*
%TO.N,/300_Connectors/VGS_CH1*%
X64580000Y-60990000D03*
X73640000Y-58790000D03*
%TO.N,/300_Connectors/MSFT_2_R*%
X77640000Y-58500000D03*
X85410000Y-62010000D03*
%TO.N,/300_Connectors/VGS_CH2*%
X76360000Y-62130000D03*
%TO.N,+BATT_FILT*%
X66000000Y-98750000D03*
X81250000Y-52000000D03*
X68250000Y-89750000D03*
X79000000Y-97250000D03*
X79750000Y-53500000D03*
X79000000Y-94250000D03*
X64500000Y-52000000D03*
X82000000Y-94250000D03*
X90500000Y-64750000D03*
X80500000Y-55000000D03*
X63750000Y-98750000D03*
X79750000Y-55750000D03*
X61500000Y-98750000D03*
X82000000Y-97250000D03*
X65250000Y-53500000D03*
X63750000Y-94250000D03*
X82000000Y-98750000D03*
X80500000Y-53500000D03*
X59650000Y-56750000D03*
X81250000Y-97250000D03*
X81250000Y-95750000D03*
X63750000Y-96500000D03*
X80500000Y-95750000D03*
X81250000Y-53500000D03*
X81250000Y-98750000D03*
X63000000Y-97250000D03*
X65250000Y-97250000D03*
X82000000Y-95750000D03*
X63000000Y-95750000D03*
X82000000Y-55000000D03*
D50*
X88350000Y-66700000D03*
D49*
X89550000Y-63250000D03*
X81250000Y-94250000D03*
D50*
X89650000Y-66700000D03*
D49*
X63000000Y-52000000D03*
D50*
X89000000Y-70750000D03*
X87500000Y-68250000D03*
D49*
X79000000Y-52000000D03*
X61500000Y-92250000D03*
X66000000Y-97250000D03*
X91550000Y-63250000D03*
X80500000Y-97250000D03*
X79000000Y-95000000D03*
X80500000Y-94250000D03*
X93000000Y-64750000D03*
X80500000Y-52750000D03*
X94000000Y-63250000D03*
X63000000Y-53500000D03*
X64500000Y-53500000D03*
X79750000Y-94250000D03*
X62500000Y-92250000D03*
X79750000Y-97250000D03*
X79750000Y-52750000D03*
X65250000Y-96500000D03*
X64500000Y-52750000D03*
X66000000Y-53500000D03*
X82000000Y-52750000D03*
X79000000Y-98750000D03*
X64500000Y-94250000D03*
X63000000Y-55750000D03*
X79000000Y-55000000D03*
X63750000Y-52750000D03*
X91500000Y-64750000D03*
X80500000Y-98750000D03*
X66000000Y-55000000D03*
X65250000Y-95750000D03*
D50*
X89000000Y-68250000D03*
D49*
X79750000Y-95750000D03*
X93000000Y-63250000D03*
X90550000Y-63250000D03*
X79750000Y-96500000D03*
X81250000Y-95000000D03*
X71250000Y-88750000D03*
X79000000Y-95750000D03*
X63750000Y-52000000D03*
X67250000Y-92750000D03*
X66000000Y-94250000D03*
X80500000Y-52000000D03*
X94000000Y-64750000D03*
X64500000Y-95750000D03*
X66000000Y-95750000D03*
X63750000Y-54250000D03*
X63750000Y-53500000D03*
X65250000Y-95000000D03*
D50*
X90500000Y-70750000D03*
D49*
X81250000Y-98000000D03*
X82000000Y-53500000D03*
X63750000Y-98000000D03*
X63000000Y-96500000D03*
X63250000Y-90250000D03*
X64500000Y-98750000D03*
X66000000Y-55750000D03*
X80500000Y-95000000D03*
X66000000Y-95000000D03*
X95000000Y-63250000D03*
X62500000Y-91250000D03*
X65250000Y-98750000D03*
X70250000Y-89750000D03*
X63000000Y-98750000D03*
X62500000Y-93250000D03*
X82000000Y-51250000D03*
D50*
X90500000Y-68250000D03*
D49*
X80500000Y-55750000D03*
X81250000Y-51250000D03*
X63750000Y-55750000D03*
X79000000Y-54250000D03*
X80500000Y-54250000D03*
X81250000Y-55750000D03*
X65250000Y-55000000D03*
X66250000Y-91750000D03*
X79000000Y-51250000D03*
X79750000Y-98750000D03*
X79750000Y-54250000D03*
X65250000Y-52000000D03*
X66250000Y-90750000D03*
X80500000Y-98000000D03*
X63000000Y-52750000D03*
X98340000Y-69220000D03*
X66000000Y-52750000D03*
X63000000Y-98000000D03*
D50*
X74750000Y-65250000D03*
D49*
X79000000Y-52750000D03*
X66000000Y-52000000D03*
X63000000Y-55000000D03*
X63750000Y-95000000D03*
X81250000Y-52750000D03*
X65250000Y-98000000D03*
X63750000Y-97250000D03*
X81250000Y-96500000D03*
X67250000Y-90750000D03*
D50*
X90900000Y-66700000D03*
D49*
X71250000Y-89750000D03*
X61500000Y-93250000D03*
X90350000Y-56750000D03*
X63750000Y-55000000D03*
X80500000Y-51250000D03*
X79750000Y-98000000D03*
X82000000Y-98000000D03*
X80500000Y-96500000D03*
X63000000Y-95000000D03*
X82000000Y-95000000D03*
X66000000Y-51250000D03*
X69250000Y-87750000D03*
X64500000Y-54250000D03*
X68250000Y-88750000D03*
X66250000Y-92750000D03*
X79000000Y-98000000D03*
X63750000Y-51250000D03*
X64500000Y-51250000D03*
X95000000Y-64750000D03*
X82000000Y-55750000D03*
X79750000Y-52000000D03*
X67250000Y-89750000D03*
X63000000Y-54250000D03*
X66000000Y-54250000D03*
X82000000Y-54250000D03*
X81250000Y-54250000D03*
X64500000Y-97250000D03*
X81250000Y-55000000D03*
X69250000Y-89750000D03*
D50*
X87500000Y-69500000D03*
X87500000Y-70750000D03*
D49*
X64500000Y-55000000D03*
X82000000Y-52000000D03*
X69250000Y-85750000D03*
X82000000Y-96500000D03*
X64500000Y-55750000D03*
X69250000Y-88750000D03*
X69250000Y-86750000D03*
X64500000Y-95000000D03*
X65250000Y-51250000D03*
X63750000Y-95750000D03*
X79000000Y-53500000D03*
X67250000Y-91750000D03*
X65250000Y-55750000D03*
X64500000Y-98000000D03*
X89500000Y-64750000D03*
X63000000Y-51250000D03*
X79000000Y-55750000D03*
X65250000Y-52750000D03*
X66000000Y-96500000D03*
X79750000Y-51250000D03*
X64500000Y-96500000D03*
D50*
X90500000Y-69500000D03*
D49*
X79750000Y-55000000D03*
X65250000Y-54250000D03*
D50*
X89000000Y-69500000D03*
D49*
X65250000Y-94250000D03*
X70250000Y-88750000D03*
X79000000Y-96500000D03*
D50*
X73250000Y-65250000D03*
D49*
X66000000Y-98000000D03*
X79750000Y-95000000D03*
X63000000Y-94250000D03*
%TD*%
D52*
%TO.N,+3V3*%
X78250000Y-90000000D02*
X77750000Y-90000000D01*
X81150000Y-83100000D02*
X81150000Y-87100000D01*
X90750000Y-79750000D02*
X88750000Y-81750000D01*
X88750000Y-81750000D02*
X82500000Y-81750000D01*
X90750000Y-75000000D02*
X90750000Y-79750000D01*
X82500000Y-81750000D02*
X81150000Y-83100000D01*
X81150000Y-87100000D02*
X78250000Y-90000000D01*
X92250000Y-73500000D02*
X90750000Y-75000000D01*
%TO.N,SDA*%
X91500000Y-75500000D02*
X92250000Y-74750000D01*
X91500000Y-80250000D02*
X91500000Y-75500000D01*
X89250000Y-82500000D02*
X91500000Y-80250000D01*
X82750000Y-82500000D02*
X89250000Y-82500000D01*
X78250000Y-90567100D02*
X81750000Y-87067100D01*
X81750000Y-87067100D02*
X81750000Y-83500000D01*
X81750000Y-83500000D02*
X82750000Y-82500000D01*
X78250000Y-92700000D02*
X78250000Y-90567100D01*
X76851000Y-94099000D02*
X78250000Y-92700000D01*
X75704100Y-94099000D02*
X76851000Y-94099000D01*
X75425000Y-93819900D02*
X75704100Y-94099000D01*
X75425000Y-92755000D02*
X75425000Y-93819900D01*
%TO.N,SCL*%
X74775000Y-94125000D02*
X74775000Y-92755000D01*
X75250000Y-94600000D02*
X74775000Y-94125000D01*
X78750000Y-90634200D02*
X78750000Y-93000000D01*
X78750000Y-93000000D02*
X77150000Y-94600000D01*
X82350000Y-87034200D02*
X78750000Y-90634200D01*
X82350000Y-83900000D02*
X82350000Y-87034200D01*
X89750000Y-83250000D02*
X83000000Y-83250000D01*
X92250000Y-80750000D02*
X89750000Y-83250000D01*
X77150000Y-94600000D02*
X75250000Y-94600000D01*
X92250000Y-76000000D02*
X92250000Y-80750000D01*
X83000000Y-83250000D02*
X82350000Y-83900000D01*
%TO.N,GND*%
X73280000Y-91980000D02*
X73280000Y-92740000D01*
%TO.N,/300_Connectors/VGS_CH2*%
X87250000Y-64010000D02*
X88070000Y-64010000D01*
D53*
%TO.N,+5V_VCC*%
X73250000Y-74760000D02*
X73250000Y-75150000D01*
X73700000Y-75600000D02*
X73250000Y-75600000D01*
X73250000Y-75150000D02*
X73700000Y-75600000D01*
X77500000Y-75600000D02*
X73700000Y-75600000D01*
X78220000Y-74880000D02*
X77500000Y-75600000D01*
D52*
%TO.N,/200_Buck_Regulator/5V_SW*%
X77452000Y-73568000D02*
X80019000Y-73568000D01*
X76260000Y-74760000D02*
X77452000Y-73568000D01*
X75750000Y-74760000D02*
X76260000Y-74760000D01*
D54*
X77100000Y-67700000D02*
X76775000Y-68025000D01*
X78550000Y-67700000D02*
X77100000Y-67700000D01*
D55*
%TO.N,+5V*%
X96700000Y-73000000D02*
X97287500Y-72412500D01*
X97287500Y-72412500D02*
X97287500Y-71250000D01*
X94750000Y-73000000D02*
X96700000Y-73000000D01*
X94025000Y-73725000D02*
X94750000Y-73000000D01*
X94025000Y-79750000D02*
X94025000Y-73725000D01*
D52*
%TO.N,GND*%
X87250000Y-62990000D02*
X88060000Y-62990000D01*
X66809000Y-88191000D02*
X66809000Y-87387500D01*
X75650000Y-70750000D02*
X75650000Y-70250000D01*
D55*
X77730000Y-71250000D02*
X78925000Y-71250000D01*
D52*
X87250000Y-62010000D02*
X88070000Y-62010000D01*
X63520000Y-85000000D02*
X63520000Y-85950000D01*
X62760000Y-62010000D02*
X62760000Y-62980000D01*
X74250000Y-70750000D02*
X74000000Y-70500000D01*
D55*
X72250000Y-66240000D02*
X71400000Y-66240000D01*
D52*
X75650000Y-70250000D02*
X74250000Y-70250000D01*
X66000000Y-89000000D02*
X66809000Y-88191000D01*
X69618329Y-69250000D02*
X69350000Y-69518329D01*
X93410000Y-68440000D02*
X93430000Y-68420000D01*
X70020000Y-69250000D02*
X69618329Y-69250000D01*
X69656140Y-67436186D02*
X69990000Y-67770046D01*
X74250000Y-70250000D02*
X74000000Y-70500000D01*
X75430000Y-91020000D02*
X75430000Y-90900000D01*
X73500000Y-70750000D02*
X74000000Y-71250000D01*
D55*
X76365000Y-57172500D02*
X76365000Y-58490000D01*
D52*
X93410000Y-69250000D02*
X93410000Y-68440000D01*
D55*
X76365000Y-58490000D02*
X76375000Y-58500000D01*
D52*
X93410000Y-70430000D02*
X93420000Y-70420000D01*
X75425000Y-91140000D02*
X75425000Y-90245000D01*
X75650000Y-72760000D02*
X75650000Y-72250000D01*
X67750000Y-71260000D02*
X67750000Y-72050000D01*
X97500000Y-61250000D02*
X97510000Y-61240000D01*
D55*
X76650000Y-66270000D02*
X76670000Y-66290000D01*
D52*
X62760000Y-62980000D02*
X62750000Y-62990000D01*
X97500000Y-62020000D02*
X97500000Y-61250000D01*
X93410000Y-71250000D02*
X93410000Y-70430000D01*
X62760000Y-62010000D02*
X61930000Y-62010000D01*
X75650000Y-70750000D02*
X74250000Y-70750000D01*
X88060000Y-62990000D02*
X88070000Y-63000000D01*
X70020000Y-68280000D02*
X69990000Y-68250000D01*
X75430000Y-90900000D02*
X75425000Y-90895000D01*
X69990000Y-67770046D02*
X69990000Y-68250000D01*
X96250000Y-62020000D02*
X96250000Y-61240000D01*
X62750000Y-62990000D02*
X61930000Y-62990000D01*
X70020000Y-69250000D02*
X70020000Y-68280000D01*
X72350000Y-70750000D02*
X73500000Y-70750000D01*
D55*
X75750000Y-66270000D02*
X76650000Y-66270000D01*
D52*
X72350000Y-72250000D02*
X72350000Y-72950000D01*
X87250000Y-62990000D02*
X87250000Y-62010000D01*
D55*
X73635000Y-62160000D02*
X73625000Y-62150000D01*
X73635000Y-63562500D02*
X73635000Y-62160000D01*
D52*
X76725000Y-92755000D02*
X76725000Y-91505000D01*
%TO.N,+5V*%
X96700000Y-71250000D02*
X96451000Y-71001000D01*
X79837500Y-63562500D02*
X77635000Y-63562500D01*
X73000000Y-60370000D02*
X77010000Y-60370000D01*
X96451000Y-71001000D02*
X96451000Y-68772400D01*
X72365000Y-59735000D02*
X73000000Y-60370000D01*
X97287500Y-71250000D02*
X96700000Y-71250000D01*
X68750000Y-71260000D02*
X68750000Y-72050000D01*
X94903598Y-67224998D02*
X94370000Y-67224998D01*
X80475000Y-65100000D02*
X80475000Y-64200000D01*
X72365000Y-57172500D02*
X72365000Y-59735000D01*
X80475000Y-64200000D02*
X79837500Y-63562500D01*
X77635000Y-60995000D02*
X77635000Y-63562500D01*
X96451000Y-68772400D02*
X94903598Y-67224998D01*
X67750000Y-68510000D02*
X67750000Y-69350000D01*
X77010000Y-60370000D02*
X77635000Y-60995000D01*
%TO.N,/200_Buck_Regulator/5V_BST*%
X76740000Y-69750000D02*
X75650000Y-69750000D01*
D55*
%TO.N,/200_Buck_Regulator/5V_SW*%
X79762075Y-70000000D02*
X78780000Y-70000000D01*
X76775000Y-68025000D02*
X76562500Y-68237500D01*
D52*
X76050000Y-68750000D02*
X75650000Y-68750000D01*
D55*
X78780000Y-70000000D02*
X78530000Y-69750000D01*
D52*
X80140000Y-72500000D02*
X80250000Y-72500000D01*
D55*
X78530000Y-69750000D02*
X77760000Y-69750000D01*
D52*
X76275000Y-68525000D02*
X76050000Y-68750000D01*
D54*
X89650000Y-73196000D02*
X89635000Y-73211000D01*
D53*
X76562500Y-68237500D02*
X76275000Y-68525000D01*
X80250000Y-70000000D02*
X79762075Y-70000000D01*
D54*
X89650000Y-72185000D02*
X89650000Y-73196000D01*
D52*
%TO.N,/200_Buck_Regulator/5V_VIN*%
X74750000Y-67260000D02*
X75720000Y-67260000D01*
X75720000Y-67260000D02*
X75750000Y-67230000D01*
X74750000Y-68350000D02*
X74750000Y-67260000D01*
%TO.N,/200_Buck_Regulator/5V_ILIM*%
X74750000Y-73770000D02*
X75720000Y-73770000D01*
X74750000Y-72650000D02*
X74750000Y-73770000D01*
X75720000Y-73770000D02*
X75750000Y-73740000D01*
%TO.N,/200_Buck_Regulator/5V_SS*%
X72350000Y-69250000D02*
X70980000Y-69250000D01*
%TO.N,/200_Buck_Regulator/COMP_FB_C*%
X65750000Y-69620000D02*
X65400000Y-69270000D01*
X71199811Y-69967739D02*
X70492220Y-69967739D01*
X66760000Y-67510000D02*
X66750000Y-67520000D01*
X65750000Y-70270000D02*
X65750000Y-69620000D01*
X65850000Y-67520000D02*
X66750000Y-67520000D01*
X65400000Y-67970000D02*
X65850000Y-67520000D01*
X66760000Y-66730000D02*
X66760000Y-67510000D01*
X65400000Y-69270000D02*
X65400000Y-67970000D01*
X71417550Y-69750000D02*
X71199811Y-69967739D01*
X72350000Y-69750000D02*
X71417550Y-69750000D01*
%TO.N,/200_Buck_Regulator/5V_FB*%
X66750000Y-69350000D02*
X66750000Y-70240000D01*
X69470000Y-70240000D02*
X68750000Y-70240000D01*
X66750000Y-70240000D02*
X67750000Y-70240000D01*
X71159650Y-70575000D02*
X69805000Y-70575000D01*
X68750000Y-69250000D02*
X68750000Y-68480000D01*
X67750000Y-70240000D02*
X68750000Y-70240000D01*
X69805000Y-70575000D02*
X69470000Y-70240000D01*
X68760000Y-70250000D02*
X68750000Y-70240000D01*
X66750000Y-68480000D02*
X66750000Y-69350000D01*
X72350000Y-70250000D02*
X71484650Y-70250000D01*
X68750000Y-70240000D02*
X68750000Y-69250000D01*
X71484650Y-70250000D02*
X71159650Y-70575000D01*
%TO.N,/200_Buck_Regulator/COMP_FB_R*%
X66720000Y-71230000D02*
X66750000Y-71260000D01*
X65750000Y-71230000D02*
X66720000Y-71230000D01*
%TO.N,/200_Buck_Regulator/5V_FB_RC*%
X67750000Y-67490000D02*
X68720000Y-67490000D01*
X68720000Y-67490000D02*
X68750000Y-67520000D01*
%TO.N,/200_Buck_Regulator/5V_LED*%
X95712500Y-71250000D02*
X94430000Y-71250000D01*
D55*
%TO.N,/300_Connectors/VBAT_CH2*%
X87975000Y-58000000D02*
X87975000Y-58925000D01*
X84250000Y-60250000D02*
X83000000Y-61500000D01*
X86650000Y-60250000D02*
X84250000Y-60250000D01*
X87975000Y-58925000D02*
X86650000Y-60250000D01*
D52*
%TO.N,MSFT_1*%
X62760000Y-64000000D02*
X62750000Y-64010000D01*
X64000000Y-64000000D02*
X62760000Y-64000000D01*
X62740000Y-64020000D02*
X62750000Y-64010000D01*
X62740000Y-65000000D02*
X62740000Y-64020000D01*
%TO.N,MSFT_2*%
X87310000Y-61050000D02*
X87250000Y-60990000D01*
X86250000Y-60990000D02*
X87250000Y-60990000D01*
X88350000Y-61050000D02*
X87310000Y-61050000D01*
%TO.N,+3V3*%
X76075000Y-92755000D02*
X76075000Y-92027000D01*
X74000000Y-90000000D02*
X74530000Y-90000000D01*
X74775000Y-91455000D02*
X74775000Y-90245000D01*
X73500000Y-90000000D02*
X74000000Y-90000000D01*
X75061000Y-91741000D02*
X74775000Y-91455000D01*
X73280000Y-91020000D02*
X73280000Y-90220000D01*
X76075000Y-92027000D02*
X75789000Y-91741000D01*
X73280000Y-90220000D02*
X73500000Y-90000000D01*
X75789000Y-91741000D02*
X75061000Y-91741000D01*
%TO.N,INA_IN+*%
X73751000Y-86549000D02*
X73751000Y-88083900D01*
X74050000Y-86250000D02*
X73751000Y-86549000D01*
X73751000Y-88083900D02*
X74335100Y-88668000D01*
X76521500Y-86250000D02*
X74050000Y-86250000D01*
X76725000Y-89125000D02*
X76725000Y-90245000D01*
X76268000Y-88668000D02*
X76725000Y-89125000D01*
X74335100Y-88668000D02*
X76268000Y-88668000D01*
%TO.N,/100_Power/VBAT_LED*%
X95712500Y-69250000D02*
X94430000Y-69250000D01*
%TO.N,+5V_VCC*%
X76770000Y-71250000D02*
X75650000Y-71250000D01*
D53*
X69990000Y-74120000D02*
X71470000Y-75600000D01*
X76770000Y-70730000D02*
X76770000Y-71250000D01*
X69990000Y-71750000D02*
X69990000Y-74120000D01*
X77000000Y-70500000D02*
X76770000Y-70730000D01*
X71470000Y-75600000D02*
X73250000Y-75600000D01*
X78219341Y-70500000D02*
X77000000Y-70500000D01*
D55*
%TO.N,/100_Power/VCAP*%
X65746500Y-87500000D02*
X65859000Y-87387500D01*
X64500000Y-87500000D02*
X65746500Y-87500000D01*
%TO.N,/100_Power/PLR_G*%
X66809000Y-85112500D02*
X66809000Y-82425000D01*
X66809000Y-82425000D02*
X66789000Y-82405000D01*
D54*
%TO.N,/200_Buck_Regulator/5V_HO*%
X78859969Y-68860000D02*
X78860955Y-68859014D01*
D52*
X76680000Y-68860000D02*
X76577810Y-68860000D01*
D55*
X77210000Y-68860000D02*
X77660000Y-68860000D01*
D52*
X76680000Y-68860000D02*
X76930000Y-68860000D01*
X76577810Y-68860000D02*
X76187810Y-69250000D01*
D54*
X77660000Y-68860000D02*
X78859969Y-68860000D01*
D53*
X76930000Y-68860000D02*
X77210000Y-68860000D01*
D52*
X76187810Y-69250000D02*
X75650000Y-69250000D01*
D54*
%TO.N,/200_Buck_Regulator/5V_LO*%
X80019000Y-66881000D02*
X80019000Y-67754000D01*
X77200000Y-72750000D02*
X77200000Y-72775000D01*
D52*
X75650000Y-71750000D02*
X76200000Y-71750000D01*
X76200000Y-71750000D02*
X76425000Y-71975000D01*
D54*
X76800000Y-72350000D02*
X77200000Y-72750000D01*
D53*
X76425000Y-71975000D02*
X76600000Y-72150000D01*
D54*
X79824253Y-66674253D02*
X80025000Y-66875000D01*
D55*
X76600000Y-72150000D02*
X76800000Y-72350000D01*
D54*
X79172775Y-66674253D02*
X79824253Y-66674253D01*
X80025000Y-66875000D02*
X80019000Y-66881000D01*
D52*
%TO.N,/300_Connectors/VGS_CH1_R*%
X63750000Y-62010000D02*
X63750000Y-62750000D01*
X64688000Y-63688000D02*
X65500000Y-63688000D01*
X63750000Y-62750000D02*
X64688000Y-63688000D01*
%TO.N,/300_Connectors/VGS_CH2_R*%
X81750000Y-65000000D02*
X81500000Y-64750000D01*
X86240000Y-65000000D02*
X81750000Y-65000000D01*
X81500000Y-64750000D02*
X81500000Y-63688000D01*
%TO.N,/200_Buck_Regulator/5V_EN*%
X73250000Y-68350000D02*
X73250000Y-67260000D01*
X73250000Y-67260000D02*
X72250000Y-67260000D01*
%TO.N,/200_Buck_Regulator/5V_SYNCIN*%
X72350000Y-71750000D02*
X71010000Y-71750000D01*
%TO.N,/200_Buck_Regulator/5V_RT*%
X72350000Y-68500000D02*
X72100000Y-68250000D01*
X72100000Y-68250000D02*
X71010000Y-68250000D01*
X72350000Y-68750000D02*
X72350000Y-68500000D01*
%TO.N,/200_Buck_Regulator/5V_PGOOD*%
X73250000Y-73740000D02*
X73250000Y-72650000D01*
X72260000Y-73740000D02*
X73250000Y-73740000D01*
X71750000Y-74250000D02*
X72260000Y-73740000D01*
%TO.N,/300_Connectors/MSFT_1_R*%
X63760000Y-65000000D02*
X72000000Y-65000000D01*
X72365000Y-64635000D02*
X72365000Y-63562500D01*
X72000000Y-65000000D02*
X72365000Y-64635000D01*
%TO.N,/300_Connectors/VGS_CH1*%
X63750000Y-60990000D02*
X62760000Y-60990000D01*
X73640000Y-57177500D02*
X73635000Y-57172500D01*
X73640000Y-58790000D02*
X73640000Y-57177500D01*
X63750000Y-60990000D02*
X64580000Y-60990000D01*
%TO.N,/300_Connectors/MSFT_2_R*%
X77640000Y-58500000D02*
X77640000Y-57177500D01*
X85410000Y-62010000D02*
X86250000Y-62010000D01*
X77640000Y-57177500D02*
X77635000Y-57172500D01*
%TO.N,/300_Connectors/VGS_CH2*%
X87250000Y-64990000D02*
X87260000Y-65000000D01*
X76365000Y-63562500D02*
X76365000Y-62135000D01*
X76365000Y-62135000D02*
X76360000Y-62130000D01*
X87250000Y-64010000D02*
X87250000Y-64990000D01*
D55*
%TO.N,+BATT_FILT*%
X90350000Y-58000000D02*
X90350000Y-56750000D01*
X74750000Y-66240000D02*
X74750000Y-65250000D01*
D52*
X73050000Y-86250000D02*
X70596500Y-86250000D01*
X76075000Y-90245000D02*
X76075000Y-89407502D01*
D55*
X73250000Y-66240000D02*
X73250000Y-65250000D01*
D52*
X73350000Y-88250000D02*
X73350000Y-86550000D01*
X75736498Y-89069000D02*
X74169000Y-89069000D01*
X73350000Y-86550000D02*
X73050000Y-86250000D01*
D55*
X59650000Y-58000000D02*
X59650000Y-56750000D01*
X97287500Y-69220000D02*
X98340000Y-69220000D01*
D52*
X76075000Y-89407502D02*
X75736498Y-89069000D01*
X74169000Y-89069000D02*
X73350000Y-88250000D01*
D55*
%TO.N,GND*%
X74750000Y-74730000D02*
X74073465Y-74730000D01*
X74073465Y-74730000D02*
X74070000Y-74733465D01*
%TD*%
%TA.AperFunction,Conductor*%
%TO.N,/300_Connectors/VBAT_CH2*%
G36*
X83515677Y-56769685D02*
G01*
X83536319Y-56786319D01*
X83963681Y-57213681D01*
X83997166Y-57275004D01*
X84000000Y-57301362D01*
X84000000Y-57959182D01*
X83998473Y-57978580D01*
X83974500Y-58129935D01*
X83974500Y-58370058D01*
X83998473Y-58521417D01*
X84000000Y-58540815D01*
X84000000Y-59100000D01*
X85009193Y-60013079D01*
X85045699Y-60072653D01*
X85050000Y-60105029D01*
X85050000Y-60386856D01*
X85030315Y-60453895D01*
X84998933Y-60487139D01*
X84500000Y-60849998D01*
X84500000Y-62198638D01*
X84480315Y-62265677D01*
X84463681Y-62286319D01*
X83500000Y-63249999D01*
X83500000Y-64198638D01*
X83480315Y-64265677D01*
X83463681Y-64286319D01*
X83286319Y-64463681D01*
X83224996Y-64497166D01*
X83198638Y-64500000D01*
X82801362Y-64500000D01*
X82734323Y-64480315D01*
X82713681Y-64463681D01*
X82536319Y-64286319D01*
X82502834Y-64224996D01*
X82500000Y-64198638D01*
X82500000Y-63250000D01*
X81500000Y-62250000D01*
X79301362Y-62250000D01*
X79234323Y-62230315D01*
X79213681Y-62213681D01*
X78786319Y-61786319D01*
X78752834Y-61724996D01*
X78750000Y-61698638D01*
X78750000Y-57301362D01*
X78769685Y-57234323D01*
X78786319Y-57213681D01*
X79213181Y-56786819D01*
X79274504Y-56753334D01*
X79300862Y-56750500D01*
X82165688Y-56750500D01*
X82165694Y-56750500D01*
X82167193Y-56750381D01*
X82176922Y-56750000D01*
X83448638Y-56750000D01*
X83515677Y-56769685D01*
G37*
%TD.AperFunction*%
%TD*%
%TA.AperFunction,Conductor*%
%TO.N,+5V*%
G36*
X95015677Y-77269685D02*
G01*
X95036319Y-77286319D01*
X95463681Y-77713681D01*
X95497166Y-77775004D01*
X95500000Y-77801362D01*
X95500000Y-87607368D01*
X95486485Y-87663662D01*
X95463981Y-87707827D01*
X95449500Y-87799264D01*
X95449500Y-88200739D01*
X95463981Y-88292170D01*
X95463981Y-88292171D01*
X95463982Y-88292174D01*
X95463983Y-88292175D01*
X95486485Y-88336338D01*
X95489606Y-88349339D01*
X95494977Y-88357696D01*
X95500000Y-88392631D01*
X95500000Y-88607368D01*
X95486485Y-88663662D01*
X95463981Y-88707827D01*
X95449500Y-88799264D01*
X95449500Y-89200739D01*
X95463981Y-89292170D01*
X95463981Y-89292171D01*
X95463982Y-89292174D01*
X95463983Y-89292175D01*
X95486485Y-89336338D01*
X95489606Y-89349339D01*
X95494977Y-89357696D01*
X95500000Y-89392631D01*
X95500000Y-89607368D01*
X95486485Y-89663662D01*
X95463981Y-89707827D01*
X95449500Y-89799264D01*
X95449500Y-90200739D01*
X95463981Y-90292170D01*
X95466998Y-90301453D01*
X95465329Y-90301995D01*
X95476094Y-90359294D01*
X95449820Y-90424036D01*
X95440393Y-90434606D01*
X94661319Y-91213681D01*
X94599996Y-91247166D01*
X94573638Y-91250000D01*
X87031637Y-91250000D01*
X86964598Y-91230315D01*
X86918843Y-91177511D01*
X86913827Y-91164632D01*
X86913739Y-91164422D01*
X86913736Y-91164411D01*
X86804724Y-90950464D01*
X86663586Y-90756204D01*
X86493796Y-90586414D01*
X86299536Y-90445276D01*
X86278595Y-90434606D01*
X86085593Y-90336265D01*
X85857222Y-90262063D01*
X85620059Y-90224500D01*
X85379941Y-90224500D01*
X85261359Y-90243281D01*
X85142777Y-90262063D01*
X84914406Y-90336265D01*
X84700463Y-90445276D01*
X84506201Y-90586416D01*
X84336416Y-90756201D01*
X84195276Y-90950463D01*
X84142734Y-91053582D01*
X84086264Y-91164411D01*
X84086263Y-91164413D01*
X84086262Y-91164416D01*
X84084399Y-91168914D01*
X84083429Y-91168512D01*
X84072340Y-91184725D01*
X84062076Y-91207203D01*
X84052961Y-91213060D01*
X84046846Y-91222002D01*
X84024085Y-91231617D01*
X84003298Y-91244977D01*
X83986875Y-91247338D01*
X83982485Y-91249193D01*
X83968363Y-91250000D01*
X83801362Y-91250000D01*
X83734323Y-91230315D01*
X83713681Y-91213681D01*
X82786319Y-90286319D01*
X82752834Y-90224996D01*
X82750000Y-90198638D01*
X82750000Y-86551362D01*
X82769685Y-86484323D01*
X82786319Y-86463681D01*
X84163681Y-85086319D01*
X84225004Y-85052834D01*
X84251362Y-85050000D01*
X91300000Y-85050000D01*
X92600000Y-83750000D01*
X92600000Y-80808068D01*
X92600500Y-80800438D01*
X92600500Y-77800862D01*
X92620185Y-77733823D01*
X92636819Y-77713181D01*
X93063681Y-77286319D01*
X93125004Y-77252834D01*
X93151362Y-77250000D01*
X94948638Y-77250000D01*
X95015677Y-77269685D01*
G37*
%TD.AperFunction*%
%TD*%
%TA.AperFunction,Conductor*%
%TO.N,+BATT_FILT*%
G36*
X95913661Y-62513514D02*
G01*
X95957825Y-62536017D01*
X95957826Y-62536017D01*
X95957828Y-62536018D01*
X95992947Y-62541579D01*
X96049265Y-62550500D01*
X96450734Y-62550499D01*
X96450739Y-62550499D01*
X96450739Y-62550498D01*
X96496454Y-62543258D01*
X96542170Y-62536018D01*
X96542172Y-62536017D01*
X96542175Y-62536017D01*
X96586338Y-62513515D01*
X96642632Y-62500000D01*
X97107368Y-62500000D01*
X97163661Y-62513514D01*
X97207825Y-62536017D01*
X97207826Y-62536017D01*
X97207828Y-62536018D01*
X97242947Y-62541579D01*
X97299265Y-62550500D01*
X97499137Y-62550499D01*
X97566176Y-62570183D01*
X97586818Y-62586818D01*
X98213681Y-63213681D01*
X98247166Y-63275004D01*
X98250000Y-63301362D01*
X98250000Y-66698638D01*
X98230315Y-66765677D01*
X98213681Y-66786319D01*
X97536319Y-67463681D01*
X97474996Y-67497166D01*
X97448638Y-67500000D01*
X95725644Y-67500000D01*
X95658605Y-67480315D01*
X95637963Y-67463681D01*
X95118811Y-66944529D01*
X95118806Y-66944525D01*
X95038888Y-66898385D01*
X95038887Y-66898384D01*
X95038886Y-66898384D01*
X94949742Y-66874498D01*
X94949741Y-66874498D01*
X94849386Y-66874498D01*
X94782347Y-66854813D01*
X94761705Y-66838179D01*
X94708017Y-66784491D01*
X94708011Y-66784486D01*
X94582488Y-66712015D01*
X94582489Y-66712015D01*
X94571006Y-66708938D01*
X94442475Y-66674498D01*
X94297525Y-66674498D01*
X94168993Y-66708938D01*
X94157511Y-66712015D01*
X94031988Y-66784486D01*
X94031982Y-66784491D01*
X93929493Y-66886980D01*
X93929488Y-66886986D01*
X93857017Y-67012509D01*
X93857016Y-67012513D01*
X93819500Y-67152523D01*
X93819500Y-67152525D01*
X93819500Y-67297472D01*
X93831942Y-67343907D01*
X93830279Y-67413757D01*
X93791116Y-67471619D01*
X93726887Y-67499123D01*
X93712167Y-67500000D01*
X92999999Y-67500000D01*
X92250000Y-68249999D01*
X92250000Y-71098638D01*
X92230315Y-71165677D01*
X92213681Y-71186319D01*
X91686319Y-71713681D01*
X91659391Y-71728384D01*
X91633573Y-71744977D01*
X91627372Y-71745868D01*
X91624996Y-71747166D01*
X91598638Y-71750000D01*
X91591332Y-71750000D01*
X91524293Y-71730315D01*
X91495472Y-71704657D01*
X91492953Y-71701588D01*
X91492951Y-71701584D01*
X91492947Y-71701580D01*
X91492943Y-71701575D01*
X91388419Y-71597051D01*
X91388415Y-71597048D01*
X91265501Y-71514919D01*
X91265488Y-71514912D01*
X91128917Y-71458343D01*
X91128907Y-71458340D01*
X90983920Y-71429500D01*
X90983918Y-71429500D01*
X90836082Y-71429500D01*
X90836080Y-71429500D01*
X90691092Y-71458340D01*
X90691082Y-71458343D01*
X90554511Y-71514912D01*
X90554498Y-71514919D01*
X90431584Y-71597048D01*
X90431580Y-71597051D01*
X90365181Y-71663451D01*
X90303858Y-71696936D01*
X90234166Y-71691952D01*
X90189819Y-71663451D01*
X90128419Y-71602051D01*
X90128415Y-71602048D01*
X90005501Y-71519919D01*
X90005488Y-71519912D01*
X89868917Y-71463343D01*
X89868907Y-71463340D01*
X89723920Y-71434500D01*
X89723918Y-71434500D01*
X89576082Y-71434500D01*
X89576080Y-71434500D01*
X89431092Y-71463340D01*
X89431082Y-71463343D01*
X89294511Y-71519912D01*
X89294498Y-71519919D01*
X89171584Y-71602048D01*
X89171580Y-71602051D01*
X89065451Y-71708181D01*
X89004128Y-71741666D01*
X88977770Y-71744500D01*
X86045862Y-71744500D01*
X85978823Y-71724815D01*
X85958181Y-71708181D01*
X85036319Y-70786319D01*
X85002834Y-70724996D01*
X85000000Y-70698638D01*
X85000000Y-67551362D01*
X85019685Y-67484323D01*
X85036319Y-67463681D01*
X85713681Y-66786319D01*
X85775004Y-66752834D01*
X85801362Y-66750000D01*
X87500000Y-66750000D01*
X88250000Y-66000000D01*
X88250000Y-64613330D01*
X88269685Y-64546291D01*
X88311998Y-64505944D01*
X88408015Y-64450509D01*
X88510509Y-64348015D01*
X88582984Y-64222485D01*
X88620500Y-64082475D01*
X88620500Y-63937525D01*
X88582984Y-63797515D01*
X88574637Y-63783058D01*
X88510511Y-63671988D01*
X88510506Y-63671982D01*
X88431205Y-63592681D01*
X88397720Y-63531358D01*
X88402704Y-63461666D01*
X88431205Y-63417319D01*
X88441673Y-63406851D01*
X88510509Y-63338015D01*
X88582984Y-63212485D01*
X88620500Y-63072475D01*
X88620500Y-62930861D01*
X88640185Y-62863822D01*
X88656814Y-62843185D01*
X88963681Y-62536319D01*
X89025004Y-62502834D01*
X89051362Y-62500000D01*
X95857368Y-62500000D01*
X95913661Y-62513514D01*
G37*
%TD.AperFunction*%
%TD*%
%TA.AperFunction,Conductor*%
%TO.N,INA_IN+*%
G36*
X73015677Y-77769685D02*
G01*
X73036319Y-77786319D01*
X74000000Y-78750000D01*
X79448638Y-78750000D01*
X79515677Y-78769685D01*
X79536319Y-78786319D01*
X80713681Y-79963681D01*
X80747166Y-80025004D01*
X80750000Y-80051362D01*
X80750000Y-86948638D01*
X80730315Y-87015677D01*
X80713681Y-87036319D01*
X79536319Y-88213681D01*
X79474996Y-88247166D01*
X79448638Y-88250000D01*
X76051362Y-88250000D01*
X75984323Y-88230315D01*
X75963681Y-88213681D01*
X75536319Y-87786319D01*
X75502834Y-87724996D01*
X75500000Y-87698638D01*
X75500000Y-84750000D01*
X74500000Y-83750000D01*
X69000000Y-83750000D01*
X68290000Y-84500000D01*
X68290000Y-84852300D01*
X68276650Y-84906625D01*
X68276815Y-84906692D01*
X68276351Y-84907839D01*
X68275877Y-84909771D01*
X68274537Y-84912332D01*
X68274534Y-84912338D01*
X68254850Y-84979375D01*
X68254848Y-84979383D01*
X68244500Y-85051360D01*
X68244500Y-85716000D01*
X68224815Y-85783039D01*
X68172011Y-85828794D01*
X68120500Y-85840000D01*
X67624000Y-85840000D01*
X67556961Y-85820315D01*
X67511206Y-85767511D01*
X67500000Y-85716000D01*
X67500000Y-83801362D01*
X67519685Y-83734323D01*
X67536319Y-83713681D01*
X68250000Y-83000000D01*
X68250000Y-78301362D01*
X68269685Y-78234323D01*
X68286319Y-78213681D01*
X68713681Y-77786319D01*
X68775004Y-77752834D01*
X68801362Y-77750000D01*
X72948638Y-77750000D01*
X73015677Y-77769685D01*
G37*
%TD.AperFunction*%
%TD*%
%TA.AperFunction,Conductor*%
%TO.N,/200_Buck_Regulator/5V_SW*%
G36*
X84418177Y-69269685D02*
G01*
X84438819Y-69286319D01*
X84693681Y-69541181D01*
X84727166Y-69602504D01*
X84730000Y-69628862D01*
X84730000Y-70860000D01*
X85870000Y-72000000D01*
X89948638Y-72000000D01*
X89978078Y-72008644D01*
X90008065Y-72015168D01*
X90013080Y-72018922D01*
X90015677Y-72019685D01*
X90036319Y-72036319D01*
X90123181Y-72123181D01*
X90156666Y-72184504D01*
X90159500Y-72210862D01*
X90159500Y-72253918D01*
X90159500Y-72253920D01*
X90159499Y-72253920D01*
X90188340Y-72398907D01*
X90188342Y-72398913D01*
X90240561Y-72524980D01*
X90250000Y-72572433D01*
X90250000Y-75945146D01*
X90230315Y-76012185D01*
X90209411Y-76036899D01*
X87535468Y-78467753D01*
X87472622Y-78498283D01*
X87452057Y-78500000D01*
X83047377Y-78500000D01*
X82980338Y-78480315D01*
X82964694Y-78468410D01*
X79541317Y-75405388D01*
X79504482Y-75346017D01*
X79500000Y-75312978D01*
X79500000Y-69613862D01*
X79519685Y-69546823D01*
X79536319Y-69526181D01*
X79776181Y-69286319D01*
X79837504Y-69252834D01*
X79863862Y-69250000D01*
X84351138Y-69250000D01*
X84418177Y-69269685D01*
G37*
%TD.AperFunction*%
%TD*%
%TA.AperFunction,Conductor*%
%TO.N,+BATT_FILT*%
G36*
X71258345Y-84409685D02*
G01*
X71287207Y-84435393D01*
X71471901Y-84660719D01*
X71499175Y-84725045D01*
X71500000Y-84739326D01*
X71500000Y-87000000D01*
X72213681Y-87713681D01*
X72247166Y-87775004D01*
X72250000Y-87801362D01*
X72250000Y-95687766D01*
X72230315Y-95754805D01*
X72177511Y-95800560D01*
X72173452Y-95802327D01*
X72026092Y-95863364D01*
X72026074Y-95863374D01*
X71943390Y-95918622D01*
X71876713Y-95939500D01*
X71809333Y-95921015D01*
X71762643Y-95869036D01*
X71750500Y-95815520D01*
X71750500Y-93834313D01*
X71750499Y-93834298D01*
X71747598Y-93797432D01*
X71747597Y-93797426D01*
X71701745Y-93639606D01*
X71701744Y-93639603D01*
X71701744Y-93639602D01*
X71618081Y-93498135D01*
X71618079Y-93498133D01*
X71618076Y-93498129D01*
X71501870Y-93381923D01*
X71501862Y-93381917D01*
X71360396Y-93298255D01*
X71360393Y-93298254D01*
X71202573Y-93252402D01*
X71202567Y-93252401D01*
X71165701Y-93249500D01*
X71165694Y-93249500D01*
X70413083Y-93249500D01*
X70346044Y-93229815D01*
X70300289Y-93177011D01*
X70290345Y-93107853D01*
X70319370Y-93044297D01*
X70340197Y-93025182D01*
X70349808Y-93018199D01*
X70493796Y-92913586D01*
X70663586Y-92743796D01*
X70804724Y-92549536D01*
X70913736Y-92335589D01*
X70987937Y-92107222D01*
X71025500Y-91870059D01*
X71025500Y-91629941D01*
X70987937Y-91392778D01*
X70913736Y-91164411D01*
X70913734Y-91164408D01*
X70913734Y-91164406D01*
X70804723Y-90950463D01*
X70663586Y-90756204D01*
X70493796Y-90586414D01*
X70299536Y-90445276D01*
X70085593Y-90336265D01*
X69857222Y-90262063D01*
X69620059Y-90224500D01*
X69379941Y-90224500D01*
X69261359Y-90243281D01*
X69142777Y-90262063D01*
X68914406Y-90336265D01*
X68700463Y-90445276D01*
X68506201Y-90586416D01*
X68336416Y-90756201D01*
X68195276Y-90950463D01*
X68086265Y-91164406D01*
X68012063Y-91392777D01*
X67974500Y-91629941D01*
X67974500Y-91870058D01*
X68012063Y-92107222D01*
X68086265Y-92335593D01*
X68184748Y-92528873D01*
X68195276Y-92549536D01*
X68336414Y-92743796D01*
X68506204Y-92913586D01*
X68650192Y-93018199D01*
X68659803Y-93025182D01*
X68702468Y-93080512D01*
X68708447Y-93150125D01*
X68675841Y-93211920D01*
X68615002Y-93246278D01*
X68586917Y-93249500D01*
X67834298Y-93249500D01*
X67797432Y-93252401D01*
X67797426Y-93252402D01*
X67639606Y-93298254D01*
X67639603Y-93298255D01*
X67498137Y-93381917D01*
X67498129Y-93381923D01*
X67381923Y-93498129D01*
X67381917Y-93498137D01*
X67298255Y-93639603D01*
X67298254Y-93639606D01*
X67252402Y-93797426D01*
X67252401Y-93797432D01*
X67249500Y-93834298D01*
X67249500Y-99165701D01*
X67252401Y-99202567D01*
X67252402Y-99202573D01*
X67298254Y-99360393D01*
X67298255Y-99360396D01*
X67381917Y-99501862D01*
X67381923Y-99501870D01*
X67417872Y-99537819D01*
X67451357Y-99599142D01*
X67446373Y-99668834D01*
X67404501Y-99724767D01*
X67339037Y-99749184D01*
X67330191Y-99749500D01*
X60874000Y-99749500D01*
X60806961Y-99729815D01*
X60761206Y-99677011D01*
X60750000Y-99625500D01*
X60750000Y-98018199D01*
X60762621Y-97971131D01*
X60759874Y-97969993D01*
X60762979Y-97962492D01*
X60762984Y-97962485D01*
X60800500Y-97822475D01*
X60800500Y-97677525D01*
X60762984Y-97537515D01*
X60762983Y-97537513D01*
X60759873Y-97530005D01*
X60762605Y-97528873D01*
X60750000Y-97481800D01*
X60750000Y-93018199D01*
X60762621Y-92971131D01*
X60759874Y-92969993D01*
X60762979Y-92962492D01*
X60762984Y-92962485D01*
X60800500Y-92822475D01*
X60800500Y-92677525D01*
X60762984Y-92537515D01*
X60762983Y-92537513D01*
X60759873Y-92530005D01*
X60762605Y-92528873D01*
X60762448Y-92528290D01*
X60755023Y-92516735D01*
X60750000Y-92481800D01*
X60750000Y-92297583D01*
X60769685Y-92230544D01*
X60781832Y-92214631D01*
X62963057Y-89791048D01*
X63022535Y-89754387D01*
X63055225Y-89750000D01*
X66750000Y-89750000D01*
X68500000Y-88000000D01*
X68500000Y-85051362D01*
X68519685Y-84984323D01*
X68536319Y-84963681D01*
X69073681Y-84426319D01*
X69135004Y-84392834D01*
X69161362Y-84390000D01*
X71191306Y-84390000D01*
X71258345Y-84409685D01*
G37*
%TD.AperFunction*%
%TD*%
%TA.AperFunction,Conductor*%
%TO.N,/300_Connectors/VBAT_CH1*%
G36*
X62832806Y-56750381D02*
G01*
X62834306Y-56750500D01*
X62834312Y-56750500D01*
X66165688Y-56750500D01*
X66165694Y-56750500D01*
X66167193Y-56750381D01*
X66176922Y-56750000D01*
X67398638Y-56750000D01*
X67465677Y-56769685D01*
X67486319Y-56786319D01*
X67913681Y-57213681D01*
X67947166Y-57275004D01*
X67950000Y-57301362D01*
X67950000Y-58900000D01*
X68413681Y-59363681D01*
X68447166Y-59425004D01*
X68450000Y-59451362D01*
X68450000Y-62198638D01*
X68430315Y-62265677D01*
X68413681Y-62286319D01*
X67450000Y-63249999D01*
X67450000Y-64198638D01*
X67430315Y-64265677D01*
X67413681Y-64286319D01*
X67236319Y-64463681D01*
X67174996Y-64497166D01*
X67148638Y-64500000D01*
X66751362Y-64500000D01*
X66684323Y-64480315D01*
X66663681Y-64463681D01*
X66486319Y-64286319D01*
X66452834Y-64224996D01*
X66450000Y-64198638D01*
X66450000Y-63250000D01*
X65286319Y-62086319D01*
X65252834Y-62024996D01*
X65250000Y-61998638D01*
X65250000Y-60750000D01*
X64750000Y-60250000D01*
X61851362Y-60250000D01*
X61784323Y-60230315D01*
X61763681Y-60213681D01*
X61336319Y-59786319D01*
X61302834Y-59724996D01*
X61300000Y-59698638D01*
X61300000Y-57301362D01*
X61319685Y-57234323D01*
X61336319Y-57213681D01*
X61763681Y-56786319D01*
X61825004Y-56752834D01*
X61851362Y-56750000D01*
X62823078Y-56750000D01*
X62832806Y-56750381D01*
G37*
%TD.AperFunction*%
%TD*%
%TA.AperFunction,Conductor*%
%TO.N,+BATT*%
G36*
X66865677Y-74169685D02*
G01*
X66886319Y-74186319D01*
X68163681Y-75463681D01*
X68197166Y-75525004D01*
X68200000Y-75551362D01*
X68200000Y-77887306D01*
X68180315Y-77954345D01*
X68163681Y-77974987D01*
X68105666Y-78033001D01*
X68105638Y-78033031D01*
X68087361Y-78053379D01*
X68070744Y-78074000D01*
X68024534Y-78162340D01*
X68004850Y-78229375D01*
X68004848Y-78229383D01*
X67994500Y-78301360D01*
X67994500Y-82842806D01*
X67974815Y-82909845D01*
X67958180Y-82930488D01*
X67920563Y-82968104D01*
X67859239Y-83001589D01*
X67789548Y-82996603D01*
X67733615Y-82954731D01*
X67709199Y-82889266D01*
X67711265Y-82856233D01*
X67725500Y-82784674D01*
X67725500Y-82025326D01*
X67725500Y-82025323D01*
X67725499Y-82025321D01*
X67710967Y-81952264D01*
X67710966Y-81952260D01*
X67655601Y-81869399D01*
X67572740Y-81814034D01*
X67572739Y-81814033D01*
X67572735Y-81814032D01*
X67499677Y-81799500D01*
X67499674Y-81799500D01*
X66078326Y-81799500D01*
X66078323Y-81799500D01*
X66005264Y-81814032D01*
X66005260Y-81814033D01*
X65922399Y-81869399D01*
X65867033Y-81952260D01*
X65867032Y-81952264D01*
X65852500Y-82025321D01*
X65852500Y-82784678D01*
X65867032Y-82857735D01*
X65867033Y-82857739D01*
X65867034Y-82857740D01*
X65922399Y-82940601D01*
X66005260Y-82995966D01*
X66005264Y-82995967D01*
X66078321Y-83010499D01*
X66078324Y-83010500D01*
X66078326Y-83010500D01*
X66184500Y-83010500D01*
X66251539Y-83030185D01*
X66297294Y-83082989D01*
X66308500Y-83134500D01*
X66308500Y-84375948D01*
X66294985Y-84432242D01*
X66273352Y-84474698D01*
X66258500Y-84568475D01*
X66258500Y-85656517D01*
X66269292Y-85724657D01*
X66273354Y-85750304D01*
X66330950Y-85863342D01*
X66330952Y-85863344D01*
X66330954Y-85863347D01*
X66420652Y-85953045D01*
X66420654Y-85953046D01*
X66420658Y-85953050D01*
X66533694Y-86010645D01*
X66533698Y-86010647D01*
X66627475Y-86025499D01*
X66627481Y-86025500D01*
X66990518Y-86025499D01*
X67084304Y-86010646D01*
X67197342Y-85953050D01*
X67197344Y-85953047D01*
X67205612Y-85948835D01*
X67274282Y-85935938D01*
X67339022Y-85962214D01*
X67355619Y-85978114D01*
X67363861Y-85987626D01*
X67363865Y-85987630D01*
X67363867Y-85987632D01*
X67396641Y-86019257D01*
X67484976Y-86065465D01*
X67484977Y-86065465D01*
X67484977Y-86065466D01*
X67535105Y-86080184D01*
X67552015Y-86085150D01*
X67552019Y-86085150D01*
X67552021Y-86085151D01*
X67563652Y-86086823D01*
X67624000Y-86095500D01*
X67624001Y-86095500D01*
X68076000Y-86095500D01*
X68143039Y-86115185D01*
X68188794Y-86167989D01*
X68200000Y-86219500D01*
X68200000Y-87887306D01*
X68191355Y-87916746D01*
X68184832Y-87946733D01*
X68181077Y-87951748D01*
X68180315Y-87954345D01*
X68163681Y-87974987D01*
X68124987Y-88013681D01*
X68063664Y-88047166D01*
X68037306Y-88050000D01*
X67483500Y-88050000D01*
X67416461Y-88030315D01*
X67370706Y-87977511D01*
X67359500Y-87926000D01*
X67359499Y-86843482D01*
X67359498Y-86843475D01*
X67344646Y-86749696D01*
X67287050Y-86636658D01*
X67287046Y-86636654D01*
X67287045Y-86636652D01*
X67197347Y-86546954D01*
X67197344Y-86546952D01*
X67197342Y-86546950D01*
X67120517Y-86507805D01*
X67084301Y-86489352D01*
X66990524Y-86474500D01*
X66627482Y-86474500D01*
X66546519Y-86487323D01*
X66533696Y-86489354D01*
X66420658Y-86546950D01*
X66420657Y-86546951D01*
X66412759Y-86552689D01*
X66411775Y-86551334D01*
X66360358Y-86579411D01*
X66290666Y-86574427D01*
X66255750Y-86551987D01*
X66255241Y-86552689D01*
X66247345Y-86546953D01*
X66247342Y-86546950D01*
X66170517Y-86507805D01*
X66134301Y-86489352D01*
X66040524Y-86474500D01*
X65677482Y-86474500D01*
X65596519Y-86487323D01*
X65583696Y-86489354D01*
X65470658Y-86546950D01*
X65470657Y-86546951D01*
X65470652Y-86546954D01*
X65380954Y-86636652D01*
X65380951Y-86636657D01*
X65323352Y-86749698D01*
X65308500Y-86843475D01*
X65308500Y-86875500D01*
X65288815Y-86942539D01*
X65236011Y-86988294D01*
X65184500Y-86999500D01*
X64881277Y-86999500D01*
X64824982Y-86985985D01*
X64762171Y-86953981D01*
X64670735Y-86939500D01*
X64329260Y-86939500D01*
X64329260Y-86939501D01*
X64237829Y-86953981D01*
X64237828Y-86953981D01*
X64127607Y-87010142D01*
X64127603Y-87010145D01*
X64040145Y-87097603D01*
X64040142Y-87097608D01*
X63983981Y-87207827D01*
X63983981Y-87207828D01*
X63969500Y-87299264D01*
X63969500Y-87700739D01*
X63983981Y-87792170D01*
X63983982Y-87792174D01*
X64023487Y-87869706D01*
X64036383Y-87938375D01*
X64010106Y-88003115D01*
X63953000Y-88043372D01*
X63913002Y-88050000D01*
X61349999Y-88050000D01*
X58486319Y-90913681D01*
X58424996Y-90947166D01*
X58398638Y-90950000D01*
X50374500Y-90950000D01*
X50307461Y-90930315D01*
X50261706Y-90877511D01*
X50250500Y-90826000D01*
X50250500Y-85877525D01*
X62969500Y-85877525D01*
X62969500Y-86022475D01*
X62994342Y-86115185D01*
X63007017Y-86162488D01*
X63079488Y-86288011D01*
X63079490Y-86288013D01*
X63079491Y-86288015D01*
X63181985Y-86390509D01*
X63181986Y-86390510D01*
X63181988Y-86390511D01*
X63307511Y-86462982D01*
X63307512Y-86462982D01*
X63307515Y-86462984D01*
X63447525Y-86500500D01*
X63447528Y-86500500D01*
X63592472Y-86500500D01*
X63592475Y-86500500D01*
X63732485Y-86462984D01*
X63858015Y-86390509D01*
X63960509Y-86288015D01*
X64032984Y-86162485D01*
X64070500Y-86022475D01*
X64070500Y-85877525D01*
X64032984Y-85737515D01*
X63986220Y-85656518D01*
X63960511Y-85611988D01*
X63960506Y-85611982D01*
X63953068Y-85604544D01*
X63919583Y-85543221D01*
X63924567Y-85473529D01*
X63953067Y-85429182D01*
X63979859Y-85402391D01*
X64036017Y-85292175D01*
X64036017Y-85292173D01*
X64036018Y-85292172D01*
X64036018Y-85292171D01*
X64039901Y-85267650D01*
X64050500Y-85200735D01*
X64050499Y-84799266D01*
X64050499Y-84799264D01*
X64050499Y-84799260D01*
X64036018Y-84707829D01*
X64036018Y-84707828D01*
X64036017Y-84707826D01*
X64036017Y-84707825D01*
X63979859Y-84597609D01*
X63979857Y-84597607D01*
X63979854Y-84597603D01*
X63892396Y-84510145D01*
X63892393Y-84510143D01*
X63892391Y-84510141D01*
X63782175Y-84453983D01*
X63782174Y-84453982D01*
X63782171Y-84453981D01*
X63690735Y-84439500D01*
X63349260Y-84439500D01*
X63349260Y-84439501D01*
X63257829Y-84453981D01*
X63257828Y-84453981D01*
X63147607Y-84510142D01*
X63147603Y-84510145D01*
X63060145Y-84597603D01*
X63060142Y-84597608D01*
X63003981Y-84707827D01*
X63003981Y-84707828D01*
X62989500Y-84799264D01*
X62989500Y-85200739D01*
X63003981Y-85292170D01*
X63003981Y-85292171D01*
X63060142Y-85402392D01*
X63060145Y-85402396D01*
X63086931Y-85429182D01*
X63120416Y-85490505D01*
X63115432Y-85560197D01*
X63086935Y-85604541D01*
X63079491Y-85611984D01*
X63079488Y-85611988D01*
X63007017Y-85737511D01*
X63007016Y-85737515D01*
X62969500Y-85877525D01*
X50250500Y-85877525D01*
X50250500Y-74274000D01*
X50270185Y-74206961D01*
X50322989Y-74161206D01*
X50374500Y-74150000D01*
X66798638Y-74150000D01*
X66865677Y-74169685D01*
G37*
%TD.AperFunction*%
%TD*%
%TA.AperFunction,Conductor*%
%TO.N,GND*%
G36*
X67002039Y-87407185D02*
G01*
X67047794Y-87459989D01*
X67059000Y-87511500D01*
X67059000Y-88547295D01*
X67059001Y-88547295D01*
X67061486Y-88547100D01*
X67219198Y-88501281D01*
X67360550Y-88417686D01*
X67360559Y-88417679D01*
X67436420Y-88341819D01*
X67463347Y-88327115D01*
X67489166Y-88310523D01*
X67495366Y-88309631D01*
X67497743Y-88308334D01*
X67524101Y-88305500D01*
X67533806Y-88305500D01*
X67600845Y-88325185D01*
X67646600Y-88377989D01*
X67656544Y-88447147D01*
X67627519Y-88510703D01*
X67621487Y-88517181D01*
X66680487Y-89458181D01*
X66619164Y-89491666D01*
X66592806Y-89494500D01*
X63055220Y-89494500D01*
X63021242Y-89496770D01*
X63021233Y-89496771D01*
X62988560Y-89501155D01*
X62981909Y-89502137D01*
X62888474Y-89536883D01*
X62828994Y-89573545D01*
X62818843Y-89582012D01*
X62781814Y-89612897D01*
X62773137Y-89620134D01*
X60591913Y-92043717D01*
X60578749Y-92059591D01*
X60566593Y-92075515D01*
X60524534Y-92158561D01*
X60504850Y-92225596D01*
X60504848Y-92225604D01*
X60494500Y-92297581D01*
X60494500Y-92481799D01*
X60497101Y-92518163D01*
X60502128Y-92553130D01*
X60503577Y-92562076D01*
X60503579Y-92562081D01*
X60503580Y-92562085D01*
X60505635Y-92567308D01*
X60510016Y-92580605D01*
X60516189Y-92603642D01*
X60516189Y-92603643D01*
X60536647Y-92679991D01*
X60540775Y-92695396D01*
X60545000Y-92727490D01*
X60545000Y-92772510D01*
X60540775Y-92804603D01*
X60506927Y-92930923D01*
X60504220Y-92948285D01*
X60503219Y-92952018D01*
X60503218Y-92952026D01*
X60497557Y-92995000D01*
X60494500Y-93018202D01*
X60494500Y-97481805D01*
X60503194Y-97547883D01*
X60504233Y-97551763D01*
X60504623Y-97553257D01*
X60517361Y-97603328D01*
X60516189Y-97603643D01*
X60540981Y-97696166D01*
X60541172Y-97696916D01*
X60541129Y-97698087D01*
X60545000Y-97727490D01*
X60545000Y-97772510D01*
X60540775Y-97804603D01*
X60506927Y-97930923D01*
X60504220Y-97948285D01*
X60503219Y-97952018D01*
X60494500Y-98018202D01*
X60494500Y-99625500D01*
X60474815Y-99692539D01*
X60422011Y-99738294D01*
X60370500Y-99749500D01*
X55002706Y-99749500D01*
X54997297Y-99749382D01*
X54591460Y-99731663D01*
X54580685Y-99730720D01*
X54360592Y-99701744D01*
X54180629Y-99678051D01*
X54169977Y-99676173D01*
X53861802Y-99607853D01*
X53776022Y-99588836D01*
X53765579Y-99586038D01*
X53380733Y-99464696D01*
X53370570Y-99460997D01*
X53315434Y-99438159D01*
X53151326Y-99370183D01*
X52997773Y-99306579D01*
X52987969Y-99302007D01*
X52630057Y-99115690D01*
X52620689Y-99110282D01*
X52280361Y-98893469D01*
X52271500Y-98887264D01*
X51951372Y-98641621D01*
X51943085Y-98634667D01*
X51645587Y-98362061D01*
X51637938Y-98354412D01*
X51365332Y-98056914D01*
X51358378Y-98048627D01*
X51112735Y-97728499D01*
X51106530Y-97719638D01*
X51101131Y-97711164D01*
X50889716Y-97379309D01*
X50884309Y-97369942D01*
X50858316Y-97320009D01*
X50697989Y-97012024D01*
X50693420Y-97002226D01*
X50655314Y-96910230D01*
X50538996Y-96629414D01*
X50535307Y-96619279D01*
X50413956Y-96234405D01*
X50411167Y-96223993D01*
X50323823Y-95830010D01*
X50321950Y-95819386D01*
X50269277Y-95419293D01*
X50268337Y-95408558D01*
X50250618Y-95002701D01*
X50250500Y-94997293D01*
X50250500Y-94830491D01*
X51549500Y-94830491D01*
X51549500Y-95169508D01*
X51582729Y-95506901D01*
X51648870Y-95839410D01*
X51747284Y-96163841D01*
X51877024Y-96477060D01*
X51877026Y-96477065D01*
X52036831Y-96776039D01*
X52036842Y-96776057D01*
X52225184Y-97057930D01*
X52225194Y-97057944D01*
X52440269Y-97320014D01*
X52679985Y-97559730D01*
X52679990Y-97559734D01*
X52679991Y-97559735D01*
X52942061Y-97774810D01*
X53223949Y-97963162D01*
X53223958Y-97963167D01*
X53223960Y-97963168D01*
X53522934Y-98122973D01*
X53522936Y-98122973D01*
X53522942Y-98122977D01*
X53836160Y-98252716D01*
X54160586Y-98351129D01*
X54493096Y-98417270D01*
X54830488Y-98450500D01*
X54830491Y-98450500D01*
X55169509Y-98450500D01*
X55169512Y-98450500D01*
X55506904Y-98417270D01*
X55839414Y-98351129D01*
X56163840Y-98252716D01*
X56477058Y-98122977D01*
X56776051Y-97963162D01*
X57057939Y-97774810D01*
X57320009Y-97559735D01*
X57559735Y-97320009D01*
X57774810Y-97057939D01*
X57963162Y-96776051D01*
X58122977Y-96477058D01*
X58252716Y-96163840D01*
X58351129Y-95839414D01*
X58417270Y-95506904D01*
X58450500Y-95169512D01*
X58450500Y-94830488D01*
X58417270Y-94493096D01*
X58351129Y-94160586D01*
X58252716Y-93836160D01*
X58122977Y-93522942D01*
X58113419Y-93505061D01*
X57963168Y-93223960D01*
X57963167Y-93223958D01*
X57963162Y-93223949D01*
X57774810Y-92942061D01*
X57559735Y-92679991D01*
X57559734Y-92679990D01*
X57559730Y-92679985D01*
X57320014Y-92440269D01*
X57057944Y-92225194D01*
X57057943Y-92225193D01*
X57057939Y-92225190D01*
X56776051Y-92036838D01*
X56776046Y-92036835D01*
X56776039Y-92036831D01*
X56477065Y-91877026D01*
X56477060Y-91877024D01*
X56449026Y-91865412D01*
X56315965Y-91810296D01*
X56163841Y-91747284D01*
X55909766Y-91670212D01*
X55839414Y-91648871D01*
X55839411Y-91648870D01*
X55839410Y-91648870D01*
X55506901Y-91582729D01*
X55269199Y-91559318D01*
X55169512Y-91549500D01*
X54830488Y-91549500D01*
X54739738Y-91558437D01*
X54493098Y-91582729D01*
X54160589Y-91648870D01*
X53836158Y-91747284D01*
X53522939Y-91877024D01*
X53522934Y-91877026D01*
X53223960Y-92036831D01*
X53223942Y-92036842D01*
X52942069Y-92225184D01*
X52942055Y-92225194D01*
X52679985Y-92440269D01*
X52440269Y-92679985D01*
X52225194Y-92942055D01*
X52225184Y-92942069D01*
X52036842Y-93223942D01*
X52036831Y-93223960D01*
X51877026Y-93522934D01*
X51877024Y-93522939D01*
X51747284Y-93836158D01*
X51648870Y-94160589D01*
X51582729Y-94493098D01*
X51549500Y-94830491D01*
X50250500Y-94830491D01*
X50250500Y-91329500D01*
X50270185Y-91262461D01*
X50322989Y-91216706D01*
X50374500Y-91205500D01*
X58398639Y-91205500D01*
X58400075Y-91205422D01*
X58425952Y-91204036D01*
X58452310Y-91201202D01*
X58547444Y-91171413D01*
X58608767Y-91137928D01*
X58666985Y-91094347D01*
X61419512Y-88341818D01*
X61480835Y-88308334D01*
X61507193Y-88305500D01*
X63913006Y-88305500D01*
X63954748Y-88302065D01*
X63954752Y-88302064D01*
X63954771Y-88302063D01*
X63994769Y-88295435D01*
X64009092Y-88292639D01*
X64100213Y-88252199D01*
X64157319Y-88211942D01*
X64192055Y-88182488D01*
X64235572Y-88116342D01*
X64288860Y-88071160D01*
X64339156Y-88060499D01*
X64670734Y-88060499D01*
X64670739Y-88060499D01*
X64670739Y-88060498D01*
X64716454Y-88053258D01*
X64762170Y-88046018D01*
X64762172Y-88046017D01*
X64762175Y-88046017D01*
X64800502Y-88026488D01*
X64824983Y-88014015D01*
X64881277Y-88000500D01*
X65234728Y-88000500D01*
X65301767Y-88020185D01*
X65345212Y-88068204D01*
X65380949Y-88138340D01*
X65380954Y-88138347D01*
X65470652Y-88228045D01*
X65470654Y-88228046D01*
X65470658Y-88228050D01*
X65563715Y-88275465D01*
X65583698Y-88285647D01*
X65677475Y-88300499D01*
X65677481Y-88300500D01*
X66040518Y-88300499D01*
X66064218Y-88296745D01*
X66133509Y-88305698D01*
X66171299Y-88331537D01*
X66257442Y-88417681D01*
X66257447Y-88417685D01*
X66398801Y-88501281D01*
X66556514Y-88547100D01*
X66556511Y-88547100D01*
X66558998Y-88547295D01*
X66559000Y-88547295D01*
X66559000Y-87511500D01*
X66578685Y-87444461D01*
X66631489Y-87398706D01*
X66683000Y-87387500D01*
X66935000Y-87387500D01*
X67002039Y-87407185D01*
G37*
%TD.AperFunction*%
%TA.AperFunction,Conductor*%
G36*
X74248255Y-90523777D02*
G01*
X74306118Y-90562938D01*
X74333623Y-90627167D01*
X74334500Y-90641889D01*
X74334500Y-90815658D01*
X74349614Y-90891641D01*
X74349614Y-90891642D01*
X74370333Y-90922649D01*
X74403602Y-90972441D01*
X74424480Y-91039116D01*
X74424500Y-91041330D01*
X74424500Y-91501144D01*
X74446361Y-91582730D01*
X74448386Y-91590288D01*
X74494530Y-91670212D01*
X74545182Y-91720864D01*
X74552101Y-91731344D01*
X74558819Y-91753222D01*
X74569785Y-91773305D01*
X74568878Y-91785982D01*
X74572610Y-91798135D01*
X74566433Y-91820170D01*
X74564801Y-91842997D01*
X74557182Y-91853174D01*
X74553752Y-91865412D01*
X74536644Y-91880609D01*
X74522929Y-91898930D01*
X74502703Y-91910758D01*
X74501516Y-91911814D01*
X74500674Y-91911945D01*
X74498706Y-91913097D01*
X74416485Y-91949401D01*
X74334401Y-92031485D01*
X74287512Y-92137678D01*
X74287510Y-92137683D01*
X74286866Y-92143241D01*
X74259585Y-92207565D01*
X74201858Y-92246928D01*
X74132015Y-92248832D01*
X74100877Y-92230000D01*
X73530000Y-92230000D01*
X73530000Y-92758789D01*
X73550910Y-92757145D01*
X73706195Y-92712031D01*
X73845374Y-92629721D01*
X73845383Y-92629714D01*
X73959714Y-92515383D01*
X73959721Y-92515374D01*
X74042031Y-92376195D01*
X74045131Y-92369033D01*
X74046857Y-92369780D01*
X74079026Y-92319406D01*
X74142497Y-92290197D01*
X74211684Y-92299940D01*
X74264621Y-92345541D01*
X74284499Y-92412523D01*
X74284500Y-92412883D01*
X74284500Y-93346348D01*
X74284502Y-93346372D01*
X74287510Y-93372314D01*
X74287513Y-93372324D01*
X74334400Y-93478513D01*
X74388181Y-93532294D01*
X74421666Y-93593617D01*
X74424500Y-93619975D01*
X74424500Y-94171144D01*
X74445495Y-94249500D01*
X74448386Y-94260288D01*
X74494530Y-94340212D01*
X75034787Y-94880469D01*
X75114712Y-94926614D01*
X75203856Y-94950500D01*
X75203858Y-94950500D01*
X77196142Y-94950500D01*
X77196144Y-94950500D01*
X77285288Y-94926614D01*
X77365212Y-94880470D01*
X78037819Y-94207863D01*
X78099142Y-94174378D01*
X78168834Y-94179362D01*
X78224767Y-94221234D01*
X78249184Y-94286698D01*
X78249500Y-94295544D01*
X78249500Y-99165701D01*
X78252401Y-99202567D01*
X78252402Y-99202573D01*
X78298254Y-99360393D01*
X78298255Y-99360396D01*
X78298256Y-99360398D01*
X78304043Y-99370183D01*
X78381917Y-99501862D01*
X78381923Y-99501870D01*
X78417872Y-99537819D01*
X78451357Y-99599142D01*
X78446373Y-99668834D01*
X78404501Y-99724767D01*
X78339037Y-99749184D01*
X78330191Y-99749500D01*
X72629500Y-99749500D01*
X72562461Y-99729815D01*
X72516706Y-99677011D01*
X72505500Y-99625500D01*
X72505500Y-97812235D01*
X72505500Y-97812233D01*
X72505459Y-97807674D01*
X72505380Y-97803247D01*
X72492346Y-97727118D01*
X72470281Y-97660824D01*
X72470280Y-97660821D01*
X72470277Y-97660813D01*
X72452104Y-97619066D01*
X72452102Y-97619064D01*
X72452101Y-97619060D01*
X72452097Y-97619055D01*
X72452095Y-97619052D01*
X72388172Y-97542566D01*
X72333771Y-97498729D01*
X72333765Y-97498724D01*
X72271224Y-97461619D01*
X72271221Y-97461618D01*
X72158400Y-97414887D01*
X72136963Y-97403429D01*
X72085342Y-97368938D01*
X72085341Y-97368937D01*
X72085339Y-97368936D01*
X72064194Y-97357995D01*
X72034820Y-97342796D01*
X72034815Y-97342794D01*
X72034813Y-97342793D01*
X71999499Y-97329261D01*
X71983565Y-97323155D01*
X71955334Y-97314177D01*
X71955324Y-97314176D01*
X71855786Y-97308842D01*
X71855780Y-97308842D01*
X71786617Y-97318787D01*
X71786615Y-97318787D01*
X71742307Y-97329258D01*
X71742299Y-97329261D01*
X71655677Y-97378587D01*
X71655673Y-97378590D01*
X71602871Y-97424342D01*
X71571243Y-97457119D01*
X71525034Y-97545456D01*
X71525033Y-97545456D01*
X71505351Y-97612488D01*
X71505348Y-97612500D01*
X71495000Y-97684477D01*
X71495000Y-99138568D01*
X71490100Y-99172995D01*
X71490076Y-99173164D01*
X71469764Y-99243076D01*
X71457420Y-99271601D01*
X71422561Y-99330544D01*
X71403541Y-99355073D01*
X71401461Y-99357154D01*
X71395158Y-99363685D01*
X71389110Y-99370179D01*
X71389105Y-99370186D01*
X71343686Y-99438156D01*
X71343680Y-99438168D01*
X71314664Y-99501704D01*
X71314659Y-99501716D01*
X71299507Y-99544667D01*
X71299506Y-99544674D01*
X71294819Y-99632136D01*
X71271575Y-99698026D01*
X71216399Y-99740889D01*
X71170997Y-99749500D01*
X67829942Y-99749500D01*
X67762903Y-99729815D01*
X67717148Y-99677011D01*
X67706883Y-99620156D01*
X67706132Y-99620136D01*
X67706206Y-99617355D01*
X67705393Y-99571833D01*
X67705392Y-99571824D01*
X67683487Y-99501870D01*
X67675604Y-99476694D01*
X67642119Y-99415371D01*
X67598538Y-99357153D01*
X67598533Y-99357148D01*
X67598525Y-99357139D01*
X67596484Y-99355098D01*
X67577435Y-99330542D01*
X67542575Y-99271596D01*
X67530234Y-99243076D01*
X67509924Y-99173168D01*
X67505000Y-99138573D01*
X67505000Y-93861424D01*
X67509924Y-93826829D01*
X67518465Y-93797431D01*
X67530235Y-93756919D01*
X67542574Y-93728405D01*
X67577439Y-93669449D01*
X67596483Y-93644900D01*
X67644901Y-93596481D01*
X67669452Y-93577437D01*
X67728400Y-93542575D01*
X67756913Y-93530236D01*
X67826833Y-93509922D01*
X67861425Y-93505000D01*
X68586903Y-93505000D01*
X68586917Y-93505000D01*
X68616038Y-93503335D01*
X68644123Y-93500113D01*
X68645940Y-93499898D01*
X68740642Y-93468753D01*
X68801481Y-93434395D01*
X68801494Y-93434385D01*
X68802482Y-93433828D01*
X68870536Y-93418001D01*
X68910915Y-93427239D01*
X68928219Y-93434407D01*
X69152975Y-93494630D01*
X69383659Y-93525000D01*
X69616341Y-93525000D01*
X69847024Y-93494630D01*
X70071780Y-93434407D01*
X70087837Y-93427756D01*
X70157306Y-93420286D01*
X70192762Y-93432438D01*
X70274059Y-93474965D01*
X70341098Y-93494650D01*
X70341102Y-93494650D01*
X70341104Y-93494651D01*
X70352735Y-93496323D01*
X70413083Y-93505000D01*
X71138572Y-93505000D01*
X71173160Y-93509923D01*
X71173167Y-93509924D01*
X71243074Y-93530234D01*
X71271597Y-93542576D01*
X71330539Y-93577434D01*
X71355098Y-93596484D01*
X71403513Y-93644900D01*
X71422563Y-93669459D01*
X71457419Y-93728397D01*
X71469763Y-93756921D01*
X71479575Y-93790693D01*
X71490076Y-93826837D01*
X71495000Y-93861431D01*
X71495000Y-95815522D01*
X71501333Y-95872057D01*
X71501334Y-95872060D01*
X71513477Y-95925577D01*
X71513481Y-95925589D01*
X71521696Y-95954036D01*
X71572561Y-96039765D01*
X71572564Y-96039769D01*
X71572566Y-96039772D01*
X71572569Y-96039775D01*
X71619246Y-96091741D01*
X71619252Y-96091747D01*
X71619256Y-96091751D01*
X71652591Y-96122787D01*
X71741737Y-96167411D01*
X71809117Y-96185896D01*
X71853940Y-96193983D01*
X71853944Y-96193982D01*
X71853947Y-96193983D01*
X71903500Y-96188654D01*
X71953060Y-96183326D01*
X72019737Y-96162448D01*
X72085339Y-96131062D01*
X72136953Y-96096574D01*
X72158392Y-96085115D01*
X72177980Y-96077001D01*
X72271226Y-96038379D01*
X72275434Y-96036592D01*
X72279493Y-96034825D01*
X72344828Y-95993654D01*
X72397632Y-95947899D01*
X72429257Y-95915125D01*
X72475465Y-95826790D01*
X72476067Y-95824742D01*
X72484066Y-95797497D01*
X72495150Y-95759751D01*
X72505500Y-95687766D01*
X72505500Y-92719960D01*
X72525185Y-92652921D01*
X72577989Y-92607166D01*
X72647147Y-92597222D01*
X72708292Y-92625146D01*
X72708456Y-92624936D01*
X72709348Y-92625628D01*
X72710703Y-92626247D01*
X72713480Y-92628833D01*
X72714625Y-92629721D01*
X72853804Y-92712031D01*
X73009089Y-92757145D01*
X73030000Y-92758789D01*
X73030000Y-92104000D01*
X73049685Y-92036961D01*
X73102489Y-91991206D01*
X73154000Y-91980000D01*
X73280000Y-91980000D01*
X73280000Y-91854000D01*
X73299685Y-91786961D01*
X73352489Y-91741206D01*
X73404000Y-91730000D01*
X74084504Y-91730000D01*
X74042031Y-91583804D01*
X73959721Y-91444625D01*
X73959717Y-91444620D01*
X73866762Y-91351666D01*
X73833277Y-91290343D01*
X73831970Y-91244589D01*
X73840500Y-91190735D01*
X73840499Y-90849266D01*
X73840499Y-90849265D01*
X73840499Y-90849260D01*
X73826018Y-90757829D01*
X73826017Y-90757825D01*
X73812244Y-90730794D01*
X73799348Y-90662125D01*
X73825625Y-90597385D01*
X73882732Y-90557128D01*
X73922729Y-90550500D01*
X74072473Y-90550500D01*
X74072475Y-90550500D01*
X74178407Y-90522115D01*
X74248255Y-90523777D01*
G37*
%TD.AperFunction*%
%TA.AperFunction,Conductor*%
G36*
X95002702Y-50250618D02*
G01*
X95015967Y-50251197D01*
X95408558Y-50268337D01*
X95419293Y-50269277D01*
X95819386Y-50321950D01*
X95830010Y-50323823D01*
X96223993Y-50411167D01*
X96234405Y-50413956D01*
X96619279Y-50535307D01*
X96629414Y-50538996D01*
X97002232Y-50693423D01*
X97012024Y-50697989D01*
X97273887Y-50834306D01*
X97369942Y-50884309D01*
X97379310Y-50889717D01*
X97719638Y-51106530D01*
X97728499Y-51112735D01*
X98048627Y-51358378D01*
X98056914Y-51365332D01*
X98354412Y-51637938D01*
X98362061Y-51645587D01*
X98634667Y-51943085D01*
X98641621Y-51951372D01*
X98887264Y-52271500D01*
X98893469Y-52280361D01*
X99110282Y-52620689D01*
X99115690Y-52630057D01*
X99302007Y-52987969D01*
X99306579Y-52997773D01*
X99460997Y-53370570D01*
X99464697Y-53380735D01*
X99586037Y-53765575D01*
X99588837Y-53776025D01*
X99676173Y-54169977D01*
X99678051Y-54180629D01*
X99730720Y-54580683D01*
X99731663Y-54591460D01*
X99747324Y-54950172D01*
X99749382Y-54997297D01*
X99749500Y-55002706D01*
X99749500Y-94997293D01*
X99749382Y-95002702D01*
X99731663Y-95408539D01*
X99730720Y-95419316D01*
X99678051Y-95819370D01*
X99676173Y-95830022D01*
X99588837Y-96223974D01*
X99586037Y-96234424D01*
X99464697Y-96619264D01*
X99460997Y-96629429D01*
X99306579Y-97002226D01*
X99302007Y-97012030D01*
X99115690Y-97369942D01*
X99110282Y-97379310D01*
X98893469Y-97719638D01*
X98887264Y-97728499D01*
X98641621Y-98048627D01*
X98634667Y-98056914D01*
X98362061Y-98354412D01*
X98354412Y-98362061D01*
X98056914Y-98634667D01*
X98048627Y-98641621D01*
X97728499Y-98887264D01*
X97719638Y-98893469D01*
X97379310Y-99110282D01*
X97369942Y-99115690D01*
X97012030Y-99302007D01*
X97002226Y-99306579D01*
X96629429Y-99460997D01*
X96619264Y-99464697D01*
X96234424Y-99586037D01*
X96223974Y-99588837D01*
X95830022Y-99676173D01*
X95819370Y-99678051D01*
X95419316Y-99730720D01*
X95408539Y-99731663D01*
X95002703Y-99749382D01*
X94997294Y-99749500D01*
X82669809Y-99749500D01*
X82602770Y-99729815D01*
X82557015Y-99677011D01*
X82547071Y-99607853D01*
X82576096Y-99544297D01*
X82582128Y-99537819D01*
X82618076Y-99501870D01*
X82618081Y-99501865D01*
X82701744Y-99360398D01*
X82747598Y-99202569D01*
X82750500Y-99165694D01*
X82750500Y-93834306D01*
X82747598Y-93797431D01*
X82731459Y-93741882D01*
X82706501Y-93655976D01*
X82701744Y-93639602D01*
X82618081Y-93498135D01*
X82618079Y-93498133D01*
X82618076Y-93498129D01*
X82501870Y-93381923D01*
X82501862Y-93381917D01*
X82360396Y-93298255D01*
X82360393Y-93298254D01*
X82202573Y-93252402D01*
X82202567Y-93252401D01*
X82165701Y-93249500D01*
X82165694Y-93249500D01*
X81413083Y-93249500D01*
X81382824Y-93240615D01*
X81352106Y-93233471D01*
X81349554Y-93230845D01*
X81346044Y-93229815D01*
X81325400Y-93205990D01*
X81303412Y-93183365D01*
X81302684Y-93179775D01*
X81300289Y-93177011D01*
X81295801Y-93145800D01*
X81289538Y-93114886D01*
X81290865Y-93111475D01*
X81290345Y-93107853D01*
X81303448Y-93079160D01*
X81314889Y-93049778D01*
X81318445Y-93046321D01*
X81319370Y-93044297D01*
X81340199Y-93025181D01*
X81345708Y-93021178D01*
X81345711Y-93021176D01*
X81355864Y-93013799D01*
X81493796Y-92913586D01*
X81663586Y-92743796D01*
X81804724Y-92549536D01*
X81913736Y-92335589D01*
X81987937Y-92107222D01*
X82025500Y-91870059D01*
X82025500Y-91629941D01*
X81987937Y-91392778D01*
X81913736Y-91164411D01*
X81913734Y-91164408D01*
X81913734Y-91164406D01*
X81828303Y-90996740D01*
X81804724Y-90950464D01*
X81663586Y-90756204D01*
X81493796Y-90586414D01*
X81299536Y-90445276D01*
X81282204Y-90436445D01*
X81085593Y-90336265D01*
X80857222Y-90262063D01*
X80797734Y-90252641D01*
X80620059Y-90224500D01*
X80379941Y-90224500D01*
X80261359Y-90243281D01*
X80142777Y-90262063D01*
X79914403Y-90336266D01*
X79855994Y-90366028D01*
X79787325Y-90378924D01*
X79722585Y-90352647D01*
X79682328Y-90295541D01*
X79679336Y-90225735D01*
X79712017Y-90167864D01*
X82282819Y-87597063D01*
X82344142Y-87563578D01*
X82413834Y-87568562D01*
X82469767Y-87610434D01*
X82494184Y-87675898D01*
X82494500Y-87684744D01*
X82494500Y-90198639D01*
X82495963Y-90225934D01*
X82495967Y-90225988D01*
X82498797Y-90252310D01*
X82498798Y-90252312D01*
X82528586Y-90347441D01*
X82528590Y-90347451D01*
X82562068Y-90408761D01*
X82562073Y-90408769D01*
X82605649Y-90466980D01*
X82605665Y-90466998D01*
X83071333Y-90932665D01*
X83533015Y-91394347D01*
X83553365Y-91412626D01*
X83553371Y-91412631D01*
X83553379Y-91412638D01*
X83574000Y-91429255D01*
X83574002Y-91429256D01*
X83574007Y-91429260D01*
X83662338Y-91475465D01*
X83662341Y-91475466D01*
X83663674Y-91476163D01*
X83713953Y-91524679D01*
X83730021Y-91592676D01*
X83729138Y-91602222D01*
X83725000Y-91633656D01*
X83725000Y-91866340D01*
X83755369Y-92097024D01*
X83815592Y-92321779D01*
X83904632Y-92536740D01*
X83904636Y-92536750D01*
X84020970Y-92738248D01*
X84080551Y-92815894D01*
X84745884Y-92150560D01*
X84746740Y-92152626D01*
X84839762Y-92291844D01*
X84958156Y-92410238D01*
X85097374Y-92503260D01*
X85099437Y-92504114D01*
X84434104Y-93169446D01*
X84434104Y-93169447D01*
X84511752Y-93229029D01*
X84713249Y-93345363D01*
X84713259Y-93345367D01*
X84928220Y-93434407D01*
X85152975Y-93494630D01*
X85383659Y-93525000D01*
X85616341Y-93525000D01*
X85847024Y-93494630D01*
X86071779Y-93434407D01*
X86286740Y-93345367D01*
X86286750Y-93345363D01*
X86488255Y-93229024D01*
X86565894Y-93169447D01*
X86565894Y-93169446D01*
X85900562Y-92504114D01*
X85902626Y-92503260D01*
X86041844Y-92410238D01*
X86160238Y-92291844D01*
X86253260Y-92152626D01*
X86254114Y-92150562D01*
X86919446Y-92815894D01*
X86919447Y-92815894D01*
X86979024Y-92738255D01*
X87095363Y-92536750D01*
X87095367Y-92536740D01*
X87184407Y-92321779D01*
X87244630Y-92097024D01*
X87275000Y-91866340D01*
X87275000Y-91629601D01*
X87277152Y-91629601D01*
X87290292Y-91569833D01*
X87339806Y-91520537D01*
X87398993Y-91505500D01*
X93797275Y-91505500D01*
X93864314Y-91525185D01*
X93910069Y-91577989D01*
X93920013Y-91647147D01*
X93890988Y-91710703D01*
X93838504Y-91744798D01*
X93839027Y-91746258D01*
X93836165Y-91747281D01*
X93522939Y-91877024D01*
X93522934Y-91877026D01*
X93223960Y-92036831D01*
X93223942Y-92036842D01*
X92942069Y-92225184D01*
X92942055Y-92225194D01*
X92679985Y-92440269D01*
X92440269Y-92679985D01*
X92225194Y-92942055D01*
X92225184Y-92942069D01*
X92036842Y-93223942D01*
X92036831Y-93223960D01*
X91877026Y-93522934D01*
X91877024Y-93522939D01*
X91747284Y-93836158D01*
X91648870Y-94160589D01*
X91582729Y-94493098D01*
X91549500Y-94830491D01*
X91549500Y-95169508D01*
X91582729Y-95506901D01*
X91648870Y-95839410D01*
X91747284Y-96163841D01*
X91877024Y-96477060D01*
X91877026Y-96477065D01*
X92036831Y-96776039D01*
X92036842Y-96776057D01*
X92225184Y-97057930D01*
X92225194Y-97057944D01*
X92440269Y-97320014D01*
X92679985Y-97559730D01*
X92679990Y-97559734D01*
X92679991Y-97559735D01*
X92942061Y-97774810D01*
X93223949Y-97963162D01*
X93223958Y-97963167D01*
X93223960Y-97963168D01*
X93522934Y-98122973D01*
X93522936Y-98122973D01*
X93522942Y-98122977D01*
X93836160Y-98252716D01*
X94160586Y-98351129D01*
X94493096Y-98417270D01*
X94830488Y-98450500D01*
X94830491Y-98450500D01*
X95169509Y-98450500D01*
X95169512Y-98450500D01*
X95506904Y-98417270D01*
X95839414Y-98351129D01*
X96163840Y-98252716D01*
X96477058Y-98122977D01*
X96776051Y-97963162D01*
X97057939Y-97774810D01*
X97320009Y-97559735D01*
X97559735Y-97320009D01*
X97774810Y-97057939D01*
X97963162Y-96776051D01*
X98122977Y-96477058D01*
X98252716Y-96163840D01*
X98351129Y-95839414D01*
X98417270Y-95506904D01*
X98450500Y-95169512D01*
X98450500Y-94830488D01*
X98417270Y-94493096D01*
X98351129Y-94160586D01*
X98252716Y-93836160D01*
X98122977Y-93522942D01*
X98113419Y-93505061D01*
X97963168Y-93223960D01*
X97963167Y-93223958D01*
X97963162Y-93223949D01*
X97774810Y-92942061D01*
X97559735Y-92679991D01*
X97559734Y-92679990D01*
X97559730Y-92679985D01*
X97320014Y-92440269D01*
X97057944Y-92225194D01*
X97057943Y-92225193D01*
X97057939Y-92225190D01*
X96776051Y-92036838D01*
X96776046Y-92036835D01*
X96776039Y-92036831D01*
X96477065Y-91877026D01*
X96477060Y-91877024D01*
X96449026Y-91865412D01*
X96315965Y-91810296D01*
X96163841Y-91747284D01*
X95909766Y-91670212D01*
X95839414Y-91648871D01*
X95839411Y-91648870D01*
X95839410Y-91648870D01*
X95506901Y-91582729D01*
X95269199Y-91559318D01*
X95169512Y-91549500D01*
X94986195Y-91549500D01*
X94919156Y-91529815D01*
X94873401Y-91477011D01*
X94863457Y-91407853D01*
X94892482Y-91344297D01*
X94898514Y-91337819D01*
X95499947Y-90736384D01*
X95621059Y-90615272D01*
X95631074Y-90604668D01*
X95640501Y-90594098D01*
X95686567Y-90520114D01*
X95712841Y-90455372D01*
X95726140Y-90411803D01*
X95727201Y-90312118D01*
X95727200Y-90312117D01*
X95727201Y-90312115D01*
X95718758Y-90267180D01*
X95718151Y-90263678D01*
X95716333Y-90252202D01*
X95716335Y-90252202D01*
X95706525Y-90190264D01*
X95705000Y-90170878D01*
X95705000Y-89829126D01*
X95706522Y-89809759D01*
X95707234Y-89805259D01*
X95713376Y-89781712D01*
X95714128Y-89779673D01*
X95714135Y-89779660D01*
X95734926Y-89723307D01*
X95748441Y-89667013D01*
X95755500Y-89607368D01*
X95755500Y-89392631D01*
X95752899Y-89356269D01*
X95747876Y-89321334D01*
X95746416Y-89312325D01*
X95742048Y-89301224D01*
X95740206Y-89296230D01*
X95737962Y-89289718D01*
X95738048Y-89289698D01*
X95734927Y-89276697D01*
X95714137Y-89220342D01*
X95713887Y-89219853D01*
X95712474Y-89215750D01*
X95712421Y-89214625D01*
X95707234Y-89194740D01*
X95706525Y-89190261D01*
X95705000Y-89170874D01*
X95705000Y-88829126D01*
X95706522Y-88809759D01*
X95707234Y-88805259D01*
X95713376Y-88781712D01*
X95714128Y-88779673D01*
X95714135Y-88779660D01*
X95734926Y-88723307D01*
X95748441Y-88667013D01*
X95755500Y-88607368D01*
X95755500Y-88392631D01*
X95752899Y-88356269D01*
X95747876Y-88321334D01*
X95746416Y-88312325D01*
X95742048Y-88301224D01*
X95740206Y-88296230D01*
X95737962Y-88289718D01*
X95738048Y-88289698D01*
X95734927Y-88276697D01*
X95714137Y-88220342D01*
X95713887Y-88219853D01*
X95712474Y-88215750D01*
X95712421Y-88214625D01*
X95707234Y-88194740D01*
X95706525Y-88190261D01*
X95705000Y-88170874D01*
X95705000Y-87829126D01*
X95706522Y-87809759D01*
X95707234Y-87805259D01*
X95713376Y-87781712D01*
X95714128Y-87779673D01*
X95714135Y-87779660D01*
X95734926Y-87723307D01*
X95748441Y-87667013D01*
X95755500Y-87607368D01*
X95755500Y-77801362D01*
X95754036Y-77774048D01*
X95751202Y-77747690D01*
X95721413Y-77652556D01*
X95687928Y-77591233D01*
X95685029Y-77587361D01*
X95644350Y-77533019D01*
X95644349Y-77533018D01*
X95644347Y-77533015D01*
X95644342Y-77533010D01*
X95644334Y-77533001D01*
X95216998Y-77105666D01*
X95216997Y-77105665D01*
X95216985Y-77105653D01*
X95196635Y-77087374D01*
X95196629Y-77087369D01*
X95196620Y-77087361D01*
X95175999Y-77070744D01*
X95175996Y-77070742D01*
X95175993Y-77070740D01*
X95087662Y-77024535D01*
X95087659Y-77024534D01*
X95020624Y-77004850D01*
X95020616Y-77004848D01*
X94948639Y-76994500D01*
X94948638Y-76994500D01*
X94649500Y-76994500D01*
X94582461Y-76974815D01*
X94536706Y-76922011D01*
X94525500Y-76870500D01*
X94525500Y-73983676D01*
X94534144Y-73954235D01*
X94540668Y-73924249D01*
X94544422Y-73919233D01*
X94545185Y-73916637D01*
X94561819Y-73895995D01*
X94670995Y-73786819D01*
X94732318Y-73753334D01*
X94758676Y-73750500D01*
X94823920Y-73750500D01*
X94921462Y-73731096D01*
X94968913Y-73721658D01*
X95100751Y-73667049D01*
X95105488Y-73665087D01*
X95105488Y-73665086D01*
X95105495Y-73665084D01*
X95228416Y-73582951D01*
X95274547Y-73536820D01*
X95335870Y-73503334D01*
X95362229Y-73500500D01*
X96765890Y-73500500D01*
X96765892Y-73500500D01*
X96893186Y-73466392D01*
X97007314Y-73400500D01*
X97687999Y-72719815D01*
X97697497Y-72703365D01*
X97753892Y-72605686D01*
X97771360Y-72540495D01*
X97788000Y-72478393D01*
X97788000Y-72346608D01*
X97788000Y-71943571D01*
X97807685Y-71876532D01*
X97837691Y-71844303D01*
X97841467Y-71841476D01*
X97841467Y-71841475D01*
X97841472Y-71841472D01*
X97922336Y-71733450D01*
X97969491Y-71607022D01*
X97974747Y-71558137D01*
X97975499Y-71551144D01*
X97975500Y-71551129D01*
X97975500Y-70948870D01*
X97975499Y-70948855D01*
X97970419Y-70901611D01*
X97969491Y-70892978D01*
X97952569Y-70847609D01*
X97922337Y-70766552D01*
X97922335Y-70766549D01*
X97841472Y-70658528D01*
X97733450Y-70577664D01*
X97733447Y-70577662D01*
X97607024Y-70530509D01*
X97551144Y-70524500D01*
X97551130Y-70524500D01*
X97023870Y-70524500D01*
X97023855Y-70524500D01*
X96967975Y-70530509D01*
X96960421Y-70532294D01*
X96960072Y-70530817D01*
X96899133Y-70535171D01*
X96837812Y-70501682D01*
X96804332Y-70440356D01*
X96801500Y-70414007D01*
X96801500Y-70085992D01*
X96821185Y-70018953D01*
X96873989Y-69973198D01*
X96943147Y-69963254D01*
X96962648Y-69968232D01*
X96967975Y-69969490D01*
X96967978Y-69969491D01*
X96997318Y-69972645D01*
X97023855Y-69975499D01*
X97023870Y-69975500D01*
X97551130Y-69975500D01*
X97551144Y-69975499D01*
X97573023Y-69973146D01*
X97607022Y-69969491D01*
X97733450Y-69922336D01*
X97841472Y-69841472D01*
X97894833Y-69770190D01*
X97898488Y-69767453D01*
X97900387Y-69763297D01*
X97926202Y-69746706D01*
X97950766Y-69728318D01*
X97956396Y-69727302D01*
X97959165Y-69725523D01*
X97994100Y-69720500D01*
X98072711Y-69720500D01*
X98120162Y-69729938D01*
X98127513Y-69732983D01*
X98127515Y-69732984D01*
X98267525Y-69770500D01*
X98267528Y-69770500D01*
X98412472Y-69770500D01*
X98412475Y-69770500D01*
X98552485Y-69732984D01*
X98678015Y-69660509D01*
X98780509Y-69558015D01*
X98852984Y-69432485D01*
X98890500Y-69292475D01*
X98890500Y-69147525D01*
X98852984Y-69007515D01*
X98851445Y-69004850D01*
X98780511Y-68881988D01*
X98780506Y-68881982D01*
X98678017Y-68779493D01*
X98678011Y-68779488D01*
X98552488Y-68707017D01*
X98552489Y-68707017D01*
X98530276Y-68701065D01*
X98412475Y-68669500D01*
X98267525Y-68669500D01*
X98189459Y-68690418D01*
X98127513Y-68707016D01*
X98120162Y-68710062D01*
X98111985Y-68711688D01*
X98107646Y-68714477D01*
X98072711Y-68719500D01*
X97949185Y-68719500D01*
X97882146Y-68699815D01*
X97849919Y-68669812D01*
X97841472Y-68658528D01*
X97733450Y-68577664D01*
X97733447Y-68577662D01*
X97607024Y-68530509D01*
X97551144Y-68524500D01*
X97551130Y-68524500D01*
X97023870Y-68524500D01*
X97023855Y-68524500D01*
X96967975Y-68530509D01*
X96850951Y-68574156D01*
X96781259Y-68579140D01*
X96719937Y-68545655D01*
X96141463Y-67967181D01*
X96107978Y-67905858D01*
X96112962Y-67836166D01*
X96154834Y-67780233D01*
X96220298Y-67755816D01*
X96229144Y-67755500D01*
X97448639Y-67755500D01*
X97450075Y-67755422D01*
X97475952Y-67754036D01*
X97502310Y-67751202D01*
X97597444Y-67721413D01*
X97658767Y-67687928D01*
X97716985Y-67644347D01*
X98394347Y-66966985D01*
X98412626Y-66946635D01*
X98429260Y-66925993D01*
X98475465Y-66837662D01*
X98495150Y-66770623D01*
X98505500Y-66698638D01*
X98505500Y-63301362D01*
X98504036Y-63274048D01*
X98501202Y-63247690D01*
X98471413Y-63152556D01*
X98437928Y-63091233D01*
X98394347Y-63033015D01*
X98394342Y-63033010D01*
X98394334Y-63033001D01*
X98025477Y-62664145D01*
X98002672Y-62632757D01*
X97989860Y-62607611D01*
X97989859Y-62607609D01*
X97902391Y-62520141D01*
X97902390Y-62520140D01*
X97902389Y-62520139D01*
X97877238Y-62507324D01*
X97845853Y-62484521D01*
X97767484Y-62406152D01*
X97747150Y-62387886D01*
X97747129Y-62387868D01*
X97726564Y-62371296D01*
X97726493Y-62371239D01*
X97726484Y-62371233D01*
X97638160Y-62325033D01*
X97638151Y-62325030D01*
X97571126Y-62305350D01*
X97571110Y-62305346D01*
X97499136Y-62294999D01*
X97329137Y-62294999D01*
X97309738Y-62293472D01*
X97305233Y-62292758D01*
X97281720Y-62286623D01*
X97279656Y-62285861D01*
X97279655Y-62285861D01*
X97259934Y-62278586D01*
X97223294Y-62265069D01*
X97167020Y-62251561D01*
X97167003Y-62251557D01*
X97107374Y-62244500D01*
X97107368Y-62244500D01*
X96642632Y-62244500D01*
X96582987Y-62251559D01*
X96582983Y-62251559D01*
X96582982Y-62251560D01*
X96526693Y-62265074D01*
X96526683Y-62265077D01*
X96468282Y-62286622D01*
X96444778Y-62292757D01*
X96443018Y-62293035D01*
X96440275Y-62293470D01*
X96420867Y-62294999D01*
X96079138Y-62294999D01*
X96059719Y-62293469D01*
X96055216Y-62292755D01*
X96031720Y-62286622D01*
X95973297Y-62265070D01*
X95917020Y-62251561D01*
X95917003Y-62251557D01*
X95857374Y-62244500D01*
X95857368Y-62244500D01*
X89051362Y-62244500D01*
X89051361Y-62244500D01*
X89024065Y-62245963D01*
X89024060Y-62245963D01*
X89024048Y-62245964D01*
X89024040Y-62245964D01*
X89024011Y-62245967D01*
X88997689Y-62248797D01*
X88997687Y-62248798D01*
X88902558Y-62278586D01*
X88902548Y-62278590D01*
X88841238Y-62312068D01*
X88841230Y-62312073D01*
X88783023Y-62355646D01*
X88783005Y-62355662D01*
X88476151Y-62662515D01*
X88476143Y-62662523D01*
X88457877Y-62682860D01*
X88457862Y-62682877D01*
X88441236Y-62703511D01*
X88395034Y-62791837D01*
X88375350Y-62858874D01*
X88375348Y-62858882D01*
X88365000Y-62930859D01*
X88365000Y-63022509D01*
X88360774Y-63054605D01*
X88349119Y-63098099D01*
X88336732Y-63128004D01*
X88314219Y-63166997D01*
X88294515Y-63192675D01*
X88250542Y-63236649D01*
X88248314Y-63239130D01*
X88247207Y-63238136D01*
X88194639Y-63274600D01*
X88124813Y-63277062D01*
X88064740Y-63241383D01*
X88063583Y-63240000D01*
X86437156Y-63240000D01*
X86477595Y-63379194D01*
X86559261Y-63517285D01*
X86559268Y-63517294D01*
X86665587Y-63623613D01*
X86699072Y-63684936D01*
X86694088Y-63754628D01*
X86690761Y-63762368D01*
X86690419Y-63763476D01*
X86690418Y-63763481D01*
X86690418Y-63763482D01*
X86679500Y-63838418D01*
X86679500Y-64181582D01*
X86684003Y-64212488D01*
X86690418Y-64256519D01*
X86713952Y-64304658D01*
X86725710Y-64373531D01*
X86698367Y-64437828D01*
X86640602Y-64477135D01*
X86570757Y-64478973D01*
X86548091Y-64470519D01*
X86486519Y-64440418D01*
X86468741Y-64437828D01*
X86411582Y-64429500D01*
X86068418Y-64429500D01*
X85993482Y-64440418D01*
X85993480Y-64440418D01*
X85993478Y-64440419D01*
X85877900Y-64496921D01*
X85877897Y-64496923D01*
X85786926Y-64587895D01*
X85780956Y-64596257D01*
X85777908Y-64594081D01*
X85743650Y-64631559D01*
X85679404Y-64649500D01*
X83758325Y-64649500D01*
X83691286Y-64629815D01*
X83645531Y-64577011D01*
X83635587Y-64507853D01*
X83661772Y-64447695D01*
X83665947Y-64442513D01*
X83679260Y-64425993D01*
X83725465Y-64337662D01*
X83745150Y-64270623D01*
X83755500Y-64198638D01*
X83755500Y-63407193D01*
X83775185Y-63340154D01*
X83791819Y-63319512D01*
X84183442Y-62927889D01*
X84644347Y-62466985D01*
X84662626Y-62446635D01*
X84679260Y-62425993D01*
X84725465Y-62337662D01*
X84725467Y-62337656D01*
X84727747Y-62332011D01*
X84730081Y-62332953D01*
X84761872Y-62283442D01*
X84825416Y-62254391D01*
X84894578Y-62264307D01*
X84947401Y-62310040D01*
X84950492Y-62315108D01*
X84969491Y-62348015D01*
X85071985Y-62450509D01*
X85071986Y-62450510D01*
X85071988Y-62450511D01*
X85197511Y-62522982D01*
X85197512Y-62522982D01*
X85197515Y-62522984D01*
X85337525Y-62560500D01*
X85337528Y-62560500D01*
X85482472Y-62560500D01*
X85482475Y-62560500D01*
X85622485Y-62522984D01*
X85720279Y-62466522D01*
X85788176Y-62450050D01*
X85836737Y-62462509D01*
X85881764Y-62484521D01*
X85953482Y-62519582D01*
X86028418Y-62530500D01*
X86028423Y-62530500D01*
X86332868Y-62530500D01*
X86399907Y-62550185D01*
X86445662Y-62602989D01*
X86455606Y-62672147D01*
X86451945Y-62689095D01*
X86437156Y-62740000D01*
X87000000Y-62740000D01*
X87500000Y-62740000D01*
X88062845Y-62740000D01*
X88062844Y-62739999D01*
X88022405Y-62600806D01*
X88000119Y-62563123D01*
X87982935Y-62495399D01*
X88000119Y-62436877D01*
X88022405Y-62399193D01*
X88062844Y-62260000D01*
X87500000Y-62260000D01*
X87500000Y-62740000D01*
X87000000Y-62740000D01*
X87000000Y-62134000D01*
X87019685Y-62066961D01*
X87072489Y-62021206D01*
X87124000Y-62010000D01*
X87250000Y-62010000D01*
X87250000Y-61884000D01*
X87269685Y-61816961D01*
X87322489Y-61771206D01*
X87374000Y-61760000D01*
X88062845Y-61760000D01*
X88062844Y-61759999D01*
X88055867Y-61735982D01*
X88056066Y-61666113D01*
X88094008Y-61607443D01*
X88157646Y-61578599D01*
X88207034Y-61581611D01*
X88277525Y-61600500D01*
X88277528Y-61600500D01*
X88422472Y-61600500D01*
X88422475Y-61600500D01*
X88562485Y-61562984D01*
X88688015Y-61490509D01*
X88790509Y-61388015D01*
X88862984Y-61262485D01*
X88900500Y-61122475D01*
X88900500Y-60977525D01*
X88862984Y-60837515D01*
X88854597Y-60822989D01*
X88790511Y-60711988D01*
X88790506Y-60711982D01*
X88688017Y-60609493D01*
X88688011Y-60609488D01*
X88562488Y-60537017D01*
X88562489Y-60537017D01*
X88551006Y-60533940D01*
X88422475Y-60499500D01*
X88277525Y-60499500D01*
X88148993Y-60533940D01*
X88137511Y-60537017D01*
X88011988Y-60609488D01*
X88011982Y-60609493D01*
X87958295Y-60663181D01*
X87931367Y-60677884D01*
X87905549Y-60694477D01*
X87899348Y-60695368D01*
X87896972Y-60696666D01*
X87870614Y-60699500D01*
X87865485Y-60699500D01*
X87798446Y-60679815D01*
X87759438Y-60635978D01*
X87759046Y-60636259D01*
X87756438Y-60632606D01*
X87754085Y-60629962D01*
X87753076Y-60627898D01*
X87753074Y-60627896D01*
X87753074Y-60627895D01*
X87662102Y-60536923D01*
X87662099Y-60536921D01*
X87546521Y-60480419D01*
X87546519Y-60480418D01*
X87546518Y-60480418D01*
X87471582Y-60469500D01*
X87471577Y-60469500D01*
X87437676Y-60469500D01*
X87370637Y-60449815D01*
X87324882Y-60397011D01*
X87314938Y-60327853D01*
X87343963Y-60264297D01*
X87349995Y-60257819D01*
X87858314Y-59749500D01*
X88375500Y-59232314D01*
X88441392Y-59118186D01*
X88450056Y-59085851D01*
X88486420Y-59026193D01*
X88545639Y-58996330D01*
X88597736Y-58985967D01*
X88597737Y-58985966D01*
X88597740Y-58985966D01*
X88680601Y-58930601D01*
X88721898Y-58868793D01*
X88775509Y-58823990D01*
X88844834Y-58815282D01*
X88907862Y-58845436D01*
X88928099Y-58868791D01*
X88969399Y-58930601D01*
X89036405Y-58975372D01*
X89052260Y-58985966D01*
X89052264Y-58985967D01*
X89125321Y-59000499D01*
X89125324Y-59000500D01*
X89125326Y-59000500D01*
X91574676Y-59000500D01*
X91574677Y-59000499D01*
X91647740Y-58985966D01*
X91730601Y-58930601D01*
X91785966Y-58847740D01*
X91800500Y-58774674D01*
X91800500Y-57225326D01*
X91800500Y-57225323D01*
X91800499Y-57225321D01*
X91785967Y-57152264D01*
X91785966Y-57152260D01*
X91782511Y-57147089D01*
X91730601Y-57069399D01*
X91647740Y-57014034D01*
X91647739Y-57014033D01*
X91647735Y-57014032D01*
X91574677Y-56999500D01*
X91574674Y-56999500D01*
X91014666Y-56999500D01*
X90947627Y-56979815D01*
X90901872Y-56927011D01*
X90891928Y-56857853D01*
X90894891Y-56843407D01*
X90900500Y-56822475D01*
X90900500Y-56677525D01*
X90862984Y-56537515D01*
X90860244Y-56532770D01*
X90790511Y-56411988D01*
X90790506Y-56411982D01*
X90688017Y-56309493D01*
X90688011Y-56309488D01*
X90562488Y-56237017D01*
X90562489Y-56237017D01*
X90551006Y-56233940D01*
X90422475Y-56199500D01*
X90277525Y-56199500D01*
X90148993Y-56233940D01*
X90137511Y-56237017D01*
X90011988Y-56309488D01*
X90011982Y-56309493D01*
X89909493Y-56411982D01*
X89909488Y-56411988D01*
X89837017Y-56537511D01*
X89837016Y-56537515D01*
X89799500Y-56677525D01*
X89799500Y-56677527D01*
X89799500Y-56822474D01*
X89805109Y-56843407D01*
X89803446Y-56913257D01*
X89764283Y-56971119D01*
X89700055Y-56998623D01*
X89685334Y-56999500D01*
X89125323Y-56999500D01*
X89052264Y-57014032D01*
X89052260Y-57014033D01*
X88969398Y-57069399D01*
X88928102Y-57131205D01*
X88874490Y-57176010D01*
X88805165Y-57184717D01*
X88742138Y-57154563D01*
X88721898Y-57131205D01*
X88680601Y-57069399D01*
X88597739Y-57014033D01*
X88597735Y-57014032D01*
X88524677Y-56999500D01*
X88524674Y-56999500D01*
X87425326Y-56999500D01*
X87425323Y-56999500D01*
X87352264Y-57014032D01*
X87352260Y-57014033D01*
X87269399Y-57069399D01*
X87214033Y-57152260D01*
X87214032Y-57152264D01*
X87199500Y-57225321D01*
X87199500Y-57760996D01*
X87179815Y-57828035D01*
X87127011Y-57873790D01*
X87057853Y-57883734D01*
X86994297Y-57854709D01*
X86957569Y-57799315D01*
X86913734Y-57664406D01*
X86804723Y-57450463D01*
X86784407Y-57422500D01*
X86663586Y-57256204D01*
X86493796Y-57086414D01*
X86299536Y-56945276D01*
X86243920Y-56916938D01*
X86085593Y-56836265D01*
X85857222Y-56762063D01*
X85767074Y-56747785D01*
X85620059Y-56724500D01*
X85379941Y-56724500D01*
X85261359Y-56743281D01*
X85142777Y-56762063D01*
X84914406Y-56836265D01*
X84700463Y-56945276D01*
X84506205Y-57086413D01*
X84415765Y-57176853D01*
X84354441Y-57210337D01*
X84284750Y-57205353D01*
X84228816Y-57163481D01*
X84219252Y-57148598D01*
X84187931Y-57091238D01*
X84187926Y-57091230D01*
X84144350Y-57033019D01*
X84144349Y-57033018D01*
X84144347Y-57033015D01*
X84144342Y-57033010D01*
X84144334Y-57033001D01*
X83716998Y-56605666D01*
X83716997Y-56605665D01*
X83716985Y-56605653D01*
X83696635Y-56587374D01*
X83696629Y-56587369D01*
X83696620Y-56587361D01*
X83675999Y-56570744D01*
X83675996Y-56570742D01*
X83675993Y-56570740D01*
X83587662Y-56524535D01*
X83587659Y-56524534D01*
X83520624Y-56504850D01*
X83520616Y-56504848D01*
X83448639Y-56494500D01*
X83448638Y-56494500D01*
X82827937Y-56494500D01*
X82760898Y-56474815D01*
X82715143Y-56422011D01*
X82705199Y-56352853D01*
X82708861Y-56335905D01*
X82747597Y-56202573D01*
X82747598Y-56202567D01*
X82750500Y-56165694D01*
X82750500Y-54830491D01*
X91549500Y-54830491D01*
X91549500Y-55169508D01*
X91582729Y-55506901D01*
X91648870Y-55839410D01*
X91747284Y-56163841D01*
X91877024Y-56477060D01*
X91877026Y-56477065D01*
X92036831Y-56776039D01*
X92036842Y-56776057D01*
X92225184Y-57057930D01*
X92225194Y-57057944D01*
X92440269Y-57320014D01*
X92679985Y-57559730D01*
X92679990Y-57559734D01*
X92679991Y-57559735D01*
X92942061Y-57774810D01*
X93223949Y-57963162D01*
X93223958Y-57963167D01*
X93223960Y-57963168D01*
X93522934Y-58122973D01*
X93522936Y-58122973D01*
X93522942Y-58122977D01*
X93836160Y-58252716D01*
X94160586Y-58351129D01*
X94493096Y-58417270D01*
X94830488Y-58450500D01*
X94830491Y-58450500D01*
X95169509Y-58450500D01*
X95169512Y-58450500D01*
X95506904Y-58417270D01*
X95839414Y-58351129D01*
X96163840Y-58252716D01*
X96477058Y-58122977D01*
X96776051Y-57963162D01*
X97057939Y-57774810D01*
X97320009Y-57559735D01*
X97559735Y-57320009D01*
X97774810Y-57057939D01*
X97963162Y-56776051D01*
X98122977Y-56477058D01*
X98252716Y-56163840D01*
X98351129Y-55839414D01*
X98417270Y-55506904D01*
X98450500Y-55169512D01*
X98450500Y-54830488D01*
X98417270Y-54493096D01*
X98351129Y-54160586D01*
X98252716Y-53836160D01*
X98122977Y-53522942D01*
X97963162Y-53223949D01*
X97774810Y-52942061D01*
X97559735Y-52679991D01*
X97559734Y-52679990D01*
X97559730Y-52679985D01*
X97320014Y-52440269D01*
X97057944Y-52225194D01*
X97057943Y-52225193D01*
X97057939Y-52225190D01*
X96776051Y-52036838D01*
X96776046Y-52036835D01*
X96776039Y-52036831D01*
X96477065Y-51877026D01*
X96477060Y-51877024D01*
X96163841Y-51747284D01*
X95973382Y-51689509D01*
X95839414Y-51648871D01*
X95839411Y-51648870D01*
X95839410Y-51648870D01*
X95506901Y-51582729D01*
X95269199Y-51559318D01*
X95169512Y-51549500D01*
X94830488Y-51549500D01*
X94739738Y-51558437D01*
X94493098Y-51582729D01*
X94160589Y-51648870D01*
X93836158Y-51747284D01*
X93522939Y-51877024D01*
X93522934Y-51877026D01*
X93223960Y-52036831D01*
X93223942Y-52036842D01*
X92942069Y-52225184D01*
X92942055Y-52225194D01*
X92679985Y-52440269D01*
X92440269Y-52679985D01*
X92225194Y-52942055D01*
X92225184Y-52942069D01*
X92036842Y-53223942D01*
X92036831Y-53223960D01*
X91877026Y-53522934D01*
X91877024Y-53522939D01*
X91747284Y-53836158D01*
X91648870Y-54160589D01*
X91582729Y-54493098D01*
X91549500Y-54830491D01*
X82750500Y-54830491D01*
X82750500Y-50834306D01*
X82747598Y-50797431D01*
X82701744Y-50639602D01*
X82618081Y-50498135D01*
X82618079Y-50498133D01*
X82618076Y-50498129D01*
X82582128Y-50462181D01*
X82548643Y-50400858D01*
X82553627Y-50331166D01*
X82595499Y-50275233D01*
X82660963Y-50250816D01*
X82669809Y-50250500D01*
X94955830Y-50250500D01*
X94997294Y-50250500D01*
X95002702Y-50250618D01*
G37*
%TD.AperFunction*%
%TA.AperFunction,Conductor*%
G36*
X77371418Y-90424460D02*
G01*
X77384213Y-90425529D01*
X77404628Y-90436994D01*
X77404946Y-90436445D01*
X77537511Y-90512982D01*
X77537512Y-90512982D01*
X77537515Y-90512984D01*
X77677525Y-90550500D01*
X77677528Y-90550500D01*
X77775500Y-90550500D01*
X77842539Y-90570185D01*
X77888294Y-90622989D01*
X77899500Y-90674500D01*
X77899500Y-92503456D01*
X77879815Y-92570495D01*
X77863181Y-92591137D01*
X77495637Y-92958681D01*
X77434314Y-92992166D01*
X77407956Y-92995000D01*
X76849000Y-92995000D01*
X76781961Y-92975315D01*
X76736206Y-92922511D01*
X76725000Y-92871000D01*
X76725000Y-92755000D01*
X76689499Y-92755000D01*
X76622460Y-92735315D01*
X76576705Y-92682511D01*
X76565499Y-92631000D01*
X76565499Y-92515000D01*
X76965000Y-92515000D01*
X77464999Y-92515000D01*
X77464999Y-92166163D01*
X77454193Y-92076167D01*
X77397718Y-91932956D01*
X77304703Y-91810296D01*
X77182043Y-91717281D01*
X77038833Y-91660806D01*
X76965000Y-91651939D01*
X76965000Y-92515000D01*
X76565499Y-92515000D01*
X76565499Y-92163651D01*
X76565499Y-92163644D01*
X76562488Y-92137680D01*
X76535327Y-92076167D01*
X76515599Y-92031486D01*
X76509105Y-92022006D01*
X76511953Y-92020054D01*
X76487834Y-91975883D01*
X76485000Y-91949525D01*
X76485000Y-91651941D01*
X76411165Y-91660807D01*
X76411161Y-91660808D01*
X76338602Y-91689422D01*
X76269016Y-91695704D01*
X76207079Y-91663367D01*
X76205431Y-91661749D01*
X76004213Y-91460531D01*
X76004212Y-91460530D01*
X75963436Y-91436988D01*
X75945528Y-91418206D01*
X75924999Y-91402323D01*
X75921806Y-91393328D01*
X75915221Y-91386422D01*
X75910308Y-91360936D01*
X75901627Y-91336478D01*
X75903803Y-91327187D01*
X75901997Y-91317815D01*
X75911643Y-91293718D01*
X75917563Y-91268450D01*
X75925299Y-91259609D01*
X75927965Y-91252950D01*
X75939161Y-91240536D01*
X76047662Y-91135434D01*
X76070539Y-91123410D01*
X76091325Y-91108051D01*
X76104057Y-91105794D01*
X76109510Y-91102929D01*
X76116683Y-91103556D01*
X76133934Y-91100499D01*
X76301356Y-91100499D01*
X76327320Y-91097488D01*
X76349913Y-91087511D01*
X76419189Y-91078440D01*
X76450086Y-91087511D01*
X76472680Y-91097488D01*
X76498643Y-91100500D01*
X76951356Y-91100499D01*
X76959726Y-91099528D01*
X76977314Y-91097489D01*
X76977315Y-91097488D01*
X76977320Y-91097488D01*
X77083514Y-91050599D01*
X77165599Y-90968514D01*
X77212488Y-90862320D01*
X77215500Y-90836357D01*
X77215499Y-90541185D01*
X77219499Y-90527562D01*
X77218655Y-90513388D01*
X77229146Y-90494706D01*
X77235183Y-90474148D01*
X77245914Y-90464848D01*
X77252868Y-90452468D01*
X77271793Y-90442424D01*
X77287987Y-90428393D01*
X77302042Y-90426372D01*
X77314585Y-90419716D01*
X77335936Y-90421498D01*
X77357146Y-90418449D01*
X77371418Y-90424460D01*
G37*
%TD.AperFunction*%
%TA.AperFunction,Conductor*%
G36*
X63713039Y-85019685D02*
G01*
X63758794Y-85072489D01*
X63770000Y-85124000D01*
X63770000Y-85207751D01*
X63750315Y-85274790D01*
X63742555Y-85285552D01*
X63738141Y-85291029D01*
X63738124Y-85291052D01*
X63709630Y-85335390D01*
X63709622Y-85335404D01*
X63696091Y-85359165D01*
X63669718Y-85455301D01*
X63669717Y-85455308D01*
X63664734Y-85524984D01*
X63664733Y-85525007D01*
X63665546Y-85570529D01*
X63665547Y-85570538D01*
X63691198Y-85652454D01*
X63695336Y-85665669D01*
X63695338Y-85665673D01*
X63695339Y-85665675D01*
X63728821Y-85726993D01*
X63737782Y-85738964D01*
X63745895Y-85751265D01*
X63753384Y-85764235D01*
X63764284Y-85804911D01*
X63798104Y-85850219D01*
X63801637Y-85861296D01*
X63810774Y-85895393D01*
X63815000Y-85927489D01*
X63815000Y-85972509D01*
X63810774Y-86004605D01*
X63799119Y-86048099D01*
X63786732Y-86078004D01*
X63764219Y-86116997D01*
X63744513Y-86142677D01*
X63712677Y-86174513D01*
X63686996Y-86194219D01*
X63648001Y-86216733D01*
X63618098Y-86229120D01*
X63597951Y-86234518D01*
X63574606Y-86240774D01*
X63542513Y-86245000D01*
X63497489Y-86245000D01*
X63465393Y-86240774D01*
X63421900Y-86229119D01*
X63391997Y-86216733D01*
X63363225Y-86200122D01*
X63353002Y-86194219D01*
X63327325Y-86174516D01*
X63295477Y-86142668D01*
X63275776Y-86116993D01*
X63253267Y-86078007D01*
X63240879Y-86048098D01*
X63229225Y-86004603D01*
X63225000Y-85972511D01*
X63225000Y-85927486D01*
X63229225Y-85895395D01*
X63238360Y-85861300D01*
X63273781Y-85803183D01*
X63273487Y-85797037D01*
X63286595Y-85764267D01*
X63287133Y-85763333D01*
X63297992Y-85747492D01*
X63301878Y-85742671D01*
X63330375Y-85698327D01*
X63343907Y-85674562D01*
X63370281Y-85578422D01*
X63375265Y-85508730D01*
X63374452Y-85463193D01*
X63374451Y-85463191D01*
X63374451Y-85463187D01*
X63360053Y-85417209D01*
X63344663Y-85368057D01*
X63311178Y-85306734D01*
X63299439Y-85291052D01*
X63294730Y-85284761D01*
X63286993Y-85264015D01*
X63275023Y-85245389D01*
X63271870Y-85223464D01*
X63270316Y-85219296D01*
X63270000Y-85210454D01*
X63270000Y-85124000D01*
X63289685Y-85056961D01*
X63342489Y-85011206D01*
X63394000Y-85000000D01*
X63646000Y-85000000D01*
X63713039Y-85019685D01*
G37*
%TD.AperFunction*%
%TA.AperFunction,Conductor*%
G36*
X92263834Y-81334362D02*
G01*
X92319767Y-81376234D01*
X92344184Y-81441698D01*
X92344500Y-81450544D01*
X92344500Y-83592806D01*
X92324815Y-83659845D01*
X92308181Y-83680487D01*
X91230487Y-84758181D01*
X91169164Y-84791666D01*
X91142806Y-84794500D01*
X84251361Y-84794500D01*
X84224065Y-84795963D01*
X84224060Y-84795963D01*
X84224048Y-84795964D01*
X84224040Y-84795964D01*
X84224011Y-84795967D01*
X84197689Y-84798797D01*
X84197687Y-84798798D01*
X84102558Y-84828586D01*
X84102548Y-84828590D01*
X84041238Y-84862068D01*
X84041230Y-84862073D01*
X83983019Y-84905649D01*
X83983001Y-84905665D01*
X82912181Y-85976486D01*
X82850858Y-86009971D01*
X82781166Y-86004987D01*
X82725233Y-85963115D01*
X82700816Y-85897651D01*
X82700500Y-85888805D01*
X82700500Y-84096544D01*
X82720185Y-84029505D01*
X82736819Y-84008863D01*
X83108863Y-83636819D01*
X83170186Y-83603334D01*
X83196544Y-83600500D01*
X89796142Y-83600500D01*
X89796144Y-83600500D01*
X89885288Y-83576614D01*
X89905082Y-83565186D01*
X89905083Y-83565186D01*
X89965205Y-83530474D01*
X89965204Y-83530474D01*
X89965212Y-83530470D01*
X92132819Y-81362863D01*
X92194142Y-81329378D01*
X92263834Y-81334362D01*
G37*
%TD.AperFunction*%
%TA.AperFunction,Conductor*%
G36*
X62397230Y-50270185D02*
G01*
X62442985Y-50322989D01*
X62452929Y-50392147D01*
X62423904Y-50455703D01*
X62417872Y-50462181D01*
X62381923Y-50498129D01*
X62381917Y-50498137D01*
X62298255Y-50639603D01*
X62298254Y-50639606D01*
X62252402Y-50797426D01*
X62252401Y-50797432D01*
X62249500Y-50834298D01*
X62249500Y-56165701D01*
X62252401Y-56202567D01*
X62252402Y-56202573D01*
X62291139Y-56335905D01*
X62290940Y-56405775D01*
X62252998Y-56464445D01*
X62189359Y-56493288D01*
X62172063Y-56494500D01*
X61851361Y-56494500D01*
X61824065Y-56495963D01*
X61824060Y-56495963D01*
X61824048Y-56495964D01*
X61824040Y-56495964D01*
X61824011Y-56495967D01*
X61797689Y-56498797D01*
X61797687Y-56498798D01*
X61702558Y-56528586D01*
X61702548Y-56528590D01*
X61641238Y-56562068D01*
X61641230Y-56562073D01*
X61583019Y-56605649D01*
X61583001Y-56605665D01*
X61155711Y-57032956D01*
X61094388Y-57066441D01*
X61024696Y-57061457D01*
X60999140Y-57048378D01*
X60947739Y-57014033D01*
X60947735Y-57014032D01*
X60874677Y-56999500D01*
X60874674Y-56999500D01*
X60314666Y-56999500D01*
X60247627Y-56979815D01*
X60201872Y-56927011D01*
X60191928Y-56857853D01*
X60194891Y-56843407D01*
X60200500Y-56822475D01*
X60200500Y-56677525D01*
X60162984Y-56537515D01*
X60160244Y-56532770D01*
X60090511Y-56411988D01*
X60090506Y-56411982D01*
X59988017Y-56309493D01*
X59988011Y-56309488D01*
X59862488Y-56237017D01*
X59862489Y-56237017D01*
X59851006Y-56233940D01*
X59722475Y-56199500D01*
X59577525Y-56199500D01*
X59448993Y-56233940D01*
X59437511Y-56237017D01*
X59311988Y-56309488D01*
X59311982Y-56309493D01*
X59209493Y-56411982D01*
X59209488Y-56411988D01*
X59137017Y-56537511D01*
X59137016Y-56537515D01*
X59099500Y-56677525D01*
X59099500Y-56677527D01*
X59099500Y-56822474D01*
X59105109Y-56843407D01*
X59103446Y-56913257D01*
X59064283Y-56971119D01*
X59000055Y-56998623D01*
X58985334Y-56999500D01*
X58425323Y-56999500D01*
X58352264Y-57014032D01*
X58352260Y-57014033D01*
X58269399Y-57069399D01*
X58214033Y-57152260D01*
X58214032Y-57152264D01*
X58199500Y-57225321D01*
X58199500Y-58774678D01*
X58214032Y-58847735D01*
X58214033Y-58847739D01*
X58222412Y-58860279D01*
X58269399Y-58930601D01*
X58336405Y-58975372D01*
X58352260Y-58985966D01*
X58352264Y-58985967D01*
X58425321Y-59000499D01*
X58425324Y-59000500D01*
X58425326Y-59000500D01*
X60874676Y-59000500D01*
X60896308Y-58996197D01*
X60965899Y-59002424D01*
X61021077Y-59045286D01*
X61044322Y-59111176D01*
X61044500Y-59117814D01*
X61044500Y-59698639D01*
X61045963Y-59725934D01*
X61045967Y-59725988D01*
X61048797Y-59752310D01*
X61048798Y-59752312D01*
X61078586Y-59847441D01*
X61078590Y-59847451D01*
X61112068Y-59908761D01*
X61112073Y-59908769D01*
X61155649Y-59966980D01*
X61155665Y-59966998D01*
X61446487Y-60257819D01*
X61583015Y-60394347D01*
X61603365Y-60412626D01*
X61603371Y-60412631D01*
X61603379Y-60412638D01*
X61624000Y-60429255D01*
X61624002Y-60429256D01*
X61624007Y-60429260D01*
X61712338Y-60475465D01*
X61779377Y-60495150D01*
X61779381Y-60495150D01*
X61779383Y-60495151D01*
X61791014Y-60496823D01*
X61851362Y-60505500D01*
X62118116Y-60505500D01*
X62185155Y-60525185D01*
X62230910Y-60577989D01*
X62240854Y-60647147D01*
X62229516Y-60683961D01*
X62200418Y-60743479D01*
X62200418Y-60743482D01*
X62189500Y-60818418D01*
X62189500Y-61161582D01*
X62200418Y-61236518D01*
X62200419Y-61236523D01*
X62203261Y-61245720D01*
X62201367Y-61246305D01*
X62211065Y-61303127D01*
X62183717Y-61367422D01*
X62175587Y-61376387D01*
X62069268Y-61482705D01*
X62069261Y-61482714D01*
X61987595Y-61620805D01*
X61947156Y-61760000D01*
X62636000Y-61760000D01*
X62703039Y-61779685D01*
X62748794Y-61832489D01*
X62760000Y-61884000D01*
X62760000Y-62010000D01*
X62886000Y-62010000D01*
X62953039Y-62029685D01*
X62998794Y-62082489D01*
X63010000Y-62134000D01*
X63010000Y-62848638D01*
X62993451Y-62910527D01*
X62983451Y-62927889D01*
X62981193Y-62930045D01*
X62980315Y-62933039D01*
X62956110Y-62954012D01*
X62932934Y-62976157D01*
X62929868Y-62976751D01*
X62927511Y-62978794D01*
X62876000Y-62990000D01*
X62750000Y-62990000D01*
X62750000Y-63116000D01*
X62730315Y-63183039D01*
X62677511Y-63228794D01*
X62626000Y-63240000D01*
X61937156Y-63240000D01*
X61977595Y-63379194D01*
X62059261Y-63517285D01*
X62059268Y-63517294D01*
X62165587Y-63623613D01*
X62199072Y-63684936D01*
X62194088Y-63754628D01*
X62190761Y-63762368D01*
X62190419Y-63763476D01*
X62190418Y-63763481D01*
X62190418Y-63763482D01*
X62179500Y-63838418D01*
X62179500Y-64181582D01*
X62190418Y-64256518D01*
X62190418Y-64256519D01*
X62190419Y-64256521D01*
X62246921Y-64372099D01*
X62246923Y-64372102D01*
X62287140Y-64412319D01*
X62320625Y-64473642D01*
X62315641Y-64543334D01*
X62292537Y-64579282D01*
X62292893Y-64579537D01*
X62287697Y-64586813D01*
X62287140Y-64587681D01*
X62286923Y-64587897D01*
X62286921Y-64587900D01*
X62230419Y-64703478D01*
X62230418Y-64703480D01*
X62230418Y-64703482D01*
X62219500Y-64778418D01*
X62219500Y-65221582D01*
X62230418Y-65296518D01*
X62230418Y-65296519D01*
X62230419Y-65296521D01*
X62286921Y-65412099D01*
X62286923Y-65412102D01*
X62377897Y-65503076D01*
X62377900Y-65503078D01*
X62485547Y-65555703D01*
X62493482Y-65559582D01*
X62568418Y-65570500D01*
X62568423Y-65570500D01*
X62911577Y-65570500D01*
X62911582Y-65570500D01*
X62986518Y-65559582D01*
X63044310Y-65531329D01*
X63102099Y-65503078D01*
X63102102Y-65503076D01*
X63162319Y-65442860D01*
X63223642Y-65409375D01*
X63293334Y-65414359D01*
X63337681Y-65442860D01*
X63397897Y-65503076D01*
X63397900Y-65503078D01*
X63505547Y-65555703D01*
X63513482Y-65559582D01*
X63588418Y-65570500D01*
X63588423Y-65570500D01*
X63931577Y-65570500D01*
X63931582Y-65570500D01*
X64006518Y-65559582D01*
X64064310Y-65531329D01*
X64122099Y-65503078D01*
X64122102Y-65503076D01*
X64213074Y-65412105D01*
X64219044Y-65403743D01*
X64222091Y-65405918D01*
X64256350Y-65368441D01*
X64320596Y-65350500D01*
X71640080Y-65350500D01*
X71707119Y-65370185D01*
X71752874Y-65422989D01*
X71762818Y-65492147D01*
X71733793Y-65555703D01*
X71703201Y-65581232D01*
X71672714Y-65599261D01*
X71672705Y-65599268D01*
X71559268Y-65712705D01*
X71559261Y-65712714D01*
X71477595Y-65850805D01*
X71437156Y-65990000D01*
X72000000Y-65990000D01*
X72000000Y-65458012D01*
X72019685Y-65390973D01*
X72072489Y-65345218D01*
X72091901Y-65338239D01*
X72135288Y-65326614D01*
X72215212Y-65280470D01*
X72387819Y-65107863D01*
X72405995Y-65097937D01*
X72421322Y-65084006D01*
X72436042Y-65081531D01*
X72449142Y-65074378D01*
X72469799Y-65075855D01*
X72490225Y-65072421D01*
X72503945Y-65078297D01*
X72518834Y-65079362D01*
X72535414Y-65091774D01*
X72554453Y-65099928D01*
X72562818Y-65112289D01*
X72574767Y-65121234D01*
X72582004Y-65140638D01*
X72593613Y-65157791D01*
X72597356Y-65181798D01*
X72599184Y-65186698D01*
X72599465Y-65192597D01*
X72599500Y-65194069D01*
X72599500Y-65314069D01*
X72602739Y-65330356D01*
X72602995Y-65341086D01*
X72596615Y-65364892D01*
X72594417Y-65389439D01*
X72587730Y-65398045D01*
X72584909Y-65408574D01*
X72566672Y-65425151D01*
X72551552Y-65444614D01*
X72541273Y-65448239D01*
X72533208Y-65455571D01*
X72511787Y-65459172D01*
X72500000Y-65470068D01*
X72500000Y-66116000D01*
X72480315Y-66183039D01*
X72427511Y-66228794D01*
X72376000Y-66240000D01*
X72250000Y-66240000D01*
X72250000Y-66366000D01*
X72230315Y-66433039D01*
X72177511Y-66478794D01*
X72126000Y-66490000D01*
X71437156Y-66490000D01*
X71477595Y-66629194D01*
X71559261Y-66767285D01*
X71559268Y-66767294D01*
X71665587Y-66873613D01*
X71699072Y-66934936D01*
X71694088Y-67004628D01*
X71690761Y-67012368D01*
X71690419Y-67013476D01*
X71690418Y-67013481D01*
X71690418Y-67013482D01*
X71679500Y-67088418D01*
X71679500Y-67431582D01*
X71690418Y-67506518D01*
X71690418Y-67506519D01*
X71690419Y-67506521D01*
X71746921Y-67622099D01*
X71746923Y-67622102D01*
X71812640Y-67687819D01*
X71823252Y-67707255D01*
X71837753Y-67723989D01*
X71839669Y-67737320D01*
X71846125Y-67749142D01*
X71844545Y-67771228D01*
X71847697Y-67793147D01*
X71842101Y-67805398D01*
X71841141Y-67818834D01*
X71827870Y-67836560D01*
X71818672Y-67856703D01*
X71807340Y-67863985D01*
X71799269Y-67874767D01*
X71778523Y-67882504D01*
X71759894Y-67894477D01*
X71737975Y-67897628D01*
X71733805Y-67899184D01*
X71724959Y-67899500D01*
X71570596Y-67899500D01*
X71503557Y-67879815D01*
X71471884Y-67844229D01*
X71469044Y-67846257D01*
X71463074Y-67837895D01*
X71372102Y-67746923D01*
X71372099Y-67746921D01*
X71256521Y-67690419D01*
X71256519Y-67690418D01*
X71256518Y-67690418D01*
X71181582Y-67679500D01*
X70838418Y-67679500D01*
X70763482Y-67690418D01*
X70763481Y-67690418D01*
X70763476Y-67690419D01*
X70754280Y-67693261D01*
X70753694Y-67691367D01*
X70696873Y-67701065D01*
X70632578Y-67673717D01*
X70623613Y-67665587D01*
X70517294Y-67559268D01*
X70517285Y-67559261D01*
X70379191Y-67477593D01*
X70379188Y-67477591D01*
X70240001Y-67437153D01*
X70240000Y-67437154D01*
X70240000Y-68315253D01*
X70267166Y-68365004D01*
X70270000Y-68391362D01*
X70270000Y-69126000D01*
X70250315Y-69193039D01*
X70197511Y-69238794D01*
X70146000Y-69250000D01*
X69871362Y-69250000D01*
X69841921Y-69241355D01*
X69811935Y-69234832D01*
X69806919Y-69231077D01*
X69804323Y-69230315D01*
X69783681Y-69213681D01*
X69776319Y-69206319D01*
X69742834Y-69144996D01*
X69740000Y-69118638D01*
X69740000Y-67437154D01*
X69739998Y-67437153D01*
X69600811Y-67477591D01*
X69600808Y-67477593D01*
X69497620Y-67538618D01*
X69429895Y-67555801D01*
X69363633Y-67533641D01*
X69319870Y-67479174D01*
X69310499Y-67431886D01*
X69310499Y-67349260D01*
X69296018Y-67257829D01*
X69296018Y-67257828D01*
X69296017Y-67257826D01*
X69296017Y-67257825D01*
X69239859Y-67147609D01*
X69239857Y-67147607D01*
X69239854Y-67147603D01*
X69152396Y-67060145D01*
X69152393Y-67060143D01*
X69152391Y-67060141D01*
X69042175Y-67003983D01*
X69042174Y-67003982D01*
X69042171Y-67003981D01*
X68950735Y-66989500D01*
X68549260Y-66989500D01*
X68549260Y-66989501D01*
X68457829Y-67003981D01*
X68457828Y-67003981D01*
X68347607Y-67060142D01*
X68339710Y-67065880D01*
X68337424Y-67062734D01*
X68292822Y-67087089D01*
X68223130Y-67082105D01*
X68178783Y-67053604D01*
X68162102Y-67036923D01*
X68162099Y-67036921D01*
X68046521Y-66980419D01*
X68046519Y-66980418D01*
X68046518Y-66980418D01*
X67971582Y-66969500D01*
X67528418Y-66969500D01*
X67453482Y-66980418D01*
X67453480Y-66980418D01*
X67443952Y-66981807D01*
X67443486Y-66978614D01*
X67390189Y-66979347D01*
X67330898Y-66942384D01*
X67301002Y-66879233D01*
X67303711Y-66827808D01*
X67310500Y-66802475D01*
X67310500Y-66657525D01*
X67272984Y-66517515D01*
X67260543Y-66495967D01*
X67200511Y-66391988D01*
X67200506Y-66391982D01*
X67098017Y-66289493D01*
X67098011Y-66289488D01*
X66972488Y-66217017D01*
X66972489Y-66217017D01*
X66960251Y-66213738D01*
X66832475Y-66179500D01*
X66687525Y-66179500D01*
X66559749Y-66213738D01*
X66547511Y-66217017D01*
X66421988Y-66289488D01*
X66421982Y-66289493D01*
X66319493Y-66391982D01*
X66319488Y-66391988D01*
X66247017Y-66517511D01*
X66244049Y-66528587D01*
X66209500Y-66657525D01*
X66209500Y-66802475D01*
X66247016Y-66942485D01*
X66268917Y-66980419D01*
X66270696Y-66983499D01*
X66287169Y-67051399D01*
X66264317Y-67117426D01*
X66209396Y-67160617D01*
X66163309Y-67169500D01*
X65803856Y-67169500D01*
X65714712Y-67193386D01*
X65714709Y-67193387D01*
X65634791Y-67239527D01*
X65634786Y-67239531D01*
X65119531Y-67754786D01*
X65119527Y-67754791D01*
X65083835Y-67816613D01*
X65073387Y-67834708D01*
X65073387Y-67834709D01*
X65073386Y-67834711D01*
X65073386Y-67834712D01*
X65063797Y-67870500D01*
X65049500Y-67923856D01*
X65049500Y-69316143D01*
X65065160Y-69374588D01*
X65073385Y-69405286D01*
X65119527Y-69485208D01*
X65119531Y-69485213D01*
X65308352Y-69674034D01*
X65341837Y-69735357D01*
X65336853Y-69805049D01*
X65308353Y-69849395D01*
X65260145Y-69897603D01*
X65260142Y-69897608D01*
X65260141Y-69897609D01*
X65241421Y-69934347D01*
X65203981Y-70007827D01*
X65203981Y-70007828D01*
X65189500Y-70099264D01*
X65189500Y-70440739D01*
X65203981Y-70532170D01*
X65203981Y-70532171D01*
X65203982Y-70532174D01*
X65203983Y-70532175D01*
X65245994Y-70614627D01*
X65260142Y-70642392D01*
X65260145Y-70642396D01*
X65280068Y-70662319D01*
X65313553Y-70723642D01*
X65308569Y-70793334D01*
X65280068Y-70837681D01*
X65260145Y-70857603D01*
X65260142Y-70857608D01*
X65260141Y-70857609D01*
X65251535Y-70874500D01*
X65203981Y-70967827D01*
X65203981Y-70967828D01*
X65189500Y-71059264D01*
X65189500Y-71400739D01*
X65203981Y-71492170D01*
X65203981Y-71492171D01*
X65203982Y-71492174D01*
X65203983Y-71492175D01*
X65259177Y-71600500D01*
X65260142Y-71602392D01*
X65260145Y-71602396D01*
X65347603Y-71689854D01*
X65347605Y-71689855D01*
X65347609Y-71689859D01*
X65457825Y-71746017D01*
X65457826Y-71746017D01*
X65457828Y-71746018D01*
X65492947Y-71751579D01*
X65549265Y-71760500D01*
X65950734Y-71760499D01*
X65950739Y-71760499D01*
X65950739Y-71760498D01*
X65997604Y-71753076D01*
X66042170Y-71746018D01*
X66042171Y-71746018D01*
X66042172Y-71746017D01*
X66042175Y-71746017D01*
X66152391Y-71689859D01*
X66152395Y-71689854D01*
X66160290Y-71684120D01*
X66162587Y-71687282D01*
X66207012Y-71662946D01*
X66276710Y-71667835D01*
X66321219Y-71696397D01*
X66337898Y-71713077D01*
X66337900Y-71713078D01*
X66448656Y-71767222D01*
X66453482Y-71769582D01*
X66528418Y-71780500D01*
X66528423Y-71780500D01*
X66971581Y-71780500D01*
X66971582Y-71780500D01*
X66980620Y-71779183D01*
X67049797Y-71788995D01*
X67086180Y-71814206D01*
X67172705Y-71900731D01*
X67172714Y-71900738D01*
X67310808Y-71982406D01*
X67310811Y-71982407D01*
X67464871Y-72027166D01*
X67464877Y-72027167D01*
X67500000Y-72029931D01*
X67500000Y-71384000D01*
X67519685Y-71316961D01*
X67572489Y-71271206D01*
X67624000Y-71260000D01*
X67876000Y-71260000D01*
X67943039Y-71279685D01*
X67988794Y-71332489D01*
X68000000Y-71384000D01*
X68000000Y-72029930D01*
X68035122Y-72027167D01*
X68042670Y-72024974D01*
X68112539Y-72025171D01*
X68171211Y-72063110D01*
X68194868Y-72115301D01*
X68197397Y-72114624D01*
X68199500Y-72122472D01*
X68199500Y-72122475D01*
X68237016Y-72262485D01*
X68237017Y-72262488D01*
X68309488Y-72388011D01*
X68309490Y-72388013D01*
X68309491Y-72388015D01*
X68411985Y-72490509D01*
X68411986Y-72490510D01*
X68411988Y-72490511D01*
X68537511Y-72562982D01*
X68537512Y-72562982D01*
X68537515Y-72562984D01*
X68677525Y-72600500D01*
X68677528Y-72600500D01*
X68822472Y-72600500D01*
X68822475Y-72600500D01*
X68962485Y-72562984D01*
X69088015Y-72490509D01*
X69190509Y-72388015D01*
X69262984Y-72262485D01*
X69291628Y-72155581D01*
X69327992Y-72095924D01*
X69390839Y-72065395D01*
X69460214Y-72073690D01*
X69513447Y-72117230D01*
X69518724Y-72124874D01*
X69536924Y-72162102D01*
X69561148Y-72186326D01*
X69567545Y-72195592D01*
X69575102Y-72218504D01*
X69586666Y-72239679D01*
X69588879Y-72260270D01*
X69589432Y-72261945D01*
X69589169Y-72262963D01*
X69589500Y-72266040D01*
X69589500Y-74067273D01*
X69589500Y-74172727D01*
X69595668Y-74195746D01*
X69616793Y-74274589D01*
X69643156Y-74320250D01*
X69669520Y-74365913D01*
X71224087Y-75920480D01*
X71315412Y-75973207D01*
X71417273Y-76000500D01*
X71417275Y-76000500D01*
X77552725Y-76000500D01*
X77552727Y-76000500D01*
X77654588Y-75973207D01*
X77745913Y-75920480D01*
X78199573Y-75466818D01*
X78260896Y-75433334D01*
X78287254Y-75430500D01*
X78292472Y-75430500D01*
X78292475Y-75430500D01*
X78432485Y-75392984D01*
X78558015Y-75320509D01*
X78660509Y-75218015D01*
X78732984Y-75092485D01*
X78770500Y-74952475D01*
X78770500Y-74807525D01*
X78732984Y-74667515D01*
X78688535Y-74590528D01*
X78660511Y-74541988D01*
X78660506Y-74541982D01*
X78558017Y-74439493D01*
X78558011Y-74439488D01*
X78432488Y-74367017D01*
X78432489Y-74367017D01*
X78396814Y-74357458D01*
X78292475Y-74329500D01*
X78147525Y-74329500D01*
X78043186Y-74357458D01*
X78007511Y-74367017D01*
X77881988Y-74439488D01*
X77881982Y-74439493D01*
X77779493Y-74541982D01*
X77779488Y-74541988D01*
X77707017Y-74667511D01*
X77707016Y-74667515D01*
X77669500Y-74807525D01*
X77669500Y-74807527D01*
X77669500Y-74812745D01*
X77649815Y-74879784D01*
X77633181Y-74900426D01*
X77370426Y-75163181D01*
X77309103Y-75196666D01*
X77282745Y-75199500D01*
X76615544Y-75199500D01*
X76548505Y-75179815D01*
X76502750Y-75127011D01*
X76492806Y-75057853D01*
X76521831Y-74994297D01*
X76527863Y-74987819D01*
X77560863Y-73954819D01*
X77622186Y-73921334D01*
X77648544Y-73918500D01*
X79120500Y-73918500D01*
X79187539Y-73938185D01*
X79233294Y-73990989D01*
X79244500Y-74042500D01*
X79244500Y-75312983D01*
X79246815Y-75347284D01*
X79246818Y-75347312D01*
X79246819Y-75347324D01*
X79249178Y-75364712D01*
X79251308Y-75380418D01*
X79252351Y-75387376D01*
X79252351Y-75387377D01*
X79287373Y-75480716D01*
X79324209Y-75540089D01*
X79340490Y-75559493D01*
X79370951Y-75595797D01*
X80366715Y-76486744D01*
X82794341Y-78658831D01*
X82809961Y-78671728D01*
X82821596Y-78680582D01*
X82825611Y-78683637D01*
X82825613Y-78683638D01*
X82825616Y-78683640D01*
X82908346Y-78725462D01*
X82908348Y-78725462D01*
X82908353Y-78725465D01*
X82975392Y-78745150D01*
X82975397Y-78745150D01*
X82975398Y-78745151D01*
X82987029Y-78746823D01*
X83047377Y-78755500D01*
X83047378Y-78755500D01*
X87452069Y-78755500D01*
X87463652Y-78755016D01*
X87473315Y-78754614D01*
X87493880Y-78752897D01*
X87584265Y-78728100D01*
X87647111Y-78697570D01*
X87707336Y-78656808D01*
X90192090Y-76397943D01*
X90254935Y-76367414D01*
X90324311Y-76375708D01*
X90378189Y-76420192D01*
X90399465Y-76486744D01*
X90399500Y-76489697D01*
X90399500Y-79553456D01*
X90379815Y-79620495D01*
X90363181Y-79641137D01*
X88641137Y-81363181D01*
X88579814Y-81396666D01*
X88553456Y-81399500D01*
X82453856Y-81399500D01*
X82364712Y-81423386D01*
X82364711Y-81423386D01*
X82364709Y-81423387D01*
X82364706Y-81423388D01*
X82284794Y-81469526D01*
X82284785Y-81469533D01*
X81217181Y-82537137D01*
X81155858Y-82570622D01*
X81086166Y-82565638D01*
X81030233Y-82523766D01*
X81005816Y-82458302D01*
X81005500Y-82449456D01*
X81005500Y-80051360D01*
X81005345Y-80048486D01*
X81004036Y-80024048D01*
X81001202Y-79997690D01*
X80971413Y-79902556D01*
X80937928Y-79841233D01*
X80894347Y-79783015D01*
X80894342Y-79783010D01*
X80894334Y-79783001D01*
X79716998Y-78605666D01*
X79716985Y-78605653D01*
X79696635Y-78587374D01*
X79696629Y-78587369D01*
X79696620Y-78587361D01*
X79675999Y-78570744D01*
X79675996Y-78570742D01*
X79675993Y-78570740D01*
X79587662Y-78524535D01*
X79587659Y-78524534D01*
X79520624Y-78504850D01*
X79520616Y-78504848D01*
X79448639Y-78494500D01*
X79448638Y-78494500D01*
X74157194Y-78494500D01*
X74090155Y-78474815D01*
X74069513Y-78458181D01*
X73216998Y-77605666D01*
X73216985Y-77605653D01*
X73196635Y-77587374D01*
X73196629Y-77587369D01*
X73196620Y-77587361D01*
X73175999Y-77570744D01*
X73175996Y-77570742D01*
X73175993Y-77570740D01*
X73087662Y-77524535D01*
X73087659Y-77524534D01*
X73020624Y-77504850D01*
X73020616Y-77504848D01*
X72948639Y-77494500D01*
X72948638Y-77494500D01*
X68801362Y-77494500D01*
X68801361Y-77494500D01*
X68774065Y-77495963D01*
X68774060Y-77495963D01*
X68774048Y-77495964D01*
X68774040Y-77495964D01*
X68774011Y-77495967D01*
X68747689Y-77498797D01*
X68747687Y-77498798D01*
X68652558Y-77528586D01*
X68652552Y-77528588D01*
X68638926Y-77536029D01*
X68570653Y-77550880D01*
X68505189Y-77526463D01*
X68463318Y-77470529D01*
X68455500Y-77427196D01*
X68455500Y-75551360D01*
X68455345Y-75548486D01*
X68454036Y-75524048D01*
X68451202Y-75497690D01*
X68421413Y-75402556D01*
X68416186Y-75392984D01*
X68387931Y-75341238D01*
X68387926Y-75341230D01*
X68344350Y-75283019D01*
X68344349Y-75283018D01*
X68344347Y-75283015D01*
X68344342Y-75283010D01*
X68344334Y-75283001D01*
X67066998Y-74005666D01*
X67066985Y-74005653D01*
X67046635Y-73987374D01*
X67046629Y-73987369D01*
X67046620Y-73987361D01*
X67025999Y-73970744D01*
X67025996Y-73970742D01*
X67025993Y-73970740D01*
X66937662Y-73924535D01*
X66919606Y-73919233D01*
X66870624Y-73904850D01*
X66870616Y-73904848D01*
X66798639Y-73894500D01*
X66798638Y-73894500D01*
X50374500Y-73894500D01*
X50307461Y-73874815D01*
X50261706Y-73822011D01*
X50250500Y-73770500D01*
X50250500Y-62740000D01*
X61937156Y-62740000D01*
X62500000Y-62740000D01*
X62500000Y-62260000D01*
X61947156Y-62260000D01*
X61987594Y-62399193D01*
X62004882Y-62428425D01*
X62022064Y-62496149D01*
X62004882Y-62554665D01*
X61977594Y-62600806D01*
X61937156Y-62740000D01*
X50250500Y-62740000D01*
X50250500Y-55002706D01*
X50250618Y-54997297D01*
X50252676Y-54950172D01*
X50257901Y-54830491D01*
X51549500Y-54830491D01*
X51549500Y-55169508D01*
X51582729Y-55506901D01*
X51648870Y-55839410D01*
X51747284Y-56163841D01*
X51877024Y-56477060D01*
X51877026Y-56477065D01*
X52036831Y-56776039D01*
X52036842Y-56776057D01*
X52225184Y-57057930D01*
X52225194Y-57057944D01*
X52440269Y-57320014D01*
X52679985Y-57559730D01*
X52679990Y-57559734D01*
X52679991Y-57559735D01*
X52942061Y-57774810D01*
X53223949Y-57963162D01*
X53223958Y-57963167D01*
X53223960Y-57963168D01*
X53522934Y-58122973D01*
X53522936Y-58122973D01*
X53522942Y-58122977D01*
X53836160Y-58252716D01*
X54160586Y-58351129D01*
X54493096Y-58417270D01*
X54830488Y-58450500D01*
X54830491Y-58450500D01*
X55169509Y-58450500D01*
X55169512Y-58450500D01*
X55506904Y-58417270D01*
X55839414Y-58351129D01*
X56163840Y-58252716D01*
X56477058Y-58122977D01*
X56776051Y-57963162D01*
X57057939Y-57774810D01*
X57320009Y-57559735D01*
X57559735Y-57320009D01*
X57774810Y-57057939D01*
X57963162Y-56776051D01*
X58122977Y-56477058D01*
X58252716Y-56163840D01*
X58351129Y-55839414D01*
X58417270Y-55506904D01*
X58450500Y-55169512D01*
X58450500Y-54830488D01*
X58417270Y-54493096D01*
X58351129Y-54160586D01*
X58252716Y-53836160D01*
X58122977Y-53522942D01*
X57963162Y-53223949D01*
X57774810Y-52942061D01*
X57559735Y-52679991D01*
X57559734Y-52679990D01*
X57559730Y-52679985D01*
X57320014Y-52440269D01*
X57057944Y-52225194D01*
X57057943Y-52225193D01*
X57057939Y-52225190D01*
X56776051Y-52036838D01*
X56776046Y-52036835D01*
X56776039Y-52036831D01*
X56477065Y-51877026D01*
X56477060Y-51877024D01*
X56163841Y-51747284D01*
X55973382Y-51689509D01*
X55839414Y-51648871D01*
X55839411Y-51648870D01*
X55839410Y-51648870D01*
X55506901Y-51582729D01*
X55269199Y-51559318D01*
X55169512Y-51549500D01*
X54830488Y-51549500D01*
X54739738Y-51558437D01*
X54493098Y-51582729D01*
X54160589Y-51648870D01*
X53836158Y-51747284D01*
X53522939Y-51877024D01*
X53522934Y-51877026D01*
X53223960Y-52036831D01*
X53223942Y-52036842D01*
X52942069Y-52225184D01*
X52942055Y-52225194D01*
X52679985Y-52440269D01*
X52440269Y-52679985D01*
X52225194Y-52942055D01*
X52225184Y-52942069D01*
X52036842Y-53223942D01*
X52036831Y-53223960D01*
X51877026Y-53522934D01*
X51877024Y-53522939D01*
X51747284Y-53836158D01*
X51648870Y-54160589D01*
X51582729Y-54493098D01*
X51549500Y-54830491D01*
X50257901Y-54830491D01*
X50268337Y-54591439D01*
X50269276Y-54580708D01*
X50321951Y-54180609D01*
X50323823Y-54169993D01*
X50411168Y-53776000D01*
X50413955Y-53765600D01*
X50535309Y-53380713D01*
X50538993Y-53370592D01*
X50693426Y-52997758D01*
X50697984Y-52987984D01*
X50884315Y-52630045D01*
X50889710Y-52620700D01*
X51106537Y-52280350D01*
X51112727Y-52271511D01*
X51358385Y-51951363D01*
X51365323Y-51943094D01*
X51637949Y-51645575D01*
X51645575Y-51637949D01*
X51943094Y-51365323D01*
X51951363Y-51358385D01*
X52271511Y-51112727D01*
X52280350Y-51106537D01*
X52620700Y-50889710D01*
X52630045Y-50884315D01*
X52987984Y-50697984D01*
X52997758Y-50693426D01*
X53370592Y-50538993D01*
X53380713Y-50535309D01*
X53765600Y-50413955D01*
X53776000Y-50411168D01*
X54169993Y-50323823D01*
X54180609Y-50321951D01*
X54580708Y-50269276D01*
X54591439Y-50268337D01*
X54984636Y-50251170D01*
X54997298Y-50250618D01*
X55002706Y-50250500D01*
X55044170Y-50250500D01*
X62330191Y-50250500D01*
X62397230Y-50270185D01*
G37*
%TD.AperFunction*%
%TA.AperFunction,Conductor*%
G36*
X94848556Y-67668066D02*
G01*
X94864311Y-67681393D01*
X95499053Y-68316135D01*
X95532538Y-68377458D01*
X95527554Y-68447150D01*
X95485682Y-68503083D01*
X95424631Y-68527105D01*
X95392975Y-68530509D01*
X95266552Y-68577662D01*
X95266549Y-68577664D01*
X95158528Y-68658528D01*
X95077664Y-68766549D01*
X95077661Y-68766554D01*
X95072846Y-68779464D01*
X95030972Y-68835395D01*
X94965506Y-68859809D01*
X94897234Y-68844955D01*
X94868985Y-68823806D01*
X94792102Y-68746923D01*
X94792099Y-68746921D01*
X94676521Y-68690419D01*
X94676519Y-68690418D01*
X94676518Y-68690418D01*
X94601582Y-68679500D01*
X94258418Y-68679500D01*
X94183482Y-68690418D01*
X94183481Y-68690418D01*
X94183476Y-68690419D01*
X94174280Y-68693261D01*
X94173694Y-68691367D01*
X94116873Y-68701065D01*
X94052578Y-68673717D01*
X94043613Y-68665587D01*
X93937294Y-68559268D01*
X93937285Y-68559261D01*
X93799191Y-68477593D01*
X93799188Y-68477591D01*
X93660001Y-68437153D01*
X93660000Y-68437154D01*
X93660000Y-70062843D01*
X93799194Y-70022404D01*
X93937285Y-69940738D01*
X93937290Y-69940734D01*
X94043612Y-69834412D01*
X94104935Y-69800927D01*
X94174627Y-69805911D01*
X94182372Y-69809239D01*
X94183475Y-69809580D01*
X94183479Y-69809580D01*
X94183482Y-69809582D01*
X94258418Y-69820500D01*
X94258423Y-69820500D01*
X94601577Y-69820500D01*
X94601582Y-69820500D01*
X94676518Y-69809582D01*
X94734310Y-69781329D01*
X94792099Y-69753078D01*
X94792100Y-69753076D01*
X94792102Y-69753076D01*
X94868986Y-69676191D01*
X94930307Y-69642708D01*
X94999999Y-69647692D01*
X95055933Y-69689563D01*
X95072846Y-69720537D01*
X95077659Y-69733442D01*
X95077664Y-69733450D01*
X95158528Y-69841472D01*
X95266549Y-69922335D01*
X95266552Y-69922337D01*
X95366271Y-69959530D01*
X95392978Y-69969491D01*
X95422318Y-69972645D01*
X95448855Y-69975499D01*
X95448870Y-69975500D01*
X95976500Y-69975500D01*
X96043539Y-69995185D01*
X96089294Y-70047989D01*
X96100500Y-70099500D01*
X96100500Y-70400500D01*
X96080815Y-70467539D01*
X96028011Y-70513294D01*
X95976500Y-70524500D01*
X95448855Y-70524500D01*
X95392975Y-70530509D01*
X95266552Y-70577662D01*
X95266549Y-70577664D01*
X95158528Y-70658528D01*
X95077664Y-70766549D01*
X95077661Y-70766554D01*
X95072846Y-70779464D01*
X95030972Y-70835395D01*
X94965506Y-70859809D01*
X94897234Y-70844955D01*
X94868985Y-70823806D01*
X94792102Y-70746923D01*
X94792099Y-70746921D01*
X94676521Y-70690419D01*
X94676519Y-70690418D01*
X94676518Y-70690418D01*
X94601582Y-70679500D01*
X94258418Y-70679500D01*
X94183482Y-70690418D01*
X94183481Y-70690418D01*
X94183476Y-70690419D01*
X94174280Y-70693261D01*
X94173694Y-70691367D01*
X94116873Y-70701065D01*
X94052578Y-70673717D01*
X94043613Y-70665587D01*
X93937294Y-70559268D01*
X93937285Y-70559261D01*
X93799191Y-70477593D01*
X93799188Y-70477591D01*
X93660001Y-70437153D01*
X93660000Y-70437154D01*
X93660000Y-72062843D01*
X93799194Y-72022404D01*
X93937285Y-71940738D01*
X93937290Y-71940734D01*
X94043612Y-71834412D01*
X94104935Y-71800927D01*
X94174627Y-71805911D01*
X94182372Y-71809239D01*
X94183475Y-71809580D01*
X94183479Y-71809580D01*
X94183482Y-71809582D01*
X94258418Y-71820500D01*
X94258423Y-71820500D01*
X94601577Y-71820500D01*
X94601582Y-71820500D01*
X94676518Y-71809582D01*
X94758343Y-71769580D01*
X94792099Y-71753078D01*
X94792100Y-71753076D01*
X94792102Y-71753076D01*
X94868986Y-71676191D01*
X94930307Y-71642708D01*
X94999999Y-71647692D01*
X95055933Y-71689563D01*
X95072846Y-71720537D01*
X95077659Y-71733442D01*
X95077664Y-71733450D01*
X95158528Y-71841472D01*
X95248249Y-71908636D01*
X95266549Y-71922335D01*
X95266552Y-71922337D01*
X95377489Y-71963714D01*
X95392978Y-71969491D01*
X95422318Y-71972645D01*
X95448855Y-71975499D01*
X95448870Y-71975500D01*
X95976130Y-71975500D01*
X95976144Y-71975499D01*
X95998023Y-71973146D01*
X96032022Y-71969491D01*
X96158450Y-71922336D01*
X96266472Y-71841472D01*
X96347336Y-71733450D01*
X96382755Y-71638488D01*
X96394313Y-71623046D01*
X96401487Y-71605143D01*
X96414819Y-71595654D01*
X96424626Y-71582554D01*
X96442698Y-71575813D01*
X96458412Y-71564630D01*
X96474757Y-71563855D01*
X96490090Y-71558137D01*
X96508935Y-71562236D01*
X96528203Y-71561324D01*
X96556077Y-71572491D01*
X96558363Y-71572989D01*
X96560922Y-71574426D01*
X96562864Y-71575547D01*
X96563674Y-71576015D01*
X96611877Y-71626595D01*
X96617828Y-71640052D01*
X96652663Y-71733449D01*
X96652664Y-71733450D01*
X96733528Y-71841472D01*
X96733530Y-71841473D01*
X96733532Y-71841476D01*
X96737309Y-71844303D01*
X96740046Y-71847959D01*
X96744203Y-71849858D01*
X96760794Y-71875675D01*
X96779181Y-71900236D01*
X96780196Y-71905865D01*
X96781977Y-71908636D01*
X96787000Y-71943571D01*
X96787000Y-72153824D01*
X96767315Y-72220863D01*
X96750681Y-72241505D01*
X96529005Y-72463181D01*
X96467682Y-72496666D01*
X96441324Y-72499500D01*
X95362229Y-72499500D01*
X95295190Y-72479815D01*
X95274547Y-72463180D01*
X95228419Y-72417051D01*
X95228415Y-72417048D01*
X95105501Y-72334919D01*
X95105488Y-72334912D01*
X94968917Y-72278343D01*
X94968907Y-72278340D01*
X94823920Y-72249500D01*
X94823918Y-72249500D01*
X94676082Y-72249500D01*
X94676080Y-72249500D01*
X94531092Y-72278340D01*
X94531082Y-72278343D01*
X94394511Y-72334912D01*
X94394498Y-72334919D01*
X94271584Y-72417048D01*
X94271580Y-72417051D01*
X94167051Y-72521580D01*
X94167048Y-72521584D01*
X94084919Y-72644498D01*
X94084912Y-72644511D01*
X94028343Y-72781082D01*
X94028340Y-72781092D01*
X93999500Y-72926079D01*
X93999500Y-72991324D01*
X93979815Y-73058363D01*
X93963181Y-73079005D01*
X93624502Y-73417683D01*
X93624500Y-73417686D01*
X93558608Y-73531812D01*
X93524500Y-73659108D01*
X93524500Y-76870500D01*
X93504815Y-76937539D01*
X93452011Y-76983294D01*
X93400500Y-76994500D01*
X93151361Y-76994500D01*
X93124065Y-76995963D01*
X93124060Y-76995963D01*
X93124048Y-76995964D01*
X93124040Y-76995964D01*
X93124011Y-76995967D01*
X93097689Y-76998797D01*
X93097687Y-76998798D01*
X93002558Y-77028586D01*
X93002548Y-77028590D01*
X92941238Y-77062068D01*
X92941230Y-77062073D01*
X92883019Y-77105649D01*
X92883001Y-77105665D01*
X92812181Y-77176486D01*
X92750858Y-77209971D01*
X92681166Y-77204987D01*
X92625233Y-77163115D01*
X92600816Y-77097651D01*
X92600500Y-77088805D01*
X92600500Y-76479386D01*
X92620185Y-76412347D01*
X92636819Y-76391705D01*
X92661110Y-76367414D01*
X92690509Y-76338015D01*
X92762984Y-76212485D01*
X92800500Y-76072475D01*
X92800500Y-75927525D01*
X92762984Y-75787515D01*
X92690509Y-75661985D01*
X92588015Y-75559491D01*
X92588013Y-75559490D01*
X92588011Y-75559488D01*
X92455447Y-75482952D01*
X92457031Y-75480208D01*
X92414244Y-75445746D01*
X92392162Y-75379457D01*
X92409424Y-75311753D01*
X92456136Y-75268241D01*
X92455447Y-75267048D01*
X92572442Y-75199500D01*
X92588015Y-75190509D01*
X92690509Y-75088015D01*
X92762984Y-74962485D01*
X92800500Y-74822475D01*
X92800500Y-74677525D01*
X92762984Y-74537515D01*
X92761545Y-74535023D01*
X92690511Y-74411988D01*
X92690506Y-74411982D01*
X92588017Y-74309493D01*
X92588011Y-74309488D01*
X92455447Y-74232952D01*
X92457031Y-74230208D01*
X92414244Y-74195746D01*
X92392162Y-74129457D01*
X92409424Y-74061753D01*
X92456136Y-74018241D01*
X92455447Y-74017048D01*
X92564241Y-73954235D01*
X92588015Y-73940509D01*
X92690509Y-73838015D01*
X92762984Y-73712485D01*
X92800500Y-73572475D01*
X92800500Y-73427525D01*
X92762984Y-73287515D01*
X92762642Y-73286923D01*
X92690511Y-73161988D01*
X92690506Y-73161982D01*
X92588017Y-73059493D01*
X92588011Y-73059488D01*
X92462488Y-72987017D01*
X92462489Y-72987017D01*
X92416439Y-72974678D01*
X92322475Y-72949500D01*
X92177525Y-72949500D01*
X92083561Y-72974678D01*
X92037511Y-72987017D01*
X91911988Y-73059488D01*
X91911982Y-73059493D01*
X91809493Y-73161982D01*
X91809491Y-73161985D01*
X91741887Y-73279078D01*
X91691319Y-73327293D01*
X91622712Y-73340515D01*
X91557848Y-73314547D01*
X91517320Y-73257633D01*
X91510500Y-73217077D01*
X91510500Y-72669767D01*
X91530185Y-72602728D01*
X91531398Y-72600876D01*
X91575080Y-72535501D01*
X91575080Y-72535500D01*
X91575084Y-72535495D01*
X91631658Y-72398913D01*
X91647256Y-72320500D01*
X91660500Y-72253920D01*
X91660500Y-72106088D01*
X91660500Y-72106082D01*
X91660498Y-72106076D01*
X91660117Y-72102201D01*
X91660500Y-72100181D01*
X91660500Y-72099990D01*
X91660536Y-72099990D01*
X91664647Y-72078309D01*
X91664875Y-72053996D01*
X91671039Y-72044597D01*
X91673134Y-72033554D01*
X91689860Y-72015905D01*
X91703198Y-71995574D01*
X91715632Y-71988714D01*
X91721198Y-71982843D01*
X91733066Y-71976772D01*
X91739609Y-71973857D01*
X91747488Y-71971389D01*
X91749864Y-71970091D01*
X91749512Y-71969446D01*
X91762382Y-71963714D01*
X91763118Y-71963615D01*
X91767437Y-71961595D01*
X91771711Y-71959914D01*
X91786124Y-71950650D01*
X91793727Y-71946140D01*
X91798594Y-71943481D01*
X91808762Y-71937931D01*
X91866985Y-71894347D01*
X92394347Y-71366985D01*
X92412626Y-71346635D01*
X92417469Y-71340625D01*
X92419446Y-71338172D01*
X92476837Y-71298322D01*
X92546662Y-71295826D01*
X92606752Y-71331476D01*
X92638029Y-71393955D01*
X92640000Y-71415975D01*
X92640000Y-71499135D01*
X92642832Y-71535123D01*
X92642833Y-71535129D01*
X92687592Y-71689188D01*
X92687593Y-71689191D01*
X92769261Y-71827285D01*
X92769268Y-71827294D01*
X92882705Y-71940731D01*
X92882714Y-71940738D01*
X93020805Y-72022404D01*
X93160000Y-72062844D01*
X93160000Y-70437154D01*
X93159998Y-70437153D01*
X93020811Y-70477591D01*
X93020808Y-70477593D01*
X92882714Y-70559261D01*
X92882705Y-70559268D01*
X92769268Y-70672705D01*
X92769264Y-70672711D01*
X92736232Y-70728565D01*
X92685162Y-70776248D01*
X92616421Y-70788751D01*
X92551831Y-70762105D01*
X92511901Y-70704770D01*
X92505500Y-70665443D01*
X92505500Y-69834556D01*
X92525185Y-69767517D01*
X92577989Y-69721762D01*
X92647147Y-69711818D01*
X92710703Y-69740843D01*
X92736232Y-69771435D01*
X92769262Y-69827285D01*
X92769268Y-69827294D01*
X92882705Y-69940731D01*
X92882714Y-69940738D01*
X93020805Y-70022404D01*
X93160000Y-70062844D01*
X93160000Y-68437154D01*
X93159998Y-68437153D01*
X93020811Y-68477591D01*
X93020808Y-68477593D01*
X92882714Y-68559261D01*
X92882705Y-68559268D01*
X92769268Y-68672705D01*
X92769264Y-68672711D01*
X92736232Y-68728565D01*
X92685162Y-68776248D01*
X92616421Y-68788751D01*
X92551831Y-68762105D01*
X92511901Y-68704770D01*
X92505500Y-68665443D01*
X92505500Y-68407193D01*
X92525185Y-68340154D01*
X92541819Y-68319512D01*
X93069512Y-67791819D01*
X93130835Y-67758334D01*
X93157193Y-67755500D01*
X93712170Y-67755500D01*
X93714148Y-67755441D01*
X93727362Y-67755048D01*
X93742082Y-67754171D01*
X93827463Y-67733995D01*
X93891692Y-67706491D01*
X93931795Y-67684902D01*
X93931795Y-67684901D01*
X93939604Y-67680698D01*
X93941333Y-67683909D01*
X93990670Y-67665818D01*
X94058860Y-67681047D01*
X94060796Y-67682141D01*
X94157515Y-67737982D01*
X94297525Y-67775498D01*
X94297528Y-67775498D01*
X94442472Y-67775498D01*
X94442475Y-67775498D01*
X94582485Y-67737982D01*
X94708015Y-67665507D01*
X94708018Y-67665503D01*
X94714629Y-67661687D01*
X94782529Y-67645214D01*
X94848556Y-67668066D01*
G37*
%TD.AperFunction*%
%TA.AperFunction,Conductor*%
G36*
X74016996Y-65331211D02*
G01*
X74041253Y-65332512D01*
X74050393Y-65339103D01*
X74061360Y-65341695D01*
X74078224Y-65359172D01*
X74097925Y-65373379D01*
X74103309Y-65385170D01*
X74109875Y-65391974D01*
X74121617Y-65425257D01*
X74124497Y-65439738D01*
X74124499Y-65439744D01*
X74173533Y-65558124D01*
X74173538Y-65558133D01*
X74228602Y-65640541D01*
X74234252Y-65658587D01*
X74244477Y-65674497D01*
X74248928Y-65705456D01*
X74249480Y-65707218D01*
X74249500Y-65709432D01*
X74249500Y-65843939D01*
X74236901Y-65898399D01*
X74190418Y-65993480D01*
X74190418Y-65993482D01*
X74179500Y-66068418D01*
X74179500Y-66411582D01*
X74190418Y-66486518D01*
X74190418Y-66486519D01*
X74190419Y-66486521D01*
X74246921Y-66602099D01*
X74246923Y-66602102D01*
X74307140Y-66662319D01*
X74340625Y-66723642D01*
X74335641Y-66793334D01*
X74307140Y-66837681D01*
X74246923Y-66897897D01*
X74246921Y-66897900D01*
X74190419Y-67013478D01*
X74190418Y-67013480D01*
X74190418Y-67013482D01*
X74179500Y-67088418D01*
X74179500Y-67431582D01*
X74190418Y-67506518D01*
X74190418Y-67506519D01*
X74190419Y-67506521D01*
X74246921Y-67622099D01*
X74246923Y-67622102D01*
X74337896Y-67713075D01*
X74346259Y-67719046D01*
X74344607Y-67721359D01*
X74356703Y-67726883D01*
X74367201Y-67743219D01*
X74381538Y-67756316D01*
X74386092Y-67772613D01*
X74394477Y-67785661D01*
X74399500Y-67820596D01*
X74399500Y-67902327D01*
X74390062Y-67949778D01*
X74389033Y-67952261D01*
X74374500Y-68025323D01*
X74374500Y-68526000D01*
X74354815Y-68593039D01*
X74302011Y-68638794D01*
X74250500Y-68650000D01*
X74250000Y-68650000D01*
X74250000Y-72350000D01*
X74250500Y-72350000D01*
X74317539Y-72369685D01*
X74363294Y-72422489D01*
X74374500Y-72474000D01*
X74374500Y-72974678D01*
X74389032Y-73047737D01*
X74390059Y-73050215D01*
X74391686Y-73058394D01*
X74394477Y-73062737D01*
X74399500Y-73097672D01*
X74399500Y-73209258D01*
X74379815Y-73276297D01*
X74354437Y-73303168D01*
X74354509Y-73303240D01*
X74352022Y-73305726D01*
X74348389Y-73309574D01*
X74347606Y-73310142D01*
X74260145Y-73397603D01*
X74260142Y-73397608D01*
X74260141Y-73397609D01*
X74258668Y-73400500D01*
X74203981Y-73507827D01*
X74203981Y-73507828D01*
X74189500Y-73599264D01*
X74189500Y-73940733D01*
X74198030Y-73994587D01*
X74189074Y-74063881D01*
X74163237Y-74101665D01*
X74070285Y-74194616D01*
X74070278Y-74194625D01*
X73987968Y-74333804D01*
X73987967Y-74333806D01*
X73978158Y-74367569D01*
X73974671Y-74373028D01*
X73974032Y-74379475D01*
X73956094Y-74402114D01*
X73940550Y-74426454D01*
X73934665Y-74429161D01*
X73930642Y-74434240D01*
X73903310Y-74443588D01*
X73877077Y-74455659D01*
X73870662Y-74454755D01*
X73864533Y-74456852D01*
X73836487Y-74449940D01*
X73807891Y-74445912D01*
X73801417Y-74441298D01*
X73796693Y-74440134D01*
X73785602Y-74430027D01*
X73769029Y-74418216D01*
X73756579Y-74405063D01*
X73753076Y-74397898D01*
X73691657Y-74336479D01*
X73690488Y-74335244D01*
X73675332Y-74305582D01*
X73659375Y-74276358D01*
X73659500Y-74274596D01*
X73658698Y-74273025D01*
X73661982Y-74239890D01*
X73664359Y-74206666D01*
X73665444Y-74204977D01*
X73665591Y-74203497D01*
X73669852Y-74198118D01*
X73692860Y-74162319D01*
X73753076Y-74102102D01*
X73753078Y-74102099D01*
X73787796Y-74031082D01*
X73809582Y-73986518D01*
X73820500Y-73911582D01*
X73820500Y-73568418D01*
X73809582Y-73493482D01*
X73804286Y-73482649D01*
X73753078Y-73377900D01*
X73753076Y-73377897D01*
X73662105Y-73286926D01*
X73653743Y-73280956D01*
X73655395Y-73278641D01*
X73643297Y-73273117D01*
X73632788Y-73256764D01*
X73618441Y-73243650D01*
X73613892Y-73227362D01*
X73605523Y-73214339D01*
X73600500Y-73179404D01*
X73600500Y-73097672D01*
X73609941Y-73050215D01*
X73610967Y-73047737D01*
X73625499Y-72974678D01*
X73625500Y-72974676D01*
X73625500Y-72474000D01*
X73645185Y-72406961D01*
X73697989Y-72361206D01*
X73749500Y-72350000D01*
X73750000Y-72350000D01*
X73750000Y-68650000D01*
X73749500Y-68650000D01*
X73682461Y-68630315D01*
X73636706Y-68577511D01*
X73625500Y-68526000D01*
X73625500Y-68025323D01*
X73610966Y-67952261D01*
X73609938Y-67949778D01*
X73608311Y-67941601D01*
X73605523Y-67937262D01*
X73600500Y-67902327D01*
X73600500Y-67820596D01*
X73620185Y-67753557D01*
X73655773Y-67721892D01*
X73653741Y-67719046D01*
X73662103Y-67713075D01*
X73753076Y-67622102D01*
X73753078Y-67622099D01*
X73796322Y-67533641D01*
X73809582Y-67506518D01*
X73820500Y-67431582D01*
X73820500Y-67088418D01*
X73809582Y-67013482D01*
X73794097Y-66981807D01*
X73753078Y-66897900D01*
X73753076Y-66897897D01*
X73692860Y-66837681D01*
X73659375Y-66776358D01*
X73664359Y-66706666D01*
X73692860Y-66662319D01*
X73753076Y-66602102D01*
X73753078Y-66602099D01*
X73789014Y-66528590D01*
X73809582Y-66486518D01*
X73820500Y-66411582D01*
X73820500Y-66068418D01*
X73809582Y-65993482D01*
X73789594Y-65952596D01*
X73763099Y-65898399D01*
X73760302Y-65886311D01*
X73755523Y-65878874D01*
X73750500Y-65843939D01*
X73750500Y-65709432D01*
X73770185Y-65642393D01*
X73771398Y-65640541D01*
X73826461Y-65558133D01*
X73826461Y-65558132D01*
X73826465Y-65558127D01*
X73875501Y-65439744D01*
X73878383Y-65425257D01*
X73883605Y-65415272D01*
X73884610Y-65404049D01*
X73899510Y-65384867D01*
X73910768Y-65363347D01*
X73920560Y-65357770D01*
X73927473Y-65348872D01*
X73950375Y-65340792D01*
X73971484Y-65328772D01*
X73982738Y-65329375D01*
X73993363Y-65325627D01*
X74016996Y-65331211D01*
G37*
%TD.AperFunction*%
%TA.AperFunction,Conductor*%
G36*
X72024336Y-72125500D02*
G01*
X72351000Y-72125500D01*
X72418039Y-72145185D01*
X72463794Y-72197989D01*
X72475000Y-72249500D01*
X72475000Y-72875000D01*
X72697828Y-72875000D01*
X72697839Y-72874999D01*
X72738637Y-72870612D01*
X72740299Y-72870911D01*
X72741878Y-72870306D01*
X72774570Y-72877094D01*
X72807396Y-72883016D01*
X72808632Y-72884167D01*
X72810289Y-72884511D01*
X72834121Y-72907897D01*
X72858535Y-72930625D01*
X72859339Y-72932642D01*
X72860160Y-72933447D01*
X72866138Y-72949683D01*
X72872806Y-72966397D01*
X72874500Y-72973844D01*
X72874500Y-72974674D01*
X72889034Y-73047740D01*
X72892483Y-73052902D01*
X72896411Y-73070168D01*
X72895844Y-73079298D01*
X72899500Y-73097672D01*
X72899500Y-73179404D01*
X72879815Y-73246443D01*
X72844229Y-73278115D01*
X72846257Y-73280956D01*
X72837895Y-73286926D01*
X72771640Y-73353181D01*
X72710317Y-73386666D01*
X72683959Y-73389500D01*
X72213856Y-73389500D01*
X72124712Y-73413386D01*
X72124709Y-73413387D01*
X72044785Y-73459531D01*
X72021666Y-73482649D01*
X71960342Y-73516132D01*
X71909796Y-73516582D01*
X71823920Y-73499500D01*
X71823918Y-73499500D01*
X71676082Y-73499500D01*
X71676080Y-73499500D01*
X71531092Y-73528340D01*
X71531082Y-73528343D01*
X71394511Y-73584912D01*
X71394498Y-73584919D01*
X71271584Y-73667048D01*
X71271580Y-73667051D01*
X71167051Y-73771580D01*
X71167048Y-73771584D01*
X71084919Y-73894498D01*
X71084912Y-73894511D01*
X71028343Y-74031082D01*
X71028340Y-74031092D01*
X70999500Y-74176079D01*
X70999500Y-74263745D01*
X70979815Y-74330784D01*
X70927011Y-74376539D01*
X70857853Y-74386483D01*
X70794297Y-74357458D01*
X70787819Y-74351426D01*
X70426819Y-73990426D01*
X70393334Y-73929103D01*
X70390500Y-73902745D01*
X70390500Y-72419134D01*
X71550000Y-72419134D01*
X71550000Y-72422844D01*
X71556401Y-72482372D01*
X71556403Y-72482379D01*
X71606645Y-72617086D01*
X71606649Y-72617093D01*
X71692809Y-72732187D01*
X71692812Y-72732190D01*
X71807906Y-72818350D01*
X71807913Y-72818354D01*
X71942620Y-72868596D01*
X71942627Y-72868598D01*
X72002155Y-72874999D01*
X72002172Y-72875000D01*
X72225000Y-72875000D01*
X72225000Y-72375000D01*
X71597933Y-72375000D01*
X71550000Y-72419134D01*
X70390500Y-72419134D01*
X70390500Y-72295041D01*
X70410185Y-72228002D01*
X70462989Y-72182247D01*
X70532147Y-72172303D01*
X70595703Y-72201328D01*
X70602181Y-72207360D01*
X70647897Y-72253076D01*
X70647900Y-72253078D01*
X70733738Y-72295041D01*
X70763482Y-72309582D01*
X70838418Y-72320500D01*
X70838423Y-72320500D01*
X71181577Y-72320500D01*
X71181582Y-72320500D01*
X71256518Y-72309582D01*
X71372102Y-72253076D01*
X71463076Y-72162102D01*
X71463117Y-72162016D01*
X71463668Y-72161510D01*
X71463860Y-72161319D01*
X71463900Y-72161296D01*
X71465549Y-72159779D01*
X71477344Y-72153956D01*
X71525183Y-72127834D01*
X71551541Y-72125000D01*
X72014158Y-72125000D01*
X72024336Y-72125500D01*
G37*
%TD.AperFunction*%
%TA.AperFunction,Conductor*%
G36*
X75718039Y-72145185D02*
G01*
X75763794Y-72197989D01*
X75775000Y-72249500D01*
X75775000Y-72875000D01*
X75997828Y-72875000D01*
X75997844Y-72874999D01*
X76057372Y-72868598D01*
X76057379Y-72868596D01*
X76192086Y-72818354D01*
X76192089Y-72818352D01*
X76253308Y-72772524D01*
X76318772Y-72748106D01*
X76387046Y-72762957D01*
X76436451Y-72812362D01*
X76449237Y-72847598D01*
X76478340Y-72993907D01*
X76478343Y-72993917D01*
X76534912Y-73130488D01*
X76534919Y-73130501D01*
X76617048Y-73253415D01*
X76617051Y-73253419D01*
X76721580Y-73357948D01*
X76721584Y-73357951D01*
X76844498Y-73440080D01*
X76849875Y-73442954D01*
X76849046Y-73444503D01*
X76896969Y-73483121D01*
X76919034Y-73549415D01*
X76901755Y-73617115D01*
X76882794Y-73641523D01*
X76532181Y-73992136D01*
X76470858Y-74025621D01*
X76401166Y-74020637D01*
X76345233Y-73978765D01*
X76320816Y-73913301D01*
X76320500Y-73904455D01*
X76320500Y-73568423D01*
X76320500Y-73568418D01*
X76309582Y-73493482D01*
X76304286Y-73482649D01*
X76253078Y-73377900D01*
X76253076Y-73377897D01*
X76162102Y-73286923D01*
X76162099Y-73286921D01*
X76046521Y-73230419D01*
X76046519Y-73230418D01*
X76046518Y-73230418D01*
X75971582Y-73219500D01*
X75528418Y-73219500D01*
X75453482Y-73230418D01*
X75453480Y-73230418D01*
X75453478Y-73230419D01*
X75337900Y-73286921D01*
X75337896Y-73286924D01*
X75321214Y-73303606D01*
X75259891Y-73337090D01*
X75190199Y-73332104D01*
X75159924Y-73315710D01*
X75152436Y-73310186D01*
X75152391Y-73310141D01*
X75152338Y-73310114D01*
X75150889Y-73309045D01*
X75146263Y-73302955D01*
X75145733Y-73303484D01*
X75145370Y-73303120D01*
X75145949Y-73302542D01*
X75130013Y-73281563D01*
X75108947Y-73254242D01*
X75108844Y-73253695D01*
X75108625Y-73253407D01*
X75108506Y-73251894D01*
X75100500Y-73209258D01*
X75100500Y-73097672D01*
X75109941Y-73050215D01*
X75110965Y-73047742D01*
X75110965Y-73047741D01*
X75110966Y-73047740D01*
X75125500Y-72974674D01*
X75125500Y-72974668D01*
X75126486Y-72969711D01*
X75158871Y-72907800D01*
X75219586Y-72873225D01*
X75261362Y-72870612D01*
X75302160Y-72874999D01*
X75302172Y-72875000D01*
X75525000Y-72875000D01*
X75525000Y-72249500D01*
X75527550Y-72240814D01*
X75526262Y-72231853D01*
X75537240Y-72207812D01*
X75544685Y-72182461D01*
X75551525Y-72176533D01*
X75555287Y-72168297D01*
X75577521Y-72154007D01*
X75597489Y-72136706D01*
X75608003Y-72134418D01*
X75614065Y-72130523D01*
X75649000Y-72125500D01*
X75651000Y-72125500D01*
X75718039Y-72145185D01*
G37*
%TD.AperFunction*%
%TA.AperFunction,Conductor*%
G36*
X79187539Y-70520185D02*
G01*
X79233294Y-70572989D01*
X79244500Y-70624500D01*
X79244500Y-73093500D01*
X79224815Y-73160539D01*
X79172011Y-73206294D01*
X79120500Y-73217500D01*
X78014624Y-73217500D01*
X77947585Y-73197815D01*
X77901830Y-73145011D01*
X77891886Y-73075853D01*
X77900063Y-73046047D01*
X77921658Y-72993913D01*
X77938768Y-72907897D01*
X77950500Y-72848920D01*
X77950500Y-72701079D01*
X77921659Y-72556092D01*
X77921658Y-72556091D01*
X77921658Y-72556087D01*
X77913126Y-72535488D01*
X77865087Y-72419511D01*
X77865080Y-72419498D01*
X77782951Y-72296584D01*
X77782948Y-72296580D01*
X77678419Y-72192051D01*
X77678415Y-72192048D01*
X77555501Y-72109919D01*
X77550125Y-72107046D01*
X77550822Y-72105741D01*
X77502136Y-72066499D01*
X77498145Y-72054503D01*
X77980000Y-72054503D01*
X78126195Y-72012031D01*
X78265374Y-71929721D01*
X78265383Y-71929714D01*
X78379714Y-71815383D01*
X78379721Y-71815374D01*
X78462031Y-71676195D01*
X78462033Y-71676190D01*
X78507144Y-71520918D01*
X78507145Y-71520912D01*
X78508790Y-71500000D01*
X77980000Y-71500000D01*
X77980000Y-72054503D01*
X77498145Y-72054503D01*
X77480079Y-72000203D01*
X77480000Y-71995790D01*
X77480000Y-71374000D01*
X77499685Y-71306961D01*
X77552489Y-71261206D01*
X77604000Y-71250000D01*
X77730000Y-71250000D01*
X77730000Y-71124000D01*
X77732550Y-71115314D01*
X77731262Y-71106353D01*
X77742240Y-71082312D01*
X77749685Y-71056961D01*
X77756525Y-71051033D01*
X77760287Y-71042797D01*
X77782521Y-71028507D01*
X77802489Y-71011206D01*
X77813003Y-71008918D01*
X77819065Y-71005023D01*
X77854000Y-71000000D01*
X77951142Y-71000000D01*
X77998208Y-71012618D01*
X77999346Y-71009873D01*
X78006854Y-71012983D01*
X78006856Y-71012984D01*
X78146866Y-71050500D01*
X78146869Y-71050500D01*
X78291813Y-71050500D01*
X78291816Y-71050500D01*
X78431826Y-71012984D01*
X78557356Y-70940509D01*
X78659850Y-70838015D01*
X78732325Y-70712485D01*
X78764500Y-70592404D01*
X78778994Y-70568626D01*
X78790562Y-70543297D01*
X78796927Y-70539206D01*
X78800865Y-70532746D01*
X78825911Y-70520579D01*
X78849340Y-70505523D01*
X78860088Y-70503977D01*
X78863713Y-70502217D01*
X78884275Y-70500500D01*
X79120500Y-70500500D01*
X79187539Y-70520185D01*
G37*
%TD.AperFunction*%
%TA.AperFunction,Conductor*%
G36*
X69338077Y-70619609D02*
G01*
X69382429Y-70648111D01*
X69589788Y-70855470D01*
X69589789Y-70855471D01*
X69589791Y-70855472D01*
X69622749Y-70874500D01*
X69669712Y-70901614D01*
X69758856Y-70925500D01*
X69758857Y-70925500D01*
X69758858Y-70925500D01*
X71205792Y-70925500D01*
X71205794Y-70925500D01*
X71294938Y-70901614D01*
X71368014Y-70859423D01*
X71435912Y-70842950D01*
X71501939Y-70865802D01*
X71545130Y-70920723D01*
X71553302Y-70953551D01*
X71556401Y-70982373D01*
X71556403Y-70982379D01*
X71606645Y-71117086D01*
X71606647Y-71117088D01*
X71652620Y-71178501D01*
X71677037Y-71243965D01*
X71662186Y-71312238D01*
X71612780Y-71361644D01*
X71544508Y-71376496D01*
X71479043Y-71352080D01*
X71465672Y-71340493D01*
X71372102Y-71246923D01*
X71372099Y-71246921D01*
X71256521Y-71190419D01*
X71256519Y-71190418D01*
X71256518Y-71190418D01*
X71181582Y-71179500D01*
X70838418Y-71179500D01*
X70763482Y-71190418D01*
X70763480Y-71190418D01*
X70763478Y-71190419D01*
X70647900Y-71246921D01*
X70647897Y-71246923D01*
X70587681Y-71307140D01*
X70526358Y-71340625D01*
X70456666Y-71335641D01*
X70412319Y-71307140D01*
X70352102Y-71246923D01*
X70352099Y-71246921D01*
X70236521Y-71190419D01*
X70236519Y-71190418D01*
X70236518Y-71190418D01*
X70161582Y-71179500D01*
X69818418Y-71179500D01*
X69743482Y-71190418D01*
X69743480Y-71190418D01*
X69743478Y-71190419D01*
X69627900Y-71246921D01*
X69627897Y-71246923D01*
X69532181Y-71342640D01*
X69470858Y-71376125D01*
X69401166Y-71371141D01*
X69345233Y-71329269D01*
X69320816Y-71263805D01*
X69320500Y-71254959D01*
X69320500Y-71088423D01*
X69320500Y-71088418D01*
X69309582Y-71013482D01*
X69287263Y-70967828D01*
X69253078Y-70897900D01*
X69253076Y-70897897D01*
X69192860Y-70837681D01*
X69188522Y-70829737D01*
X69181277Y-70824314D01*
X69172040Y-70799552D01*
X69159375Y-70776358D01*
X69160020Y-70767330D01*
X69156857Y-70758850D01*
X69162473Y-70733026D01*
X69164359Y-70706666D01*
X69170176Y-70697613D01*
X69171707Y-70690577D01*
X69192857Y-70662322D01*
X69207064Y-70648114D01*
X69268386Y-70614627D01*
X69338077Y-70619609D01*
G37*
%TD.AperFunction*%
%TA.AperFunction,Conductor*%
G36*
X66253926Y-67890185D02*
G01*
X66274568Y-67906819D01*
X66280068Y-67912319D01*
X66313553Y-67973642D01*
X66308569Y-68043334D01*
X66280068Y-68087681D01*
X66260145Y-68107603D01*
X66260142Y-68107608D01*
X66260141Y-68107609D01*
X66245113Y-68137103D01*
X66203981Y-68217827D01*
X66203981Y-68217828D01*
X66189500Y-68309264D01*
X66189500Y-68650739D01*
X66203981Y-68742170D01*
X66203981Y-68742171D01*
X66203982Y-68742174D01*
X66203983Y-68742175D01*
X66257704Y-68847609D01*
X66260142Y-68852392D01*
X66260145Y-68852396D01*
X66282562Y-68874813D01*
X66316047Y-68936136D01*
X66311063Y-69005828D01*
X66302268Y-69024494D01*
X66237017Y-69137511D01*
X66199499Y-69277528D01*
X66198439Y-69285585D01*
X66196314Y-69285305D01*
X66179815Y-69341495D01*
X66127011Y-69387250D01*
X66057853Y-69397194D01*
X65994297Y-69368169D01*
X65987819Y-69362137D01*
X65786819Y-69161137D01*
X65753334Y-69099814D01*
X65750500Y-69073456D01*
X65750500Y-68166544D01*
X65759144Y-68137103D01*
X65765668Y-68107117D01*
X65769422Y-68102101D01*
X65770185Y-68099505D01*
X65786819Y-68078863D01*
X65958863Y-67906819D01*
X66020186Y-67873334D01*
X66046544Y-67870500D01*
X66186887Y-67870500D01*
X66253926Y-67890185D01*
G37*
%TD.AperFunction*%
%TA.AperFunction,Conductor*%
G36*
X78397230Y-50270185D02*
G01*
X78442985Y-50322989D01*
X78452929Y-50392147D01*
X78423904Y-50455703D01*
X78417872Y-50462181D01*
X78381923Y-50498129D01*
X78381917Y-50498137D01*
X78298255Y-50639603D01*
X78298254Y-50639606D01*
X78252402Y-50797426D01*
X78252401Y-50797432D01*
X78249500Y-50834298D01*
X78249500Y-56071580D01*
X78229815Y-56138619D01*
X78177011Y-56184374D01*
X78107853Y-56194318D01*
X78055603Y-56170456D01*
X78053987Y-56172765D01*
X78045102Y-56166543D01*
X77965933Y-56129626D01*
X77941467Y-56118217D01*
X77941465Y-56118216D01*
X77894254Y-56112001D01*
X77894249Y-56112000D01*
X77894244Y-56112000D01*
X77375756Y-56112000D01*
X77375750Y-56112000D01*
X77375745Y-56112001D01*
X77328534Y-56118216D01*
X77224946Y-56166521D01*
X77155868Y-56177013D01*
X77092084Y-56148493D01*
X77074165Y-56129626D01*
X76995452Y-56027047D01*
X76875598Y-55935078D01*
X76736032Y-55877269D01*
X76736028Y-55877268D01*
X76623863Y-55862500D01*
X76615000Y-55862500D01*
X76615000Y-58482500D01*
X76623849Y-58482500D01*
X76623863Y-58482499D01*
X76736028Y-58467731D01*
X76736032Y-58467730D01*
X76875598Y-58409921D01*
X76890012Y-58398861D01*
X76955181Y-58373666D01*
X77023626Y-58387703D01*
X77073616Y-58436516D01*
X77089500Y-58497236D01*
X77089500Y-58572475D01*
X77116964Y-58674970D01*
X77127017Y-58712488D01*
X77199488Y-58838011D01*
X77199490Y-58838013D01*
X77199491Y-58838015D01*
X77301985Y-58940509D01*
X77301986Y-58940510D01*
X77301988Y-58940511D01*
X77427511Y-59012982D01*
X77427512Y-59012982D01*
X77427515Y-59012984D01*
X77567525Y-59050500D01*
X77567528Y-59050500D01*
X77712472Y-59050500D01*
X77712475Y-59050500D01*
X77852485Y-59012984D01*
X77978015Y-58940509D01*
X78080509Y-58838015D01*
X78152984Y-58712485D01*
X78190500Y-58572475D01*
X78190500Y-58427525D01*
X78152984Y-58287515D01*
X78120172Y-58230684D01*
X78103699Y-58162786D01*
X78122442Y-58107932D01*
X78121372Y-58107433D01*
X78157618Y-58029704D01*
X78174283Y-57993967D01*
X78180500Y-57946744D01*
X78180500Y-56599809D01*
X78200185Y-56532770D01*
X78252989Y-56487015D01*
X78322147Y-56477071D01*
X78385703Y-56506096D01*
X78392181Y-56512128D01*
X78498129Y-56618076D01*
X78498133Y-56618079D01*
X78498135Y-56618081D01*
X78639602Y-56701744D01*
X78639603Y-56701744D01*
X78639604Y-56701745D01*
X78654471Y-56706064D01*
X78668641Y-56710180D01*
X78727527Y-56747785D01*
X78756735Y-56811257D01*
X78746990Y-56880444D01*
X78721730Y-56916938D01*
X78605648Y-57033020D01*
X78605638Y-57033031D01*
X78587361Y-57053379D01*
X78570744Y-57074000D01*
X78570740Y-57074005D01*
X78570740Y-57074007D01*
X78529652Y-57152556D01*
X78524534Y-57162340D01*
X78504850Y-57229375D01*
X78504848Y-57229383D01*
X78494500Y-57301360D01*
X78494500Y-61698639D01*
X78495963Y-61725934D01*
X78495967Y-61725988D01*
X78498797Y-61752310D01*
X78498798Y-61752312D01*
X78528586Y-61847441D01*
X78528590Y-61847451D01*
X78562068Y-61908761D01*
X78562073Y-61908769D01*
X78605649Y-61966980D01*
X78605665Y-61966998D01*
X78820244Y-62181576D01*
X79033015Y-62394347D01*
X79053365Y-62412626D01*
X79053371Y-62412631D01*
X79053379Y-62412638D01*
X79074000Y-62429255D01*
X79074002Y-62429256D01*
X79074007Y-62429260D01*
X79162338Y-62475465D01*
X79229377Y-62495150D01*
X79229381Y-62495150D01*
X79229383Y-62495151D01*
X79236325Y-62496149D01*
X79301362Y-62505500D01*
X81142675Y-62505500D01*
X81209714Y-62525185D01*
X81255469Y-62577989D01*
X81265413Y-62647147D01*
X81236388Y-62710703D01*
X81177610Y-62748477D01*
X81166866Y-62751117D01*
X81162264Y-62752032D01*
X81162260Y-62752033D01*
X81079399Y-62807399D01*
X81024033Y-62890260D01*
X81024032Y-62890264D01*
X81009500Y-62963321D01*
X81009500Y-63962006D01*
X80989815Y-64029045D01*
X80937011Y-64074800D01*
X80867853Y-64084744D01*
X80804297Y-64055719D01*
X80778113Y-64024007D01*
X80771952Y-64013336D01*
X80755470Y-63984788D01*
X80052712Y-63282030D01*
X80052711Y-63282029D01*
X80052708Y-63282027D01*
X79972790Y-63235887D01*
X79972789Y-63235886D01*
X79972788Y-63235886D01*
X79883644Y-63212000D01*
X79883643Y-63212000D01*
X78304500Y-63212000D01*
X78237461Y-63192315D01*
X78191706Y-63139511D01*
X78180500Y-63088000D01*
X78180500Y-62788262D01*
X78180500Y-62788256D01*
X78174283Y-62741033D01*
X78125957Y-62637399D01*
X78045101Y-62556543D01*
X78038372Y-62551831D01*
X77994749Y-62497252D01*
X77985500Y-62450259D01*
X77985500Y-60948858D01*
X77985500Y-60948856D01*
X77961614Y-60859712D01*
X77961613Y-60859711D01*
X77961613Y-60859709D01*
X77947225Y-60834790D01*
X77947224Y-60834788D01*
X77940412Y-60822989D01*
X77915469Y-60779787D01*
X77225212Y-60089530D01*
X77225211Y-60089529D01*
X77225208Y-60089527D01*
X77145290Y-60043387D01*
X77145289Y-60043386D01*
X77145288Y-60043386D01*
X77056144Y-60019500D01*
X77056143Y-60019500D01*
X73196544Y-60019500D01*
X73129505Y-59999815D01*
X73108863Y-59983181D01*
X72751819Y-59626137D01*
X72718334Y-59564814D01*
X72715500Y-59538456D01*
X72715500Y-58284740D01*
X72735185Y-58217701D01*
X72768376Y-58183165D01*
X72775092Y-58178460D01*
X72775101Y-58178457D01*
X72855957Y-58097601D01*
X72887618Y-58029703D01*
X72933791Y-57977265D01*
X73000984Y-57958113D01*
X73067865Y-57978329D01*
X73112382Y-58029704D01*
X73144043Y-58097601D01*
X73224899Y-58178457D01*
X73233786Y-58184680D01*
X73232043Y-58187169D01*
X73246703Y-58193864D01*
X73256598Y-58209262D01*
X73270337Y-58221356D01*
X73275224Y-58238243D01*
X73284477Y-58252642D01*
X73289500Y-58287577D01*
X73289500Y-58310614D01*
X73269815Y-58377653D01*
X73253181Y-58398295D01*
X73199493Y-58451982D01*
X73199488Y-58451988D01*
X73127017Y-58577511D01*
X73127016Y-58577515D01*
X73089500Y-58717525D01*
X73089500Y-58862475D01*
X73126484Y-59000499D01*
X73127017Y-59002488D01*
X73199488Y-59128011D01*
X73199490Y-59128013D01*
X73199491Y-59128015D01*
X73301985Y-59230509D01*
X73301986Y-59230510D01*
X73301988Y-59230511D01*
X73427511Y-59302982D01*
X73427512Y-59302982D01*
X73427515Y-59302984D01*
X73567525Y-59340500D01*
X73567528Y-59340500D01*
X73712472Y-59340500D01*
X73712475Y-59340500D01*
X73852485Y-59302984D01*
X73978015Y-59230509D01*
X74080509Y-59128015D01*
X74152984Y-59002485D01*
X74190500Y-58862475D01*
X74190500Y-58717525D01*
X74152984Y-58577515D01*
X74150072Y-58572472D01*
X74080511Y-58451988D01*
X74080506Y-58451982D01*
X74026819Y-58398295D01*
X74012115Y-58371367D01*
X73995523Y-58345549D01*
X73994631Y-58339348D01*
X73993334Y-58336972D01*
X73990500Y-58310614D01*
X73990500Y-58281239D01*
X74010185Y-58214200D01*
X74043376Y-58179665D01*
X74045098Y-58178458D01*
X74045101Y-58178457D01*
X74125957Y-58097601D01*
X74174283Y-57993967D01*
X74180500Y-57946744D01*
X74180500Y-57946363D01*
X75570000Y-57946363D01*
X75584768Y-58058528D01*
X75584769Y-58058532D01*
X75642578Y-58198098D01*
X75734547Y-58317952D01*
X75854401Y-58409921D01*
X75993967Y-58467730D01*
X75993971Y-58467731D01*
X76106136Y-58482499D01*
X76106151Y-58482500D01*
X76115000Y-58482500D01*
X76115000Y-57422500D01*
X75570000Y-57422500D01*
X75570000Y-57946363D01*
X74180500Y-57946363D01*
X74180500Y-56398636D01*
X75570000Y-56398636D01*
X75570000Y-56922500D01*
X76115000Y-56922500D01*
X76115000Y-55862500D01*
X76106136Y-55862500D01*
X75993971Y-55877268D01*
X75993967Y-55877269D01*
X75854401Y-55935078D01*
X75734547Y-56027047D01*
X75642578Y-56146901D01*
X75584769Y-56286467D01*
X75584768Y-56286471D01*
X75570000Y-56398636D01*
X74180500Y-56398636D01*
X74180500Y-56398256D01*
X74174283Y-56351033D01*
X74125957Y-56247399D01*
X74045101Y-56166543D01*
X73941467Y-56118217D01*
X73941465Y-56118216D01*
X73894254Y-56112001D01*
X73894249Y-56112000D01*
X73894244Y-56112000D01*
X73375756Y-56112000D01*
X73375750Y-56112000D01*
X73375745Y-56112001D01*
X73328534Y-56118216D01*
X73224898Y-56166543D01*
X73144044Y-56247397D01*
X73112382Y-56315296D01*
X73066209Y-56367735D01*
X72999015Y-56386886D01*
X72932134Y-56366670D01*
X72887618Y-56315296D01*
X72884910Y-56309488D01*
X72855957Y-56247399D01*
X72775101Y-56166543D01*
X72671467Y-56118217D01*
X72671465Y-56118216D01*
X72624254Y-56112001D01*
X72624249Y-56112000D01*
X72624244Y-56112000D01*
X72105756Y-56112000D01*
X72105750Y-56112000D01*
X72105745Y-56112001D01*
X72058534Y-56118216D01*
X71954898Y-56166543D01*
X71874043Y-56247398D01*
X71825716Y-56351034D01*
X71819501Y-56398245D01*
X71819500Y-56398262D01*
X71819500Y-57946737D01*
X71819501Y-57946754D01*
X71825716Y-57993965D01*
X71825717Y-57993967D01*
X71874043Y-58097601D01*
X71954899Y-58178457D01*
X71954904Y-58178459D01*
X71961624Y-58183165D01*
X72005249Y-58237742D01*
X72014500Y-58284740D01*
X72014500Y-59781144D01*
X72025881Y-59823619D01*
X72038384Y-59870285D01*
X72038385Y-59870286D01*
X72084527Y-59950208D01*
X72084529Y-59950211D01*
X72084530Y-59950212D01*
X72784788Y-60650470D01*
X72859788Y-60693771D01*
X72864712Y-60696614D01*
X72953856Y-60720500D01*
X72953857Y-60720500D01*
X73046144Y-60720500D01*
X76813456Y-60720500D01*
X76880495Y-60740185D01*
X76901137Y-60756819D01*
X77248181Y-61103863D01*
X77281666Y-61165186D01*
X77284500Y-61191544D01*
X77284500Y-62450259D01*
X77264815Y-62517298D01*
X77231628Y-62551831D01*
X77224898Y-62556543D01*
X77144044Y-62637397D01*
X77144043Y-62637398D01*
X77144043Y-62637399D01*
X77119937Y-62689095D01*
X77112382Y-62705296D01*
X77106886Y-62711537D01*
X77104575Y-62719524D01*
X77084141Y-62737368D01*
X77066209Y-62757735D01*
X77058210Y-62760014D01*
X77051949Y-62765483D01*
X77025112Y-62769447D01*
X76999015Y-62776886D01*
X76991054Y-62774479D01*
X76982830Y-62775695D01*
X76958108Y-62764521D01*
X76932134Y-62756670D01*
X76925090Y-62749597D01*
X76919162Y-62746918D01*
X76908784Y-62733225D01*
X76895946Y-62720334D01*
X76891258Y-62713101D01*
X76855957Y-62637399D01*
X76816830Y-62598272D01*
X76809712Y-62587290D01*
X76803324Y-62565844D01*
X76792600Y-62546204D01*
X76793543Y-62533007D01*
X76789767Y-62520327D01*
X76795987Y-62498832D01*
X76797584Y-62476512D01*
X76806377Y-62457851D01*
X76872984Y-62342485D01*
X76910500Y-62202475D01*
X76910500Y-62057525D01*
X76872984Y-61917515D01*
X76867934Y-61908769D01*
X76800511Y-61791988D01*
X76800506Y-61791982D01*
X76698017Y-61689493D01*
X76698011Y-61689488D01*
X76572488Y-61617017D01*
X76572489Y-61617017D01*
X76536758Y-61607443D01*
X76432475Y-61579500D01*
X76287525Y-61579500D01*
X76183242Y-61607443D01*
X76147511Y-61617017D01*
X76021988Y-61689488D01*
X76021982Y-61689493D01*
X75919493Y-61791982D01*
X75919488Y-61791988D01*
X75847017Y-61917511D01*
X75847016Y-61917515D01*
X75809500Y-62057525D01*
X75809500Y-62202475D01*
X75844462Y-62332953D01*
X75847017Y-62342488D01*
X75917280Y-62464186D01*
X75933753Y-62532086D01*
X75910901Y-62598113D01*
X75897576Y-62613866D01*
X75874042Y-62637400D01*
X75825716Y-62741034D01*
X75819501Y-62788245D01*
X75819500Y-62788262D01*
X75819500Y-64336737D01*
X75819501Y-64336754D01*
X75825716Y-64383965D01*
X75838938Y-64412319D01*
X75874043Y-64487601D01*
X75954899Y-64568457D01*
X76058533Y-64616783D01*
X76105756Y-64623000D01*
X76105763Y-64623000D01*
X76624237Y-64623000D01*
X76624244Y-64623000D01*
X76671467Y-64616783D01*
X76775101Y-64568457D01*
X76855957Y-64487601D01*
X76887618Y-64419703D01*
X76933791Y-64367265D01*
X77000984Y-64348113D01*
X77067865Y-64368329D01*
X77112381Y-64419703D01*
X77144043Y-64487601D01*
X77224899Y-64568457D01*
X77328533Y-64616783D01*
X77375756Y-64623000D01*
X77375763Y-64623000D01*
X77894237Y-64623000D01*
X77894244Y-64623000D01*
X77941467Y-64616783D01*
X78045101Y-64568457D01*
X78125957Y-64487601D01*
X78174283Y-64383967D01*
X78180500Y-64336744D01*
X78180500Y-64037000D01*
X78200185Y-63969961D01*
X78252989Y-63924206D01*
X78304500Y-63913000D01*
X79640956Y-63913000D01*
X79707995Y-63932685D01*
X79728637Y-63949319D01*
X80088181Y-64308863D01*
X80102884Y-64335790D01*
X80119477Y-64361609D01*
X80120368Y-64367809D01*
X80121666Y-64370186D01*
X80124500Y-64396544D01*
X80124500Y-64620614D01*
X80104815Y-64687653D01*
X80088181Y-64708295D01*
X80034493Y-64761982D01*
X80034488Y-64761988D01*
X79962017Y-64887511D01*
X79962016Y-64887515D01*
X79924500Y-65027525D01*
X79924500Y-65172475D01*
X79962016Y-65312485D01*
X79962017Y-65312488D01*
X80034488Y-65438011D01*
X80034490Y-65438013D01*
X80034491Y-65438015D01*
X80136985Y-65540509D01*
X80136986Y-65540510D01*
X80136988Y-65540511D01*
X80262511Y-65612982D01*
X80262512Y-65612982D01*
X80262515Y-65612984D01*
X80402525Y-65650500D01*
X80402528Y-65650500D01*
X80547472Y-65650500D01*
X80547475Y-65650500D01*
X80687485Y-65612984D01*
X80813015Y-65540509D01*
X80915509Y-65438015D01*
X80987984Y-65312485D01*
X81025500Y-65172475D01*
X81025500Y-65070543D01*
X81045185Y-65003504D01*
X81097989Y-64957749D01*
X81167147Y-64947805D01*
X81230703Y-64976830D01*
X81237167Y-64982849D01*
X81469531Y-65215212D01*
X81534788Y-65280469D01*
X81534791Y-65280470D01*
X81534794Y-65280473D01*
X81614706Y-65326611D01*
X81614707Y-65326611D01*
X81614712Y-65326614D01*
X81703856Y-65350500D01*
X85679404Y-65350500D01*
X85746443Y-65370185D01*
X85778115Y-65405770D01*
X85780956Y-65403743D01*
X85786926Y-65412105D01*
X85877897Y-65503076D01*
X85877900Y-65503078D01*
X85985547Y-65555703D01*
X85993482Y-65559582D01*
X86068418Y-65570500D01*
X86068423Y-65570500D01*
X86411577Y-65570500D01*
X86411582Y-65570500D01*
X86486518Y-65559582D01*
X86544310Y-65531329D01*
X86602099Y-65503078D01*
X86602102Y-65503076D01*
X86662319Y-65442860D01*
X86723642Y-65409375D01*
X86793334Y-65414359D01*
X86837681Y-65442860D01*
X86897897Y-65503076D01*
X86897900Y-65503078D01*
X87005547Y-65555703D01*
X87013482Y-65559582D01*
X87088418Y-65570500D01*
X87088423Y-65570500D01*
X87431577Y-65570500D01*
X87431582Y-65570500D01*
X87506518Y-65559582D01*
X87564310Y-65531329D01*
X87622099Y-65503078D01*
X87622102Y-65503076D01*
X87713075Y-65412103D01*
X87713076Y-65412102D01*
X87759100Y-65317958D01*
X87806227Y-65266378D01*
X87873761Y-65248463D01*
X87940260Y-65269904D01*
X87984610Y-65323893D01*
X87994500Y-65372420D01*
X87994500Y-65842806D01*
X87974815Y-65909845D01*
X87958181Y-65930487D01*
X87430487Y-66458181D01*
X87369164Y-66491666D01*
X87342806Y-66494500D01*
X85801361Y-66494500D01*
X85774065Y-66495963D01*
X85774060Y-66495963D01*
X85774048Y-66495964D01*
X85774040Y-66495964D01*
X85774011Y-66495967D01*
X85747689Y-66498797D01*
X85747687Y-66498798D01*
X85652558Y-66528586D01*
X85652548Y-66528590D01*
X85591238Y-66562068D01*
X85591230Y-66562073D01*
X85533019Y-66605649D01*
X85533001Y-66605665D01*
X84855666Y-67283001D01*
X84855638Y-67283031D01*
X84837361Y-67303379D01*
X84820744Y-67324000D01*
X84820740Y-67324005D01*
X84820740Y-67324007D01*
X84793408Y-67376258D01*
X84774534Y-67412340D01*
X84754850Y-67479375D01*
X84754848Y-67479383D01*
X84744500Y-67551360D01*
X84744500Y-68952773D01*
X84724815Y-69019812D01*
X84672011Y-69065567D01*
X84602853Y-69075511D01*
X84563026Y-69062649D01*
X84490161Y-69024534D01*
X84423124Y-69004850D01*
X84423116Y-69004848D01*
X84351139Y-68994500D01*
X84351138Y-68994500D01*
X79863862Y-68994500D01*
X79863861Y-68994500D01*
X79836565Y-68995963D01*
X79836560Y-68995963D01*
X79836548Y-68995964D01*
X79836540Y-68995964D01*
X79836511Y-68995967D01*
X79810191Y-68998797D01*
X79772508Y-69010597D01*
X79702649Y-69011844D01*
X79643206Y-68975124D01*
X79613052Y-68912097D01*
X79611455Y-68892262D01*
X79611455Y-68814500D01*
X79631140Y-68747461D01*
X79683944Y-68701706D01*
X79735455Y-68690500D01*
X80398676Y-68690500D01*
X80398677Y-68690499D01*
X80471740Y-68675966D01*
X80554601Y-68620601D01*
X80609966Y-68537740D01*
X80624500Y-68464674D01*
X80624500Y-67043326D01*
X80624500Y-67043323D01*
X80624499Y-67043321D01*
X80609967Y-66970264D01*
X80609966Y-66970263D01*
X80609966Y-66970260D01*
X80609964Y-66970257D01*
X80609939Y-66970195D01*
X80600500Y-66922741D01*
X80600500Y-66799235D01*
X80600500Y-66799234D01*
X80592704Y-66770141D01*
X80590121Y-66760499D01*
X80577657Y-66713983D01*
X80561281Y-66652865D01*
X80485515Y-66521635D01*
X80177618Y-66213738D01*
X80112003Y-66175855D01*
X80046389Y-66137972D01*
X79964386Y-66116000D01*
X79900019Y-66098753D01*
X79900018Y-66098753D01*
X79699958Y-66098753D01*
X79632919Y-66079068D01*
X79631067Y-66077855D01*
X79528276Y-66009172D01*
X79528263Y-66009165D01*
X79391692Y-65952596D01*
X79391682Y-65952593D01*
X79246695Y-65923753D01*
X79246693Y-65923753D01*
X79098857Y-65923753D01*
X79098855Y-65923753D01*
X78953867Y-65952593D01*
X78953857Y-65952596D01*
X78817286Y-66009165D01*
X78817273Y-66009172D01*
X78694359Y-66091301D01*
X78694355Y-66091304D01*
X78589826Y-66195833D01*
X78589823Y-66195837D01*
X78507694Y-66318751D01*
X78507687Y-66318764D01*
X78451118Y-66455335D01*
X78451115Y-66455345D01*
X78422275Y-66600332D01*
X78422275Y-66600335D01*
X78422275Y-66748171D01*
X78422275Y-66748173D01*
X78422274Y-66748173D01*
X78438654Y-66830514D01*
X78432427Y-66900106D01*
X78389564Y-66955283D01*
X78341236Y-66976322D01*
X78331092Y-66978340D01*
X78331084Y-66978342D01*
X78194511Y-67034912D01*
X78194498Y-67034919D01*
X78091708Y-67103602D01*
X78025030Y-67124480D01*
X78022817Y-67124500D01*
X77024233Y-67124500D01*
X76893607Y-67159501D01*
X76893606Y-67159500D01*
X76877866Y-67163718D01*
X76877865Y-67163718D01*
X76746635Y-67239485D01*
X76746632Y-67239487D01*
X76522180Y-67463939D01*
X76460857Y-67497424D01*
X76391165Y-67492440D01*
X76335232Y-67450568D01*
X76310815Y-67385104D01*
X76310499Y-67376283D01*
X76310499Y-67059266D01*
X76310499Y-67059262D01*
X76303247Y-67013476D01*
X76301970Y-67005413D01*
X76310924Y-66936121D01*
X76336762Y-66898334D01*
X76429717Y-66805379D01*
X76429721Y-66805374D01*
X76512031Y-66666195D01*
X76554504Y-66520000D01*
X75874000Y-66520000D01*
X75806961Y-66500315D01*
X75761206Y-66447511D01*
X75750000Y-66396000D01*
X75750000Y-66270000D01*
X75624000Y-66270000D01*
X75556961Y-66250315D01*
X75511206Y-66197511D01*
X75500000Y-66146000D01*
X75500000Y-66020000D01*
X76000000Y-66020000D01*
X76554504Y-66020000D01*
X76512031Y-65873804D01*
X76429721Y-65734625D01*
X76429714Y-65734616D01*
X76315383Y-65620285D01*
X76315374Y-65620278D01*
X76176195Y-65537968D01*
X76176190Y-65537966D01*
X76020918Y-65492855D01*
X76020912Y-65492854D01*
X76000000Y-65491209D01*
X76000000Y-66020000D01*
X75500000Y-66020000D01*
X75500000Y-65503372D01*
X75447964Y-65468719D01*
X75429146Y-65446273D01*
X75408289Y-65425710D01*
X75406961Y-65419809D01*
X75403077Y-65415176D01*
X75399382Y-65386123D01*
X75392952Y-65357545D01*
X75394370Y-65346720D01*
X75394262Y-65345865D01*
X75394566Y-65345225D01*
X75395076Y-65341332D01*
X75400500Y-65314069D01*
X75400500Y-65185931D01*
X75400500Y-65185928D01*
X75375502Y-65060261D01*
X75375501Y-65060260D01*
X75375501Y-65060256D01*
X75326465Y-64941873D01*
X75326464Y-64941872D01*
X75326461Y-64941866D01*
X75255276Y-64835331D01*
X75255273Y-64835327D01*
X75164672Y-64744726D01*
X75164668Y-64744723D01*
X75058133Y-64673538D01*
X75058124Y-64673533D01*
X74939744Y-64624499D01*
X74939738Y-64624497D01*
X74814071Y-64599500D01*
X74814069Y-64599500D01*
X74685931Y-64599500D01*
X74685929Y-64599500D01*
X74554282Y-64625687D01*
X74553960Y-64624069D01*
X74492032Y-64624615D01*
X74432923Y-64587359D01*
X74403340Y-64524062D01*
X74411358Y-64457879D01*
X74415232Y-64448526D01*
X74429999Y-64336363D01*
X74430000Y-64336349D01*
X74430000Y-63812500D01*
X73759000Y-63812500D01*
X73691961Y-63792815D01*
X73646206Y-63740011D01*
X73635000Y-63688500D01*
X73635000Y-63562500D01*
X73509000Y-63562500D01*
X73441961Y-63542815D01*
X73396206Y-63490011D01*
X73385000Y-63438500D01*
X73385000Y-63312500D01*
X73885000Y-63312500D01*
X74430000Y-63312500D01*
X74430000Y-62788650D01*
X74429999Y-62788636D01*
X74415231Y-62676471D01*
X74415230Y-62676467D01*
X74357421Y-62536901D01*
X74265452Y-62417047D01*
X74145598Y-62325078D01*
X74006032Y-62267269D01*
X74006028Y-62267268D01*
X73893863Y-62252500D01*
X73885000Y-62252500D01*
X73885000Y-63312500D01*
X73385000Y-63312500D01*
X73385000Y-62252500D01*
X73376136Y-62252500D01*
X73263971Y-62267268D01*
X73263967Y-62267269D01*
X73124401Y-62325078D01*
X73004544Y-62417049D01*
X72925833Y-62519626D01*
X72869405Y-62560829D01*
X72799659Y-62564983D01*
X72775056Y-62556522D01*
X72671467Y-62508217D01*
X72671465Y-62508216D01*
X72624254Y-62502001D01*
X72624249Y-62502000D01*
X72624244Y-62502000D01*
X72105756Y-62502000D01*
X72105750Y-62502000D01*
X72105745Y-62502001D01*
X72058534Y-62508216D01*
X71954898Y-62556543D01*
X71874043Y-62637398D01*
X71825716Y-62741034D01*
X71819501Y-62788245D01*
X71819500Y-62788262D01*
X71819500Y-64336737D01*
X71819501Y-64336754D01*
X71825716Y-64383964D01*
X71825716Y-64383965D01*
X71825717Y-64383967D01*
X71867279Y-64473095D01*
X71877771Y-64542172D01*
X71849252Y-64605956D01*
X71790775Y-64644196D01*
X71754897Y-64649500D01*
X67708325Y-64649500D01*
X67641286Y-64629815D01*
X67595531Y-64577011D01*
X67585587Y-64507853D01*
X67611772Y-64447695D01*
X67615947Y-64442513D01*
X67629260Y-64425993D01*
X67675465Y-64337662D01*
X67695150Y-64270623D01*
X67705500Y-64198638D01*
X67705500Y-63407193D01*
X67725185Y-63340154D01*
X67741819Y-63319512D01*
X68133442Y-62927889D01*
X68594347Y-62466985D01*
X68612626Y-62446635D01*
X68629260Y-62425993D01*
X68675465Y-62337662D01*
X68695150Y-62270623D01*
X68705500Y-62198638D01*
X68705500Y-59759639D01*
X68725185Y-59692600D01*
X68777989Y-59646845D01*
X68847147Y-59636901D01*
X68885792Y-59649153D01*
X68914411Y-59663736D01*
X69142778Y-59737937D01*
X69379941Y-59775500D01*
X69379942Y-59775500D01*
X69620058Y-59775500D01*
X69620059Y-59775500D01*
X69857222Y-59737937D01*
X70085589Y-59663736D01*
X70299536Y-59554724D01*
X70493796Y-59413586D01*
X70663586Y-59243796D01*
X70804724Y-59049536D01*
X70913736Y-58835589D01*
X70987937Y-58607222D01*
X71025500Y-58370059D01*
X71025500Y-58129941D01*
X70987937Y-57892778D01*
X70913736Y-57664411D01*
X70913734Y-57664408D01*
X70913734Y-57664406D01*
X70804723Y-57450463D01*
X70784407Y-57422500D01*
X70663586Y-57256204D01*
X70493796Y-57086414D01*
X70299536Y-56945276D01*
X70243920Y-56916938D01*
X70085593Y-56836265D01*
X69857222Y-56762063D01*
X69767074Y-56747785D01*
X69620059Y-56724500D01*
X69379941Y-56724500D01*
X69261359Y-56743281D01*
X69142777Y-56762063D01*
X68914406Y-56836265D01*
X68700463Y-56945276D01*
X68506205Y-57086413D01*
X68380291Y-57212327D01*
X68318968Y-57245811D01*
X68249276Y-57240827D01*
X68193343Y-57198955D01*
X68174276Y-57161701D01*
X68171413Y-57152556D01*
X68171411Y-57152554D01*
X68171411Y-57152551D01*
X68171409Y-57152548D01*
X68137931Y-57091238D01*
X68137926Y-57091230D01*
X68094350Y-57033019D01*
X68094349Y-57033018D01*
X68094347Y-57033015D01*
X68094342Y-57033010D01*
X68094334Y-57033001D01*
X67666998Y-56605666D01*
X67666997Y-56605665D01*
X67666985Y-56605653D01*
X67646635Y-56587374D01*
X67646629Y-56587369D01*
X67646620Y-56587361D01*
X67625999Y-56570744D01*
X67625996Y-56570742D01*
X67625993Y-56570740D01*
X67537662Y-56524535D01*
X67537659Y-56524534D01*
X67470624Y-56504850D01*
X67470616Y-56504848D01*
X67398639Y-56494500D01*
X67398638Y-56494500D01*
X66827937Y-56494500D01*
X66760898Y-56474815D01*
X66715143Y-56422011D01*
X66705199Y-56352853D01*
X66708861Y-56335905D01*
X66747597Y-56202573D01*
X66747598Y-56202567D01*
X66750500Y-56165694D01*
X66750500Y-50834306D01*
X66747598Y-50797431D01*
X66701744Y-50639602D01*
X66618081Y-50498135D01*
X66618079Y-50498133D01*
X66618076Y-50498129D01*
X66582128Y-50462181D01*
X66548643Y-50400858D01*
X66553627Y-50331166D01*
X66595499Y-50275233D01*
X66660963Y-50250816D01*
X66669809Y-50250500D01*
X78330191Y-50250500D01*
X78397230Y-50270185D01*
G37*
%TD.AperFunction*%
%TA.AperFunction,Conductor*%
G36*
X85622539Y-60770185D02*
G01*
X85668294Y-60822989D01*
X85679500Y-60874500D01*
X85679500Y-61161582D01*
X85690418Y-61236518D01*
X85731959Y-61321491D01*
X85734861Y-61331101D01*
X85735054Y-61356405D01*
X85739315Y-61381358D01*
X85735317Y-61390757D01*
X85735396Y-61400969D01*
X85721875Y-61422364D01*
X85711971Y-61445655D01*
X85703527Y-61451400D01*
X85698072Y-61460034D01*
X85675131Y-61470723D01*
X85654207Y-61484962D01*
X85643996Y-61485230D01*
X85634740Y-61489544D01*
X85609663Y-61486134D01*
X85584361Y-61486800D01*
X85584062Y-61486720D01*
X85519401Y-61469394D01*
X85482475Y-61459500D01*
X85337525Y-61459500D01*
X85221799Y-61490509D01*
X85197511Y-61497017D01*
X85071988Y-61569488D01*
X85071982Y-61569493D01*
X84967181Y-61674295D01*
X84905858Y-61707780D01*
X84836166Y-61702796D01*
X84780233Y-61660924D01*
X84755816Y-61595460D01*
X84755500Y-61586614D01*
X84755500Y-61043247D01*
X84775185Y-60976208D01*
X84806562Y-60942967D01*
X85038598Y-60774215D01*
X85104391Y-60750706D01*
X85111529Y-60750500D01*
X85555500Y-60750500D01*
X85622539Y-60770185D01*
G37*
%TD.AperFunction*%
%TD*%
M02*
