%TF.GenerationSoftware,KiCad,Pcbnew,9.0.1*%
%TF.CreationDate,2025-07-05T19:11:37+01:00*%
%TF.ProjectId,PDB_AURA,5044425f-4155-4524-912e-6b696361645f,rev?*%
%TF.SameCoordinates,Original*%
%TF.FileFunction,Legend,Top*%
%TF.FilePolarity,Positive*%
%FSLAX46Y46*%
G04 Gerber Fmt 4.6, Leading zero omitted, Abs format (unit mm)*
G04 Created by KiCad (PCBNEW 9.0.1) date 2025-07-05 19:11:37*
%MOMM*%
%LPD*%
G01*
G04 APERTURE LIST*
%ADD10C,0.250000*%
%ADD11C,0.500000*%
%ADD12C,0.120000*%
%ADD13C,0.127000*%
%ADD14C,0.200000*%
%ADD15C,0.100000*%
%ADD16C,0.300000*%
G04 APERTURE END LIST*
D10*
X72235901Y-89340809D02*
X71902568Y-89340809D01*
X71902568Y-89864619D02*
X71902568Y-88864619D01*
X71902568Y-88864619D02*
X72378758Y-88864619D01*
X72759711Y-89864619D02*
X72759711Y-88864619D01*
X73712091Y-89864619D02*
X73235901Y-89864619D01*
X73235901Y-89864619D02*
X73235901Y-88864619D01*
X73902568Y-88864619D02*
X74473996Y-88864619D01*
X74188282Y-89864619D02*
X74188282Y-88864619D01*
X69652568Y-76364619D02*
X69652568Y-75364619D01*
X69652568Y-75364619D02*
X70033520Y-75364619D01*
X70033520Y-75364619D02*
X70128758Y-75412238D01*
X70128758Y-75412238D02*
X70176377Y-75459857D01*
X70176377Y-75459857D02*
X70223996Y-75555095D01*
X70223996Y-75555095D02*
X70223996Y-75697952D01*
X70223996Y-75697952D02*
X70176377Y-75793190D01*
X70176377Y-75793190D02*
X70128758Y-75840809D01*
X70128758Y-75840809D02*
X70033520Y-75888428D01*
X70033520Y-75888428D02*
X69652568Y-75888428D01*
X71176377Y-75412238D02*
X71081139Y-75364619D01*
X71081139Y-75364619D02*
X70938282Y-75364619D01*
X70938282Y-75364619D02*
X70795425Y-75412238D01*
X70795425Y-75412238D02*
X70700187Y-75507476D01*
X70700187Y-75507476D02*
X70652568Y-75602714D01*
X70652568Y-75602714D02*
X70604949Y-75793190D01*
X70604949Y-75793190D02*
X70604949Y-75936047D01*
X70604949Y-75936047D02*
X70652568Y-76126523D01*
X70652568Y-76126523D02*
X70700187Y-76221761D01*
X70700187Y-76221761D02*
X70795425Y-76317000D01*
X70795425Y-76317000D02*
X70938282Y-76364619D01*
X70938282Y-76364619D02*
X71033520Y-76364619D01*
X71033520Y-76364619D02*
X71176377Y-76317000D01*
X71176377Y-76317000D02*
X71223996Y-76269380D01*
X71223996Y-76269380D02*
X71223996Y-75936047D01*
X71223996Y-75936047D02*
X71033520Y-75936047D01*
X71843044Y-75364619D02*
X72033520Y-75364619D01*
X72033520Y-75364619D02*
X72128758Y-75412238D01*
X72128758Y-75412238D02*
X72223996Y-75507476D01*
X72223996Y-75507476D02*
X72271615Y-75697952D01*
X72271615Y-75697952D02*
X72271615Y-76031285D01*
X72271615Y-76031285D02*
X72223996Y-76221761D01*
X72223996Y-76221761D02*
X72128758Y-76317000D01*
X72128758Y-76317000D02*
X72033520Y-76364619D01*
X72033520Y-76364619D02*
X71843044Y-76364619D01*
X71843044Y-76364619D02*
X71747806Y-76317000D01*
X71747806Y-76317000D02*
X71652568Y-76221761D01*
X71652568Y-76221761D02*
X71604949Y-76031285D01*
X71604949Y-76031285D02*
X71604949Y-75697952D01*
X71604949Y-75697952D02*
X71652568Y-75507476D01*
X71652568Y-75507476D02*
X71747806Y-75412238D01*
X71747806Y-75412238D02*
X71843044Y-75364619D01*
X72890663Y-75364619D02*
X73081139Y-75364619D01*
X73081139Y-75364619D02*
X73176377Y-75412238D01*
X73176377Y-75412238D02*
X73271615Y-75507476D01*
X73271615Y-75507476D02*
X73319234Y-75697952D01*
X73319234Y-75697952D02*
X73319234Y-76031285D01*
X73319234Y-76031285D02*
X73271615Y-76221761D01*
X73271615Y-76221761D02*
X73176377Y-76317000D01*
X73176377Y-76317000D02*
X73081139Y-76364619D01*
X73081139Y-76364619D02*
X72890663Y-76364619D01*
X72890663Y-76364619D02*
X72795425Y-76317000D01*
X72795425Y-76317000D02*
X72700187Y-76221761D01*
X72700187Y-76221761D02*
X72652568Y-76031285D01*
X72652568Y-76031285D02*
X72652568Y-75697952D01*
X72652568Y-75697952D02*
X72700187Y-75507476D01*
X72700187Y-75507476D02*
X72795425Y-75412238D01*
X72795425Y-75412238D02*
X72890663Y-75364619D01*
X73747806Y-76364619D02*
X73747806Y-75364619D01*
X73747806Y-75364619D02*
X73985901Y-75364619D01*
X73985901Y-75364619D02*
X74128758Y-75412238D01*
X74128758Y-75412238D02*
X74223996Y-75507476D01*
X74223996Y-75507476D02*
X74271615Y-75602714D01*
X74271615Y-75602714D02*
X74319234Y-75793190D01*
X74319234Y-75793190D02*
X74319234Y-75936047D01*
X74319234Y-75936047D02*
X74271615Y-76126523D01*
X74271615Y-76126523D02*
X74223996Y-76221761D01*
X74223996Y-76221761D02*
X74128758Y-76317000D01*
X74128758Y-76317000D02*
X73985901Y-76364619D01*
X73985901Y-76364619D02*
X73747806Y-76364619D01*
X96378758Y-72614619D02*
X95902568Y-72614619D01*
X95902568Y-72614619D02*
X95854949Y-73090809D01*
X95854949Y-73090809D02*
X95902568Y-73043190D01*
X95902568Y-73043190D02*
X95997806Y-72995571D01*
X95997806Y-72995571D02*
X96235901Y-72995571D01*
X96235901Y-72995571D02*
X96331139Y-73043190D01*
X96331139Y-73043190D02*
X96378758Y-73090809D01*
X96378758Y-73090809D02*
X96426377Y-73186047D01*
X96426377Y-73186047D02*
X96426377Y-73424142D01*
X96426377Y-73424142D02*
X96378758Y-73519380D01*
X96378758Y-73519380D02*
X96331139Y-73567000D01*
X96331139Y-73567000D02*
X96235901Y-73614619D01*
X96235901Y-73614619D02*
X95997806Y-73614619D01*
X95997806Y-73614619D02*
X95902568Y-73567000D01*
X95902568Y-73567000D02*
X95854949Y-73519380D01*
X96712092Y-72614619D02*
X97045425Y-73614619D01*
X97045425Y-73614619D02*
X97378758Y-72614619D01*
D11*
X60555137Y-81717333D02*
X62078947Y-81717333D01*
X61317042Y-82479238D02*
X61317042Y-80955428D01*
D10*
G36*
X62145050Y-56135380D02*
G01*
X59028405Y-56135380D01*
X59028405Y-54860994D01*
X59153405Y-54860994D01*
X59153405Y-54909766D01*
X59172069Y-54954826D01*
X59206557Y-54989314D01*
X59251617Y-55007978D01*
X59276003Y-55010380D01*
X59436717Y-55010380D01*
X59436717Y-55885380D01*
X59436725Y-55885466D01*
X59436717Y-55885510D01*
X59436742Y-55885636D01*
X59439119Y-55909766D01*
X59443854Y-55921198D01*
X59446282Y-55933337D01*
X59453097Y-55943513D01*
X59457783Y-55954826D01*
X59466533Y-55963576D01*
X59473421Y-55973861D01*
X59483612Y-55980655D01*
X59492271Y-55989314D01*
X59503703Y-55994049D01*
X59514002Y-56000915D01*
X59526017Y-56003292D01*
X59537331Y-56007978D01*
X59549705Y-56007978D01*
X59561847Y-56010380D01*
X59573858Y-56007978D01*
X59586103Y-56007978D01*
X59597535Y-56003242D01*
X59609674Y-56000815D01*
X59619850Y-55993999D01*
X59631163Y-55989314D01*
X59639913Y-55980563D01*
X59650198Y-55973676D01*
X59665560Y-55954916D01*
X59665651Y-55954826D01*
X59665667Y-55954785D01*
X59665723Y-55954718D01*
X59754095Y-55822158D01*
X59826236Y-55750017D01*
X59903332Y-55711470D01*
X59924070Y-55698415D01*
X59956026Y-55661570D01*
X59971449Y-55615300D01*
X59967991Y-55566650D01*
X59946180Y-55523027D01*
X59909335Y-55491071D01*
X59863064Y-55475648D01*
X59814415Y-55479105D01*
X59791529Y-55487863D01*
X59696291Y-55535482D01*
X59686717Y-55541508D01*
X59686717Y-55010380D01*
X59847431Y-55010380D01*
X59871817Y-55007978D01*
X59916877Y-54989314D01*
X59951365Y-54954826D01*
X59970029Y-54909766D01*
X59970029Y-54885380D01*
X60151003Y-54885380D01*
X60151003Y-55885380D01*
X60153405Y-55909766D01*
X60172069Y-55954826D01*
X60206557Y-55989314D01*
X60251617Y-56007978D01*
X60300389Y-56007978D01*
X60345449Y-55989314D01*
X60379937Y-55954826D01*
X60398601Y-55909766D01*
X60401003Y-55885380D01*
X60401003Y-55534190D01*
X60722431Y-55534190D01*
X60722431Y-55885380D01*
X60724833Y-55909766D01*
X60743497Y-55954826D01*
X60777985Y-55989314D01*
X60823045Y-56007978D01*
X60871817Y-56007978D01*
X60916877Y-55989314D01*
X60951365Y-55954826D01*
X60970029Y-55909766D01*
X60972431Y-55885380D01*
X60972431Y-54956232D01*
X61153405Y-54956232D01*
X61153405Y-55005006D01*
X61172070Y-55050065D01*
X61206557Y-55084552D01*
X61251616Y-55103217D01*
X61300390Y-55103217D01*
X61345449Y-55084552D01*
X61364391Y-55069007D01*
X61391145Y-55042253D01*
X61486763Y-55010380D01*
X61541433Y-55010380D01*
X61637051Y-55042253D01*
X61697079Y-55102281D01*
X61729490Y-55167104D01*
X61770050Y-55329341D01*
X61770050Y-55441420D01*
X61729490Y-55603656D01*
X61697079Y-55668479D01*
X61637051Y-55728507D01*
X61541434Y-55760380D01*
X61486765Y-55760380D01*
X61391145Y-55728507D01*
X61364391Y-55701754D01*
X61345449Y-55686209D01*
X61300390Y-55667544D01*
X61251616Y-55667544D01*
X61206557Y-55686209D01*
X61172070Y-55720696D01*
X61153405Y-55765755D01*
X61153405Y-55814529D01*
X61172070Y-55859588D01*
X61187615Y-55878530D01*
X61235233Y-55926149D01*
X61254175Y-55941694D01*
X61258326Y-55943413D01*
X61261719Y-55946356D01*
X61284094Y-55956346D01*
X61426950Y-56003965D01*
X61439043Y-56006714D01*
X61442093Y-56007978D01*
X61446514Y-56008413D01*
X61450844Y-56009398D01*
X61454135Y-56009164D01*
X61466479Y-56010380D01*
X61561717Y-56010380D01*
X61574060Y-56009164D01*
X61577351Y-56009398D01*
X61581680Y-56008413D01*
X61586103Y-56007978D01*
X61589154Y-56006714D01*
X61601245Y-56003965D01*
X61744102Y-55956347D01*
X61766477Y-55946356D01*
X61769870Y-55943412D01*
X61774020Y-55941694D01*
X61792962Y-55926149D01*
X61888200Y-55830911D01*
X61896066Y-55821325D01*
X61898561Y-55819162D01*
X61900928Y-55815400D01*
X61903745Y-55811969D01*
X61905007Y-55808921D01*
X61911615Y-55798425D01*
X61959234Y-55703187D01*
X61959917Y-55701401D01*
X61960454Y-55700677D01*
X61964109Y-55690447D01*
X61967992Y-55680301D01*
X61968055Y-55679401D01*
X61968699Y-55677602D01*
X62016318Y-55487126D01*
X62016943Y-55482896D01*
X62017648Y-55481195D01*
X62018552Y-55472015D01*
X62019902Y-55462886D01*
X62019630Y-55461063D01*
X62020050Y-55456809D01*
X62020050Y-55313952D01*
X62019630Y-55309697D01*
X62019902Y-55307875D01*
X62018552Y-55298745D01*
X62017648Y-55289566D01*
X62016943Y-55287864D01*
X62016318Y-55283635D01*
X61968699Y-55093159D01*
X61968055Y-55091359D01*
X61967992Y-55090460D01*
X61964109Y-55080313D01*
X61960454Y-55070084D01*
X61959917Y-55069359D01*
X61959234Y-55067574D01*
X61911615Y-54972336D01*
X61905007Y-54961839D01*
X61903745Y-54958792D01*
X61900928Y-54955360D01*
X61898561Y-54951599D01*
X61896066Y-54949435D01*
X61888200Y-54939850D01*
X61792962Y-54844612D01*
X61774020Y-54829067D01*
X61769872Y-54827348D01*
X61766478Y-54824405D01*
X61744103Y-54814415D01*
X61601246Y-54766795D01*
X61589152Y-54764045D01*
X61586103Y-54762782D01*
X61581681Y-54762346D01*
X61577352Y-54761362D01*
X61574060Y-54761595D01*
X61561717Y-54760380D01*
X61466479Y-54760380D01*
X61454135Y-54761595D01*
X61450844Y-54761362D01*
X61446514Y-54762346D01*
X61442093Y-54762782D01*
X61439043Y-54764045D01*
X61426950Y-54766795D01*
X61284093Y-54814415D01*
X61261718Y-54824405D01*
X61258324Y-54827348D01*
X61254175Y-54829067D01*
X61235233Y-54844612D01*
X61187615Y-54892231D01*
X61172070Y-54911173D01*
X61153405Y-54956232D01*
X60972431Y-54956232D01*
X60972431Y-54885380D01*
X60970029Y-54860994D01*
X60951365Y-54815934D01*
X60916877Y-54781446D01*
X60871817Y-54762782D01*
X60823045Y-54762782D01*
X60777985Y-54781446D01*
X60743497Y-54815934D01*
X60724833Y-54860994D01*
X60722431Y-54885380D01*
X60722431Y-55284190D01*
X60401003Y-55284190D01*
X60401003Y-54885380D01*
X60398601Y-54860994D01*
X60379937Y-54815934D01*
X60345449Y-54781446D01*
X60300389Y-54762782D01*
X60251617Y-54762782D01*
X60206557Y-54781446D01*
X60172069Y-54815934D01*
X60153405Y-54860994D01*
X60151003Y-54885380D01*
X59970029Y-54885380D01*
X59970029Y-54860994D01*
X59951365Y-54815934D01*
X59916877Y-54781446D01*
X59871817Y-54762782D01*
X59847431Y-54760380D01*
X59276003Y-54760380D01*
X59251617Y-54762782D01*
X59206557Y-54781446D01*
X59172069Y-54815934D01*
X59153405Y-54860994D01*
X59028405Y-54860994D01*
X59028405Y-54635380D01*
X62145050Y-54635380D01*
X62145050Y-56135380D01*
G37*
G36*
X65405096Y-75547619D02*
G01*
X65211095Y-75612286D01*
X65211095Y-75482952D01*
X65405096Y-75547619D01*
G37*
G36*
X65199190Y-74670190D02*
G01*
X65167317Y-74765809D01*
X65154907Y-74778220D01*
X65104206Y-74803571D01*
X65020366Y-74803571D01*
X64969664Y-74778220D01*
X64950731Y-74759288D01*
X64925380Y-74708585D01*
X64925380Y-74482143D01*
X65199190Y-74482143D01*
X65199190Y-74670190D01*
G37*
G36*
X65675380Y-74660967D02*
G01*
X65650029Y-74711668D01*
X65631097Y-74730601D01*
X65580396Y-74755952D01*
X65544175Y-74755952D01*
X65493473Y-74730601D01*
X65474540Y-74711669D01*
X65449190Y-74660968D01*
X65449190Y-74482143D01*
X65675380Y-74482143D01*
X65675380Y-74660967D01*
G37*
G36*
X66050380Y-76890455D02*
G01*
X64550380Y-76890455D01*
X64550380Y-76332757D01*
X64677782Y-76332757D01*
X64677782Y-76381529D01*
X64696446Y-76426589D01*
X64730934Y-76461077D01*
X64775994Y-76479741D01*
X64800380Y-76482143D01*
X65675380Y-76482143D01*
X65675380Y-76642857D01*
X65677782Y-76667243D01*
X65696446Y-76712303D01*
X65730934Y-76746791D01*
X65775994Y-76765455D01*
X65824766Y-76765455D01*
X65869826Y-76746791D01*
X65904314Y-76712303D01*
X65922978Y-76667243D01*
X65925380Y-76642857D01*
X65925380Y-76071429D01*
X65922978Y-76047043D01*
X65904314Y-76001983D01*
X65869826Y-75967495D01*
X65824766Y-75948831D01*
X65775994Y-75948831D01*
X65730934Y-75967495D01*
X65696446Y-76001983D01*
X65677782Y-76047043D01*
X65675380Y-76071429D01*
X65675380Y-76232143D01*
X64800380Y-76232143D01*
X64775994Y-76234545D01*
X64730934Y-76253209D01*
X64696446Y-76287697D01*
X64677782Y-76332757D01*
X64550380Y-76332757D01*
X64550380Y-75198652D01*
X64676362Y-75198652D01*
X64679819Y-75247301D01*
X64701631Y-75290926D01*
X64738477Y-75322881D01*
X64760852Y-75332871D01*
X64961095Y-75399618D01*
X64961095Y-75695619D01*
X64760852Y-75762367D01*
X64738477Y-75772357D01*
X64701631Y-75804312D01*
X64679819Y-75847937D01*
X64676362Y-75896586D01*
X64691785Y-75942855D01*
X64723740Y-75979701D01*
X64767365Y-76001513D01*
X64816014Y-76004970D01*
X64839908Y-75999537D01*
X65839908Y-75666205D01*
X65862283Y-75656214D01*
X65869030Y-75650362D01*
X65877019Y-75646368D01*
X65887285Y-75634530D01*
X65899129Y-75624259D01*
X65903124Y-75616267D01*
X65908975Y-75609522D01*
X65913930Y-75594657D01*
X65920941Y-75580635D01*
X65921574Y-75571724D01*
X65924398Y-75563253D01*
X65923287Y-75547619D01*
X65924398Y-75531985D01*
X65921574Y-75523513D01*
X65920941Y-75514603D01*
X65913930Y-75500581D01*
X65908975Y-75485716D01*
X65903124Y-75478970D01*
X65899129Y-75470979D01*
X65887285Y-75460707D01*
X65877019Y-75448870D01*
X65869030Y-75444875D01*
X65862283Y-75439024D01*
X65839908Y-75429033D01*
X64839908Y-75095701D01*
X64816014Y-75090268D01*
X64767365Y-75093725D01*
X64723740Y-75115537D01*
X64691785Y-75152383D01*
X64676362Y-75198652D01*
X64550380Y-75198652D01*
X64550380Y-74357143D01*
X64675380Y-74357143D01*
X64675380Y-74738095D01*
X64677782Y-74762481D01*
X64679501Y-74766632D01*
X64679820Y-74771112D01*
X64688577Y-74793998D01*
X64736197Y-74889236D01*
X64742804Y-74899732D01*
X64744067Y-74902779D01*
X64746884Y-74906211D01*
X64749252Y-74909973D01*
X64751746Y-74912136D01*
X64759612Y-74921721D01*
X64807230Y-74969340D01*
X64816818Y-74977209D01*
X64818980Y-74979701D01*
X64822737Y-74982066D01*
X64826172Y-74984885D01*
X64829222Y-74986148D01*
X64839717Y-74992755D01*
X64934955Y-75040374D01*
X64957841Y-75049132D01*
X64962321Y-75049450D01*
X64966471Y-75051169D01*
X64990857Y-75053571D01*
X65133714Y-75053571D01*
X65158100Y-75051169D01*
X65162248Y-75049450D01*
X65166730Y-75049132D01*
X65189616Y-75040374D01*
X65284853Y-74992756D01*
X65295351Y-74986146D01*
X65298398Y-74984885D01*
X65301829Y-74982069D01*
X65305591Y-74979701D01*
X65307754Y-74977206D01*
X65317340Y-74969340D01*
X65349669Y-74937010D01*
X65349981Y-74937266D01*
X65353031Y-74938529D01*
X65363526Y-74945136D01*
X65458764Y-74992755D01*
X65481650Y-75001513D01*
X65486130Y-75001831D01*
X65490280Y-75003550D01*
X65514666Y-75005952D01*
X65609904Y-75005952D01*
X65634290Y-75003550D01*
X65638438Y-75001831D01*
X65642920Y-75001513D01*
X65665806Y-74992755D01*
X65761043Y-74945137D01*
X65771541Y-74938527D01*
X65774588Y-74937266D01*
X65778019Y-74934450D01*
X65781781Y-74932082D01*
X65783944Y-74929587D01*
X65793530Y-74921721D01*
X65841149Y-74874103D01*
X65849018Y-74864514D01*
X65851510Y-74862353D01*
X65853875Y-74858595D01*
X65856694Y-74855161D01*
X65857957Y-74852110D01*
X65864564Y-74841616D01*
X65912183Y-74746378D01*
X65920941Y-74723492D01*
X65921259Y-74719011D01*
X65922978Y-74714862D01*
X65925380Y-74690476D01*
X65925380Y-74357143D01*
X65922978Y-74332757D01*
X65904314Y-74287697D01*
X65869826Y-74253209D01*
X65824766Y-74234545D01*
X65800380Y-74232143D01*
X64800380Y-74232143D01*
X64775994Y-74234545D01*
X64730934Y-74253209D01*
X64696446Y-74287697D01*
X64677782Y-74332757D01*
X64675380Y-74357143D01*
X64550380Y-74357143D01*
X64550380Y-73674842D01*
X64676362Y-73674842D01*
X64677472Y-73690476D01*
X64676362Y-73706110D01*
X64679185Y-73714581D01*
X64679819Y-73723491D01*
X64686829Y-73737511D01*
X64691785Y-73752379D01*
X64697635Y-73759125D01*
X64701631Y-73767116D01*
X64713471Y-73777384D01*
X64723740Y-73789225D01*
X64731730Y-73793220D01*
X64738477Y-73799071D01*
X64760852Y-73809061D01*
X65760851Y-74142394D01*
X65784745Y-74147827D01*
X65833395Y-74144370D01*
X65877019Y-74122558D01*
X65908975Y-74085712D01*
X65924398Y-74039443D01*
X65920941Y-73990793D01*
X65899129Y-73947169D01*
X65862283Y-73915214D01*
X65839908Y-73905223D01*
X65195664Y-73690476D01*
X65839908Y-73475729D01*
X65862283Y-73465738D01*
X65899129Y-73433783D01*
X65920941Y-73390159D01*
X65924398Y-73341509D01*
X65908975Y-73295240D01*
X65877019Y-73258394D01*
X65833395Y-73236582D01*
X65784745Y-73233125D01*
X65760851Y-73238558D01*
X64760852Y-73571891D01*
X64738477Y-73581881D01*
X64731730Y-73587731D01*
X64723740Y-73591727D01*
X64713471Y-73603567D01*
X64701631Y-73613836D01*
X64697635Y-73621826D01*
X64691785Y-73628573D01*
X64686829Y-73643440D01*
X64679819Y-73657461D01*
X64679185Y-73666370D01*
X64676362Y-73674842D01*
X64550380Y-73674842D01*
X64550380Y-73108125D01*
X66050380Y-73108125D01*
X66050380Y-76890455D01*
G37*
X95009711Y-66864619D02*
X95343044Y-67864619D01*
X95343044Y-67864619D02*
X95676377Y-66864619D01*
X96343044Y-67340809D02*
X96485901Y-67388428D01*
X96485901Y-67388428D02*
X96533520Y-67436047D01*
X96533520Y-67436047D02*
X96581139Y-67531285D01*
X96581139Y-67531285D02*
X96581139Y-67674142D01*
X96581139Y-67674142D02*
X96533520Y-67769380D01*
X96533520Y-67769380D02*
X96485901Y-67817000D01*
X96485901Y-67817000D02*
X96390663Y-67864619D01*
X96390663Y-67864619D02*
X96009711Y-67864619D01*
X96009711Y-67864619D02*
X96009711Y-66864619D01*
X96009711Y-66864619D02*
X96343044Y-66864619D01*
X96343044Y-66864619D02*
X96438282Y-66912238D01*
X96438282Y-66912238D02*
X96485901Y-66959857D01*
X96485901Y-66959857D02*
X96533520Y-67055095D01*
X96533520Y-67055095D02*
X96533520Y-67150333D01*
X96533520Y-67150333D02*
X96485901Y-67245571D01*
X96485901Y-67245571D02*
X96438282Y-67293190D01*
X96438282Y-67293190D02*
X96343044Y-67340809D01*
X96343044Y-67340809D02*
X96009711Y-67340809D01*
X96962092Y-67578904D02*
X97438282Y-67578904D01*
X96866854Y-67864619D02*
X97200187Y-66864619D01*
X97200187Y-66864619D02*
X97533520Y-67864619D01*
X97723997Y-66864619D02*
X98295425Y-66864619D01*
X98009711Y-67864619D02*
X98009711Y-66864619D01*
G36*
X60113241Y-94747681D02*
G01*
X60125651Y-94760092D01*
X60151002Y-94810793D01*
X60151002Y-94894633D01*
X60125650Y-94945336D01*
X60106719Y-94964268D01*
X60056018Y-94989619D01*
X59829574Y-94989619D01*
X59829574Y-94715809D01*
X60017624Y-94715809D01*
X60113241Y-94747681D01*
G37*
G36*
X60059100Y-94264969D02*
G01*
X60078032Y-94283902D01*
X60103383Y-94334603D01*
X60103383Y-94370824D01*
X60078032Y-94421525D01*
X60059100Y-94440458D01*
X60008399Y-94465809D01*
X59829574Y-94465809D01*
X59829574Y-94239619D01*
X60008399Y-94239619D01*
X60059100Y-94264969D01*
G37*
G36*
X60959717Y-94703904D02*
G01*
X60830383Y-94703904D01*
X60895049Y-94509903D01*
X60959717Y-94703904D01*
G37*
G36*
X62237886Y-95364619D02*
G01*
X58455556Y-95364619D01*
X58455556Y-94130253D01*
X58580556Y-94130253D01*
X58585989Y-94154147D01*
X58919321Y-95154147D01*
X58929312Y-95176522D01*
X58935162Y-95183268D01*
X58939158Y-95191259D01*
X58950998Y-95201527D01*
X58961267Y-95213368D01*
X58969258Y-95217363D01*
X58976004Y-95223214D01*
X58990869Y-95228169D01*
X59004891Y-95235180D01*
X59013801Y-95235813D01*
X59022273Y-95238637D01*
X59037906Y-95237526D01*
X59053541Y-95238637D01*
X59062012Y-95235813D01*
X59070922Y-95235180D01*
X59084942Y-95228169D01*
X59099810Y-95223214D01*
X59106555Y-95217363D01*
X59114547Y-95213368D01*
X59124818Y-95201524D01*
X59136656Y-95191258D01*
X59140650Y-95183269D01*
X59146502Y-95176522D01*
X59156492Y-95154147D01*
X59489825Y-94154148D01*
X59495258Y-94130254D01*
X59494147Y-94114619D01*
X59579574Y-94114619D01*
X59579574Y-95114619D01*
X59581976Y-95139005D01*
X59600640Y-95184065D01*
X59635128Y-95218553D01*
X59680188Y-95237217D01*
X59704574Y-95239619D01*
X60085526Y-95239619D01*
X60109912Y-95237217D01*
X60114060Y-95235498D01*
X60118542Y-95235180D01*
X60141428Y-95226422D01*
X60236665Y-95178804D01*
X60247161Y-95172196D01*
X60250211Y-95170933D01*
X60253644Y-95168114D01*
X60257403Y-95165749D01*
X60259565Y-95163255D01*
X60269153Y-95155387D01*
X60316772Y-95107768D01*
X60323978Y-95098985D01*
X60437699Y-95098985D01*
X60441156Y-95147634D01*
X60462968Y-95191259D01*
X60499814Y-95223214D01*
X60546083Y-95238637D01*
X60594732Y-95235180D01*
X60638357Y-95213368D01*
X60670312Y-95176522D01*
X60680302Y-95154147D01*
X60747050Y-94953904D01*
X61043050Y-94953904D01*
X61109797Y-95154147D01*
X61119788Y-95176522D01*
X61151743Y-95213368D01*
X61195367Y-95235180D01*
X61244017Y-95238637D01*
X61290286Y-95223214D01*
X61327132Y-95191258D01*
X61348944Y-95147634D01*
X61352401Y-95098984D01*
X61346968Y-95075090D01*
X61018682Y-94090233D01*
X61296262Y-94090233D01*
X61296262Y-94139005D01*
X61314926Y-94184065D01*
X61349414Y-94218553D01*
X61394474Y-94237217D01*
X61418860Y-94239619D01*
X61579574Y-94239619D01*
X61579574Y-95114619D01*
X61581976Y-95139005D01*
X61600640Y-95184065D01*
X61635128Y-95218553D01*
X61680188Y-95237217D01*
X61728960Y-95237217D01*
X61774020Y-95218553D01*
X61808508Y-95184065D01*
X61827172Y-95139005D01*
X61829574Y-95114619D01*
X61829574Y-94239619D01*
X61990288Y-94239619D01*
X62014674Y-94237217D01*
X62059734Y-94218553D01*
X62094222Y-94184065D01*
X62112886Y-94139005D01*
X62112886Y-94090233D01*
X62094222Y-94045173D01*
X62059734Y-94010685D01*
X62014674Y-93992021D01*
X61990288Y-93989619D01*
X61418860Y-93989619D01*
X61394474Y-93992021D01*
X61349414Y-94010685D01*
X61314926Y-94045173D01*
X61296262Y-94090233D01*
X61018682Y-94090233D01*
X61013635Y-94075091D01*
X61003645Y-94052716D01*
X60997793Y-94045968D01*
X60993799Y-94037980D01*
X60981961Y-94027713D01*
X60971690Y-94015870D01*
X60963698Y-94011874D01*
X60956953Y-94006024D01*
X60942085Y-94001068D01*
X60928065Y-93994058D01*
X60919155Y-93993424D01*
X60910684Y-93990601D01*
X60895049Y-93991711D01*
X60879416Y-93990601D01*
X60870944Y-93993424D01*
X60862034Y-93994058D01*
X60848012Y-94001069D01*
X60833147Y-94006024D01*
X60826401Y-94011874D01*
X60818410Y-94015870D01*
X60808141Y-94027710D01*
X60796301Y-94037979D01*
X60792305Y-94045969D01*
X60786455Y-94052716D01*
X60776464Y-94075091D01*
X60443132Y-95075091D01*
X60437699Y-95098985D01*
X60323978Y-95098985D01*
X60324639Y-95098180D01*
X60327132Y-95096019D01*
X60329498Y-95092259D01*
X60332317Y-95088825D01*
X60333579Y-95085776D01*
X60340186Y-95075282D01*
X60387805Y-94980044D01*
X60396563Y-94957158D01*
X60396881Y-94952677D01*
X60398600Y-94948528D01*
X60401002Y-94924142D01*
X60401002Y-94781285D01*
X60398600Y-94756899D01*
X60396881Y-94752749D01*
X60396563Y-94748269D01*
X60387805Y-94725383D01*
X60340186Y-94630145D01*
X60333579Y-94619650D01*
X60332316Y-94616600D01*
X60329497Y-94613165D01*
X60327132Y-94609408D01*
X60324640Y-94607246D01*
X60316771Y-94597658D01*
X60284441Y-94565329D01*
X60284697Y-94565018D01*
X60285960Y-94561967D01*
X60292567Y-94551473D01*
X60340186Y-94456235D01*
X60348944Y-94433349D01*
X60349262Y-94428868D01*
X60350981Y-94424719D01*
X60353383Y-94400333D01*
X60353383Y-94305095D01*
X60350981Y-94280709D01*
X60349262Y-94276559D01*
X60348944Y-94272079D01*
X60340186Y-94249193D01*
X60292567Y-94153955D01*
X60285960Y-94143460D01*
X60284697Y-94140410D01*
X60281878Y-94136975D01*
X60279513Y-94133218D01*
X60277021Y-94131056D01*
X60269152Y-94121468D01*
X60221533Y-94073850D01*
X60211947Y-94065983D01*
X60209784Y-94063489D01*
X60206022Y-94061120D01*
X60202591Y-94058305D01*
X60199544Y-94057043D01*
X60189046Y-94050434D01*
X60093809Y-94002816D01*
X60070923Y-93994058D01*
X60066441Y-93993739D01*
X60062293Y-93992021D01*
X60037907Y-93989619D01*
X59704574Y-93989619D01*
X59680188Y-93992021D01*
X59635128Y-94010685D01*
X59600640Y-94045173D01*
X59581976Y-94090233D01*
X59579574Y-94114619D01*
X59494147Y-94114619D01*
X59491801Y-94081604D01*
X59469989Y-94037980D01*
X59433143Y-94006024D01*
X59386874Y-93990601D01*
X59338224Y-93994058D01*
X59294600Y-94015870D01*
X59262645Y-94052716D01*
X59252654Y-94075091D01*
X59037906Y-94719334D01*
X58823159Y-94075091D01*
X58813169Y-94052716D01*
X58781214Y-94015870D01*
X58737589Y-93994058D01*
X58688940Y-93990601D01*
X58642671Y-94006024D01*
X58605825Y-94037979D01*
X58584013Y-94081604D01*
X58580556Y-94130253D01*
X58455556Y-94130253D01*
X58455556Y-93864619D01*
X62237886Y-93864619D01*
X62237886Y-95364619D01*
G37*
G36*
X90895050Y-56135380D02*
G01*
X87776003Y-56135380D01*
X87776003Y-55599666D01*
X87901003Y-55599666D01*
X87901003Y-55694904D01*
X87903405Y-55719290D01*
X87905123Y-55723438D01*
X87905442Y-55727920D01*
X87914200Y-55750806D01*
X87961818Y-55846043D01*
X87968427Y-55856541D01*
X87969689Y-55859588D01*
X87972504Y-55863019D01*
X87974873Y-55866781D01*
X87977367Y-55868944D01*
X87985234Y-55878530D01*
X88032852Y-55926149D01*
X88042440Y-55934018D01*
X88044602Y-55936510D01*
X88048359Y-55938875D01*
X88051794Y-55941694D01*
X88054844Y-55942957D01*
X88065339Y-55949564D01*
X88160577Y-55997183D01*
X88183463Y-56005941D01*
X88187943Y-56006259D01*
X88192093Y-56007978D01*
X88216479Y-56010380D01*
X88454574Y-56010380D01*
X88478960Y-56007978D01*
X88483108Y-56006259D01*
X88487590Y-56005941D01*
X88510476Y-55997183D01*
X88605713Y-55949565D01*
X88616211Y-55942955D01*
X88619258Y-55941694D01*
X88622689Y-55938878D01*
X88626451Y-55936510D01*
X88628614Y-55934015D01*
X88638200Y-55926149D01*
X88685819Y-55878531D01*
X88701364Y-55859589D01*
X88720029Y-55814529D01*
X88720029Y-55765756D01*
X88701364Y-55720696D01*
X88666877Y-55686209D01*
X88621817Y-55667544D01*
X88573044Y-55667544D01*
X88527984Y-55686209D01*
X88509042Y-55701754D01*
X88475767Y-55735029D01*
X88425066Y-55760380D01*
X88245988Y-55760380D01*
X88195286Y-55735029D01*
X88176353Y-55716097D01*
X88151003Y-55665396D01*
X88151003Y-55619949D01*
X88182875Y-55524331D01*
X88733438Y-54973768D01*
X88748978Y-54954831D01*
X88748984Y-54954826D01*
X88764074Y-54918395D01*
X88767648Y-54909767D01*
X88767648Y-54885380D01*
X88901003Y-54885380D01*
X88901003Y-55885380D01*
X88903405Y-55909766D01*
X88922069Y-55954826D01*
X88956557Y-55989314D01*
X89001617Y-56007978D01*
X89050389Y-56007978D01*
X89095449Y-55989314D01*
X89129937Y-55954826D01*
X89148601Y-55909766D01*
X89151003Y-55885380D01*
X89151003Y-55534190D01*
X89472431Y-55534190D01*
X89472431Y-55885380D01*
X89474833Y-55909766D01*
X89493497Y-55954826D01*
X89527985Y-55989314D01*
X89573045Y-56007978D01*
X89621817Y-56007978D01*
X89666877Y-55989314D01*
X89701365Y-55954826D01*
X89720029Y-55909766D01*
X89722431Y-55885380D01*
X89722431Y-54956232D01*
X89903405Y-54956232D01*
X89903405Y-55005006D01*
X89922070Y-55050065D01*
X89956557Y-55084552D01*
X90001616Y-55103217D01*
X90050390Y-55103217D01*
X90095449Y-55084552D01*
X90114391Y-55069007D01*
X90141145Y-55042253D01*
X90236763Y-55010380D01*
X90291433Y-55010380D01*
X90387051Y-55042253D01*
X90447079Y-55102281D01*
X90479490Y-55167104D01*
X90520050Y-55329341D01*
X90520050Y-55441420D01*
X90479490Y-55603656D01*
X90447079Y-55668479D01*
X90387051Y-55728507D01*
X90291434Y-55760380D01*
X90236765Y-55760380D01*
X90141145Y-55728507D01*
X90114391Y-55701754D01*
X90095449Y-55686209D01*
X90050390Y-55667544D01*
X90001616Y-55667544D01*
X89956557Y-55686209D01*
X89922070Y-55720696D01*
X89903405Y-55765755D01*
X89903405Y-55814529D01*
X89922070Y-55859588D01*
X89937615Y-55878530D01*
X89985233Y-55926149D01*
X90004175Y-55941694D01*
X90008326Y-55943413D01*
X90011719Y-55946356D01*
X90034094Y-55956346D01*
X90176950Y-56003965D01*
X90189043Y-56006714D01*
X90192093Y-56007978D01*
X90196514Y-56008413D01*
X90200844Y-56009398D01*
X90204135Y-56009164D01*
X90216479Y-56010380D01*
X90311717Y-56010380D01*
X90324060Y-56009164D01*
X90327351Y-56009398D01*
X90331680Y-56008413D01*
X90336103Y-56007978D01*
X90339154Y-56006714D01*
X90351245Y-56003965D01*
X90494102Y-55956347D01*
X90516477Y-55946356D01*
X90519870Y-55943412D01*
X90524020Y-55941694D01*
X90542962Y-55926149D01*
X90638200Y-55830911D01*
X90646066Y-55821325D01*
X90648561Y-55819162D01*
X90650928Y-55815400D01*
X90653745Y-55811969D01*
X90655007Y-55808921D01*
X90661615Y-55798425D01*
X90709234Y-55703187D01*
X90709917Y-55701401D01*
X90710454Y-55700677D01*
X90714109Y-55690447D01*
X90717992Y-55680301D01*
X90718055Y-55679401D01*
X90718699Y-55677602D01*
X90766318Y-55487126D01*
X90766943Y-55482896D01*
X90767648Y-55481195D01*
X90768552Y-55472015D01*
X90769902Y-55462886D01*
X90769630Y-55461063D01*
X90770050Y-55456809D01*
X90770050Y-55313952D01*
X90769630Y-55309697D01*
X90769902Y-55307875D01*
X90768552Y-55298745D01*
X90767648Y-55289566D01*
X90766943Y-55287864D01*
X90766318Y-55283635D01*
X90718699Y-55093159D01*
X90718055Y-55091359D01*
X90717992Y-55090460D01*
X90714109Y-55080313D01*
X90710454Y-55070084D01*
X90709917Y-55069359D01*
X90709234Y-55067574D01*
X90661615Y-54972336D01*
X90655007Y-54961839D01*
X90653745Y-54958792D01*
X90650928Y-54955360D01*
X90648561Y-54951599D01*
X90646066Y-54949435D01*
X90638200Y-54939850D01*
X90542962Y-54844612D01*
X90524020Y-54829067D01*
X90519872Y-54827348D01*
X90516478Y-54824405D01*
X90494103Y-54814415D01*
X90351246Y-54766795D01*
X90339152Y-54764045D01*
X90336103Y-54762782D01*
X90331681Y-54762346D01*
X90327352Y-54761362D01*
X90324060Y-54761595D01*
X90311717Y-54760380D01*
X90216479Y-54760380D01*
X90204135Y-54761595D01*
X90200844Y-54761362D01*
X90196514Y-54762346D01*
X90192093Y-54762782D01*
X90189043Y-54764045D01*
X90176950Y-54766795D01*
X90034093Y-54814415D01*
X90011718Y-54824405D01*
X90008324Y-54827348D01*
X90004175Y-54829067D01*
X89985233Y-54844612D01*
X89937615Y-54892231D01*
X89922070Y-54911173D01*
X89903405Y-54956232D01*
X89722431Y-54956232D01*
X89722431Y-54885380D01*
X89720029Y-54860994D01*
X89701365Y-54815934D01*
X89666877Y-54781446D01*
X89621817Y-54762782D01*
X89573045Y-54762782D01*
X89527985Y-54781446D01*
X89493497Y-54815934D01*
X89474833Y-54860994D01*
X89472431Y-54885380D01*
X89472431Y-55284190D01*
X89151003Y-55284190D01*
X89151003Y-54885380D01*
X89148601Y-54860994D01*
X89129937Y-54815934D01*
X89095449Y-54781446D01*
X89050389Y-54762782D01*
X89001617Y-54762782D01*
X88956557Y-54781446D01*
X88922069Y-54815934D01*
X88903405Y-54860994D01*
X88901003Y-54885380D01*
X88767648Y-54885380D01*
X88767648Y-54860993D01*
X88759916Y-54842329D01*
X88748984Y-54815934D01*
X88714496Y-54781446D01*
X88682634Y-54768248D01*
X88669437Y-54762782D01*
X88669436Y-54762782D01*
X88645050Y-54760380D01*
X88026003Y-54760380D01*
X88001617Y-54762782D01*
X87956557Y-54781446D01*
X87922069Y-54815934D01*
X87903405Y-54860994D01*
X87903405Y-54909766D01*
X87922069Y-54954826D01*
X87956557Y-54989314D01*
X88001617Y-55007978D01*
X88026003Y-55010380D01*
X88343274Y-55010380D01*
X87985234Y-55368421D01*
X87969689Y-55387363D01*
X87967970Y-55391512D01*
X87965027Y-55394906D01*
X87955036Y-55417281D01*
X87907418Y-55560138D01*
X87904668Y-55572228D01*
X87903405Y-55575280D01*
X87902969Y-55579702D01*
X87901985Y-55584032D01*
X87902218Y-55587322D01*
X87901003Y-55599666D01*
X87776003Y-55599666D01*
X87776003Y-54635380D01*
X90895050Y-54635380D01*
X90895050Y-56135380D01*
G37*
G36*
X89877776Y-95364619D02*
G01*
X87855533Y-95364619D01*
X87855533Y-94602875D01*
X87980533Y-94602875D01*
X87982351Y-94608900D01*
X87982351Y-94615196D01*
X87989342Y-94632075D01*
X87994621Y-94649569D01*
X87998608Y-94654442D01*
X88001016Y-94660255D01*
X88013931Y-94673170D01*
X88025506Y-94687317D01*
X88031054Y-94690293D01*
X88035503Y-94694742D01*
X88052381Y-94701733D01*
X88068485Y-94710372D01*
X88074746Y-94710998D01*
X88080562Y-94713407D01*
X88098835Y-94713407D01*
X88117015Y-94715225D01*
X88123041Y-94713407D01*
X88129336Y-94713407D01*
X88146215Y-94706415D01*
X88163709Y-94701137D01*
X88168582Y-94697149D01*
X88174395Y-94694742D01*
X88193337Y-94679197D01*
X88226613Y-94645921D01*
X88277315Y-94620571D01*
X88456393Y-94620571D01*
X88507094Y-94645921D01*
X88526026Y-94664854D01*
X88551377Y-94715555D01*
X88551377Y-94894633D01*
X88526025Y-94945336D01*
X88507094Y-94964268D01*
X88456393Y-94989619D01*
X88277315Y-94989619D01*
X88226613Y-94964268D01*
X88193338Y-94930993D01*
X88174396Y-94915447D01*
X88129337Y-94896782D01*
X88080564Y-94896782D01*
X88035504Y-94915446D01*
X88001016Y-94949933D01*
X87982351Y-94994992D01*
X87982351Y-95043765D01*
X88001015Y-95088825D01*
X88016560Y-95107767D01*
X88064179Y-95155387D01*
X88073767Y-95163256D01*
X88075929Y-95165749D01*
X88079683Y-95168112D01*
X88083120Y-95170933D01*
X88086173Y-95172197D01*
X88096666Y-95178803D01*
X88191904Y-95226422D01*
X88214790Y-95235180D01*
X88219270Y-95235498D01*
X88223420Y-95237217D01*
X88247806Y-95239619D01*
X88485901Y-95239619D01*
X88510287Y-95237217D01*
X88514435Y-95235498D01*
X88518917Y-95235180D01*
X88541803Y-95226422D01*
X88637040Y-95178804D01*
X88647536Y-95172196D01*
X88650586Y-95170933D01*
X88654019Y-95168114D01*
X88657778Y-95165749D01*
X88659940Y-95163255D01*
X88669528Y-95155387D01*
X88717147Y-95107768D01*
X88725014Y-95098180D01*
X88727507Y-95096019D01*
X88729873Y-95092259D01*
X88732692Y-95088825D01*
X88733954Y-95085776D01*
X88740561Y-95075282D01*
X88788180Y-94980044D01*
X88796938Y-94957158D01*
X88797256Y-94952677D01*
X88798975Y-94948528D01*
X88801377Y-94924142D01*
X88801377Y-94686047D01*
X88798975Y-94661661D01*
X88797256Y-94657511D01*
X88796938Y-94653031D01*
X88788180Y-94630145D01*
X88740561Y-94534907D01*
X88733954Y-94524412D01*
X88732691Y-94521362D01*
X88729872Y-94517927D01*
X88727507Y-94514170D01*
X88725015Y-94512008D01*
X88717146Y-94502420D01*
X88669527Y-94454802D01*
X88659941Y-94446935D01*
X88657778Y-94444441D01*
X88654016Y-94442072D01*
X88650585Y-94439257D01*
X88647538Y-94437995D01*
X88637040Y-94431386D01*
X88541803Y-94383768D01*
X88518917Y-94375010D01*
X88514435Y-94374691D01*
X88510287Y-94372973D01*
X88485901Y-94370571D01*
X88252597Y-94370571D01*
X88265692Y-94239619D01*
X88628758Y-94239619D01*
X88653144Y-94237217D01*
X88698204Y-94218553D01*
X88732692Y-94184065D01*
X88751356Y-94139005D01*
X88751356Y-94130253D01*
X88838074Y-94130253D01*
X88843507Y-94154147D01*
X89176839Y-95154147D01*
X89186830Y-95176522D01*
X89192680Y-95183268D01*
X89196676Y-95191259D01*
X89208516Y-95201527D01*
X89218785Y-95213368D01*
X89226776Y-95217363D01*
X89233522Y-95223214D01*
X89248387Y-95228169D01*
X89262409Y-95235180D01*
X89271319Y-95235813D01*
X89279791Y-95238637D01*
X89295424Y-95237526D01*
X89311059Y-95238637D01*
X89319530Y-95235813D01*
X89328440Y-95235180D01*
X89342460Y-95228169D01*
X89357328Y-95223214D01*
X89364073Y-95217363D01*
X89372065Y-95213368D01*
X89382336Y-95201524D01*
X89394174Y-95191258D01*
X89398168Y-95183269D01*
X89404020Y-95176522D01*
X89414010Y-95154147D01*
X89747343Y-94154148D01*
X89752776Y-94130254D01*
X89749319Y-94081604D01*
X89727507Y-94037980D01*
X89690661Y-94006024D01*
X89644392Y-93990601D01*
X89595742Y-93994058D01*
X89552118Y-94015870D01*
X89520163Y-94052716D01*
X89510172Y-94075091D01*
X89295424Y-94719334D01*
X89080677Y-94075091D01*
X89070687Y-94052716D01*
X89038732Y-94015870D01*
X88995107Y-93994058D01*
X88946458Y-93990601D01*
X88900189Y-94006024D01*
X88863343Y-94037979D01*
X88841531Y-94081604D01*
X88838074Y-94130253D01*
X88751356Y-94130253D01*
X88751356Y-94090233D01*
X88732692Y-94045173D01*
X88698204Y-94010685D01*
X88653144Y-93992021D01*
X88628758Y-93989619D01*
X88152568Y-93989619D01*
X88143547Y-93990507D01*
X88140502Y-93990203D01*
X88137527Y-93991100D01*
X88128182Y-93992021D01*
X88111300Y-93999013D01*
X88093808Y-94004291D01*
X88088936Y-94008276D01*
X88083122Y-94010685D01*
X88070201Y-94023605D01*
X88056060Y-94035176D01*
X88053084Y-94040722D01*
X88048634Y-94045173D01*
X88041641Y-94062055D01*
X88033005Y-94078155D01*
X88031158Y-94087362D01*
X88029970Y-94090233D01*
X88029970Y-94093292D01*
X88028188Y-94102181D01*
X87980569Y-94578371D01*
X87980533Y-94602875D01*
X87855533Y-94602875D01*
X87855533Y-93864619D01*
X89877776Y-93864619D01*
X89877776Y-95364619D01*
G37*
D11*
X61282666Y-67555137D02*
X61282666Y-69078947D01*
D12*
%TO.C,TP101*%
X71450000Y-89250000D02*
G75*
G02*
X70050000Y-89250000I-700000J0D01*
G01*
X70050000Y-89250000D02*
G75*
G02*
X71450000Y-89250000I700000J0D01*
G01*
%TO.C,TP100*%
X67950000Y-76000000D02*
G75*
G02*
X66550000Y-76000000I-700000J0D01*
G01*
X66550000Y-76000000D02*
G75*
G02*
X67950000Y-76000000I700000J0D01*
G01*
%TO.C,R202*%
X71870000Y-66596359D02*
X71870000Y-66903641D01*
X72630000Y-66596359D02*
X72630000Y-66903641D01*
D13*
%TO.C,U301*%
X75500000Y-58167500D02*
X75500000Y-62567500D01*
X78500000Y-58167500D02*
X78500000Y-62567500D01*
D14*
X78325000Y-55552500D02*
G75*
G02*
X78125000Y-55552500I-100000J0D01*
G01*
X78125000Y-55552500D02*
G75*
G02*
X78325000Y-55552500I100000J0D01*
G01*
D12*
%TO.C,R210*%
X75370000Y-74403641D02*
X75370000Y-74096359D01*
X76130000Y-74403641D02*
X76130000Y-74096359D01*
%TO.C,R201*%
X72870000Y-66903641D02*
X72870000Y-66596359D01*
X73630000Y-66903641D02*
X73630000Y-66596359D01*
%TO.C,R206*%
X68370000Y-70596359D02*
X68370000Y-70903641D01*
X69130000Y-70596359D02*
X69130000Y-70903641D01*
%TO.C,R200*%
X74370000Y-66903641D02*
X74370000Y-66596359D01*
X75130000Y-66903641D02*
X75130000Y-66596359D01*
%TO.C,R203*%
X70653641Y-71370000D02*
X70346359Y-71370000D01*
X70653641Y-72130000D02*
X70346359Y-72130000D01*
%TO.C,TP202*%
X72450000Y-74250000D02*
G75*
G02*
X71050000Y-74250000I-700000J0D01*
G01*
X71050000Y-74250000D02*
G75*
G02*
X72450000Y-74250000I700000J0D01*
G01*
%TO.C,C200*%
X89140000Y-63211252D02*
X89140000Y-61788748D01*
X91860000Y-63211252D02*
X91860000Y-61788748D01*
%TO.C,C205*%
X94788748Y-84390000D02*
X96211252Y-84390000D01*
X94788748Y-87110000D02*
X96211252Y-87110000D01*
D15*
%TO.C,Q200*%
X87095000Y-74341000D02*
X87095000Y-74341000D01*
X87095000Y-74441000D02*
X87095000Y-74441000D01*
X87095000Y-74341000D02*
G75*
G02*
X87095000Y-74441000I0J-50000D01*
G01*
X87095000Y-74441000D02*
G75*
G02*
X87095000Y-74341000I0J50000D01*
G01*
D12*
%TO.C,R209*%
X72870000Y-74096359D02*
X72870000Y-74403641D01*
X73630000Y-74096359D02*
X73630000Y-74403641D01*
%TO.C,C104*%
X64107836Y-84640000D02*
X63892164Y-84640000D01*
X64107836Y-85360000D02*
X63892164Y-85360000D01*
%TO.C,C210*%
X74390000Y-74142164D02*
X74390000Y-74357836D01*
X75110000Y-74142164D02*
X75110000Y-74357836D01*
%TO.C,D200*%
X95015000Y-70515000D02*
X95015000Y-71985000D01*
X95015000Y-71985000D02*
X97300000Y-71985000D01*
X97300000Y-70515000D02*
X95015000Y-70515000D01*
%TO.C,C218*%
X97140000Y-62607836D02*
X97140000Y-62392164D01*
X97860000Y-62607836D02*
X97860000Y-62392164D01*
%TO.C,C212*%
X66390000Y-67892164D02*
X66390000Y-68107836D01*
X67110000Y-67892164D02*
X67110000Y-68107836D01*
%TO.C,C211*%
X70607836Y-68890000D02*
X70392164Y-68890000D01*
X70607836Y-69610000D02*
X70392164Y-69610000D01*
%TO.C,R211*%
X93766359Y-70870000D02*
X94073641Y-70870000D01*
X93766359Y-71630000D02*
X94073641Y-71630000D01*
D15*
%TO.C,Q300*%
X64750000Y-60675000D02*
X65500000Y-60675000D01*
X64750000Y-63125000D02*
X64750000Y-60675000D01*
X65000000Y-63125000D02*
X64750000Y-63125000D01*
D14*
X65400000Y-64725000D02*
X65400000Y-64725000D01*
X65600000Y-64725000D02*
X65600000Y-64725000D01*
D15*
X68500000Y-60675000D02*
X69250000Y-60675000D01*
X69250000Y-60675000D02*
X69250000Y-63125000D01*
X69250000Y-63125000D02*
X69000000Y-63125000D01*
D14*
X65400000Y-64725000D02*
G75*
G02*
X65600000Y-64725000I100000J0D01*
G01*
X65600000Y-64725000D02*
G75*
G02*
X65400000Y-64725000I-100000J0D01*
G01*
D12*
%TO.C,R207*%
X66370000Y-70596359D02*
X66370000Y-70903641D01*
X67130000Y-70596359D02*
X67130000Y-70903641D01*
%TO.C,R208*%
X70346359Y-67870000D02*
X70653641Y-67870000D01*
X70346359Y-68630000D02*
X70653641Y-68630000D01*
%TO.C,C207*%
X77096359Y-69370000D02*
X77403641Y-69370000D01*
X77096359Y-70130000D02*
X77403641Y-70130000D01*
D14*
%TO.C,U200*%
X72250000Y-68250000D02*
X72800000Y-68250000D01*
X72250000Y-72750000D02*
X72800000Y-72750000D01*
X73700000Y-68250000D02*
X74300000Y-68250000D01*
X73700000Y-72750000D02*
X74300000Y-72750000D01*
X75750000Y-68250000D02*
X75200000Y-68250000D01*
X75750000Y-72750000D02*
X75200000Y-72750000D01*
X73270590Y-67808000D02*
G75*
G02*
X73227410Y-67808000I-21590J0D01*
G01*
X73227410Y-67808000D02*
G75*
G02*
X73270590Y-67808000I21590J0D01*
G01*
D12*
%TO.C,C202*%
X95392164Y-87640000D02*
X95607836Y-87640000D01*
X95392164Y-88360000D02*
X95607836Y-88360000D01*
%TO.C,C209*%
X77142164Y-70890000D02*
X77357836Y-70890000D01*
X77142164Y-71610000D02*
X77357836Y-71610000D01*
D15*
%TO.C,Q201*%
X83924000Y-66761000D02*
X83924000Y-66761000D01*
X83924000Y-66861000D02*
X83924000Y-66861000D01*
X83924000Y-66761000D02*
G75*
G02*
X83924000Y-66861000I0J-50000D01*
G01*
X83924000Y-66861000D02*
G75*
G02*
X83924000Y-66761000I0J50000D01*
G01*
D12*
%TO.C,R205*%
X67370000Y-70903641D02*
X67370000Y-70596359D01*
X68130000Y-70903641D02*
X68130000Y-70596359D01*
%TO.C,C203*%
X95392164Y-88640000D02*
X95607836Y-88640000D01*
X95392164Y-89360000D02*
X95607836Y-89360000D01*
%TO.C,C101*%
X63912164Y-87140000D02*
X64127836Y-87140000D01*
X63912164Y-87860000D02*
X64127836Y-87860000D01*
%TO.C,R101*%
X93766359Y-68870000D02*
X94073641Y-68870000D01*
X93766359Y-69630000D02*
X94073641Y-69630000D01*
D13*
%TO.C,U302*%
X74215000Y-90700000D02*
X74215000Y-92300000D01*
X77285000Y-90700000D02*
X77285000Y-92300000D01*
D14*
X76825000Y-89085000D02*
G75*
G02*
X76625000Y-89085000I-100000J0D01*
G01*
X76625000Y-89085000D02*
G75*
G02*
X76825000Y-89085000I100000J0D01*
G01*
D12*
%TO.C,R204*%
X67370000Y-67846359D02*
X67370000Y-68153641D01*
X68130000Y-67846359D02*
X68130000Y-68153641D01*
%TO.C,C204*%
X94788748Y-80890000D02*
X96211252Y-80890000D01*
X94788748Y-83610000D02*
X96211252Y-83610000D01*
D15*
%TO.C,Q100*%
X65559000Y-78595000D02*
X65559000Y-78595000D01*
X65659000Y-78595000D02*
X65659000Y-78595000D01*
X65559000Y-78595000D02*
G75*
G02*
X65659000Y-78595000I50000J0D01*
G01*
X65659000Y-78595000D02*
G75*
G02*
X65559000Y-78595000I-50000J0D01*
G01*
D12*
%TO.C,C214*%
X68390000Y-67892164D02*
X68390000Y-68107836D01*
X69110000Y-67892164D02*
X69110000Y-68107836D01*
D14*
%TO.C,D300*%
X57400000Y-58000000D02*
X57400000Y-58000000D01*
X57500000Y-58000000D02*
X57500000Y-58000000D01*
X57500000Y-58000000D02*
X57500000Y-58000000D01*
X57400000Y-58000000D02*
G75*
G02*
X57500000Y-58000000I50000J0D01*
G01*
X57400000Y-58000000D02*
G75*
G02*
X57500000Y-58000000I50000J0D01*
G01*
X57500000Y-58000000D02*
G75*
G02*
X57400000Y-58000000I-50000J0D01*
G01*
D12*
%TO.C,C215*%
X95392164Y-89640000D02*
X95607836Y-89640000D01*
X95392164Y-90360000D02*
X95607836Y-90360000D01*
%TO.C,C213*%
X65390000Y-70857836D02*
X65390000Y-70642164D01*
X66110000Y-70857836D02*
X66110000Y-70642164D01*
%TO.C,D100*%
X95015000Y-68515000D02*
X95015000Y-69985000D01*
X95015000Y-69985000D02*
X97300000Y-69985000D01*
X97300000Y-68515000D02*
X95015000Y-68515000D01*
%TO.C,TP200*%
X95450000Y-73000000D02*
G75*
G02*
X94050000Y-73000000I-700000J0D01*
G01*
X94050000Y-73000000D02*
G75*
G02*
X95450000Y-73000000I700000J0D01*
G01*
%TO.C,C217*%
X95890000Y-62607836D02*
X95890000Y-62392164D01*
X96610000Y-62607836D02*
X96610000Y-62392164D01*
%TO.C,R307*%
X86596359Y-64620000D02*
X86903641Y-64620000D01*
X86596359Y-65380000D02*
X86903641Y-65380000D01*
D15*
%TO.C,Q301*%
X80750000Y-60675000D02*
X81500000Y-60675000D01*
X80750000Y-63125000D02*
X80750000Y-60675000D01*
X81000000Y-63125000D02*
X80750000Y-63125000D01*
D14*
X81400000Y-64725000D02*
X81400000Y-64725000D01*
X81600000Y-64725000D02*
X81600000Y-64725000D01*
D15*
X84500000Y-60675000D02*
X85250000Y-60675000D01*
X85250000Y-60675000D02*
X85250000Y-63125000D01*
X85250000Y-63125000D02*
X85000000Y-63125000D01*
D14*
X81400000Y-64725000D02*
G75*
G02*
X81600000Y-64725000I100000J0D01*
G01*
X81600000Y-64725000D02*
G75*
G02*
X81400000Y-64725000I-100000J0D01*
G01*
D12*
%TO.C,R100*%
X71381936Y-84540000D02*
X75736064Y-84540000D01*
X71381936Y-87960000D02*
X75736064Y-87960000D01*
%TO.C,C300*%
X72920000Y-91392164D02*
X72920000Y-91607836D01*
X73640000Y-91392164D02*
X73640000Y-91607836D01*
%TO.C,R300*%
X62370000Y-63346359D02*
X62370000Y-63653641D01*
X63130000Y-63346359D02*
X63130000Y-63653641D01*
%TO.C,R306*%
X86870000Y-63346359D02*
X86870000Y-63653641D01*
X87630000Y-63346359D02*
X87630000Y-63653641D01*
%TO.C,R305*%
X85870000Y-61653641D02*
X85870000Y-61346359D01*
X86630000Y-61653641D02*
X86630000Y-61346359D01*
D15*
%TO.C,L200*%
X78750000Y-75750000D02*
X78750000Y-89250000D01*
X78750000Y-89250000D02*
X82250000Y-89250000D01*
X82250000Y-75750000D02*
X78750000Y-75750000D01*
X88250000Y-89250000D02*
X91750000Y-89250000D01*
X91750000Y-75750000D02*
X88250000Y-75750000D01*
X91750000Y-89250000D02*
X91750000Y-75750000D01*
D12*
%TO.C,R301*%
X63403641Y-64620000D02*
X63096359Y-64620000D01*
X63403641Y-65380000D02*
X63096359Y-65380000D01*
%TO.C,C216*%
X94788748Y-77390000D02*
X96211252Y-77390000D01*
X94788748Y-80110000D02*
X96211252Y-80110000D01*
%TO.C,R302*%
X62380000Y-61653641D02*
X62380000Y-61346359D01*
X63140000Y-61653641D02*
X63140000Y-61346359D01*
%TO.C,C208*%
X75390000Y-66857836D02*
X75390000Y-66642164D01*
X76110000Y-66857836D02*
X76110000Y-66642164D01*
%TO.C,R303*%
X63370000Y-61653641D02*
X63370000Y-61346359D01*
X64130000Y-61653641D02*
X64130000Y-61346359D01*
%TO.C,C102*%
X74449000Y-79211252D02*
X74449000Y-77788748D01*
X77169000Y-79211252D02*
X77169000Y-77788748D01*
D14*
%TO.C,D301*%
X92500000Y-58000000D02*
X92500000Y-58000000D01*
X92500000Y-58000000D02*
X92500000Y-58000000D01*
X92600000Y-58000000D02*
X92600000Y-58000000D01*
X92500000Y-58000000D02*
G75*
G02*
X92600000Y-58000000I50000J0D01*
G01*
X92600000Y-58000000D02*
G75*
G02*
X92500000Y-58000000I-50000J0D01*
G01*
X92600000Y-58000000D02*
G75*
G02*
X92500000Y-58000000I-50000J0D01*
G01*
D12*
%TO.C,U100*%
X65249000Y-86250000D02*
X65249000Y-85450000D01*
X65249000Y-86250000D02*
X65249000Y-87050000D01*
X68369000Y-86250000D02*
X68369000Y-85450000D01*
X68369000Y-86250000D02*
X68369000Y-87050000D01*
D16*
X65959000Y-88500000D02*
G75*
G02*
X65659000Y-88500000I-150000J0D01*
G01*
X65659000Y-88500000D02*
G75*
G02*
X65959000Y-88500000I150000J0D01*
G01*
D12*
%TO.C,R304*%
X86870000Y-61653641D02*
X86870000Y-61346359D01*
X87630000Y-61653641D02*
X87630000Y-61346359D01*
%TO.C,C201*%
X92640000Y-63211252D02*
X92640000Y-61788748D01*
X95360000Y-63211252D02*
X95360000Y-61788748D01*
D13*
%TO.C,U300*%
X71500000Y-62567500D02*
X71500000Y-58167500D01*
X74500000Y-62567500D02*
X74500000Y-58167500D01*
D14*
X71875000Y-65182500D02*
G75*
G02*
X71675000Y-65182500I-100000J0D01*
G01*
X71675000Y-65182500D02*
G75*
G02*
X71875000Y-65182500I100000J0D01*
G01*
%TD*%
M02*
