M48
; DRILL file {KiCad 9.0.1} date 2025-07-05T19:11:34+0100
; FORMAT={-:-/ absolute / metric / decimal}
; #@! TF.CreationDate,2025-07-05T19:11:34+01:00
; #@! TF.GenerationSoftware,Kicad,Pcbnew,9.0.1
; #@! TF.FileFunction,Plated,1,4,PTH
FMAT,2
METRIC
; #@! TA.AperFunction,Plated,PTH,ViaDrill
T1C0.300
; #@! TA.AperFunction,Plated,PTH,ViaDrill
T2C0.400
; #@! TA.AperFunction,Plated,PTH,ViaDrill
T3C0.500
; #@! TA.AperFunction,Plated,PTH,ComponentDrill
T4C0.500
; #@! TA.AperFunction,Plated,PTH,ComponentDrill
T5C1.000
; #@! TA.AperFunction,Plated,PTH,ComponentDrill
T6C1.700
; #@! TA.AperFunction,Plated,PTH,ComponentDrill
T7C3.200
%
G90
G05
T1
X52.75Y-60.25
X52.75Y-67.75
X52.75Y-72.75
X52.75Y-75.25
X52.75Y-77.75
X52.75Y-82.75
X52.75Y-90.25
X55.25Y-60.25
X55.25Y-67.75
X55.25Y-70.25
X55.25Y-72.75
X55.25Y-75.25
X55.25Y-77.75
X55.25Y-80.25
X55.25Y-82.75
X55.25Y-90.25
X57.75Y-60.25
X57.75Y-67.75
X57.75Y-70.25
X57.75Y-72.75
X57.75Y-75.25
X57.75Y-77.75
X57.75Y-80.25
X57.75Y-82.75
X57.75Y-90.25
X59.65Y-56.75
X60.25Y-52.75
X60.25Y-60.25
X60.25Y-67.75
X60.25Y-70.25
X60.25Y-72.75
X60.25Y-75.25
X60.25Y-77.75
X60.25Y-80.25
X60.25Y-82.75
X60.25Y-92.75
X60.25Y-97.75
X61.5Y-92.25
X61.5Y-93.25
X61.5Y-98.75
X61.93Y-62.01
X61.93Y-62.99
X62.5Y-91.25
X62.5Y-92.25
X62.5Y-93.25
X62.75Y-67.75
X62.75Y-70.25
X62.75Y-75.25
X62.75Y-80.25
X63.0Y-51.25
X63.0Y-52.0
X63.0Y-52.75
X63.0Y-53.5
X63.0Y-54.25
X63.0Y-55.0
X63.0Y-55.75
X63.0Y-94.25
X63.0Y-95.0
X63.0Y-95.75
X63.0Y-96.5
X63.0Y-97.25
X63.0Y-98.0
X63.0Y-98.75
X63.25Y-90.25
X63.52Y-85.95
X63.75Y-51.25
X63.75Y-52.0
X63.75Y-52.75
X63.75Y-53.5
X63.75Y-54.25
X63.75Y-55.0
X63.75Y-55.75
X63.75Y-94.25
X63.75Y-95.0
X63.75Y-95.75
X63.75Y-96.5
X63.75Y-97.25
X63.75Y-98.0
X63.75Y-98.75
X64.0Y-64.0
X64.5Y-51.25
X64.5Y-52.0
X64.5Y-52.75
X64.5Y-53.5
X64.5Y-54.25
X64.5Y-55.0
X64.5Y-55.75
X64.5Y-94.25
X64.5Y-95.0
X64.5Y-95.75
X64.5Y-96.5
X64.5Y-97.25
X64.5Y-98.0
X64.5Y-98.75
X64.58Y-60.99
X65.25Y-51.25
X65.25Y-52.0
X65.25Y-52.75
X65.25Y-53.5
X65.25Y-54.25
X65.25Y-55.0
X65.25Y-55.75
X65.25Y-72.75
X65.25Y-77.75
X65.25Y-80.25
X65.25Y-94.25
X65.25Y-95.0
X65.25Y-95.75
X65.25Y-96.5
X65.25Y-97.25
X65.25Y-98.0
X65.25Y-98.75
X65.75Y-66.75
X66.0Y-51.25
X66.0Y-52.0
X66.0Y-52.75
X66.0Y-53.5
X66.0Y-54.25
X66.0Y-55.0
X66.0Y-55.75
X66.0Y-89.0
X66.0Y-94.25
X66.0Y-95.0
X66.0Y-95.75
X66.0Y-96.5
X66.0Y-97.25
X66.0Y-98.0
X66.0Y-98.75
X66.015Y-69.035
X66.25Y-90.75
X66.25Y-91.75
X66.25Y-92.75
X66.75Y-65.75
X66.75Y-69.35
X66.76Y-66.73
X67.25Y-89.75
X67.25Y-90.75
X67.25Y-91.75
X67.25Y-92.75
X67.75Y-69.35
X67.75Y-72.05
X67.75Y-77.75
X68.0Y-51.25
X68.0Y-52.0
X68.0Y-52.75
X68.0Y-53.5
X68.0Y-54.25
X68.0Y-55.0
X68.0Y-55.75
X68.0Y-94.25
X68.0Y-95.0
X68.0Y-95.75
X68.0Y-96.5
X68.0Y-97.25
X68.0Y-98.0
X68.0Y-98.75
X68.25Y-88.75
X68.25Y-89.75
X68.75Y-51.25
X68.75Y-52.0
X68.75Y-52.75
X68.75Y-53.5
X68.75Y-54.25
X68.75Y-55.0
X68.75Y-55.75
X68.75Y-72.05
X68.75Y-94.25
X68.75Y-95.0
X68.75Y-95.75
X68.75Y-96.5
X68.75Y-97.25
X68.75Y-98.0
X68.75Y-98.75
X69.15Y-63.25
X69.15Y-63.9
X69.25Y-85.75
X69.25Y-86.75
X69.25Y-87.75
X69.25Y-88.75
X69.25Y-89.75
X69.35Y-69.518
X69.5Y-51.25
X69.5Y-52.0
X69.5Y-52.75
X69.5Y-53.5
X69.5Y-54.25
X69.5Y-55.0
X69.5Y-55.75
X69.5Y-94.25
X69.5Y-95.0
X69.5Y-95.75
X69.5Y-96.5
X69.5Y-97.25
X69.5Y-98.0
X69.5Y-98.75
X69.656Y-67.436
X69.8Y-63.25
X69.8Y-63.9
X70.25Y-51.25
X70.25Y-52.0
X70.25Y-52.75
X70.25Y-53.5
X70.25Y-54.25
X70.25Y-55.0
X70.25Y-55.75
X70.25Y-88.75
X70.25Y-89.75
X70.25Y-94.25
X70.25Y-95.0
X70.25Y-95.75
X70.25Y-96.5
X70.25Y-97.25
X70.25Y-98.0
X70.25Y-98.75
X70.45Y-63.25
X70.45Y-63.9
X70.492Y-69.968
X71.0Y-51.25
X71.0Y-52.0
X71.0Y-52.75
X71.0Y-53.5
X71.0Y-54.25
X71.0Y-55.0
X71.0Y-55.75
X71.0Y-94.25
X71.0Y-95.0
X71.0Y-95.75
X71.0Y-96.5
X71.0Y-97.25
X71.0Y-98.0
X71.0Y-98.75
X71.25Y-88.75
X71.25Y-89.75
X71.561Y-71.021
X72.35Y-72.95
X72.75Y-55.25
X73.28Y-92.74
X73.625Y-62.15
X73.631Y-59.647
X73.64Y-58.79
X73.75Y-81.25
X73.75Y-82.25
X73.75Y-83.25
X74.0Y-90.0
X74.07Y-74.733
X74.75Y-81.25
X74.75Y-82.25
X74.75Y-83.25
X74.786Y-97.55
X75.25Y-52.75
X75.25Y-55.25
X75.425Y-91.14
X75.47Y-96.04
X75.65Y-72.76
X75.75Y-81.25
X75.75Y-82.25
X75.75Y-83.25
X75.75Y-84.25
X76.36Y-62.13
X76.375Y-58.5
X76.72Y-91.5
X76.75Y-81.25
X76.75Y-82.25
X76.75Y-83.25
X76.75Y-84.25
X76.948Y-61.53
X77.04Y-59.034
X77.64Y-58.5
X77.75Y-55.25
X77.75Y-83.25
X77.75Y-84.25
X77.75Y-85.25
X77.75Y-86.25
X77.75Y-87.25
X77.75Y-90.0
X77.75Y-95.25
X78.219Y-70.5
X78.22Y-74.88
X78.75Y-83.25
X78.75Y-84.25
X78.75Y-85.25
X78.75Y-86.25
X78.75Y-87.25
X78.925Y-71.25
X79.0Y-51.25
X79.0Y-52.0
X79.0Y-52.75
X79.0Y-53.5
X79.0Y-54.25
X79.0Y-55.0
X79.0Y-55.75
X79.0Y-94.25
X79.0Y-95.0
X79.0Y-95.75
X79.0Y-96.5
X79.0Y-97.25
X79.0Y-98.0
X79.0Y-98.75
X79.75Y-51.25
X79.75Y-52.0
X79.75Y-52.75
X79.75Y-53.5
X79.75Y-54.25
X79.75Y-55.0
X79.75Y-55.75
X79.75Y-84.25
X79.75Y-85.25
X79.75Y-86.25
X79.75Y-87.25
X79.75Y-94.25
X79.75Y-95.0
X79.75Y-95.75
X79.75Y-96.5
X79.75Y-97.25
X79.75Y-98.0
X79.75Y-98.75
X80.25Y-77.75
X80.475Y-65.1
X80.5Y-51.25
X80.5Y-52.0
X80.5Y-52.75
X80.5Y-53.5
X80.5Y-54.25
X80.5Y-55.0
X80.5Y-55.75
X80.5Y-94.25
X80.5Y-95.0
X80.5Y-95.75
X80.5Y-96.5
X80.5Y-97.25
X80.5Y-98.0
X80.5Y-98.75
X81.25Y-51.25
X81.25Y-52.0
X81.25Y-52.75
X81.25Y-53.5
X81.25Y-54.25
X81.25Y-55.0
X81.25Y-55.75
X81.25Y-94.25
X81.25Y-95.0
X81.25Y-95.75
X81.25Y-96.5
X81.25Y-97.25
X81.25Y-98.0
X81.25Y-98.75
X82.0Y-51.25
X82.0Y-52.0
X82.0Y-52.75
X82.0Y-53.5
X82.0Y-54.25
X82.0Y-55.0
X82.0Y-55.75
X82.0Y-94.25
X82.0Y-95.0
X82.0Y-95.75
X82.0Y-96.5
X82.0Y-97.25
X82.0Y-98.0
X82.0Y-98.75
X82.75Y-80.25
X84.0Y-51.25
X84.0Y-52.0
X84.0Y-52.75
X84.0Y-53.5
X84.0Y-54.25
X84.0Y-55.0
X84.0Y-55.75
X84.0Y-94.25
X84.0Y-95.0
X84.0Y-95.75
X84.0Y-96.5
X84.0Y-97.25
X84.0Y-98.0
X84.0Y-98.75
X84.75Y-51.25
X84.75Y-52.0
X84.75Y-52.75
X84.75Y-53.5
X84.75Y-54.25
X84.75Y-55.0
X84.75Y-55.75
X84.75Y-94.25
X84.75Y-95.0
X84.75Y-95.75
X84.75Y-96.5
X84.75Y-97.25
X84.75Y-98.0
X84.75Y-98.75
X85.15Y-63.25
X85.15Y-63.95
X85.25Y-80.25
X85.38Y-61.11
X85.41Y-62.01
X85.5Y-51.25
X85.5Y-52.0
X85.5Y-52.75
X85.5Y-53.5
X85.5Y-54.25
X85.5Y-55.0
X85.5Y-55.75
X85.5Y-94.25
X85.5Y-95.0
X85.5Y-95.75
X85.5Y-96.5
X85.5Y-97.25
X85.5Y-98.0
X85.5Y-98.75
X85.85Y-63.25
X85.85Y-63.95
X86.25Y-51.25
X86.25Y-52.0
X86.25Y-52.75
X86.25Y-53.5
X86.25Y-54.25
X86.25Y-55.0
X86.25Y-55.75
X86.25Y-94.25
X86.25Y-95.0
X86.25Y-95.75
X86.25Y-96.5
X86.25Y-97.25
X86.25Y-98.0
X86.25Y-98.75
X86.55Y-63.25
X87.0Y-51.25
X87.0Y-52.0
X87.0Y-52.75
X87.0Y-53.5
X87.0Y-54.25
X87.0Y-55.0
X87.0Y-55.75
X87.0Y-94.25
X87.0Y-95.0
X87.0Y-95.75
X87.0Y-96.5
X87.0Y-97.25
X87.0Y-98.0
X87.0Y-98.75
X88.07Y-62.01
X88.07Y-63.0
X88.07Y-64.01
X88.35Y-61.05
X89.49Y-61.8
X89.5Y-60.25
X89.5Y-64.75
X89.55Y-63.25
X90.25Y-52.75
X90.25Y-84.25
X90.25Y-95.25
X90.25Y-97.75
X90.35Y-56.75
X90.49Y-61.8
X90.5Y-60.25
X90.5Y-64.75
X90.55Y-63.25
X91.25Y-83.25
X91.25Y-84.25
X91.49Y-61.8
X91.5Y-60.25
X91.5Y-64.75
X91.55Y-63.25
X92.25Y-73.5
X92.25Y-74.75
X92.25Y-76.0
X92.782Y-71.382
X92.99Y-61.8
X93.0Y-60.25
X93.0Y-63.25
X93.0Y-64.75
X93.25Y-77.75
X93.25Y-78.75
X93.25Y-79.75
X93.25Y-81.25
X93.25Y-82.25
X93.25Y-83.25
X93.25Y-84.75
X93.25Y-85.75
X93.25Y-86.75
X93.25Y-88.0
X93.25Y-89.0
X93.25Y-90.0
X93.42Y-70.42
X93.43Y-68.42
X93.99Y-61.8
X94.0Y-60.25
X94.0Y-63.25
X94.0Y-64.75
X94.25Y-88.0
X94.25Y-89.0
X94.25Y-90.0
X94.37Y-67.225
X94.99Y-61.8
X95.0Y-60.25
X95.0Y-63.25
X95.0Y-64.75
X96.25Y-61.24
X96.65Y-88.05
X96.65Y-89.05
X96.65Y-90.05
X97.51Y-61.24
X97.65Y-81.25
X97.65Y-82.25
X97.65Y-86.75
X97.75Y-57.75
X97.75Y-60.25
X97.75Y-77.75
X97.75Y-78.75
X97.75Y-79.75
X97.75Y-87.75
X97.75Y-90.25
X98.34Y-69.22
T2
X53.5Y-61.75
X53.5Y-63.0
X53.5Y-64.25
X53.5Y-65.5
X53.5Y-84.25
X53.5Y-85.5
X53.5Y-86.75
X53.5Y-88.0
X54.75Y-61.75
X54.75Y-63.0
X54.75Y-64.25
X54.75Y-65.5
X54.75Y-84.25
X54.75Y-85.5
X54.75Y-86.75
X54.75Y-88.0
X56.0Y-61.75
X56.0Y-63.0
X56.0Y-64.25
X56.0Y-65.5
X56.0Y-84.25
X56.0Y-85.5
X56.0Y-86.75
X56.0Y-88.0
X57.25Y-61.75
X57.25Y-63.0
X57.25Y-64.25
X57.25Y-65.5
X57.25Y-84.25
X57.25Y-85.5
X57.25Y-86.75
X57.25Y-88.0
X58.5Y-61.75
X58.5Y-63.0
X58.5Y-64.25
X58.5Y-65.5
X58.5Y-84.25
X58.5Y-85.5
X58.5Y-86.75
X58.5Y-88.0
X69.25Y-80.5
X69.25Y-82.0
X70.5Y-79.0
X70.5Y-80.5
X70.5Y-82.0
X71.4Y-66.24
X71.75Y-79.0
X71.75Y-80.5
X71.75Y-82.0
X73.25Y-65.25
X74.0Y-69.75
X74.0Y-71.25
X74.75Y-65.25
X74.95Y-77.75
X75.0Y-79.25
X76.5Y-79.25
X76.55Y-77.75
X76.67Y-66.29
X80.25Y-70.0
X80.25Y-71.25
X80.25Y-72.5
X81.285Y-65.85
X81.29Y-66.75
X82.0Y-70.0
X82.0Y-71.25
X82.0Y-72.5
X82.555Y-65.85
X82.56Y-66.75
X83.5Y-70.0
X83.5Y-71.25
X83.5Y-72.5
X83.825Y-65.85
X83.83Y-66.75
X87.5Y-68.25
X87.5Y-69.5
X87.5Y-70.75
X88.35Y-66.7
X89.0Y-68.25
X89.0Y-69.5
X89.0Y-70.75
X89.65Y-66.7
X90.5Y-68.25
X90.5Y-69.5
X90.5Y-70.75
X90.9Y-66.7
T3
X77.2Y-72.775
X78.55Y-67.7
X78.861Y-68.859
X79.173Y-66.674
X89.65Y-72.185
X90.91Y-72.18
T4
X52.6Y-55.0
X52.6Y-95.0
X53.303Y-53.303
X53.303Y-56.697
X53.303Y-93.303
X53.303Y-96.697
X55.0Y-52.6
X55.0Y-57.4
X55.0Y-92.6
X55.0Y-97.4
X56.697Y-53.303
X56.697Y-56.697
X56.697Y-93.303
X56.697Y-96.697
X57.4Y-55.0
X57.4Y-95.0
X92.6Y-55.0
X92.6Y-95.0
X93.303Y-53.303
X93.303Y-56.697
X93.303Y-93.303
X93.303Y-96.697
X95.0Y-52.6
X95.0Y-57.4
X95.0Y-92.6
X95.0Y-97.4
X96.697Y-53.303
X96.697Y-56.697
X96.697Y-93.303
X96.697Y-96.697
X97.4Y-55.0
X97.4Y-95.0
T5
X53.162Y-69.5
X53.162Y-80.5
X61.5Y-53.25
X61.5Y-96.75
X72.5Y-53.25
X72.5Y-96.75
X77.5Y-53.25
X77.5Y-96.75
X88.5Y-53.25
X88.5Y-96.75
T6
X63.162Y-72.5
X63.162Y-77.5
X64.5Y-58.25
X64.5Y-91.75
X69.5Y-58.25
X69.5Y-91.75
X80.5Y-58.25
X80.5Y-91.75
X85.5Y-58.25
X85.5Y-91.75
T7
X55.0Y-55.0
X55.0Y-95.0
X95.0Y-55.0
X95.0Y-95.0
M30
